G04 #@! TF.GenerationSoftware,KiCad,Pcbnew,(5.1.2-1)-1*
G04 #@! TF.CreationDate,2020-03-21T18:46:45+05:30*
G04 #@! TF.ProjectId,RedPill,52656450-696c-46c2-9e6b-696361645f70,rev?*
G04 #@! TF.SameCoordinates,Original*
G04 #@! TF.FileFunction,Paste,Bot*
G04 #@! TF.FilePolarity,Positive*
%FSLAX46Y46*%
G04 Gerber Fmt 4.6, Leading zero omitted, Abs format (unit mm)*
G04 Created by KiCad (PCBNEW (5.1.2-1)-1) date 2020-03-21 18:46:45*
%MOMM*%
%LPD*%
G04 APERTURE LIST*
%ADD10C,0.100000*%
%ADD11C,1.150000*%
%ADD12R,0.800000X0.900000*%
G04 APERTURE END LIST*
D10*
G36*
X28806505Y-16666204D02*
G01*
X28830773Y-16669804D01*
X28854572Y-16675765D01*
X28877671Y-16684030D01*
X28899850Y-16694520D01*
X28920893Y-16707132D01*
X28940599Y-16721747D01*
X28958777Y-16738223D01*
X28975253Y-16756401D01*
X28989868Y-16776107D01*
X29002480Y-16797150D01*
X29012970Y-16819329D01*
X29021235Y-16842428D01*
X29027196Y-16866227D01*
X29030796Y-16890495D01*
X29032000Y-16914999D01*
X29032000Y-17815001D01*
X29030796Y-17839505D01*
X29027196Y-17863773D01*
X29021235Y-17887572D01*
X29012970Y-17910671D01*
X29002480Y-17932850D01*
X28989868Y-17953893D01*
X28975253Y-17973599D01*
X28958777Y-17991777D01*
X28940599Y-18008253D01*
X28920893Y-18022868D01*
X28899850Y-18035480D01*
X28877671Y-18045970D01*
X28854572Y-18054235D01*
X28830773Y-18060196D01*
X28806505Y-18063796D01*
X28782001Y-18065000D01*
X28131999Y-18065000D01*
X28107495Y-18063796D01*
X28083227Y-18060196D01*
X28059428Y-18054235D01*
X28036329Y-18045970D01*
X28014150Y-18035480D01*
X27993107Y-18022868D01*
X27973401Y-18008253D01*
X27955223Y-17991777D01*
X27938747Y-17973599D01*
X27924132Y-17953893D01*
X27911520Y-17932850D01*
X27901030Y-17910671D01*
X27892765Y-17887572D01*
X27886804Y-17863773D01*
X27883204Y-17839505D01*
X27882000Y-17815001D01*
X27882000Y-16914999D01*
X27883204Y-16890495D01*
X27886804Y-16866227D01*
X27892765Y-16842428D01*
X27901030Y-16819329D01*
X27911520Y-16797150D01*
X27924132Y-16776107D01*
X27938747Y-16756401D01*
X27955223Y-16738223D01*
X27973401Y-16721747D01*
X27993107Y-16707132D01*
X28014150Y-16694520D01*
X28036329Y-16684030D01*
X28059428Y-16675765D01*
X28083227Y-16669804D01*
X28107495Y-16666204D01*
X28131999Y-16665000D01*
X28782001Y-16665000D01*
X28806505Y-16666204D01*
X28806505Y-16666204D01*
G37*
D11*
X28457000Y-17365000D03*
D10*
G36*
X26756505Y-16666204D02*
G01*
X26780773Y-16669804D01*
X26804572Y-16675765D01*
X26827671Y-16684030D01*
X26849850Y-16694520D01*
X26870893Y-16707132D01*
X26890599Y-16721747D01*
X26908777Y-16738223D01*
X26925253Y-16756401D01*
X26939868Y-16776107D01*
X26952480Y-16797150D01*
X26962970Y-16819329D01*
X26971235Y-16842428D01*
X26977196Y-16866227D01*
X26980796Y-16890495D01*
X26982000Y-16914999D01*
X26982000Y-17815001D01*
X26980796Y-17839505D01*
X26977196Y-17863773D01*
X26971235Y-17887572D01*
X26962970Y-17910671D01*
X26952480Y-17932850D01*
X26939868Y-17953893D01*
X26925253Y-17973599D01*
X26908777Y-17991777D01*
X26890599Y-18008253D01*
X26870893Y-18022868D01*
X26849850Y-18035480D01*
X26827671Y-18045970D01*
X26804572Y-18054235D01*
X26780773Y-18060196D01*
X26756505Y-18063796D01*
X26732001Y-18065000D01*
X26081999Y-18065000D01*
X26057495Y-18063796D01*
X26033227Y-18060196D01*
X26009428Y-18054235D01*
X25986329Y-18045970D01*
X25964150Y-18035480D01*
X25943107Y-18022868D01*
X25923401Y-18008253D01*
X25905223Y-17991777D01*
X25888747Y-17973599D01*
X25874132Y-17953893D01*
X25861520Y-17932850D01*
X25851030Y-17910671D01*
X25842765Y-17887572D01*
X25836804Y-17863773D01*
X25833204Y-17839505D01*
X25832000Y-17815001D01*
X25832000Y-16914999D01*
X25833204Y-16890495D01*
X25836804Y-16866227D01*
X25842765Y-16842428D01*
X25851030Y-16819329D01*
X25861520Y-16797150D01*
X25874132Y-16776107D01*
X25888747Y-16756401D01*
X25905223Y-16738223D01*
X25923401Y-16721747D01*
X25943107Y-16707132D01*
X25964150Y-16694520D01*
X25986329Y-16684030D01*
X26009428Y-16675765D01*
X26033227Y-16669804D01*
X26057495Y-16666204D01*
X26081999Y-16665000D01*
X26732001Y-16665000D01*
X26756505Y-16666204D01*
X26756505Y-16666204D01*
G37*
D11*
X26407000Y-17365000D03*
D12*
X14965200Y-23492000D03*
X14015200Y-25492000D03*
X15915200Y-25492000D03*
D10*
G36*
X61382005Y-20891204D02*
G01*
X61406273Y-20894804D01*
X61430072Y-20900765D01*
X61453171Y-20909030D01*
X61475350Y-20919520D01*
X61496393Y-20932132D01*
X61516099Y-20946747D01*
X61534277Y-20963223D01*
X61550753Y-20981401D01*
X61565368Y-21001107D01*
X61577980Y-21022150D01*
X61588470Y-21044329D01*
X61596735Y-21067428D01*
X61602696Y-21091227D01*
X61606296Y-21115495D01*
X61607500Y-21139999D01*
X61607500Y-22040001D01*
X61606296Y-22064505D01*
X61602696Y-22088773D01*
X61596735Y-22112572D01*
X61588470Y-22135671D01*
X61577980Y-22157850D01*
X61565368Y-22178893D01*
X61550753Y-22198599D01*
X61534277Y-22216777D01*
X61516099Y-22233253D01*
X61496393Y-22247868D01*
X61475350Y-22260480D01*
X61453171Y-22270970D01*
X61430072Y-22279235D01*
X61406273Y-22285196D01*
X61382005Y-22288796D01*
X61357501Y-22290000D01*
X60707499Y-22290000D01*
X60682995Y-22288796D01*
X60658727Y-22285196D01*
X60634928Y-22279235D01*
X60611829Y-22270970D01*
X60589650Y-22260480D01*
X60568607Y-22247868D01*
X60548901Y-22233253D01*
X60530723Y-22216777D01*
X60514247Y-22198599D01*
X60499632Y-22178893D01*
X60487020Y-22157850D01*
X60476530Y-22135671D01*
X60468265Y-22112572D01*
X60462304Y-22088773D01*
X60458704Y-22064505D01*
X60457500Y-22040001D01*
X60457500Y-21139999D01*
X60458704Y-21115495D01*
X60462304Y-21091227D01*
X60468265Y-21067428D01*
X60476530Y-21044329D01*
X60487020Y-21022150D01*
X60499632Y-21001107D01*
X60514247Y-20981401D01*
X60530723Y-20963223D01*
X60548901Y-20946747D01*
X60568607Y-20932132D01*
X60589650Y-20919520D01*
X60611829Y-20909030D01*
X60634928Y-20900765D01*
X60658727Y-20894804D01*
X60682995Y-20891204D01*
X60707499Y-20890000D01*
X61357501Y-20890000D01*
X61382005Y-20891204D01*
X61382005Y-20891204D01*
G37*
D11*
X61032500Y-21590000D03*
D10*
G36*
X59332005Y-20891204D02*
G01*
X59356273Y-20894804D01*
X59380072Y-20900765D01*
X59403171Y-20909030D01*
X59425350Y-20919520D01*
X59446393Y-20932132D01*
X59466099Y-20946747D01*
X59484277Y-20963223D01*
X59500753Y-20981401D01*
X59515368Y-21001107D01*
X59527980Y-21022150D01*
X59538470Y-21044329D01*
X59546735Y-21067428D01*
X59552696Y-21091227D01*
X59556296Y-21115495D01*
X59557500Y-21139999D01*
X59557500Y-22040001D01*
X59556296Y-22064505D01*
X59552696Y-22088773D01*
X59546735Y-22112572D01*
X59538470Y-22135671D01*
X59527980Y-22157850D01*
X59515368Y-22178893D01*
X59500753Y-22198599D01*
X59484277Y-22216777D01*
X59466099Y-22233253D01*
X59446393Y-22247868D01*
X59425350Y-22260480D01*
X59403171Y-22270970D01*
X59380072Y-22279235D01*
X59356273Y-22285196D01*
X59332005Y-22288796D01*
X59307501Y-22290000D01*
X58657499Y-22290000D01*
X58632995Y-22288796D01*
X58608727Y-22285196D01*
X58584928Y-22279235D01*
X58561829Y-22270970D01*
X58539650Y-22260480D01*
X58518607Y-22247868D01*
X58498901Y-22233253D01*
X58480723Y-22216777D01*
X58464247Y-22198599D01*
X58449632Y-22178893D01*
X58437020Y-22157850D01*
X58426530Y-22135671D01*
X58418265Y-22112572D01*
X58412304Y-22088773D01*
X58408704Y-22064505D01*
X58407500Y-22040001D01*
X58407500Y-21139999D01*
X58408704Y-21115495D01*
X58412304Y-21091227D01*
X58418265Y-21067428D01*
X58426530Y-21044329D01*
X58437020Y-21022150D01*
X58449632Y-21001107D01*
X58464247Y-20981401D01*
X58480723Y-20963223D01*
X58498901Y-20946747D01*
X58518607Y-20932132D01*
X58539650Y-20919520D01*
X58561829Y-20909030D01*
X58584928Y-20900765D01*
X58608727Y-20894804D01*
X58632995Y-20891204D01*
X58657499Y-20890000D01*
X59307501Y-20890000D01*
X59332005Y-20891204D01*
X59332005Y-20891204D01*
G37*
D11*
X58982500Y-21590000D03*
D10*
G36*
X29868108Y-25148412D02*
G01*
X29892376Y-25152012D01*
X29916175Y-25157973D01*
X29939274Y-25166238D01*
X29961453Y-25176728D01*
X29982496Y-25189340D01*
X30002202Y-25203955D01*
X30020380Y-25220431D01*
X30480001Y-25680052D01*
X30496477Y-25698230D01*
X30511092Y-25717936D01*
X30523704Y-25738979D01*
X30534194Y-25761158D01*
X30542459Y-25784257D01*
X30548420Y-25808056D01*
X30552020Y-25832324D01*
X30553224Y-25856828D01*
X30552020Y-25881332D01*
X30548420Y-25905600D01*
X30542459Y-25929399D01*
X30534194Y-25952498D01*
X30523704Y-25974677D01*
X30511092Y-25995720D01*
X30496477Y-26015426D01*
X30480001Y-26033604D01*
X29843604Y-26670001D01*
X29825426Y-26686477D01*
X29805720Y-26701092D01*
X29784677Y-26713704D01*
X29762498Y-26724194D01*
X29739399Y-26732459D01*
X29715600Y-26738420D01*
X29691332Y-26742020D01*
X29666828Y-26743224D01*
X29642324Y-26742020D01*
X29618056Y-26738420D01*
X29594257Y-26732459D01*
X29571158Y-26724194D01*
X29548979Y-26713704D01*
X29527936Y-26701092D01*
X29508230Y-26686477D01*
X29490052Y-26670001D01*
X29030431Y-26210380D01*
X29013955Y-26192202D01*
X28999340Y-26172496D01*
X28986728Y-26151453D01*
X28976238Y-26129274D01*
X28967973Y-26106175D01*
X28962012Y-26082376D01*
X28958412Y-26058108D01*
X28957208Y-26033604D01*
X28958412Y-26009100D01*
X28962012Y-25984832D01*
X28967973Y-25961033D01*
X28976238Y-25937934D01*
X28986728Y-25915755D01*
X28999340Y-25894712D01*
X29013955Y-25875006D01*
X29030431Y-25856828D01*
X29666828Y-25220431D01*
X29685006Y-25203955D01*
X29704712Y-25189340D01*
X29725755Y-25176728D01*
X29747934Y-25166238D01*
X29771033Y-25157973D01*
X29794832Y-25152012D01*
X29819100Y-25148412D01*
X29843604Y-25147208D01*
X29868108Y-25148412D01*
X29868108Y-25148412D01*
G37*
D11*
X29755216Y-25945216D03*
D10*
G36*
X31317676Y-26597980D02*
G01*
X31341944Y-26601580D01*
X31365743Y-26607541D01*
X31388842Y-26615806D01*
X31411021Y-26626296D01*
X31432064Y-26638908D01*
X31451770Y-26653523D01*
X31469948Y-26669999D01*
X31929569Y-27129620D01*
X31946045Y-27147798D01*
X31960660Y-27167504D01*
X31973272Y-27188547D01*
X31983762Y-27210726D01*
X31992027Y-27233825D01*
X31997988Y-27257624D01*
X32001588Y-27281892D01*
X32002792Y-27306396D01*
X32001588Y-27330900D01*
X31997988Y-27355168D01*
X31992027Y-27378967D01*
X31983762Y-27402066D01*
X31973272Y-27424245D01*
X31960660Y-27445288D01*
X31946045Y-27464994D01*
X31929569Y-27483172D01*
X31293172Y-28119569D01*
X31274994Y-28136045D01*
X31255288Y-28150660D01*
X31234245Y-28163272D01*
X31212066Y-28173762D01*
X31188967Y-28182027D01*
X31165168Y-28187988D01*
X31140900Y-28191588D01*
X31116396Y-28192792D01*
X31091892Y-28191588D01*
X31067624Y-28187988D01*
X31043825Y-28182027D01*
X31020726Y-28173762D01*
X30998547Y-28163272D01*
X30977504Y-28150660D01*
X30957798Y-28136045D01*
X30939620Y-28119569D01*
X30479999Y-27659948D01*
X30463523Y-27641770D01*
X30448908Y-27622064D01*
X30436296Y-27601021D01*
X30425806Y-27578842D01*
X30417541Y-27555743D01*
X30411580Y-27531944D01*
X30407980Y-27507676D01*
X30406776Y-27483172D01*
X30407980Y-27458668D01*
X30411580Y-27434400D01*
X30417541Y-27410601D01*
X30425806Y-27387502D01*
X30436296Y-27365323D01*
X30448908Y-27344280D01*
X30463523Y-27324574D01*
X30479999Y-27306396D01*
X31116396Y-26669999D01*
X31134574Y-26653523D01*
X31154280Y-26638908D01*
X31175323Y-26626296D01*
X31197502Y-26615806D01*
X31220601Y-26607541D01*
X31244400Y-26601580D01*
X31268668Y-26597980D01*
X31293172Y-26596776D01*
X31317676Y-26597980D01*
X31317676Y-26597980D01*
G37*
D11*
X31204784Y-27394784D03*
D10*
G36*
X61382005Y-23431204D02*
G01*
X61406273Y-23434804D01*
X61430072Y-23440765D01*
X61453171Y-23449030D01*
X61475350Y-23459520D01*
X61496393Y-23472132D01*
X61516099Y-23486747D01*
X61534277Y-23503223D01*
X61550753Y-23521401D01*
X61565368Y-23541107D01*
X61577980Y-23562150D01*
X61588470Y-23584329D01*
X61596735Y-23607428D01*
X61602696Y-23631227D01*
X61606296Y-23655495D01*
X61607500Y-23679999D01*
X61607500Y-24580001D01*
X61606296Y-24604505D01*
X61602696Y-24628773D01*
X61596735Y-24652572D01*
X61588470Y-24675671D01*
X61577980Y-24697850D01*
X61565368Y-24718893D01*
X61550753Y-24738599D01*
X61534277Y-24756777D01*
X61516099Y-24773253D01*
X61496393Y-24787868D01*
X61475350Y-24800480D01*
X61453171Y-24810970D01*
X61430072Y-24819235D01*
X61406273Y-24825196D01*
X61382005Y-24828796D01*
X61357501Y-24830000D01*
X60707499Y-24830000D01*
X60682995Y-24828796D01*
X60658727Y-24825196D01*
X60634928Y-24819235D01*
X60611829Y-24810970D01*
X60589650Y-24800480D01*
X60568607Y-24787868D01*
X60548901Y-24773253D01*
X60530723Y-24756777D01*
X60514247Y-24738599D01*
X60499632Y-24718893D01*
X60487020Y-24697850D01*
X60476530Y-24675671D01*
X60468265Y-24652572D01*
X60462304Y-24628773D01*
X60458704Y-24604505D01*
X60457500Y-24580001D01*
X60457500Y-23679999D01*
X60458704Y-23655495D01*
X60462304Y-23631227D01*
X60468265Y-23607428D01*
X60476530Y-23584329D01*
X60487020Y-23562150D01*
X60499632Y-23541107D01*
X60514247Y-23521401D01*
X60530723Y-23503223D01*
X60548901Y-23486747D01*
X60568607Y-23472132D01*
X60589650Y-23459520D01*
X60611829Y-23449030D01*
X60634928Y-23440765D01*
X60658727Y-23434804D01*
X60682995Y-23431204D01*
X60707499Y-23430000D01*
X61357501Y-23430000D01*
X61382005Y-23431204D01*
X61382005Y-23431204D01*
G37*
D11*
X61032500Y-24130000D03*
D10*
G36*
X59332005Y-23431204D02*
G01*
X59356273Y-23434804D01*
X59380072Y-23440765D01*
X59403171Y-23449030D01*
X59425350Y-23459520D01*
X59446393Y-23472132D01*
X59466099Y-23486747D01*
X59484277Y-23503223D01*
X59500753Y-23521401D01*
X59515368Y-23541107D01*
X59527980Y-23562150D01*
X59538470Y-23584329D01*
X59546735Y-23607428D01*
X59552696Y-23631227D01*
X59556296Y-23655495D01*
X59557500Y-23679999D01*
X59557500Y-24580001D01*
X59556296Y-24604505D01*
X59552696Y-24628773D01*
X59546735Y-24652572D01*
X59538470Y-24675671D01*
X59527980Y-24697850D01*
X59515368Y-24718893D01*
X59500753Y-24738599D01*
X59484277Y-24756777D01*
X59466099Y-24773253D01*
X59446393Y-24787868D01*
X59425350Y-24800480D01*
X59403171Y-24810970D01*
X59380072Y-24819235D01*
X59356273Y-24825196D01*
X59332005Y-24828796D01*
X59307501Y-24830000D01*
X58657499Y-24830000D01*
X58632995Y-24828796D01*
X58608727Y-24825196D01*
X58584928Y-24819235D01*
X58561829Y-24810970D01*
X58539650Y-24800480D01*
X58518607Y-24787868D01*
X58498901Y-24773253D01*
X58480723Y-24756777D01*
X58464247Y-24738599D01*
X58449632Y-24718893D01*
X58437020Y-24697850D01*
X58426530Y-24675671D01*
X58418265Y-24652572D01*
X58412304Y-24628773D01*
X58408704Y-24604505D01*
X58407500Y-24580001D01*
X58407500Y-23679999D01*
X58408704Y-23655495D01*
X58412304Y-23631227D01*
X58418265Y-23607428D01*
X58426530Y-23584329D01*
X58437020Y-23562150D01*
X58449632Y-23541107D01*
X58464247Y-23521401D01*
X58480723Y-23503223D01*
X58498901Y-23486747D01*
X58518607Y-23472132D01*
X58539650Y-23459520D01*
X58561829Y-23449030D01*
X58584928Y-23440765D01*
X58608727Y-23434804D01*
X58632995Y-23431204D01*
X58657499Y-23430000D01*
X59307501Y-23430000D01*
X59332005Y-23431204D01*
X59332005Y-23431204D01*
G37*
D11*
X58982500Y-24130000D03*
D10*
G36*
X32662108Y-25148412D02*
G01*
X32686376Y-25152012D01*
X32710175Y-25157973D01*
X32733274Y-25166238D01*
X32755453Y-25176728D01*
X32776496Y-25189340D01*
X32796202Y-25203955D01*
X32814380Y-25220431D01*
X33274001Y-25680052D01*
X33290477Y-25698230D01*
X33305092Y-25717936D01*
X33317704Y-25738979D01*
X33328194Y-25761158D01*
X33336459Y-25784257D01*
X33342420Y-25808056D01*
X33346020Y-25832324D01*
X33347224Y-25856828D01*
X33346020Y-25881332D01*
X33342420Y-25905600D01*
X33336459Y-25929399D01*
X33328194Y-25952498D01*
X33317704Y-25974677D01*
X33305092Y-25995720D01*
X33290477Y-26015426D01*
X33274001Y-26033604D01*
X32637604Y-26670001D01*
X32619426Y-26686477D01*
X32599720Y-26701092D01*
X32578677Y-26713704D01*
X32556498Y-26724194D01*
X32533399Y-26732459D01*
X32509600Y-26738420D01*
X32485332Y-26742020D01*
X32460828Y-26743224D01*
X32436324Y-26742020D01*
X32412056Y-26738420D01*
X32388257Y-26732459D01*
X32365158Y-26724194D01*
X32342979Y-26713704D01*
X32321936Y-26701092D01*
X32302230Y-26686477D01*
X32284052Y-26670001D01*
X31824431Y-26210380D01*
X31807955Y-26192202D01*
X31793340Y-26172496D01*
X31780728Y-26151453D01*
X31770238Y-26129274D01*
X31761973Y-26106175D01*
X31756012Y-26082376D01*
X31752412Y-26058108D01*
X31751208Y-26033604D01*
X31752412Y-26009100D01*
X31756012Y-25984832D01*
X31761973Y-25961033D01*
X31770238Y-25937934D01*
X31780728Y-25915755D01*
X31793340Y-25894712D01*
X31807955Y-25875006D01*
X31824431Y-25856828D01*
X32460828Y-25220431D01*
X32479006Y-25203955D01*
X32498712Y-25189340D01*
X32519755Y-25176728D01*
X32541934Y-25166238D01*
X32565033Y-25157973D01*
X32588832Y-25152012D01*
X32613100Y-25148412D01*
X32637604Y-25147208D01*
X32662108Y-25148412D01*
X32662108Y-25148412D01*
G37*
D11*
X32549216Y-25945216D03*
D10*
G36*
X34111676Y-26597980D02*
G01*
X34135944Y-26601580D01*
X34159743Y-26607541D01*
X34182842Y-26615806D01*
X34205021Y-26626296D01*
X34226064Y-26638908D01*
X34245770Y-26653523D01*
X34263948Y-26669999D01*
X34723569Y-27129620D01*
X34740045Y-27147798D01*
X34754660Y-27167504D01*
X34767272Y-27188547D01*
X34777762Y-27210726D01*
X34786027Y-27233825D01*
X34791988Y-27257624D01*
X34795588Y-27281892D01*
X34796792Y-27306396D01*
X34795588Y-27330900D01*
X34791988Y-27355168D01*
X34786027Y-27378967D01*
X34777762Y-27402066D01*
X34767272Y-27424245D01*
X34754660Y-27445288D01*
X34740045Y-27464994D01*
X34723569Y-27483172D01*
X34087172Y-28119569D01*
X34068994Y-28136045D01*
X34049288Y-28150660D01*
X34028245Y-28163272D01*
X34006066Y-28173762D01*
X33982967Y-28182027D01*
X33959168Y-28187988D01*
X33934900Y-28191588D01*
X33910396Y-28192792D01*
X33885892Y-28191588D01*
X33861624Y-28187988D01*
X33837825Y-28182027D01*
X33814726Y-28173762D01*
X33792547Y-28163272D01*
X33771504Y-28150660D01*
X33751798Y-28136045D01*
X33733620Y-28119569D01*
X33273999Y-27659948D01*
X33257523Y-27641770D01*
X33242908Y-27622064D01*
X33230296Y-27601021D01*
X33219806Y-27578842D01*
X33211541Y-27555743D01*
X33205580Y-27531944D01*
X33201980Y-27507676D01*
X33200776Y-27483172D01*
X33201980Y-27458668D01*
X33205580Y-27434400D01*
X33211541Y-27410601D01*
X33219806Y-27387502D01*
X33230296Y-27365323D01*
X33242908Y-27344280D01*
X33257523Y-27324574D01*
X33273999Y-27306396D01*
X33910396Y-26669999D01*
X33928574Y-26653523D01*
X33948280Y-26638908D01*
X33969323Y-26626296D01*
X33991502Y-26615806D01*
X34014601Y-26607541D01*
X34038400Y-26601580D01*
X34062668Y-26597980D01*
X34087172Y-26596776D01*
X34111676Y-26597980D01*
X34111676Y-26597980D01*
G37*
D11*
X33998784Y-27394784D03*
D10*
G36*
X21556505Y-25080204D02*
G01*
X21580773Y-25083804D01*
X21604572Y-25089765D01*
X21627671Y-25098030D01*
X21649850Y-25108520D01*
X21670893Y-25121132D01*
X21690599Y-25135747D01*
X21708777Y-25152223D01*
X21725253Y-25170401D01*
X21739868Y-25190107D01*
X21752480Y-25211150D01*
X21762970Y-25233329D01*
X21771235Y-25256428D01*
X21777196Y-25280227D01*
X21780796Y-25304495D01*
X21782000Y-25328999D01*
X21782000Y-25979001D01*
X21780796Y-26003505D01*
X21777196Y-26027773D01*
X21771235Y-26051572D01*
X21762970Y-26074671D01*
X21752480Y-26096850D01*
X21739868Y-26117893D01*
X21725253Y-26137599D01*
X21708777Y-26155777D01*
X21690599Y-26172253D01*
X21670893Y-26186868D01*
X21649850Y-26199480D01*
X21627671Y-26209970D01*
X21604572Y-26218235D01*
X21580773Y-26224196D01*
X21556505Y-26227796D01*
X21532001Y-26229000D01*
X20631999Y-26229000D01*
X20607495Y-26227796D01*
X20583227Y-26224196D01*
X20559428Y-26218235D01*
X20536329Y-26209970D01*
X20514150Y-26199480D01*
X20493107Y-26186868D01*
X20473401Y-26172253D01*
X20455223Y-26155777D01*
X20438747Y-26137599D01*
X20424132Y-26117893D01*
X20411520Y-26096850D01*
X20401030Y-26074671D01*
X20392765Y-26051572D01*
X20386804Y-26027773D01*
X20383204Y-26003505D01*
X20382000Y-25979001D01*
X20382000Y-25328999D01*
X20383204Y-25304495D01*
X20386804Y-25280227D01*
X20392765Y-25256428D01*
X20401030Y-25233329D01*
X20411520Y-25211150D01*
X20424132Y-25190107D01*
X20438747Y-25170401D01*
X20455223Y-25152223D01*
X20473401Y-25135747D01*
X20493107Y-25121132D01*
X20514150Y-25108520D01*
X20536329Y-25098030D01*
X20559428Y-25089765D01*
X20583227Y-25083804D01*
X20607495Y-25080204D01*
X20631999Y-25079000D01*
X21532001Y-25079000D01*
X21556505Y-25080204D01*
X21556505Y-25080204D01*
G37*
D11*
X21082000Y-25654000D03*
D10*
G36*
X21556505Y-27130204D02*
G01*
X21580773Y-27133804D01*
X21604572Y-27139765D01*
X21627671Y-27148030D01*
X21649850Y-27158520D01*
X21670893Y-27171132D01*
X21690599Y-27185747D01*
X21708777Y-27202223D01*
X21725253Y-27220401D01*
X21739868Y-27240107D01*
X21752480Y-27261150D01*
X21762970Y-27283329D01*
X21771235Y-27306428D01*
X21777196Y-27330227D01*
X21780796Y-27354495D01*
X21782000Y-27378999D01*
X21782000Y-28029001D01*
X21780796Y-28053505D01*
X21777196Y-28077773D01*
X21771235Y-28101572D01*
X21762970Y-28124671D01*
X21752480Y-28146850D01*
X21739868Y-28167893D01*
X21725253Y-28187599D01*
X21708777Y-28205777D01*
X21690599Y-28222253D01*
X21670893Y-28236868D01*
X21649850Y-28249480D01*
X21627671Y-28259970D01*
X21604572Y-28268235D01*
X21580773Y-28274196D01*
X21556505Y-28277796D01*
X21532001Y-28279000D01*
X20631999Y-28279000D01*
X20607495Y-28277796D01*
X20583227Y-28274196D01*
X20559428Y-28268235D01*
X20536329Y-28259970D01*
X20514150Y-28249480D01*
X20493107Y-28236868D01*
X20473401Y-28222253D01*
X20455223Y-28205777D01*
X20438747Y-28187599D01*
X20424132Y-28167893D01*
X20411520Y-28146850D01*
X20401030Y-28124671D01*
X20392765Y-28101572D01*
X20386804Y-28077773D01*
X20383204Y-28053505D01*
X20382000Y-28029001D01*
X20382000Y-27378999D01*
X20383204Y-27354495D01*
X20386804Y-27330227D01*
X20392765Y-27306428D01*
X20401030Y-27283329D01*
X20411520Y-27261150D01*
X20424132Y-27240107D01*
X20438747Y-27220401D01*
X20455223Y-27202223D01*
X20473401Y-27185747D01*
X20493107Y-27171132D01*
X20514150Y-27158520D01*
X20536329Y-27148030D01*
X20559428Y-27139765D01*
X20583227Y-27133804D01*
X20607495Y-27130204D01*
X20631999Y-27129000D01*
X21532001Y-27129000D01*
X21556505Y-27130204D01*
X21556505Y-27130204D01*
G37*
D11*
X21082000Y-27704000D03*
D10*
G36*
X21556505Y-19492204D02*
G01*
X21580773Y-19495804D01*
X21604572Y-19501765D01*
X21627671Y-19510030D01*
X21649850Y-19520520D01*
X21670893Y-19533132D01*
X21690599Y-19547747D01*
X21708777Y-19564223D01*
X21725253Y-19582401D01*
X21739868Y-19602107D01*
X21752480Y-19623150D01*
X21762970Y-19645329D01*
X21771235Y-19668428D01*
X21777196Y-19692227D01*
X21780796Y-19716495D01*
X21782000Y-19740999D01*
X21782000Y-20391001D01*
X21780796Y-20415505D01*
X21777196Y-20439773D01*
X21771235Y-20463572D01*
X21762970Y-20486671D01*
X21752480Y-20508850D01*
X21739868Y-20529893D01*
X21725253Y-20549599D01*
X21708777Y-20567777D01*
X21690599Y-20584253D01*
X21670893Y-20598868D01*
X21649850Y-20611480D01*
X21627671Y-20621970D01*
X21604572Y-20630235D01*
X21580773Y-20636196D01*
X21556505Y-20639796D01*
X21532001Y-20641000D01*
X20631999Y-20641000D01*
X20607495Y-20639796D01*
X20583227Y-20636196D01*
X20559428Y-20630235D01*
X20536329Y-20621970D01*
X20514150Y-20611480D01*
X20493107Y-20598868D01*
X20473401Y-20584253D01*
X20455223Y-20567777D01*
X20438747Y-20549599D01*
X20424132Y-20529893D01*
X20411520Y-20508850D01*
X20401030Y-20486671D01*
X20392765Y-20463572D01*
X20386804Y-20439773D01*
X20383204Y-20415505D01*
X20382000Y-20391001D01*
X20382000Y-19740999D01*
X20383204Y-19716495D01*
X20386804Y-19692227D01*
X20392765Y-19668428D01*
X20401030Y-19645329D01*
X20411520Y-19623150D01*
X20424132Y-19602107D01*
X20438747Y-19582401D01*
X20455223Y-19564223D01*
X20473401Y-19547747D01*
X20493107Y-19533132D01*
X20514150Y-19520520D01*
X20536329Y-19510030D01*
X20559428Y-19501765D01*
X20583227Y-19495804D01*
X20607495Y-19492204D01*
X20631999Y-19491000D01*
X21532001Y-19491000D01*
X21556505Y-19492204D01*
X21556505Y-19492204D01*
G37*
D11*
X21082000Y-20066000D03*
D10*
G36*
X21556505Y-17442204D02*
G01*
X21580773Y-17445804D01*
X21604572Y-17451765D01*
X21627671Y-17460030D01*
X21649850Y-17470520D01*
X21670893Y-17483132D01*
X21690599Y-17497747D01*
X21708777Y-17514223D01*
X21725253Y-17532401D01*
X21739868Y-17552107D01*
X21752480Y-17573150D01*
X21762970Y-17595329D01*
X21771235Y-17618428D01*
X21777196Y-17642227D01*
X21780796Y-17666495D01*
X21782000Y-17690999D01*
X21782000Y-18341001D01*
X21780796Y-18365505D01*
X21777196Y-18389773D01*
X21771235Y-18413572D01*
X21762970Y-18436671D01*
X21752480Y-18458850D01*
X21739868Y-18479893D01*
X21725253Y-18499599D01*
X21708777Y-18517777D01*
X21690599Y-18534253D01*
X21670893Y-18548868D01*
X21649850Y-18561480D01*
X21627671Y-18571970D01*
X21604572Y-18580235D01*
X21580773Y-18586196D01*
X21556505Y-18589796D01*
X21532001Y-18591000D01*
X20631999Y-18591000D01*
X20607495Y-18589796D01*
X20583227Y-18586196D01*
X20559428Y-18580235D01*
X20536329Y-18571970D01*
X20514150Y-18561480D01*
X20493107Y-18548868D01*
X20473401Y-18534253D01*
X20455223Y-18517777D01*
X20438747Y-18499599D01*
X20424132Y-18479893D01*
X20411520Y-18458850D01*
X20401030Y-18436671D01*
X20392765Y-18413572D01*
X20386804Y-18389773D01*
X20383204Y-18365505D01*
X20382000Y-18341001D01*
X20382000Y-17690999D01*
X20383204Y-17666495D01*
X20386804Y-17642227D01*
X20392765Y-17618428D01*
X20401030Y-17595329D01*
X20411520Y-17573150D01*
X20424132Y-17552107D01*
X20438747Y-17532401D01*
X20455223Y-17514223D01*
X20473401Y-17497747D01*
X20493107Y-17483132D01*
X20514150Y-17470520D01*
X20536329Y-17460030D01*
X20559428Y-17451765D01*
X20583227Y-17445804D01*
X20607495Y-17442204D01*
X20631999Y-17441000D01*
X21532001Y-17441000D01*
X21556505Y-17442204D01*
X21556505Y-17442204D01*
G37*
D11*
X21082000Y-18016000D03*
D10*
G36*
X61349505Y-18301204D02*
G01*
X61373773Y-18304804D01*
X61397572Y-18310765D01*
X61420671Y-18319030D01*
X61442850Y-18329520D01*
X61463893Y-18342132D01*
X61483599Y-18356747D01*
X61501777Y-18373223D01*
X61518253Y-18391401D01*
X61532868Y-18411107D01*
X61545480Y-18432150D01*
X61555970Y-18454329D01*
X61564235Y-18477428D01*
X61570196Y-18501227D01*
X61573796Y-18525495D01*
X61575000Y-18549999D01*
X61575000Y-19450001D01*
X61573796Y-19474505D01*
X61570196Y-19498773D01*
X61564235Y-19522572D01*
X61555970Y-19545671D01*
X61545480Y-19567850D01*
X61532868Y-19588893D01*
X61518253Y-19608599D01*
X61501777Y-19626777D01*
X61483599Y-19643253D01*
X61463893Y-19657868D01*
X61442850Y-19670480D01*
X61420671Y-19680970D01*
X61397572Y-19689235D01*
X61373773Y-19695196D01*
X61349505Y-19698796D01*
X61325001Y-19700000D01*
X60674999Y-19700000D01*
X60650495Y-19698796D01*
X60626227Y-19695196D01*
X60602428Y-19689235D01*
X60579329Y-19680970D01*
X60557150Y-19670480D01*
X60536107Y-19657868D01*
X60516401Y-19643253D01*
X60498223Y-19626777D01*
X60481747Y-19608599D01*
X60467132Y-19588893D01*
X60454520Y-19567850D01*
X60444030Y-19545671D01*
X60435765Y-19522572D01*
X60429804Y-19498773D01*
X60426204Y-19474505D01*
X60425000Y-19450001D01*
X60425000Y-18549999D01*
X60426204Y-18525495D01*
X60429804Y-18501227D01*
X60435765Y-18477428D01*
X60444030Y-18454329D01*
X60454520Y-18432150D01*
X60467132Y-18411107D01*
X60481747Y-18391401D01*
X60498223Y-18373223D01*
X60516401Y-18356747D01*
X60536107Y-18342132D01*
X60557150Y-18329520D01*
X60579329Y-18319030D01*
X60602428Y-18310765D01*
X60626227Y-18304804D01*
X60650495Y-18301204D01*
X60674999Y-18300000D01*
X61325001Y-18300000D01*
X61349505Y-18301204D01*
X61349505Y-18301204D01*
G37*
D11*
X61000000Y-19000000D03*
D10*
G36*
X59299505Y-18301204D02*
G01*
X59323773Y-18304804D01*
X59347572Y-18310765D01*
X59370671Y-18319030D01*
X59392850Y-18329520D01*
X59413893Y-18342132D01*
X59433599Y-18356747D01*
X59451777Y-18373223D01*
X59468253Y-18391401D01*
X59482868Y-18411107D01*
X59495480Y-18432150D01*
X59505970Y-18454329D01*
X59514235Y-18477428D01*
X59520196Y-18501227D01*
X59523796Y-18525495D01*
X59525000Y-18549999D01*
X59525000Y-19450001D01*
X59523796Y-19474505D01*
X59520196Y-19498773D01*
X59514235Y-19522572D01*
X59505970Y-19545671D01*
X59495480Y-19567850D01*
X59482868Y-19588893D01*
X59468253Y-19608599D01*
X59451777Y-19626777D01*
X59433599Y-19643253D01*
X59413893Y-19657868D01*
X59392850Y-19670480D01*
X59370671Y-19680970D01*
X59347572Y-19689235D01*
X59323773Y-19695196D01*
X59299505Y-19698796D01*
X59275001Y-19700000D01*
X58624999Y-19700000D01*
X58600495Y-19698796D01*
X58576227Y-19695196D01*
X58552428Y-19689235D01*
X58529329Y-19680970D01*
X58507150Y-19670480D01*
X58486107Y-19657868D01*
X58466401Y-19643253D01*
X58448223Y-19626777D01*
X58431747Y-19608599D01*
X58417132Y-19588893D01*
X58404520Y-19567850D01*
X58394030Y-19545671D01*
X58385765Y-19522572D01*
X58379804Y-19498773D01*
X58376204Y-19474505D01*
X58375000Y-19450001D01*
X58375000Y-18549999D01*
X58376204Y-18525495D01*
X58379804Y-18501227D01*
X58385765Y-18477428D01*
X58394030Y-18454329D01*
X58404520Y-18432150D01*
X58417132Y-18411107D01*
X58431747Y-18391401D01*
X58448223Y-18373223D01*
X58466401Y-18356747D01*
X58486107Y-18342132D01*
X58507150Y-18329520D01*
X58529329Y-18319030D01*
X58552428Y-18310765D01*
X58576227Y-18304804D01*
X58600495Y-18301204D01*
X58624999Y-18300000D01*
X59275001Y-18300000D01*
X59299505Y-18301204D01*
X59299505Y-18301204D01*
G37*
D11*
X58950000Y-19000000D03*
D10*
G36*
X61399505Y-26301204D02*
G01*
X61423773Y-26304804D01*
X61447572Y-26310765D01*
X61470671Y-26319030D01*
X61492850Y-26329520D01*
X61513893Y-26342132D01*
X61533599Y-26356747D01*
X61551777Y-26373223D01*
X61568253Y-26391401D01*
X61582868Y-26411107D01*
X61595480Y-26432150D01*
X61605970Y-26454329D01*
X61614235Y-26477428D01*
X61620196Y-26501227D01*
X61623796Y-26525495D01*
X61625000Y-26549999D01*
X61625000Y-27450001D01*
X61623796Y-27474505D01*
X61620196Y-27498773D01*
X61614235Y-27522572D01*
X61605970Y-27545671D01*
X61595480Y-27567850D01*
X61582868Y-27588893D01*
X61568253Y-27608599D01*
X61551777Y-27626777D01*
X61533599Y-27643253D01*
X61513893Y-27657868D01*
X61492850Y-27670480D01*
X61470671Y-27680970D01*
X61447572Y-27689235D01*
X61423773Y-27695196D01*
X61399505Y-27698796D01*
X61375001Y-27700000D01*
X60724999Y-27700000D01*
X60700495Y-27698796D01*
X60676227Y-27695196D01*
X60652428Y-27689235D01*
X60629329Y-27680970D01*
X60607150Y-27670480D01*
X60586107Y-27657868D01*
X60566401Y-27643253D01*
X60548223Y-27626777D01*
X60531747Y-27608599D01*
X60517132Y-27588893D01*
X60504520Y-27567850D01*
X60494030Y-27545671D01*
X60485765Y-27522572D01*
X60479804Y-27498773D01*
X60476204Y-27474505D01*
X60475000Y-27450001D01*
X60475000Y-26549999D01*
X60476204Y-26525495D01*
X60479804Y-26501227D01*
X60485765Y-26477428D01*
X60494030Y-26454329D01*
X60504520Y-26432150D01*
X60517132Y-26411107D01*
X60531747Y-26391401D01*
X60548223Y-26373223D01*
X60566401Y-26356747D01*
X60586107Y-26342132D01*
X60607150Y-26329520D01*
X60629329Y-26319030D01*
X60652428Y-26310765D01*
X60676227Y-26304804D01*
X60700495Y-26301204D01*
X60724999Y-26300000D01*
X61375001Y-26300000D01*
X61399505Y-26301204D01*
X61399505Y-26301204D01*
G37*
D11*
X61050000Y-27000000D03*
D10*
G36*
X59349505Y-26301204D02*
G01*
X59373773Y-26304804D01*
X59397572Y-26310765D01*
X59420671Y-26319030D01*
X59442850Y-26329520D01*
X59463893Y-26342132D01*
X59483599Y-26356747D01*
X59501777Y-26373223D01*
X59518253Y-26391401D01*
X59532868Y-26411107D01*
X59545480Y-26432150D01*
X59555970Y-26454329D01*
X59564235Y-26477428D01*
X59570196Y-26501227D01*
X59573796Y-26525495D01*
X59575000Y-26549999D01*
X59575000Y-27450001D01*
X59573796Y-27474505D01*
X59570196Y-27498773D01*
X59564235Y-27522572D01*
X59555970Y-27545671D01*
X59545480Y-27567850D01*
X59532868Y-27588893D01*
X59518253Y-27608599D01*
X59501777Y-27626777D01*
X59483599Y-27643253D01*
X59463893Y-27657868D01*
X59442850Y-27670480D01*
X59420671Y-27680970D01*
X59397572Y-27689235D01*
X59373773Y-27695196D01*
X59349505Y-27698796D01*
X59325001Y-27700000D01*
X58674999Y-27700000D01*
X58650495Y-27698796D01*
X58626227Y-27695196D01*
X58602428Y-27689235D01*
X58579329Y-27680970D01*
X58557150Y-27670480D01*
X58536107Y-27657868D01*
X58516401Y-27643253D01*
X58498223Y-27626777D01*
X58481747Y-27608599D01*
X58467132Y-27588893D01*
X58454520Y-27567850D01*
X58444030Y-27545671D01*
X58435765Y-27522572D01*
X58429804Y-27498773D01*
X58426204Y-27474505D01*
X58425000Y-27450001D01*
X58425000Y-26549999D01*
X58426204Y-26525495D01*
X58429804Y-26501227D01*
X58435765Y-26477428D01*
X58444030Y-26454329D01*
X58454520Y-26432150D01*
X58467132Y-26411107D01*
X58481747Y-26391401D01*
X58498223Y-26373223D01*
X58516401Y-26356747D01*
X58536107Y-26342132D01*
X58557150Y-26329520D01*
X58579329Y-26319030D01*
X58602428Y-26310765D01*
X58626227Y-26304804D01*
X58650495Y-26301204D01*
X58674999Y-26300000D01*
X59325001Y-26300000D01*
X59349505Y-26301204D01*
X59349505Y-26301204D01*
G37*
D11*
X59000000Y-27000000D03*
D10*
G36*
X27799505Y-23666204D02*
G01*
X27823773Y-23669804D01*
X27847572Y-23675765D01*
X27870671Y-23684030D01*
X27892850Y-23694520D01*
X27913893Y-23707132D01*
X27933599Y-23721747D01*
X27951777Y-23738223D01*
X27968253Y-23756401D01*
X27982868Y-23776107D01*
X27995480Y-23797150D01*
X28005970Y-23819329D01*
X28014235Y-23842428D01*
X28020196Y-23866227D01*
X28023796Y-23890495D01*
X28025000Y-23914999D01*
X28025000Y-24815001D01*
X28023796Y-24839505D01*
X28020196Y-24863773D01*
X28014235Y-24887572D01*
X28005970Y-24910671D01*
X27995480Y-24932850D01*
X27982868Y-24953893D01*
X27968253Y-24973599D01*
X27951777Y-24991777D01*
X27933599Y-25008253D01*
X27913893Y-25022868D01*
X27892850Y-25035480D01*
X27870671Y-25045970D01*
X27847572Y-25054235D01*
X27823773Y-25060196D01*
X27799505Y-25063796D01*
X27775001Y-25065000D01*
X27124999Y-25065000D01*
X27100495Y-25063796D01*
X27076227Y-25060196D01*
X27052428Y-25054235D01*
X27029329Y-25045970D01*
X27007150Y-25035480D01*
X26986107Y-25022868D01*
X26966401Y-25008253D01*
X26948223Y-24991777D01*
X26931747Y-24973599D01*
X26917132Y-24953893D01*
X26904520Y-24932850D01*
X26894030Y-24910671D01*
X26885765Y-24887572D01*
X26879804Y-24863773D01*
X26876204Y-24839505D01*
X26875000Y-24815001D01*
X26875000Y-23914999D01*
X26876204Y-23890495D01*
X26879804Y-23866227D01*
X26885765Y-23842428D01*
X26894030Y-23819329D01*
X26904520Y-23797150D01*
X26917132Y-23776107D01*
X26931747Y-23756401D01*
X26948223Y-23738223D01*
X26966401Y-23721747D01*
X26986107Y-23707132D01*
X27007150Y-23694520D01*
X27029329Y-23684030D01*
X27052428Y-23675765D01*
X27076227Y-23669804D01*
X27100495Y-23666204D01*
X27124999Y-23665000D01*
X27775001Y-23665000D01*
X27799505Y-23666204D01*
X27799505Y-23666204D01*
G37*
D11*
X27450000Y-24365000D03*
D10*
G36*
X25749505Y-23666204D02*
G01*
X25773773Y-23669804D01*
X25797572Y-23675765D01*
X25820671Y-23684030D01*
X25842850Y-23694520D01*
X25863893Y-23707132D01*
X25883599Y-23721747D01*
X25901777Y-23738223D01*
X25918253Y-23756401D01*
X25932868Y-23776107D01*
X25945480Y-23797150D01*
X25955970Y-23819329D01*
X25964235Y-23842428D01*
X25970196Y-23866227D01*
X25973796Y-23890495D01*
X25975000Y-23914999D01*
X25975000Y-24815001D01*
X25973796Y-24839505D01*
X25970196Y-24863773D01*
X25964235Y-24887572D01*
X25955970Y-24910671D01*
X25945480Y-24932850D01*
X25932868Y-24953893D01*
X25918253Y-24973599D01*
X25901777Y-24991777D01*
X25883599Y-25008253D01*
X25863893Y-25022868D01*
X25842850Y-25035480D01*
X25820671Y-25045970D01*
X25797572Y-25054235D01*
X25773773Y-25060196D01*
X25749505Y-25063796D01*
X25725001Y-25065000D01*
X25074999Y-25065000D01*
X25050495Y-25063796D01*
X25026227Y-25060196D01*
X25002428Y-25054235D01*
X24979329Y-25045970D01*
X24957150Y-25035480D01*
X24936107Y-25022868D01*
X24916401Y-25008253D01*
X24898223Y-24991777D01*
X24881747Y-24973599D01*
X24867132Y-24953893D01*
X24854520Y-24932850D01*
X24844030Y-24910671D01*
X24835765Y-24887572D01*
X24829804Y-24863773D01*
X24826204Y-24839505D01*
X24825000Y-24815001D01*
X24825000Y-23914999D01*
X24826204Y-23890495D01*
X24829804Y-23866227D01*
X24835765Y-23842428D01*
X24844030Y-23819329D01*
X24854520Y-23797150D01*
X24867132Y-23776107D01*
X24881747Y-23756401D01*
X24898223Y-23738223D01*
X24916401Y-23721747D01*
X24936107Y-23707132D01*
X24957150Y-23694520D01*
X24979329Y-23684030D01*
X25002428Y-23675765D01*
X25026227Y-23669804D01*
X25050495Y-23666204D01*
X25074999Y-23665000D01*
X25725001Y-23665000D01*
X25749505Y-23666204D01*
X25749505Y-23666204D01*
G37*
D11*
X25400000Y-24365000D03*
D10*
G36*
X24715505Y-26225204D02*
G01*
X24739773Y-26228804D01*
X24763572Y-26234765D01*
X24786671Y-26243030D01*
X24808850Y-26253520D01*
X24829893Y-26266132D01*
X24849599Y-26280747D01*
X24867777Y-26297223D01*
X24884253Y-26315401D01*
X24898868Y-26335107D01*
X24911480Y-26356150D01*
X24921970Y-26378329D01*
X24930235Y-26401428D01*
X24936196Y-26425227D01*
X24939796Y-26449495D01*
X24941000Y-26473999D01*
X24941000Y-27374001D01*
X24939796Y-27398505D01*
X24936196Y-27422773D01*
X24930235Y-27446572D01*
X24921970Y-27469671D01*
X24911480Y-27491850D01*
X24898868Y-27512893D01*
X24884253Y-27532599D01*
X24867777Y-27550777D01*
X24849599Y-27567253D01*
X24829893Y-27581868D01*
X24808850Y-27594480D01*
X24786671Y-27604970D01*
X24763572Y-27613235D01*
X24739773Y-27619196D01*
X24715505Y-27622796D01*
X24691001Y-27624000D01*
X24040999Y-27624000D01*
X24016495Y-27622796D01*
X23992227Y-27619196D01*
X23968428Y-27613235D01*
X23945329Y-27604970D01*
X23923150Y-27594480D01*
X23902107Y-27581868D01*
X23882401Y-27567253D01*
X23864223Y-27550777D01*
X23847747Y-27532599D01*
X23833132Y-27512893D01*
X23820520Y-27491850D01*
X23810030Y-27469671D01*
X23801765Y-27446572D01*
X23795804Y-27422773D01*
X23792204Y-27398505D01*
X23791000Y-27374001D01*
X23791000Y-26473999D01*
X23792204Y-26449495D01*
X23795804Y-26425227D01*
X23801765Y-26401428D01*
X23810030Y-26378329D01*
X23820520Y-26356150D01*
X23833132Y-26335107D01*
X23847747Y-26315401D01*
X23864223Y-26297223D01*
X23882401Y-26280747D01*
X23902107Y-26266132D01*
X23923150Y-26253520D01*
X23945329Y-26243030D01*
X23968428Y-26234765D01*
X23992227Y-26228804D01*
X24016495Y-26225204D01*
X24040999Y-26224000D01*
X24691001Y-26224000D01*
X24715505Y-26225204D01*
X24715505Y-26225204D01*
G37*
D11*
X24366000Y-26924000D03*
D10*
G36*
X26765505Y-26225204D02*
G01*
X26789773Y-26228804D01*
X26813572Y-26234765D01*
X26836671Y-26243030D01*
X26858850Y-26253520D01*
X26879893Y-26266132D01*
X26899599Y-26280747D01*
X26917777Y-26297223D01*
X26934253Y-26315401D01*
X26948868Y-26335107D01*
X26961480Y-26356150D01*
X26971970Y-26378329D01*
X26980235Y-26401428D01*
X26986196Y-26425227D01*
X26989796Y-26449495D01*
X26991000Y-26473999D01*
X26991000Y-27374001D01*
X26989796Y-27398505D01*
X26986196Y-27422773D01*
X26980235Y-27446572D01*
X26971970Y-27469671D01*
X26961480Y-27491850D01*
X26948868Y-27512893D01*
X26934253Y-27532599D01*
X26917777Y-27550777D01*
X26899599Y-27567253D01*
X26879893Y-27581868D01*
X26858850Y-27594480D01*
X26836671Y-27604970D01*
X26813572Y-27613235D01*
X26789773Y-27619196D01*
X26765505Y-27622796D01*
X26741001Y-27624000D01*
X26090999Y-27624000D01*
X26066495Y-27622796D01*
X26042227Y-27619196D01*
X26018428Y-27613235D01*
X25995329Y-27604970D01*
X25973150Y-27594480D01*
X25952107Y-27581868D01*
X25932401Y-27567253D01*
X25914223Y-27550777D01*
X25897747Y-27532599D01*
X25883132Y-27512893D01*
X25870520Y-27491850D01*
X25860030Y-27469671D01*
X25851765Y-27446572D01*
X25845804Y-27422773D01*
X25842204Y-27398505D01*
X25841000Y-27374001D01*
X25841000Y-26473999D01*
X25842204Y-26449495D01*
X25845804Y-26425227D01*
X25851765Y-26401428D01*
X25860030Y-26378329D01*
X25870520Y-26356150D01*
X25883132Y-26335107D01*
X25897747Y-26315401D01*
X25914223Y-26297223D01*
X25932401Y-26280747D01*
X25952107Y-26266132D01*
X25973150Y-26253520D01*
X25995329Y-26243030D01*
X26018428Y-26234765D01*
X26042227Y-26228804D01*
X26066495Y-26225204D01*
X26090999Y-26224000D01*
X26741001Y-26224000D01*
X26765505Y-26225204D01*
X26765505Y-26225204D01*
G37*
D11*
X26416000Y-26924000D03*
D10*
G36*
X52374505Y-23651204D02*
G01*
X52398773Y-23654804D01*
X52422572Y-23660765D01*
X52445671Y-23669030D01*
X52467850Y-23679520D01*
X52488893Y-23692132D01*
X52508599Y-23706747D01*
X52526777Y-23723223D01*
X52543253Y-23741401D01*
X52557868Y-23761107D01*
X52570480Y-23782150D01*
X52580970Y-23804329D01*
X52589235Y-23827428D01*
X52595196Y-23851227D01*
X52598796Y-23875495D01*
X52600000Y-23899999D01*
X52600000Y-24800001D01*
X52598796Y-24824505D01*
X52595196Y-24848773D01*
X52589235Y-24872572D01*
X52580970Y-24895671D01*
X52570480Y-24917850D01*
X52557868Y-24938893D01*
X52543253Y-24958599D01*
X52526777Y-24976777D01*
X52508599Y-24993253D01*
X52488893Y-25007868D01*
X52467850Y-25020480D01*
X52445671Y-25030970D01*
X52422572Y-25039235D01*
X52398773Y-25045196D01*
X52374505Y-25048796D01*
X52350001Y-25050000D01*
X51699999Y-25050000D01*
X51675495Y-25048796D01*
X51651227Y-25045196D01*
X51627428Y-25039235D01*
X51604329Y-25030970D01*
X51582150Y-25020480D01*
X51561107Y-25007868D01*
X51541401Y-24993253D01*
X51523223Y-24976777D01*
X51506747Y-24958599D01*
X51492132Y-24938893D01*
X51479520Y-24917850D01*
X51469030Y-24895671D01*
X51460765Y-24872572D01*
X51454804Y-24848773D01*
X51451204Y-24824505D01*
X51450000Y-24800001D01*
X51450000Y-23899999D01*
X51451204Y-23875495D01*
X51454804Y-23851227D01*
X51460765Y-23827428D01*
X51469030Y-23804329D01*
X51479520Y-23782150D01*
X51492132Y-23761107D01*
X51506747Y-23741401D01*
X51523223Y-23723223D01*
X51541401Y-23706747D01*
X51561107Y-23692132D01*
X51582150Y-23679520D01*
X51604329Y-23669030D01*
X51627428Y-23660765D01*
X51651227Y-23654804D01*
X51675495Y-23651204D01*
X51699999Y-23650000D01*
X52350001Y-23650000D01*
X52374505Y-23651204D01*
X52374505Y-23651204D01*
G37*
D11*
X52025000Y-24350000D03*
D10*
G36*
X50324505Y-23651204D02*
G01*
X50348773Y-23654804D01*
X50372572Y-23660765D01*
X50395671Y-23669030D01*
X50417850Y-23679520D01*
X50438893Y-23692132D01*
X50458599Y-23706747D01*
X50476777Y-23723223D01*
X50493253Y-23741401D01*
X50507868Y-23761107D01*
X50520480Y-23782150D01*
X50530970Y-23804329D01*
X50539235Y-23827428D01*
X50545196Y-23851227D01*
X50548796Y-23875495D01*
X50550000Y-23899999D01*
X50550000Y-24800001D01*
X50548796Y-24824505D01*
X50545196Y-24848773D01*
X50539235Y-24872572D01*
X50530970Y-24895671D01*
X50520480Y-24917850D01*
X50507868Y-24938893D01*
X50493253Y-24958599D01*
X50476777Y-24976777D01*
X50458599Y-24993253D01*
X50438893Y-25007868D01*
X50417850Y-25020480D01*
X50395671Y-25030970D01*
X50372572Y-25039235D01*
X50348773Y-25045196D01*
X50324505Y-25048796D01*
X50300001Y-25050000D01*
X49649999Y-25050000D01*
X49625495Y-25048796D01*
X49601227Y-25045196D01*
X49577428Y-25039235D01*
X49554329Y-25030970D01*
X49532150Y-25020480D01*
X49511107Y-25007868D01*
X49491401Y-24993253D01*
X49473223Y-24976777D01*
X49456747Y-24958599D01*
X49442132Y-24938893D01*
X49429520Y-24917850D01*
X49419030Y-24895671D01*
X49410765Y-24872572D01*
X49404804Y-24848773D01*
X49401204Y-24824505D01*
X49400000Y-24800001D01*
X49400000Y-23899999D01*
X49401204Y-23875495D01*
X49404804Y-23851227D01*
X49410765Y-23827428D01*
X49419030Y-23804329D01*
X49429520Y-23782150D01*
X49442132Y-23761107D01*
X49456747Y-23741401D01*
X49473223Y-23723223D01*
X49491401Y-23706747D01*
X49511107Y-23692132D01*
X49532150Y-23679520D01*
X49554329Y-23669030D01*
X49577428Y-23660765D01*
X49601227Y-23654804D01*
X49625495Y-23651204D01*
X49649999Y-23650000D01*
X50300001Y-23650000D01*
X50324505Y-23651204D01*
X50324505Y-23651204D01*
G37*
D11*
X49975000Y-24350000D03*
D10*
G36*
X52374505Y-26651204D02*
G01*
X52398773Y-26654804D01*
X52422572Y-26660765D01*
X52445671Y-26669030D01*
X52467850Y-26679520D01*
X52488893Y-26692132D01*
X52508599Y-26706747D01*
X52526777Y-26723223D01*
X52543253Y-26741401D01*
X52557868Y-26761107D01*
X52570480Y-26782150D01*
X52580970Y-26804329D01*
X52589235Y-26827428D01*
X52595196Y-26851227D01*
X52598796Y-26875495D01*
X52600000Y-26899999D01*
X52600000Y-27800001D01*
X52598796Y-27824505D01*
X52595196Y-27848773D01*
X52589235Y-27872572D01*
X52580970Y-27895671D01*
X52570480Y-27917850D01*
X52557868Y-27938893D01*
X52543253Y-27958599D01*
X52526777Y-27976777D01*
X52508599Y-27993253D01*
X52488893Y-28007868D01*
X52467850Y-28020480D01*
X52445671Y-28030970D01*
X52422572Y-28039235D01*
X52398773Y-28045196D01*
X52374505Y-28048796D01*
X52350001Y-28050000D01*
X51699999Y-28050000D01*
X51675495Y-28048796D01*
X51651227Y-28045196D01*
X51627428Y-28039235D01*
X51604329Y-28030970D01*
X51582150Y-28020480D01*
X51561107Y-28007868D01*
X51541401Y-27993253D01*
X51523223Y-27976777D01*
X51506747Y-27958599D01*
X51492132Y-27938893D01*
X51479520Y-27917850D01*
X51469030Y-27895671D01*
X51460765Y-27872572D01*
X51454804Y-27848773D01*
X51451204Y-27824505D01*
X51450000Y-27800001D01*
X51450000Y-26899999D01*
X51451204Y-26875495D01*
X51454804Y-26851227D01*
X51460765Y-26827428D01*
X51469030Y-26804329D01*
X51479520Y-26782150D01*
X51492132Y-26761107D01*
X51506747Y-26741401D01*
X51523223Y-26723223D01*
X51541401Y-26706747D01*
X51561107Y-26692132D01*
X51582150Y-26679520D01*
X51604329Y-26669030D01*
X51627428Y-26660765D01*
X51651227Y-26654804D01*
X51675495Y-26651204D01*
X51699999Y-26650000D01*
X52350001Y-26650000D01*
X52374505Y-26651204D01*
X52374505Y-26651204D01*
G37*
D11*
X52025000Y-27350000D03*
D10*
G36*
X50324505Y-26651204D02*
G01*
X50348773Y-26654804D01*
X50372572Y-26660765D01*
X50395671Y-26669030D01*
X50417850Y-26679520D01*
X50438893Y-26692132D01*
X50458599Y-26706747D01*
X50476777Y-26723223D01*
X50493253Y-26741401D01*
X50507868Y-26761107D01*
X50520480Y-26782150D01*
X50530970Y-26804329D01*
X50539235Y-26827428D01*
X50545196Y-26851227D01*
X50548796Y-26875495D01*
X50550000Y-26899999D01*
X50550000Y-27800001D01*
X50548796Y-27824505D01*
X50545196Y-27848773D01*
X50539235Y-27872572D01*
X50530970Y-27895671D01*
X50520480Y-27917850D01*
X50507868Y-27938893D01*
X50493253Y-27958599D01*
X50476777Y-27976777D01*
X50458599Y-27993253D01*
X50438893Y-28007868D01*
X50417850Y-28020480D01*
X50395671Y-28030970D01*
X50372572Y-28039235D01*
X50348773Y-28045196D01*
X50324505Y-28048796D01*
X50300001Y-28050000D01*
X49649999Y-28050000D01*
X49625495Y-28048796D01*
X49601227Y-28045196D01*
X49577428Y-28039235D01*
X49554329Y-28030970D01*
X49532150Y-28020480D01*
X49511107Y-28007868D01*
X49491401Y-27993253D01*
X49473223Y-27976777D01*
X49456747Y-27958599D01*
X49442132Y-27938893D01*
X49429520Y-27917850D01*
X49419030Y-27895671D01*
X49410765Y-27872572D01*
X49404804Y-27848773D01*
X49401204Y-27824505D01*
X49400000Y-27800001D01*
X49400000Y-26899999D01*
X49401204Y-26875495D01*
X49404804Y-26851227D01*
X49410765Y-26827428D01*
X49419030Y-26804329D01*
X49429520Y-26782150D01*
X49442132Y-26761107D01*
X49456747Y-26741401D01*
X49473223Y-26723223D01*
X49491401Y-26706747D01*
X49511107Y-26692132D01*
X49532150Y-26679520D01*
X49554329Y-26669030D01*
X49577428Y-26660765D01*
X49601227Y-26654804D01*
X49625495Y-26651204D01*
X49649999Y-26650000D01*
X50300001Y-26650000D01*
X50324505Y-26651204D01*
X50324505Y-26651204D01*
G37*
D11*
X49975000Y-27350000D03*
D10*
G36*
X48224505Y-17701204D02*
G01*
X48248773Y-17704804D01*
X48272572Y-17710765D01*
X48295671Y-17719030D01*
X48317850Y-17729520D01*
X48338893Y-17742132D01*
X48358599Y-17756747D01*
X48376777Y-17773223D01*
X48393253Y-17791401D01*
X48407868Y-17811107D01*
X48420480Y-17832150D01*
X48430970Y-17854329D01*
X48439235Y-17877428D01*
X48445196Y-17901227D01*
X48448796Y-17925495D01*
X48450000Y-17949999D01*
X48450000Y-18850001D01*
X48448796Y-18874505D01*
X48445196Y-18898773D01*
X48439235Y-18922572D01*
X48430970Y-18945671D01*
X48420480Y-18967850D01*
X48407868Y-18988893D01*
X48393253Y-19008599D01*
X48376777Y-19026777D01*
X48358599Y-19043253D01*
X48338893Y-19057868D01*
X48317850Y-19070480D01*
X48295671Y-19080970D01*
X48272572Y-19089235D01*
X48248773Y-19095196D01*
X48224505Y-19098796D01*
X48200001Y-19100000D01*
X47549999Y-19100000D01*
X47525495Y-19098796D01*
X47501227Y-19095196D01*
X47477428Y-19089235D01*
X47454329Y-19080970D01*
X47432150Y-19070480D01*
X47411107Y-19057868D01*
X47391401Y-19043253D01*
X47373223Y-19026777D01*
X47356747Y-19008599D01*
X47342132Y-18988893D01*
X47329520Y-18967850D01*
X47319030Y-18945671D01*
X47310765Y-18922572D01*
X47304804Y-18898773D01*
X47301204Y-18874505D01*
X47300000Y-18850001D01*
X47300000Y-17949999D01*
X47301204Y-17925495D01*
X47304804Y-17901227D01*
X47310765Y-17877428D01*
X47319030Y-17854329D01*
X47329520Y-17832150D01*
X47342132Y-17811107D01*
X47356747Y-17791401D01*
X47373223Y-17773223D01*
X47391401Y-17756747D01*
X47411107Y-17742132D01*
X47432150Y-17729520D01*
X47454329Y-17719030D01*
X47477428Y-17710765D01*
X47501227Y-17704804D01*
X47525495Y-17701204D01*
X47549999Y-17700000D01*
X48200001Y-17700000D01*
X48224505Y-17701204D01*
X48224505Y-17701204D01*
G37*
D11*
X47875000Y-18400000D03*
D10*
G36*
X50274505Y-17701204D02*
G01*
X50298773Y-17704804D01*
X50322572Y-17710765D01*
X50345671Y-17719030D01*
X50367850Y-17729520D01*
X50388893Y-17742132D01*
X50408599Y-17756747D01*
X50426777Y-17773223D01*
X50443253Y-17791401D01*
X50457868Y-17811107D01*
X50470480Y-17832150D01*
X50480970Y-17854329D01*
X50489235Y-17877428D01*
X50495196Y-17901227D01*
X50498796Y-17925495D01*
X50500000Y-17949999D01*
X50500000Y-18850001D01*
X50498796Y-18874505D01*
X50495196Y-18898773D01*
X50489235Y-18922572D01*
X50480970Y-18945671D01*
X50470480Y-18967850D01*
X50457868Y-18988893D01*
X50443253Y-19008599D01*
X50426777Y-19026777D01*
X50408599Y-19043253D01*
X50388893Y-19057868D01*
X50367850Y-19070480D01*
X50345671Y-19080970D01*
X50322572Y-19089235D01*
X50298773Y-19095196D01*
X50274505Y-19098796D01*
X50250001Y-19100000D01*
X49599999Y-19100000D01*
X49575495Y-19098796D01*
X49551227Y-19095196D01*
X49527428Y-19089235D01*
X49504329Y-19080970D01*
X49482150Y-19070480D01*
X49461107Y-19057868D01*
X49441401Y-19043253D01*
X49423223Y-19026777D01*
X49406747Y-19008599D01*
X49392132Y-18988893D01*
X49379520Y-18967850D01*
X49369030Y-18945671D01*
X49360765Y-18922572D01*
X49354804Y-18898773D01*
X49351204Y-18874505D01*
X49350000Y-18850001D01*
X49350000Y-17949999D01*
X49351204Y-17925495D01*
X49354804Y-17901227D01*
X49360765Y-17877428D01*
X49369030Y-17854329D01*
X49379520Y-17832150D01*
X49392132Y-17811107D01*
X49406747Y-17791401D01*
X49423223Y-17773223D01*
X49441401Y-17756747D01*
X49461107Y-17742132D01*
X49482150Y-17729520D01*
X49504329Y-17719030D01*
X49527428Y-17710765D01*
X49551227Y-17704804D01*
X49575495Y-17701204D01*
X49599999Y-17700000D01*
X50250001Y-17700000D01*
X50274505Y-17701204D01*
X50274505Y-17701204D01*
G37*
D11*
X49925000Y-18400000D03*
D10*
G36*
X48224505Y-20601204D02*
G01*
X48248773Y-20604804D01*
X48272572Y-20610765D01*
X48295671Y-20619030D01*
X48317850Y-20629520D01*
X48338893Y-20642132D01*
X48358599Y-20656747D01*
X48376777Y-20673223D01*
X48393253Y-20691401D01*
X48407868Y-20711107D01*
X48420480Y-20732150D01*
X48430970Y-20754329D01*
X48439235Y-20777428D01*
X48445196Y-20801227D01*
X48448796Y-20825495D01*
X48450000Y-20849999D01*
X48450000Y-21750001D01*
X48448796Y-21774505D01*
X48445196Y-21798773D01*
X48439235Y-21822572D01*
X48430970Y-21845671D01*
X48420480Y-21867850D01*
X48407868Y-21888893D01*
X48393253Y-21908599D01*
X48376777Y-21926777D01*
X48358599Y-21943253D01*
X48338893Y-21957868D01*
X48317850Y-21970480D01*
X48295671Y-21980970D01*
X48272572Y-21989235D01*
X48248773Y-21995196D01*
X48224505Y-21998796D01*
X48200001Y-22000000D01*
X47549999Y-22000000D01*
X47525495Y-21998796D01*
X47501227Y-21995196D01*
X47477428Y-21989235D01*
X47454329Y-21980970D01*
X47432150Y-21970480D01*
X47411107Y-21957868D01*
X47391401Y-21943253D01*
X47373223Y-21926777D01*
X47356747Y-21908599D01*
X47342132Y-21888893D01*
X47329520Y-21867850D01*
X47319030Y-21845671D01*
X47310765Y-21822572D01*
X47304804Y-21798773D01*
X47301204Y-21774505D01*
X47300000Y-21750001D01*
X47300000Y-20849999D01*
X47301204Y-20825495D01*
X47304804Y-20801227D01*
X47310765Y-20777428D01*
X47319030Y-20754329D01*
X47329520Y-20732150D01*
X47342132Y-20711107D01*
X47356747Y-20691401D01*
X47373223Y-20673223D01*
X47391401Y-20656747D01*
X47411107Y-20642132D01*
X47432150Y-20629520D01*
X47454329Y-20619030D01*
X47477428Y-20610765D01*
X47501227Y-20604804D01*
X47525495Y-20601204D01*
X47549999Y-20600000D01*
X48200001Y-20600000D01*
X48224505Y-20601204D01*
X48224505Y-20601204D01*
G37*
D11*
X47875000Y-21300000D03*
D10*
G36*
X50274505Y-20601204D02*
G01*
X50298773Y-20604804D01*
X50322572Y-20610765D01*
X50345671Y-20619030D01*
X50367850Y-20629520D01*
X50388893Y-20642132D01*
X50408599Y-20656747D01*
X50426777Y-20673223D01*
X50443253Y-20691401D01*
X50457868Y-20711107D01*
X50470480Y-20732150D01*
X50480970Y-20754329D01*
X50489235Y-20777428D01*
X50495196Y-20801227D01*
X50498796Y-20825495D01*
X50500000Y-20849999D01*
X50500000Y-21750001D01*
X50498796Y-21774505D01*
X50495196Y-21798773D01*
X50489235Y-21822572D01*
X50480970Y-21845671D01*
X50470480Y-21867850D01*
X50457868Y-21888893D01*
X50443253Y-21908599D01*
X50426777Y-21926777D01*
X50408599Y-21943253D01*
X50388893Y-21957868D01*
X50367850Y-21970480D01*
X50345671Y-21980970D01*
X50322572Y-21989235D01*
X50298773Y-21995196D01*
X50274505Y-21998796D01*
X50250001Y-22000000D01*
X49599999Y-22000000D01*
X49575495Y-21998796D01*
X49551227Y-21995196D01*
X49527428Y-21989235D01*
X49504329Y-21980970D01*
X49482150Y-21970480D01*
X49461107Y-21957868D01*
X49441401Y-21943253D01*
X49423223Y-21926777D01*
X49406747Y-21908599D01*
X49392132Y-21888893D01*
X49379520Y-21867850D01*
X49369030Y-21845671D01*
X49360765Y-21822572D01*
X49354804Y-21798773D01*
X49351204Y-21774505D01*
X49350000Y-21750001D01*
X49350000Y-20849999D01*
X49351204Y-20825495D01*
X49354804Y-20801227D01*
X49360765Y-20777428D01*
X49369030Y-20754329D01*
X49379520Y-20732150D01*
X49392132Y-20711107D01*
X49406747Y-20691401D01*
X49423223Y-20673223D01*
X49441401Y-20656747D01*
X49461107Y-20642132D01*
X49482150Y-20629520D01*
X49504329Y-20619030D01*
X49527428Y-20610765D01*
X49551227Y-20604804D01*
X49575495Y-20601204D01*
X49599999Y-20600000D01*
X50250001Y-20600000D01*
X50274505Y-20601204D01*
X50274505Y-20601204D01*
G37*
D11*
X49925000Y-21300000D03*
D10*
G36*
X42822108Y-17782412D02*
G01*
X42846376Y-17786012D01*
X42870175Y-17791973D01*
X42893274Y-17800238D01*
X42915453Y-17810728D01*
X42936496Y-17823340D01*
X42956202Y-17837955D01*
X42974380Y-17854431D01*
X43434001Y-18314052D01*
X43450477Y-18332230D01*
X43465092Y-18351936D01*
X43477704Y-18372979D01*
X43488194Y-18395158D01*
X43496459Y-18418257D01*
X43502420Y-18442056D01*
X43506020Y-18466324D01*
X43507224Y-18490828D01*
X43506020Y-18515332D01*
X43502420Y-18539600D01*
X43496459Y-18563399D01*
X43488194Y-18586498D01*
X43477704Y-18608677D01*
X43465092Y-18629720D01*
X43450477Y-18649426D01*
X43434001Y-18667604D01*
X42797604Y-19304001D01*
X42779426Y-19320477D01*
X42759720Y-19335092D01*
X42738677Y-19347704D01*
X42716498Y-19358194D01*
X42693399Y-19366459D01*
X42669600Y-19372420D01*
X42645332Y-19376020D01*
X42620828Y-19377224D01*
X42596324Y-19376020D01*
X42572056Y-19372420D01*
X42548257Y-19366459D01*
X42525158Y-19358194D01*
X42502979Y-19347704D01*
X42481936Y-19335092D01*
X42462230Y-19320477D01*
X42444052Y-19304001D01*
X41984431Y-18844380D01*
X41967955Y-18826202D01*
X41953340Y-18806496D01*
X41940728Y-18785453D01*
X41930238Y-18763274D01*
X41921973Y-18740175D01*
X41916012Y-18716376D01*
X41912412Y-18692108D01*
X41911208Y-18667604D01*
X41912412Y-18643100D01*
X41916012Y-18618832D01*
X41921973Y-18595033D01*
X41930238Y-18571934D01*
X41940728Y-18549755D01*
X41953340Y-18528712D01*
X41967955Y-18509006D01*
X41984431Y-18490828D01*
X42620828Y-17854431D01*
X42639006Y-17837955D01*
X42658712Y-17823340D01*
X42679755Y-17810728D01*
X42701934Y-17800238D01*
X42725033Y-17791973D01*
X42748832Y-17786012D01*
X42773100Y-17782412D01*
X42797604Y-17781208D01*
X42822108Y-17782412D01*
X42822108Y-17782412D01*
G37*
D11*
X42709216Y-18579216D03*
D10*
G36*
X44271676Y-19231980D02*
G01*
X44295944Y-19235580D01*
X44319743Y-19241541D01*
X44342842Y-19249806D01*
X44365021Y-19260296D01*
X44386064Y-19272908D01*
X44405770Y-19287523D01*
X44423948Y-19303999D01*
X44883569Y-19763620D01*
X44900045Y-19781798D01*
X44914660Y-19801504D01*
X44927272Y-19822547D01*
X44937762Y-19844726D01*
X44946027Y-19867825D01*
X44951988Y-19891624D01*
X44955588Y-19915892D01*
X44956792Y-19940396D01*
X44955588Y-19964900D01*
X44951988Y-19989168D01*
X44946027Y-20012967D01*
X44937762Y-20036066D01*
X44927272Y-20058245D01*
X44914660Y-20079288D01*
X44900045Y-20098994D01*
X44883569Y-20117172D01*
X44247172Y-20753569D01*
X44228994Y-20770045D01*
X44209288Y-20784660D01*
X44188245Y-20797272D01*
X44166066Y-20807762D01*
X44142967Y-20816027D01*
X44119168Y-20821988D01*
X44094900Y-20825588D01*
X44070396Y-20826792D01*
X44045892Y-20825588D01*
X44021624Y-20821988D01*
X43997825Y-20816027D01*
X43974726Y-20807762D01*
X43952547Y-20797272D01*
X43931504Y-20784660D01*
X43911798Y-20770045D01*
X43893620Y-20753569D01*
X43433999Y-20293948D01*
X43417523Y-20275770D01*
X43402908Y-20256064D01*
X43390296Y-20235021D01*
X43379806Y-20212842D01*
X43371541Y-20189743D01*
X43365580Y-20165944D01*
X43361980Y-20141676D01*
X43360776Y-20117172D01*
X43361980Y-20092668D01*
X43365580Y-20068400D01*
X43371541Y-20044601D01*
X43379806Y-20021502D01*
X43390296Y-19999323D01*
X43402908Y-19978280D01*
X43417523Y-19958574D01*
X43433999Y-19940396D01*
X44070396Y-19303999D01*
X44088574Y-19287523D01*
X44108280Y-19272908D01*
X44129323Y-19260296D01*
X44151502Y-19249806D01*
X44174601Y-19241541D01*
X44198400Y-19235580D01*
X44222668Y-19231980D01*
X44247172Y-19230776D01*
X44271676Y-19231980D01*
X44271676Y-19231980D01*
G37*
D11*
X44158784Y-20028784D03*
D10*
G36*
X38138460Y-25036764D02*
G01*
X38162728Y-25040364D01*
X38186527Y-25046325D01*
X38209626Y-25054590D01*
X38231805Y-25065080D01*
X38252848Y-25077692D01*
X38272554Y-25092307D01*
X38290732Y-25108783D01*
X38750353Y-25568404D01*
X38766829Y-25586582D01*
X38781444Y-25606288D01*
X38794056Y-25627331D01*
X38804546Y-25649510D01*
X38812811Y-25672609D01*
X38818772Y-25696408D01*
X38822372Y-25720676D01*
X38823576Y-25745180D01*
X38822372Y-25769684D01*
X38818772Y-25793952D01*
X38812811Y-25817751D01*
X38804546Y-25840850D01*
X38794056Y-25863029D01*
X38781444Y-25884072D01*
X38766829Y-25903778D01*
X38750353Y-25921956D01*
X38113956Y-26558353D01*
X38095778Y-26574829D01*
X38076072Y-26589444D01*
X38055029Y-26602056D01*
X38032850Y-26612546D01*
X38009751Y-26620811D01*
X37985952Y-26626772D01*
X37961684Y-26630372D01*
X37937180Y-26631576D01*
X37912676Y-26630372D01*
X37888408Y-26626772D01*
X37864609Y-26620811D01*
X37841510Y-26612546D01*
X37819331Y-26602056D01*
X37798288Y-26589444D01*
X37778582Y-26574829D01*
X37760404Y-26558353D01*
X37300783Y-26098732D01*
X37284307Y-26080554D01*
X37269692Y-26060848D01*
X37257080Y-26039805D01*
X37246590Y-26017626D01*
X37238325Y-25994527D01*
X37232364Y-25970728D01*
X37228764Y-25946460D01*
X37227560Y-25921956D01*
X37228764Y-25897452D01*
X37232364Y-25873184D01*
X37238325Y-25849385D01*
X37246590Y-25826286D01*
X37257080Y-25804107D01*
X37269692Y-25783064D01*
X37284307Y-25763358D01*
X37300783Y-25745180D01*
X37937180Y-25108783D01*
X37955358Y-25092307D01*
X37975064Y-25077692D01*
X37996107Y-25065080D01*
X38018286Y-25054590D01*
X38041385Y-25046325D01*
X38065184Y-25040364D01*
X38089452Y-25036764D01*
X38113956Y-25035560D01*
X38138460Y-25036764D01*
X38138460Y-25036764D01*
G37*
D11*
X38025568Y-25833568D03*
D10*
G36*
X36688892Y-23587196D02*
G01*
X36713160Y-23590796D01*
X36736959Y-23596757D01*
X36760058Y-23605022D01*
X36782237Y-23615512D01*
X36803280Y-23628124D01*
X36822986Y-23642739D01*
X36841164Y-23659215D01*
X37300785Y-24118836D01*
X37317261Y-24137014D01*
X37331876Y-24156720D01*
X37344488Y-24177763D01*
X37354978Y-24199942D01*
X37363243Y-24223041D01*
X37369204Y-24246840D01*
X37372804Y-24271108D01*
X37374008Y-24295612D01*
X37372804Y-24320116D01*
X37369204Y-24344384D01*
X37363243Y-24368183D01*
X37354978Y-24391282D01*
X37344488Y-24413461D01*
X37331876Y-24434504D01*
X37317261Y-24454210D01*
X37300785Y-24472388D01*
X36664388Y-25108785D01*
X36646210Y-25125261D01*
X36626504Y-25139876D01*
X36605461Y-25152488D01*
X36583282Y-25162978D01*
X36560183Y-25171243D01*
X36536384Y-25177204D01*
X36512116Y-25180804D01*
X36487612Y-25182008D01*
X36463108Y-25180804D01*
X36438840Y-25177204D01*
X36415041Y-25171243D01*
X36391942Y-25162978D01*
X36369763Y-25152488D01*
X36348720Y-25139876D01*
X36329014Y-25125261D01*
X36310836Y-25108785D01*
X35851215Y-24649164D01*
X35834739Y-24630986D01*
X35820124Y-24611280D01*
X35807512Y-24590237D01*
X35797022Y-24568058D01*
X35788757Y-24544959D01*
X35782796Y-24521160D01*
X35779196Y-24496892D01*
X35777992Y-24472388D01*
X35779196Y-24447884D01*
X35782796Y-24423616D01*
X35788757Y-24399817D01*
X35797022Y-24376718D01*
X35807512Y-24354539D01*
X35820124Y-24333496D01*
X35834739Y-24313790D01*
X35851215Y-24295612D01*
X36487612Y-23659215D01*
X36505790Y-23642739D01*
X36525496Y-23628124D01*
X36546539Y-23615512D01*
X36568718Y-23605022D01*
X36591817Y-23596757D01*
X36615616Y-23590796D01*
X36639884Y-23587196D01*
X36664388Y-23585992D01*
X36688892Y-23587196D01*
X36688892Y-23587196D01*
G37*
D11*
X36576000Y-24384000D03*
D10*
G36*
X35025332Y-22025980D02*
G01*
X35049600Y-22029580D01*
X35073399Y-22035541D01*
X35096498Y-22043806D01*
X35118677Y-22054296D01*
X35139720Y-22066908D01*
X35159426Y-22081523D01*
X35177604Y-22097999D01*
X35814001Y-22734396D01*
X35830477Y-22752574D01*
X35845092Y-22772280D01*
X35857704Y-22793323D01*
X35868194Y-22815502D01*
X35876459Y-22838601D01*
X35882420Y-22862400D01*
X35886020Y-22886668D01*
X35887224Y-22911172D01*
X35886020Y-22935676D01*
X35882420Y-22959944D01*
X35876459Y-22983743D01*
X35868194Y-23006842D01*
X35857704Y-23029021D01*
X35845092Y-23050064D01*
X35830477Y-23069770D01*
X35814001Y-23087948D01*
X35354380Y-23547569D01*
X35336202Y-23564045D01*
X35316496Y-23578660D01*
X35295453Y-23591272D01*
X35273274Y-23601762D01*
X35250175Y-23610027D01*
X35226376Y-23615988D01*
X35202108Y-23619588D01*
X35177604Y-23620792D01*
X35153100Y-23619588D01*
X35128832Y-23615988D01*
X35105033Y-23610027D01*
X35081934Y-23601762D01*
X35059755Y-23591272D01*
X35038712Y-23578660D01*
X35019006Y-23564045D01*
X35000828Y-23547569D01*
X34364431Y-22911172D01*
X34347955Y-22892994D01*
X34333340Y-22873288D01*
X34320728Y-22852245D01*
X34310238Y-22830066D01*
X34301973Y-22806967D01*
X34296012Y-22783168D01*
X34292412Y-22758900D01*
X34291208Y-22734396D01*
X34292412Y-22709892D01*
X34296012Y-22685624D01*
X34301973Y-22661825D01*
X34310238Y-22638726D01*
X34320728Y-22616547D01*
X34333340Y-22595504D01*
X34347955Y-22575798D01*
X34364431Y-22557620D01*
X34824052Y-22097999D01*
X34842230Y-22081523D01*
X34861936Y-22066908D01*
X34882979Y-22054296D01*
X34905158Y-22043806D01*
X34928257Y-22035541D01*
X34952056Y-22029580D01*
X34976324Y-22025980D01*
X35000828Y-22024776D01*
X35025332Y-22025980D01*
X35025332Y-22025980D01*
G37*
D11*
X35089216Y-22822784D03*
D10*
G36*
X36474900Y-20576412D02*
G01*
X36499168Y-20580012D01*
X36522967Y-20585973D01*
X36546066Y-20594238D01*
X36568245Y-20604728D01*
X36589288Y-20617340D01*
X36608994Y-20631955D01*
X36627172Y-20648431D01*
X37263569Y-21284828D01*
X37280045Y-21303006D01*
X37294660Y-21322712D01*
X37307272Y-21343755D01*
X37317762Y-21365934D01*
X37326027Y-21389033D01*
X37331988Y-21412832D01*
X37335588Y-21437100D01*
X37336792Y-21461604D01*
X37335588Y-21486108D01*
X37331988Y-21510376D01*
X37326027Y-21534175D01*
X37317762Y-21557274D01*
X37307272Y-21579453D01*
X37294660Y-21600496D01*
X37280045Y-21620202D01*
X37263569Y-21638380D01*
X36803948Y-22098001D01*
X36785770Y-22114477D01*
X36766064Y-22129092D01*
X36745021Y-22141704D01*
X36722842Y-22152194D01*
X36699743Y-22160459D01*
X36675944Y-22166420D01*
X36651676Y-22170020D01*
X36627172Y-22171224D01*
X36602668Y-22170020D01*
X36578400Y-22166420D01*
X36554601Y-22160459D01*
X36531502Y-22152194D01*
X36509323Y-22141704D01*
X36488280Y-22129092D01*
X36468574Y-22114477D01*
X36450396Y-22098001D01*
X35813999Y-21461604D01*
X35797523Y-21443426D01*
X35782908Y-21423720D01*
X35770296Y-21402677D01*
X35759806Y-21380498D01*
X35751541Y-21357399D01*
X35745580Y-21333600D01*
X35741980Y-21309332D01*
X35740776Y-21284828D01*
X35741980Y-21260324D01*
X35745580Y-21236056D01*
X35751541Y-21212257D01*
X35759806Y-21189158D01*
X35770296Y-21166979D01*
X35782908Y-21145936D01*
X35797523Y-21126230D01*
X35813999Y-21108052D01*
X36273620Y-20648431D01*
X36291798Y-20631955D01*
X36311504Y-20617340D01*
X36332547Y-20604728D01*
X36354726Y-20594238D01*
X36377825Y-20585973D01*
X36401624Y-20580012D01*
X36425892Y-20576412D01*
X36450396Y-20575208D01*
X36474900Y-20576412D01*
X36474900Y-20576412D01*
G37*
D11*
X36538784Y-21373216D03*
D10*
G36*
X41084116Y-22100412D02*
G01*
X41108384Y-22104012D01*
X41132183Y-22109973D01*
X41155282Y-22118238D01*
X41177461Y-22128728D01*
X41198504Y-22141340D01*
X41218210Y-22155955D01*
X41236388Y-22172431D01*
X41872785Y-22808828D01*
X41889261Y-22827006D01*
X41903876Y-22846712D01*
X41916488Y-22867755D01*
X41926978Y-22889934D01*
X41935243Y-22913033D01*
X41941204Y-22936832D01*
X41944804Y-22961100D01*
X41946008Y-22985604D01*
X41944804Y-23010108D01*
X41941204Y-23034376D01*
X41935243Y-23058175D01*
X41926978Y-23081274D01*
X41916488Y-23103453D01*
X41903876Y-23124496D01*
X41889261Y-23144202D01*
X41872785Y-23162380D01*
X41413164Y-23622001D01*
X41394986Y-23638477D01*
X41375280Y-23653092D01*
X41354237Y-23665704D01*
X41332058Y-23676194D01*
X41308959Y-23684459D01*
X41285160Y-23690420D01*
X41260892Y-23694020D01*
X41236388Y-23695224D01*
X41211884Y-23694020D01*
X41187616Y-23690420D01*
X41163817Y-23684459D01*
X41140718Y-23676194D01*
X41118539Y-23665704D01*
X41097496Y-23653092D01*
X41077790Y-23638477D01*
X41059612Y-23622001D01*
X40423215Y-22985604D01*
X40406739Y-22967426D01*
X40392124Y-22947720D01*
X40379512Y-22926677D01*
X40369022Y-22904498D01*
X40360757Y-22881399D01*
X40354796Y-22857600D01*
X40351196Y-22833332D01*
X40349992Y-22808828D01*
X40351196Y-22784324D01*
X40354796Y-22760056D01*
X40360757Y-22736257D01*
X40369022Y-22713158D01*
X40379512Y-22690979D01*
X40392124Y-22669936D01*
X40406739Y-22650230D01*
X40423215Y-22632052D01*
X40882836Y-22172431D01*
X40901014Y-22155955D01*
X40920720Y-22141340D01*
X40941763Y-22128728D01*
X40963942Y-22118238D01*
X40987041Y-22109973D01*
X41010840Y-22104012D01*
X41035108Y-22100412D01*
X41059612Y-22099208D01*
X41084116Y-22100412D01*
X41084116Y-22100412D01*
G37*
D11*
X41148000Y-22897216D03*
D10*
G36*
X39634548Y-23549980D02*
G01*
X39658816Y-23553580D01*
X39682615Y-23559541D01*
X39705714Y-23567806D01*
X39727893Y-23578296D01*
X39748936Y-23590908D01*
X39768642Y-23605523D01*
X39786820Y-23621999D01*
X40423217Y-24258396D01*
X40439693Y-24276574D01*
X40454308Y-24296280D01*
X40466920Y-24317323D01*
X40477410Y-24339502D01*
X40485675Y-24362601D01*
X40491636Y-24386400D01*
X40495236Y-24410668D01*
X40496440Y-24435172D01*
X40495236Y-24459676D01*
X40491636Y-24483944D01*
X40485675Y-24507743D01*
X40477410Y-24530842D01*
X40466920Y-24553021D01*
X40454308Y-24574064D01*
X40439693Y-24593770D01*
X40423217Y-24611948D01*
X39963596Y-25071569D01*
X39945418Y-25088045D01*
X39925712Y-25102660D01*
X39904669Y-25115272D01*
X39882490Y-25125762D01*
X39859391Y-25134027D01*
X39835592Y-25139988D01*
X39811324Y-25143588D01*
X39786820Y-25144792D01*
X39762316Y-25143588D01*
X39738048Y-25139988D01*
X39714249Y-25134027D01*
X39691150Y-25125762D01*
X39668971Y-25115272D01*
X39647928Y-25102660D01*
X39628222Y-25088045D01*
X39610044Y-25071569D01*
X38973647Y-24435172D01*
X38957171Y-24416994D01*
X38942556Y-24397288D01*
X38929944Y-24376245D01*
X38919454Y-24354066D01*
X38911189Y-24330967D01*
X38905228Y-24307168D01*
X38901628Y-24282900D01*
X38900424Y-24258396D01*
X38901628Y-24233892D01*
X38905228Y-24209624D01*
X38911189Y-24185825D01*
X38919454Y-24162726D01*
X38929944Y-24140547D01*
X38942556Y-24119504D01*
X38957171Y-24099798D01*
X38973647Y-24081620D01*
X39433268Y-23621999D01*
X39451446Y-23605523D01*
X39471152Y-23590908D01*
X39492195Y-23578296D01*
X39514374Y-23567806D01*
X39537473Y-23559541D01*
X39561272Y-23553580D01*
X39585540Y-23549980D01*
X39610044Y-23548776D01*
X39634548Y-23549980D01*
X39634548Y-23549980D01*
G37*
D11*
X39698432Y-24346784D03*
D10*
G36*
X38250108Y-19052412D02*
G01*
X38274376Y-19056012D01*
X38298175Y-19061973D01*
X38321274Y-19070238D01*
X38343453Y-19080728D01*
X38364496Y-19093340D01*
X38384202Y-19107955D01*
X38402380Y-19124431D01*
X38862001Y-19584052D01*
X38878477Y-19602230D01*
X38893092Y-19621936D01*
X38905704Y-19642979D01*
X38916194Y-19665158D01*
X38924459Y-19688257D01*
X38930420Y-19712056D01*
X38934020Y-19736324D01*
X38935224Y-19760828D01*
X38934020Y-19785332D01*
X38930420Y-19809600D01*
X38924459Y-19833399D01*
X38916194Y-19856498D01*
X38905704Y-19878677D01*
X38893092Y-19899720D01*
X38878477Y-19919426D01*
X38862001Y-19937604D01*
X38225604Y-20574001D01*
X38207426Y-20590477D01*
X38187720Y-20605092D01*
X38166677Y-20617704D01*
X38144498Y-20628194D01*
X38121399Y-20636459D01*
X38097600Y-20642420D01*
X38073332Y-20646020D01*
X38048828Y-20647224D01*
X38024324Y-20646020D01*
X38000056Y-20642420D01*
X37976257Y-20636459D01*
X37953158Y-20628194D01*
X37930979Y-20617704D01*
X37909936Y-20605092D01*
X37890230Y-20590477D01*
X37872052Y-20574001D01*
X37412431Y-20114380D01*
X37395955Y-20096202D01*
X37381340Y-20076496D01*
X37368728Y-20055453D01*
X37358238Y-20033274D01*
X37349973Y-20010175D01*
X37344012Y-19986376D01*
X37340412Y-19962108D01*
X37339208Y-19937604D01*
X37340412Y-19913100D01*
X37344012Y-19888832D01*
X37349973Y-19865033D01*
X37358238Y-19841934D01*
X37368728Y-19819755D01*
X37381340Y-19798712D01*
X37395955Y-19779006D01*
X37412431Y-19760828D01*
X38048828Y-19124431D01*
X38067006Y-19107955D01*
X38086712Y-19093340D01*
X38107755Y-19080728D01*
X38129934Y-19070238D01*
X38153033Y-19061973D01*
X38176832Y-19056012D01*
X38201100Y-19052412D01*
X38225604Y-19051208D01*
X38250108Y-19052412D01*
X38250108Y-19052412D01*
G37*
D11*
X38137216Y-19849216D03*
D10*
G36*
X39699676Y-20501980D02*
G01*
X39723944Y-20505580D01*
X39747743Y-20511541D01*
X39770842Y-20519806D01*
X39793021Y-20530296D01*
X39814064Y-20542908D01*
X39833770Y-20557523D01*
X39851948Y-20573999D01*
X40311569Y-21033620D01*
X40328045Y-21051798D01*
X40342660Y-21071504D01*
X40355272Y-21092547D01*
X40365762Y-21114726D01*
X40374027Y-21137825D01*
X40379988Y-21161624D01*
X40383588Y-21185892D01*
X40384792Y-21210396D01*
X40383588Y-21234900D01*
X40379988Y-21259168D01*
X40374027Y-21282967D01*
X40365762Y-21306066D01*
X40355272Y-21328245D01*
X40342660Y-21349288D01*
X40328045Y-21368994D01*
X40311569Y-21387172D01*
X39675172Y-22023569D01*
X39656994Y-22040045D01*
X39637288Y-22054660D01*
X39616245Y-22067272D01*
X39594066Y-22077762D01*
X39570967Y-22086027D01*
X39547168Y-22091988D01*
X39522900Y-22095588D01*
X39498396Y-22096792D01*
X39473892Y-22095588D01*
X39449624Y-22091988D01*
X39425825Y-22086027D01*
X39402726Y-22077762D01*
X39380547Y-22067272D01*
X39359504Y-22054660D01*
X39339798Y-22040045D01*
X39321620Y-22023569D01*
X38861999Y-21563948D01*
X38845523Y-21545770D01*
X38830908Y-21526064D01*
X38818296Y-21505021D01*
X38807806Y-21482842D01*
X38799541Y-21459743D01*
X38793580Y-21435944D01*
X38789980Y-21411676D01*
X38788776Y-21387172D01*
X38789980Y-21362668D01*
X38793580Y-21338400D01*
X38799541Y-21314601D01*
X38807806Y-21291502D01*
X38818296Y-21269323D01*
X38830908Y-21248280D01*
X38845523Y-21228574D01*
X38861999Y-21210396D01*
X39498396Y-20573999D01*
X39516574Y-20557523D01*
X39536280Y-20542908D01*
X39557323Y-20530296D01*
X39579502Y-20519806D01*
X39602601Y-20511541D01*
X39626400Y-20505580D01*
X39650668Y-20501980D01*
X39675172Y-20500776D01*
X39699676Y-20501980D01*
X39699676Y-20501980D01*
G37*
D11*
X39586784Y-21298784D03*
D10*
G36*
X14439705Y-18868204D02*
G01*
X14463973Y-18871804D01*
X14487772Y-18877765D01*
X14510871Y-18886030D01*
X14533050Y-18896520D01*
X14554093Y-18909132D01*
X14573799Y-18923747D01*
X14591977Y-18940223D01*
X14608453Y-18958401D01*
X14623068Y-18978107D01*
X14635680Y-18999150D01*
X14646170Y-19021329D01*
X14654435Y-19044428D01*
X14660396Y-19068227D01*
X14663996Y-19092495D01*
X14665200Y-19116999D01*
X14665200Y-19767001D01*
X14663996Y-19791505D01*
X14660396Y-19815773D01*
X14654435Y-19839572D01*
X14646170Y-19862671D01*
X14635680Y-19884850D01*
X14623068Y-19905893D01*
X14608453Y-19925599D01*
X14591977Y-19943777D01*
X14573799Y-19960253D01*
X14554093Y-19974868D01*
X14533050Y-19987480D01*
X14510871Y-19997970D01*
X14487772Y-20006235D01*
X14463973Y-20012196D01*
X14439705Y-20015796D01*
X14415201Y-20017000D01*
X13515199Y-20017000D01*
X13490695Y-20015796D01*
X13466427Y-20012196D01*
X13442628Y-20006235D01*
X13419529Y-19997970D01*
X13397350Y-19987480D01*
X13376307Y-19974868D01*
X13356601Y-19960253D01*
X13338423Y-19943777D01*
X13321947Y-19925599D01*
X13307332Y-19905893D01*
X13294720Y-19884850D01*
X13284230Y-19862671D01*
X13275965Y-19839572D01*
X13270004Y-19815773D01*
X13266404Y-19791505D01*
X13265200Y-19767001D01*
X13265200Y-19116999D01*
X13266404Y-19092495D01*
X13270004Y-19068227D01*
X13275965Y-19044428D01*
X13284230Y-19021329D01*
X13294720Y-18999150D01*
X13307332Y-18978107D01*
X13321947Y-18958401D01*
X13338423Y-18940223D01*
X13356601Y-18923747D01*
X13376307Y-18909132D01*
X13397350Y-18896520D01*
X13419529Y-18886030D01*
X13442628Y-18877765D01*
X13466427Y-18871804D01*
X13490695Y-18868204D01*
X13515199Y-18867000D01*
X14415201Y-18867000D01*
X14439705Y-18868204D01*
X14439705Y-18868204D01*
G37*
D11*
X13965200Y-19442000D03*
D10*
G36*
X14439705Y-20918204D02*
G01*
X14463973Y-20921804D01*
X14487772Y-20927765D01*
X14510871Y-20936030D01*
X14533050Y-20946520D01*
X14554093Y-20959132D01*
X14573799Y-20973747D01*
X14591977Y-20990223D01*
X14608453Y-21008401D01*
X14623068Y-21028107D01*
X14635680Y-21049150D01*
X14646170Y-21071329D01*
X14654435Y-21094428D01*
X14660396Y-21118227D01*
X14663996Y-21142495D01*
X14665200Y-21166999D01*
X14665200Y-21817001D01*
X14663996Y-21841505D01*
X14660396Y-21865773D01*
X14654435Y-21889572D01*
X14646170Y-21912671D01*
X14635680Y-21934850D01*
X14623068Y-21955893D01*
X14608453Y-21975599D01*
X14591977Y-21993777D01*
X14573799Y-22010253D01*
X14554093Y-22024868D01*
X14533050Y-22037480D01*
X14510871Y-22047970D01*
X14487772Y-22056235D01*
X14463973Y-22062196D01*
X14439705Y-22065796D01*
X14415201Y-22067000D01*
X13515199Y-22067000D01*
X13490695Y-22065796D01*
X13466427Y-22062196D01*
X13442628Y-22056235D01*
X13419529Y-22047970D01*
X13397350Y-22037480D01*
X13376307Y-22024868D01*
X13356601Y-22010253D01*
X13338423Y-21993777D01*
X13321947Y-21975599D01*
X13307332Y-21955893D01*
X13294720Y-21934850D01*
X13284230Y-21912671D01*
X13275965Y-21889572D01*
X13270004Y-21865773D01*
X13266404Y-21841505D01*
X13265200Y-21817001D01*
X13265200Y-21166999D01*
X13266404Y-21142495D01*
X13270004Y-21118227D01*
X13275965Y-21094428D01*
X13284230Y-21071329D01*
X13294720Y-21049150D01*
X13307332Y-21028107D01*
X13321947Y-21008401D01*
X13338423Y-20990223D01*
X13356601Y-20973747D01*
X13376307Y-20959132D01*
X13397350Y-20946520D01*
X13419529Y-20936030D01*
X13442628Y-20927765D01*
X13466427Y-20921804D01*
X13490695Y-20918204D01*
X13515199Y-20917000D01*
X14415201Y-20917000D01*
X14439705Y-20918204D01*
X14439705Y-20918204D01*
G37*
D11*
X13965200Y-21492000D03*
D10*
G36*
X16439705Y-18868204D02*
G01*
X16463973Y-18871804D01*
X16487772Y-18877765D01*
X16510871Y-18886030D01*
X16533050Y-18896520D01*
X16554093Y-18909132D01*
X16573799Y-18923747D01*
X16591977Y-18940223D01*
X16608453Y-18958401D01*
X16623068Y-18978107D01*
X16635680Y-18999150D01*
X16646170Y-19021329D01*
X16654435Y-19044428D01*
X16660396Y-19068227D01*
X16663996Y-19092495D01*
X16665200Y-19116999D01*
X16665200Y-19767001D01*
X16663996Y-19791505D01*
X16660396Y-19815773D01*
X16654435Y-19839572D01*
X16646170Y-19862671D01*
X16635680Y-19884850D01*
X16623068Y-19905893D01*
X16608453Y-19925599D01*
X16591977Y-19943777D01*
X16573799Y-19960253D01*
X16554093Y-19974868D01*
X16533050Y-19987480D01*
X16510871Y-19997970D01*
X16487772Y-20006235D01*
X16463973Y-20012196D01*
X16439705Y-20015796D01*
X16415201Y-20017000D01*
X15515199Y-20017000D01*
X15490695Y-20015796D01*
X15466427Y-20012196D01*
X15442628Y-20006235D01*
X15419529Y-19997970D01*
X15397350Y-19987480D01*
X15376307Y-19974868D01*
X15356601Y-19960253D01*
X15338423Y-19943777D01*
X15321947Y-19925599D01*
X15307332Y-19905893D01*
X15294720Y-19884850D01*
X15284230Y-19862671D01*
X15275965Y-19839572D01*
X15270004Y-19815773D01*
X15266404Y-19791505D01*
X15265200Y-19767001D01*
X15265200Y-19116999D01*
X15266404Y-19092495D01*
X15270004Y-19068227D01*
X15275965Y-19044428D01*
X15284230Y-19021329D01*
X15294720Y-18999150D01*
X15307332Y-18978107D01*
X15321947Y-18958401D01*
X15338423Y-18940223D01*
X15356601Y-18923747D01*
X15376307Y-18909132D01*
X15397350Y-18896520D01*
X15419529Y-18886030D01*
X15442628Y-18877765D01*
X15466427Y-18871804D01*
X15490695Y-18868204D01*
X15515199Y-18867000D01*
X16415201Y-18867000D01*
X16439705Y-18868204D01*
X16439705Y-18868204D01*
G37*
D11*
X15965200Y-19442000D03*
D10*
G36*
X16439705Y-20918204D02*
G01*
X16463973Y-20921804D01*
X16487772Y-20927765D01*
X16510871Y-20936030D01*
X16533050Y-20946520D01*
X16554093Y-20959132D01*
X16573799Y-20973747D01*
X16591977Y-20990223D01*
X16608453Y-21008401D01*
X16623068Y-21028107D01*
X16635680Y-21049150D01*
X16646170Y-21071329D01*
X16654435Y-21094428D01*
X16660396Y-21118227D01*
X16663996Y-21142495D01*
X16665200Y-21166999D01*
X16665200Y-21817001D01*
X16663996Y-21841505D01*
X16660396Y-21865773D01*
X16654435Y-21889572D01*
X16646170Y-21912671D01*
X16635680Y-21934850D01*
X16623068Y-21955893D01*
X16608453Y-21975599D01*
X16591977Y-21993777D01*
X16573799Y-22010253D01*
X16554093Y-22024868D01*
X16533050Y-22037480D01*
X16510871Y-22047970D01*
X16487772Y-22056235D01*
X16463973Y-22062196D01*
X16439705Y-22065796D01*
X16415201Y-22067000D01*
X15515199Y-22067000D01*
X15490695Y-22065796D01*
X15466427Y-22062196D01*
X15442628Y-22056235D01*
X15419529Y-22047970D01*
X15397350Y-22037480D01*
X15376307Y-22024868D01*
X15356601Y-22010253D01*
X15338423Y-21993777D01*
X15321947Y-21975599D01*
X15307332Y-21955893D01*
X15294720Y-21934850D01*
X15284230Y-21912671D01*
X15275965Y-21889572D01*
X15270004Y-21865773D01*
X15266404Y-21841505D01*
X15265200Y-21817001D01*
X15265200Y-21166999D01*
X15266404Y-21142495D01*
X15270004Y-21118227D01*
X15275965Y-21094428D01*
X15284230Y-21071329D01*
X15294720Y-21049150D01*
X15307332Y-21028107D01*
X15321947Y-21008401D01*
X15338423Y-20990223D01*
X15356601Y-20973747D01*
X15376307Y-20959132D01*
X15397350Y-20946520D01*
X15419529Y-20936030D01*
X15442628Y-20927765D01*
X15466427Y-20921804D01*
X15490695Y-20918204D01*
X15515199Y-20917000D01*
X16415201Y-20917000D01*
X16439705Y-20918204D01*
X16439705Y-20918204D01*
G37*
D11*
X15965200Y-21492000D03*
M02*
