G04 #@! TF.GenerationSoftware,KiCad,Pcbnew,(5.1.2-1)-1*
G04 #@! TF.CreationDate,2020-03-21T18:46:45+05:30*
G04 #@! TF.ProjectId,RedPill,52656450-696c-46c2-9e6b-696361645f70,rev?*
G04 #@! TF.SameCoordinates,Original*
G04 #@! TF.FileFunction,Legend,Top*
G04 #@! TF.FilePolarity,Positive*
%FSLAX46Y46*%
G04 Gerber Fmt 4.6, Leading zero omitted, Abs format (unit mm)*
G04 Created by KiCad (PCBNEW (5.1.2-1)-1) date 2020-03-21 18:46:45*
%MOMM*%
%LPD*%
G04 APERTURE LIST*
%ADD10C,0.150000*%
%ADD11C,0.120000*%
G04 APERTURE END LIST*
D10*
X22285714Y-19802380D02*
X21714285Y-19802380D01*
X22000000Y-19802380D02*
X22000000Y-18802380D01*
X21904761Y-18945238D01*
X21809523Y-19040476D01*
X21714285Y-19088095D01*
X22285714Y-23102380D02*
X21714285Y-23102380D01*
X22000000Y-23102380D02*
X22000000Y-22102380D01*
X21904761Y-22245238D01*
X21809523Y-22340476D01*
X21714285Y-22388095D01*
X30752380Y-18802380D02*
X30847619Y-18802380D01*
X30942857Y-18850000D01*
X30990476Y-18897619D01*
X31038095Y-18992857D01*
X31085714Y-19183333D01*
X31085714Y-19421428D01*
X31038095Y-19611904D01*
X30990476Y-19707142D01*
X30942857Y-19754761D01*
X30847619Y-19802380D01*
X30752380Y-19802380D01*
X30657142Y-19754761D01*
X30609523Y-19707142D01*
X30561904Y-19611904D01*
X30514285Y-19421428D01*
X30514285Y-19183333D01*
X30561904Y-18992857D01*
X30609523Y-18897619D01*
X30657142Y-18850000D01*
X30752380Y-18802380D01*
X30752380Y-22102380D02*
X30847619Y-22102380D01*
X30942857Y-22150000D01*
X30990476Y-22197619D01*
X31038095Y-22292857D01*
X31085714Y-22483333D01*
X31085714Y-22721428D01*
X31038095Y-22911904D01*
X30990476Y-23007142D01*
X30942857Y-23054761D01*
X30847619Y-23102380D01*
X30752380Y-23102380D01*
X30657142Y-23054761D01*
X30609523Y-23007142D01*
X30561904Y-22911904D01*
X30514285Y-22721428D01*
X30514285Y-22483333D01*
X30561904Y-22292857D01*
X30609523Y-22197619D01*
X30657142Y-22150000D01*
X30752380Y-22102380D01*
X24566666Y-24229196D02*
X24709523Y-24276815D01*
X24757142Y-24324434D01*
X24804761Y-24419672D01*
X24804761Y-24562529D01*
X24757142Y-24657767D01*
X24709523Y-24705386D01*
X24614285Y-24753005D01*
X24233333Y-24753005D01*
X24233333Y-23753005D01*
X24566666Y-23753005D01*
X24661904Y-23800625D01*
X24709523Y-23848244D01*
X24757142Y-23943482D01*
X24757142Y-24038720D01*
X24709523Y-24133958D01*
X24661904Y-24181577D01*
X24566666Y-24229196D01*
X24233333Y-24229196D01*
X25423809Y-23753005D02*
X25614285Y-23753005D01*
X25709523Y-23800625D01*
X25804761Y-23895863D01*
X25852380Y-24086339D01*
X25852380Y-24419672D01*
X25804761Y-24610148D01*
X25709523Y-24705386D01*
X25614285Y-24753005D01*
X25423809Y-24753005D01*
X25328571Y-24705386D01*
X25233333Y-24610148D01*
X25185714Y-24419672D01*
X25185714Y-24086339D01*
X25233333Y-23895863D01*
X25328571Y-23800625D01*
X25423809Y-23753005D01*
X26471428Y-23753005D02*
X26661904Y-23753005D01*
X26757142Y-23800625D01*
X26852380Y-23895863D01*
X26900000Y-24086339D01*
X26900000Y-24419672D01*
X26852380Y-24610148D01*
X26757142Y-24705386D01*
X26661904Y-24753005D01*
X26471428Y-24753005D01*
X26376190Y-24705386D01*
X26280952Y-24610148D01*
X26233333Y-24419672D01*
X26233333Y-24086339D01*
X26280952Y-23895863D01*
X26376190Y-23800625D01*
X26471428Y-23753005D01*
X27185714Y-23753005D02*
X27757142Y-23753005D01*
X27471428Y-24753005D02*
X27471428Y-23753005D01*
X28280952Y-23753005D02*
X28376190Y-23753005D01*
X28471428Y-23800625D01*
X28519047Y-23848244D01*
X28566666Y-23943482D01*
X28614285Y-24133958D01*
X28614285Y-24372053D01*
X28566666Y-24562529D01*
X28519047Y-24657767D01*
X28471428Y-24705386D01*
X28376190Y-24753005D01*
X28280952Y-24753005D01*
X28185714Y-24705386D01*
X28138095Y-24657767D01*
X28090476Y-24562529D01*
X28042857Y-24372053D01*
X28042857Y-24133958D01*
X28090476Y-23943482D01*
X28138095Y-23848244D01*
X28185714Y-23800625D01*
X28280952Y-23753005D01*
X24566666Y-17629196D02*
X24709523Y-17676815D01*
X24757142Y-17724434D01*
X24804761Y-17819672D01*
X24804761Y-17962529D01*
X24757142Y-18057767D01*
X24709523Y-18105386D01*
X24614285Y-18153005D01*
X24233333Y-18153005D01*
X24233333Y-17153005D01*
X24566666Y-17153005D01*
X24661904Y-17200625D01*
X24709523Y-17248244D01*
X24757142Y-17343482D01*
X24757142Y-17438720D01*
X24709523Y-17533958D01*
X24661904Y-17581577D01*
X24566666Y-17629196D01*
X24233333Y-17629196D01*
X25423809Y-17153005D02*
X25614285Y-17153005D01*
X25709523Y-17200625D01*
X25804761Y-17295863D01*
X25852380Y-17486339D01*
X25852380Y-17819672D01*
X25804761Y-18010148D01*
X25709523Y-18105386D01*
X25614285Y-18153005D01*
X25423809Y-18153005D01*
X25328571Y-18105386D01*
X25233333Y-18010148D01*
X25185714Y-17819672D01*
X25185714Y-17486339D01*
X25233333Y-17295863D01*
X25328571Y-17200625D01*
X25423809Y-17153005D01*
X26471428Y-17153005D02*
X26661904Y-17153005D01*
X26757142Y-17200625D01*
X26852380Y-17295863D01*
X26900000Y-17486339D01*
X26900000Y-17819672D01*
X26852380Y-18010148D01*
X26757142Y-18105386D01*
X26661904Y-18153005D01*
X26471428Y-18153005D01*
X26376190Y-18105386D01*
X26280952Y-18010148D01*
X26233333Y-17819672D01*
X26233333Y-17486339D01*
X26280952Y-17295863D01*
X26376190Y-17200625D01*
X26471428Y-17153005D01*
X27185714Y-17153005D02*
X27757142Y-17153005D01*
X27471428Y-18153005D02*
X27471428Y-17153005D01*
X28614285Y-18153005D02*
X28042857Y-18153005D01*
X28328571Y-18153005D02*
X28328571Y-17153005D01*
X28233333Y-17295863D01*
X28138095Y-17391101D01*
X28042857Y-17438720D01*
X60974672Y-19018750D02*
X60907053Y-18984940D01*
X60805625Y-18984940D01*
X60704196Y-19018750D01*
X60636577Y-19086369D01*
X60602767Y-19153988D01*
X60568958Y-19289226D01*
X60568958Y-19390654D01*
X60602767Y-19525892D01*
X60636577Y-19593511D01*
X60704196Y-19661130D01*
X60805625Y-19694940D01*
X60873244Y-19694940D01*
X60974672Y-19661130D01*
X61008482Y-19627321D01*
X61008482Y-19390654D01*
X60873244Y-19390654D01*
X61312767Y-19694940D02*
X61312767Y-18984940D01*
X61718482Y-19694940D01*
X61718482Y-18984940D01*
X62056577Y-19694940D02*
X62056577Y-18984940D01*
X62225625Y-18984940D01*
X62327053Y-19018750D01*
X62394672Y-19086369D01*
X62428482Y-19153988D01*
X62462291Y-19289226D01*
X62462291Y-19390654D01*
X62428482Y-19525892D01*
X62394672Y-19593511D01*
X62327053Y-19661130D01*
X62225625Y-19694940D01*
X62056577Y-19694940D01*
X61093005Y-22057321D02*
X61059196Y-22091130D01*
X60957767Y-22124940D01*
X60890148Y-22124940D01*
X60788720Y-22091130D01*
X60721101Y-22023511D01*
X60687291Y-21955892D01*
X60653482Y-21820654D01*
X60653482Y-21719226D01*
X60687291Y-21583988D01*
X60721101Y-21516369D01*
X60788720Y-21448750D01*
X60890148Y-21414940D01*
X60957767Y-21414940D01*
X61059196Y-21448750D01*
X61093005Y-21482559D01*
X61735386Y-22124940D02*
X61397291Y-22124940D01*
X61397291Y-21414940D01*
X61972053Y-22124940D02*
X61972053Y-21414940D01*
X62377767Y-22124940D02*
X62073482Y-21719226D01*
X62377767Y-21414940D02*
X61972053Y-21820654D01*
X60788720Y-24554940D02*
X60788720Y-23844940D01*
X60957767Y-23844940D01*
X61059196Y-23878750D01*
X61126815Y-23946369D01*
X61160625Y-24013988D01*
X61194434Y-24149226D01*
X61194434Y-24250654D01*
X61160625Y-24385892D01*
X61126815Y-24453511D01*
X61059196Y-24521130D01*
X60957767Y-24554940D01*
X60788720Y-24554940D01*
X61498720Y-24554940D02*
X61498720Y-23844940D01*
X61972053Y-23844940D02*
X62107291Y-23844940D01*
X62174910Y-23878750D01*
X62242529Y-23946369D01*
X62276339Y-24081607D01*
X62276339Y-24318273D01*
X62242529Y-24453511D01*
X62174910Y-24521130D01*
X62107291Y-24554940D01*
X61972053Y-24554940D01*
X61904434Y-24521130D01*
X61836815Y-24453511D01*
X61803005Y-24318273D01*
X61803005Y-24081607D01*
X61836815Y-23946369D01*
X61904434Y-23878750D01*
X61972053Y-23844940D01*
X60467529Y-26274940D02*
X60907053Y-26274940D01*
X60670386Y-26545416D01*
X60771815Y-26545416D01*
X60839434Y-26579226D01*
X60873244Y-26613035D01*
X60907053Y-26680654D01*
X60907053Y-26849702D01*
X60873244Y-26917321D01*
X60839434Y-26951130D01*
X60771815Y-26984940D01*
X60568958Y-26984940D01*
X60501339Y-26951130D01*
X60467529Y-26917321D01*
X61211339Y-26917321D02*
X61245148Y-26951130D01*
X61211339Y-26984940D01*
X61177529Y-26951130D01*
X61211339Y-26917321D01*
X61211339Y-26984940D01*
X61481815Y-26274940D02*
X61921339Y-26274940D01*
X61684672Y-26545416D01*
X61786101Y-26545416D01*
X61853720Y-26579226D01*
X61887529Y-26613035D01*
X61921339Y-26680654D01*
X61921339Y-26849702D01*
X61887529Y-26917321D01*
X61853720Y-26951130D01*
X61786101Y-26984940D01*
X61583244Y-26984940D01*
X61515625Y-26951130D01*
X61481815Y-26917321D01*
X62124196Y-26274940D02*
X62360863Y-26984940D01*
X62597529Y-26274940D01*
X14185595Y-13152500D02*
X14117976Y-13104880D01*
X14016547Y-13104880D01*
X13915119Y-13152500D01*
X13847500Y-13247738D01*
X13813690Y-13342976D01*
X13779880Y-13533452D01*
X13779880Y-13676309D01*
X13813690Y-13866785D01*
X13847500Y-13962023D01*
X13915119Y-14057261D01*
X14016547Y-14104880D01*
X14084166Y-14104880D01*
X14185595Y-14057261D01*
X14219404Y-14009642D01*
X14219404Y-13676309D01*
X14084166Y-13676309D01*
X14523690Y-14104880D02*
X14523690Y-13104880D01*
X14929404Y-14104880D01*
X14929404Y-13104880D01*
X15267500Y-14104880D02*
X15267500Y-13104880D01*
X15436547Y-13104880D01*
X15537976Y-13152500D01*
X15605595Y-13247738D01*
X15639404Y-13342976D01*
X15673214Y-13533452D01*
X15673214Y-13676309D01*
X15639404Y-13866785D01*
X15605595Y-13962023D01*
X15537976Y-14057261D01*
X15436547Y-14104880D01*
X15267500Y-14104880D01*
X16890357Y-13152500D02*
X16822738Y-13104880D01*
X16721309Y-13104880D01*
X16619880Y-13152500D01*
X16552261Y-13247738D01*
X16518452Y-13342976D01*
X16484642Y-13533452D01*
X16484642Y-13676309D01*
X16518452Y-13866785D01*
X16552261Y-13962023D01*
X16619880Y-14057261D01*
X16721309Y-14104880D01*
X16788928Y-14104880D01*
X16890357Y-14057261D01*
X16924166Y-14009642D01*
X16924166Y-13676309D01*
X16788928Y-13676309D01*
X17228452Y-14104880D02*
X17228452Y-13104880D01*
X17634166Y-14104880D01*
X17634166Y-13104880D01*
X17972261Y-14104880D02*
X17972261Y-13104880D01*
X18141309Y-13104880D01*
X18242738Y-13152500D01*
X18310357Y-13247738D01*
X18344166Y-13342976D01*
X18377976Y-13533452D01*
X18377976Y-13676309D01*
X18344166Y-13866785D01*
X18310357Y-13962023D01*
X18242738Y-14057261D01*
X18141309Y-14104880D01*
X17972261Y-14104880D01*
X19155595Y-13104880D02*
X19595119Y-13104880D01*
X19358452Y-13485833D01*
X19459880Y-13485833D01*
X19527500Y-13533452D01*
X19561309Y-13581071D01*
X19595119Y-13676309D01*
X19595119Y-13914404D01*
X19561309Y-14009642D01*
X19527500Y-14057261D01*
X19459880Y-14104880D01*
X19257023Y-14104880D01*
X19189404Y-14057261D01*
X19155595Y-14009642D01*
X19899404Y-14009642D02*
X19933214Y-14057261D01*
X19899404Y-14104880D01*
X19865595Y-14057261D01*
X19899404Y-14009642D01*
X19899404Y-14104880D01*
X20169880Y-13104880D02*
X20609404Y-13104880D01*
X20372738Y-13485833D01*
X20474166Y-13485833D01*
X20541785Y-13533452D01*
X20575595Y-13581071D01*
X20609404Y-13676309D01*
X20609404Y-13914404D01*
X20575595Y-14009642D01*
X20541785Y-14057261D01*
X20474166Y-14104880D01*
X20271309Y-14104880D01*
X20203690Y-14057261D01*
X20169880Y-14009642D01*
X20812261Y-13104880D02*
X21048928Y-14104880D01*
X21285595Y-13104880D01*
X22468928Y-14104880D02*
X22232261Y-13628690D01*
X22063214Y-14104880D02*
X22063214Y-13104880D01*
X22333690Y-13104880D01*
X22401309Y-13152500D01*
X22435119Y-13200119D01*
X22468928Y-13295357D01*
X22468928Y-13438214D01*
X22435119Y-13533452D01*
X22401309Y-13581071D01*
X22333690Y-13628690D01*
X22063214Y-13628690D01*
X22739404Y-14057261D02*
X22840833Y-14104880D01*
X23009880Y-14104880D01*
X23077500Y-14057261D01*
X23111309Y-14009642D01*
X23145119Y-13914404D01*
X23145119Y-13819166D01*
X23111309Y-13723928D01*
X23077500Y-13676309D01*
X23009880Y-13628690D01*
X22874642Y-13581071D01*
X22807023Y-13533452D01*
X22773214Y-13485833D01*
X22739404Y-13390595D01*
X22739404Y-13295357D01*
X22773214Y-13200119D01*
X22807023Y-13152500D01*
X22874642Y-13104880D01*
X23043690Y-13104880D01*
X23145119Y-13152500D01*
X23347976Y-13104880D02*
X23753690Y-13104880D01*
X23550833Y-14104880D02*
X23550833Y-13104880D01*
X24767976Y-13581071D02*
X24869404Y-13628690D01*
X24903214Y-13676309D01*
X24937023Y-13771547D01*
X24937023Y-13914404D01*
X24903214Y-14009642D01*
X24869404Y-14057261D01*
X24801785Y-14104880D01*
X24531309Y-14104880D01*
X24531309Y-13104880D01*
X24767976Y-13104880D01*
X24835595Y-13152500D01*
X24869404Y-13200119D01*
X24903214Y-13295357D01*
X24903214Y-13390595D01*
X24869404Y-13485833D01*
X24835595Y-13533452D01*
X24767976Y-13581071D01*
X24531309Y-13581071D01*
X25613214Y-14104880D02*
X25207500Y-14104880D01*
X25410357Y-14104880D02*
X25410357Y-13104880D01*
X25342738Y-13247738D01*
X25275119Y-13342976D01*
X25207500Y-13390595D01*
X26289404Y-14104880D02*
X25883690Y-14104880D01*
X26086547Y-14104880D02*
X26086547Y-13104880D01*
X26018928Y-13247738D01*
X25951309Y-13342976D01*
X25883690Y-13390595D01*
X27371309Y-13581071D02*
X27472738Y-13628690D01*
X27506547Y-13676309D01*
X27540357Y-13771547D01*
X27540357Y-13914404D01*
X27506547Y-14009642D01*
X27472738Y-14057261D01*
X27405119Y-14104880D01*
X27134642Y-14104880D01*
X27134642Y-13104880D01*
X27371309Y-13104880D01*
X27438928Y-13152500D01*
X27472738Y-13200119D01*
X27506547Y-13295357D01*
X27506547Y-13390595D01*
X27472738Y-13485833D01*
X27438928Y-13533452D01*
X27371309Y-13581071D01*
X27134642Y-13581071D01*
X28216547Y-14104880D02*
X27810833Y-14104880D01*
X28013690Y-14104880D02*
X28013690Y-13104880D01*
X27946071Y-13247738D01*
X27878452Y-13342976D01*
X27810833Y-13390595D01*
X28656071Y-13104880D02*
X28723690Y-13104880D01*
X28791309Y-13152500D01*
X28825119Y-13200119D01*
X28858928Y-13295357D01*
X28892738Y-13485833D01*
X28892738Y-13723928D01*
X28858928Y-13914404D01*
X28825119Y-14009642D01*
X28791309Y-14057261D01*
X28723690Y-14104880D01*
X28656071Y-14104880D01*
X28588452Y-14057261D01*
X28554642Y-14009642D01*
X28520833Y-13914404D01*
X28487023Y-13723928D01*
X28487023Y-13485833D01*
X28520833Y-13295357D01*
X28554642Y-13200119D01*
X28588452Y-13152500D01*
X28656071Y-13104880D01*
X29974642Y-13581071D02*
X30076071Y-13628690D01*
X30109880Y-13676309D01*
X30143690Y-13771547D01*
X30143690Y-13914404D01*
X30109880Y-14009642D01*
X30076071Y-14057261D01*
X30008452Y-14104880D01*
X29737976Y-14104880D01*
X29737976Y-13104880D01*
X29974642Y-13104880D01*
X30042261Y-13152500D01*
X30076071Y-13200119D01*
X30109880Y-13295357D01*
X30109880Y-13390595D01*
X30076071Y-13485833D01*
X30042261Y-13533452D01*
X29974642Y-13581071D01*
X29737976Y-13581071D01*
X30583214Y-13104880D02*
X30650833Y-13104880D01*
X30718452Y-13152500D01*
X30752261Y-13200119D01*
X30786071Y-13295357D01*
X30819880Y-13485833D01*
X30819880Y-13723928D01*
X30786071Y-13914404D01*
X30752261Y-14009642D01*
X30718452Y-14057261D01*
X30650833Y-14104880D01*
X30583214Y-14104880D01*
X30515595Y-14057261D01*
X30481785Y-14009642D01*
X30447976Y-13914404D01*
X30414166Y-13723928D01*
X30414166Y-13485833D01*
X30447976Y-13295357D01*
X30481785Y-13200119D01*
X30515595Y-13152500D01*
X30583214Y-13104880D01*
X31496071Y-14104880D02*
X31090357Y-14104880D01*
X31293214Y-14104880D02*
X31293214Y-13104880D01*
X31225595Y-13247738D01*
X31157976Y-13342976D01*
X31090357Y-13390595D01*
X32577976Y-13581071D02*
X32679404Y-13628690D01*
X32713214Y-13676309D01*
X32747023Y-13771547D01*
X32747023Y-13914404D01*
X32713214Y-14009642D01*
X32679404Y-14057261D01*
X32611785Y-14104880D01*
X32341309Y-14104880D01*
X32341309Y-13104880D01*
X32577976Y-13104880D01*
X32645595Y-13152500D01*
X32679404Y-13200119D01*
X32713214Y-13295357D01*
X32713214Y-13390595D01*
X32679404Y-13485833D01*
X32645595Y-13533452D01*
X32577976Y-13581071D01*
X32341309Y-13581071D01*
X33186547Y-13104880D02*
X33254166Y-13104880D01*
X33321785Y-13152500D01*
X33355595Y-13200119D01*
X33389404Y-13295357D01*
X33423214Y-13485833D01*
X33423214Y-13723928D01*
X33389404Y-13914404D01*
X33355595Y-14009642D01*
X33321785Y-14057261D01*
X33254166Y-14104880D01*
X33186547Y-14104880D01*
X33118928Y-14057261D01*
X33085119Y-14009642D01*
X33051309Y-13914404D01*
X33017500Y-13723928D01*
X33017500Y-13485833D01*
X33051309Y-13295357D01*
X33085119Y-13200119D01*
X33118928Y-13152500D01*
X33186547Y-13104880D01*
X33862738Y-13104880D02*
X33930357Y-13104880D01*
X33997976Y-13152500D01*
X34031785Y-13200119D01*
X34065595Y-13295357D01*
X34099404Y-13485833D01*
X34099404Y-13723928D01*
X34065595Y-13914404D01*
X34031785Y-14009642D01*
X33997976Y-14057261D01*
X33930357Y-14104880D01*
X33862738Y-14104880D01*
X33795119Y-14057261D01*
X33761309Y-14009642D01*
X33727500Y-13914404D01*
X33693690Y-13723928D01*
X33693690Y-13485833D01*
X33727500Y-13295357D01*
X33761309Y-13200119D01*
X33795119Y-13152500D01*
X33862738Y-13104880D01*
X34910833Y-13819166D02*
X35248928Y-13819166D01*
X34843214Y-14104880D02*
X35079880Y-13104880D01*
X35316547Y-14104880D01*
X35688452Y-13104880D02*
X35756071Y-13104880D01*
X35823690Y-13152500D01*
X35857500Y-13200119D01*
X35891309Y-13295357D01*
X35925119Y-13485833D01*
X35925119Y-13723928D01*
X35891309Y-13914404D01*
X35857500Y-14009642D01*
X35823690Y-14057261D01*
X35756071Y-14104880D01*
X35688452Y-14104880D01*
X35620833Y-14057261D01*
X35587023Y-14009642D01*
X35553214Y-13914404D01*
X35519404Y-13723928D01*
X35519404Y-13485833D01*
X35553214Y-13295357D01*
X35587023Y-13200119D01*
X35620833Y-13152500D01*
X35688452Y-13104880D01*
X36161785Y-13104880D02*
X36635119Y-13104880D01*
X36330833Y-14104880D01*
X37412738Y-13819166D02*
X37750833Y-13819166D01*
X37345119Y-14104880D02*
X37581785Y-13104880D01*
X37818452Y-14104880D01*
X38190357Y-13104880D02*
X38257976Y-13104880D01*
X38325595Y-13152500D01*
X38359404Y-13200119D01*
X38393214Y-13295357D01*
X38427023Y-13485833D01*
X38427023Y-13723928D01*
X38393214Y-13914404D01*
X38359404Y-14009642D01*
X38325595Y-14057261D01*
X38257976Y-14104880D01*
X38190357Y-14104880D01*
X38122738Y-14057261D01*
X38088928Y-14009642D01*
X38055119Y-13914404D01*
X38021309Y-13723928D01*
X38021309Y-13485833D01*
X38055119Y-13295357D01*
X38088928Y-13200119D01*
X38122738Y-13152500D01*
X38190357Y-13104880D01*
X39035595Y-13104880D02*
X38900357Y-13104880D01*
X38832738Y-13152500D01*
X38798928Y-13200119D01*
X38731309Y-13342976D01*
X38697500Y-13533452D01*
X38697500Y-13914404D01*
X38731309Y-14009642D01*
X38765119Y-14057261D01*
X38832738Y-14104880D01*
X38967976Y-14104880D01*
X39035595Y-14057261D01*
X39069404Y-14009642D01*
X39103214Y-13914404D01*
X39103214Y-13676309D01*
X39069404Y-13581071D01*
X39035595Y-13533452D01*
X38967976Y-13485833D01*
X38832738Y-13485833D01*
X38765119Y-13533452D01*
X38731309Y-13581071D01*
X38697500Y-13676309D01*
X39914642Y-13819166D02*
X40252738Y-13819166D01*
X39847023Y-14104880D02*
X40083690Y-13104880D01*
X40320357Y-14104880D01*
X40692261Y-13104880D02*
X40759880Y-13104880D01*
X40827500Y-13152500D01*
X40861309Y-13200119D01*
X40895119Y-13295357D01*
X40928928Y-13485833D01*
X40928928Y-13723928D01*
X40895119Y-13914404D01*
X40861309Y-14009642D01*
X40827500Y-14057261D01*
X40759880Y-14104880D01*
X40692261Y-14104880D01*
X40624642Y-14057261D01*
X40590833Y-14009642D01*
X40557023Y-13914404D01*
X40523214Y-13723928D01*
X40523214Y-13485833D01*
X40557023Y-13295357D01*
X40590833Y-13200119D01*
X40624642Y-13152500D01*
X40692261Y-13104880D01*
X41571309Y-13104880D02*
X41233214Y-13104880D01*
X41199404Y-13581071D01*
X41233214Y-13533452D01*
X41300833Y-13485833D01*
X41469880Y-13485833D01*
X41537500Y-13533452D01*
X41571309Y-13581071D01*
X41605119Y-13676309D01*
X41605119Y-13914404D01*
X41571309Y-14009642D01*
X41537500Y-14057261D01*
X41469880Y-14104880D01*
X41300833Y-14104880D01*
X41233214Y-14057261D01*
X41199404Y-14009642D01*
X42416547Y-13819166D02*
X42754642Y-13819166D01*
X42348928Y-14104880D02*
X42585595Y-13104880D01*
X42822261Y-14104880D01*
X43194166Y-13104880D02*
X43261785Y-13104880D01*
X43329404Y-13152500D01*
X43363214Y-13200119D01*
X43397023Y-13295357D01*
X43430833Y-13485833D01*
X43430833Y-13723928D01*
X43397023Y-13914404D01*
X43363214Y-14009642D01*
X43329404Y-14057261D01*
X43261785Y-14104880D01*
X43194166Y-14104880D01*
X43126547Y-14057261D01*
X43092738Y-14009642D01*
X43058928Y-13914404D01*
X43025119Y-13723928D01*
X43025119Y-13485833D01*
X43058928Y-13295357D01*
X43092738Y-13200119D01*
X43126547Y-13152500D01*
X43194166Y-13104880D01*
X44039404Y-13438214D02*
X44039404Y-14104880D01*
X43870357Y-13057261D02*
X43701309Y-13771547D01*
X44140833Y-13771547D01*
X44918452Y-13819166D02*
X45256547Y-13819166D01*
X44850833Y-14104880D02*
X45087500Y-13104880D01*
X45324166Y-14104880D01*
X45696071Y-13104880D02*
X45763690Y-13104880D01*
X45831309Y-13152500D01*
X45865119Y-13200119D01*
X45898928Y-13295357D01*
X45932738Y-13485833D01*
X45932738Y-13723928D01*
X45898928Y-13914404D01*
X45865119Y-14009642D01*
X45831309Y-14057261D01*
X45763690Y-14104880D01*
X45696071Y-14104880D01*
X45628452Y-14057261D01*
X45594642Y-14009642D01*
X45560833Y-13914404D01*
X45527023Y-13723928D01*
X45527023Y-13485833D01*
X45560833Y-13295357D01*
X45594642Y-13200119D01*
X45628452Y-13152500D01*
X45696071Y-13104880D01*
X46169404Y-13104880D02*
X46608928Y-13104880D01*
X46372261Y-13485833D01*
X46473690Y-13485833D01*
X46541309Y-13533452D01*
X46575119Y-13581071D01*
X46608928Y-13676309D01*
X46608928Y-13914404D01*
X46575119Y-14009642D01*
X46541309Y-14057261D01*
X46473690Y-14104880D01*
X46270833Y-14104880D01*
X46203214Y-14057261D01*
X46169404Y-14009642D01*
X47420357Y-13819166D02*
X47758452Y-13819166D01*
X47352738Y-14104880D02*
X47589404Y-13104880D01*
X47826071Y-14104880D01*
X48197976Y-13104880D02*
X48265595Y-13104880D01*
X48333214Y-13152500D01*
X48367023Y-13200119D01*
X48400833Y-13295357D01*
X48434642Y-13485833D01*
X48434642Y-13723928D01*
X48400833Y-13914404D01*
X48367023Y-14009642D01*
X48333214Y-14057261D01*
X48265595Y-14104880D01*
X48197976Y-14104880D01*
X48130357Y-14057261D01*
X48096547Y-14009642D01*
X48062738Y-13914404D01*
X48028928Y-13723928D01*
X48028928Y-13485833D01*
X48062738Y-13295357D01*
X48096547Y-13200119D01*
X48130357Y-13152500D01*
X48197976Y-13104880D01*
X48705119Y-13200119D02*
X48738928Y-13152500D01*
X48806547Y-13104880D01*
X48975595Y-13104880D01*
X49043214Y-13152500D01*
X49077023Y-13200119D01*
X49110833Y-13295357D01*
X49110833Y-13390595D01*
X49077023Y-13533452D01*
X48671309Y-14104880D01*
X49110833Y-14104880D01*
X49922261Y-13819166D02*
X50260357Y-13819166D01*
X49854642Y-14104880D02*
X50091309Y-13104880D01*
X50327976Y-14104880D01*
X50699880Y-13104880D02*
X50767500Y-13104880D01*
X50835119Y-13152500D01*
X50868928Y-13200119D01*
X50902738Y-13295357D01*
X50936547Y-13485833D01*
X50936547Y-13723928D01*
X50902738Y-13914404D01*
X50868928Y-14009642D01*
X50835119Y-14057261D01*
X50767500Y-14104880D01*
X50699880Y-14104880D01*
X50632261Y-14057261D01*
X50598452Y-14009642D01*
X50564642Y-13914404D01*
X50530833Y-13723928D01*
X50530833Y-13485833D01*
X50564642Y-13295357D01*
X50598452Y-13200119D01*
X50632261Y-13152500D01*
X50699880Y-13104880D01*
X51612738Y-14104880D02*
X51207023Y-14104880D01*
X51409880Y-14104880D02*
X51409880Y-13104880D01*
X51342261Y-13247738D01*
X51274642Y-13342976D01*
X51207023Y-13390595D01*
X52424166Y-13819166D02*
X52762261Y-13819166D01*
X52356547Y-14104880D02*
X52593214Y-13104880D01*
X52829880Y-14104880D01*
X53201785Y-13104880D02*
X53269404Y-13104880D01*
X53337023Y-13152500D01*
X53370833Y-13200119D01*
X53404642Y-13295357D01*
X53438452Y-13485833D01*
X53438452Y-13723928D01*
X53404642Y-13914404D01*
X53370833Y-14009642D01*
X53337023Y-14057261D01*
X53269404Y-14104880D01*
X53201785Y-14104880D01*
X53134166Y-14057261D01*
X53100357Y-14009642D01*
X53066547Y-13914404D01*
X53032738Y-13723928D01*
X53032738Y-13485833D01*
X53066547Y-13295357D01*
X53100357Y-13200119D01*
X53134166Y-13152500D01*
X53201785Y-13104880D01*
X53877976Y-13104880D02*
X53945595Y-13104880D01*
X54013214Y-13152500D01*
X54047023Y-13200119D01*
X54080833Y-13295357D01*
X54114642Y-13485833D01*
X54114642Y-13723928D01*
X54080833Y-13914404D01*
X54047023Y-14009642D01*
X54013214Y-14057261D01*
X53945595Y-14104880D01*
X53877976Y-14104880D01*
X53810357Y-14057261D01*
X53776547Y-14009642D01*
X53742738Y-13914404D01*
X53708928Y-13723928D01*
X53708928Y-13485833D01*
X53742738Y-13295357D01*
X53776547Y-13200119D01*
X53810357Y-13152500D01*
X53877976Y-13104880D01*
X55365595Y-14009642D02*
X55331785Y-14057261D01*
X55230357Y-14104880D01*
X55162738Y-14104880D01*
X55061309Y-14057261D01*
X54993690Y-13962023D01*
X54959880Y-13866785D01*
X54926071Y-13676309D01*
X54926071Y-13533452D01*
X54959880Y-13342976D01*
X54993690Y-13247738D01*
X55061309Y-13152500D01*
X55162738Y-13104880D01*
X55230357Y-13104880D01*
X55331785Y-13152500D01*
X55365595Y-13200119D01*
X56041785Y-14104880D02*
X55636071Y-14104880D01*
X55838928Y-14104880D02*
X55838928Y-13104880D01*
X55771309Y-13247738D01*
X55703690Y-13342976D01*
X55636071Y-13390595D01*
X56684166Y-13104880D02*
X56346071Y-13104880D01*
X56312261Y-13581071D01*
X56346071Y-13533452D01*
X56413690Y-13485833D01*
X56582738Y-13485833D01*
X56650357Y-13533452D01*
X56684166Y-13581071D01*
X56717976Y-13676309D01*
X56717976Y-13914404D01*
X56684166Y-14009642D01*
X56650357Y-14057261D01*
X56582738Y-14104880D01*
X56413690Y-14104880D01*
X56346071Y-14057261D01*
X56312261Y-14009642D01*
X57968928Y-14009642D02*
X57935119Y-14057261D01*
X57833690Y-14104880D01*
X57766071Y-14104880D01*
X57664642Y-14057261D01*
X57597023Y-13962023D01*
X57563214Y-13866785D01*
X57529404Y-13676309D01*
X57529404Y-13533452D01*
X57563214Y-13342976D01*
X57597023Y-13247738D01*
X57664642Y-13152500D01*
X57766071Y-13104880D01*
X57833690Y-13104880D01*
X57935119Y-13152500D01*
X57968928Y-13200119D01*
X58645119Y-14104880D02*
X58239404Y-14104880D01*
X58442261Y-14104880D02*
X58442261Y-13104880D01*
X58374642Y-13247738D01*
X58307023Y-13342976D01*
X58239404Y-13390595D01*
X59253690Y-13438214D02*
X59253690Y-14104880D01*
X59084642Y-13057261D02*
X58915595Y-13771547D01*
X59355119Y-13771547D01*
X60572261Y-14009642D02*
X60538452Y-14057261D01*
X60437023Y-14104880D01*
X60369404Y-14104880D01*
X60267976Y-14057261D01*
X60200357Y-13962023D01*
X60166547Y-13866785D01*
X60132738Y-13676309D01*
X60132738Y-13533452D01*
X60166547Y-13342976D01*
X60200357Y-13247738D01*
X60267976Y-13152500D01*
X60369404Y-13104880D01*
X60437023Y-13104880D01*
X60538452Y-13152500D01*
X60572261Y-13200119D01*
X61248452Y-14104880D02*
X60842738Y-14104880D01*
X61045595Y-14104880D02*
X61045595Y-13104880D01*
X60977976Y-13247738D01*
X60910357Y-13342976D01*
X60842738Y-13390595D01*
X61485119Y-13104880D02*
X61924642Y-13104880D01*
X61687976Y-13485833D01*
X61789404Y-13485833D01*
X61857023Y-13533452D01*
X61890833Y-13581071D01*
X61924642Y-13676309D01*
X61924642Y-13914404D01*
X61890833Y-14009642D01*
X61857023Y-14057261D01*
X61789404Y-14104880D01*
X61586547Y-14104880D01*
X61518928Y-14057261D01*
X61485119Y-14009642D01*
X63006547Y-13581071D02*
X63107976Y-13628690D01*
X63141785Y-13676309D01*
X63175595Y-13771547D01*
X63175595Y-13914404D01*
X63141785Y-14009642D01*
X63107976Y-14057261D01*
X63040357Y-14104880D01*
X62769880Y-14104880D01*
X62769880Y-13104880D01*
X63006547Y-13104880D01*
X63074166Y-13152500D01*
X63107976Y-13200119D01*
X63141785Y-13295357D01*
X63141785Y-13390595D01*
X63107976Y-13485833D01*
X63074166Y-13533452D01*
X63006547Y-13581071D01*
X62769880Y-13581071D01*
X63446071Y-13819166D02*
X63784166Y-13819166D01*
X63378452Y-14104880D02*
X63615119Y-13104880D01*
X63851785Y-14104880D01*
X63987023Y-13104880D02*
X64392738Y-13104880D01*
X64189880Y-14104880D02*
X64189880Y-13104880D01*
X14305386Y-32075446D02*
X14406815Y-32123065D01*
X14440625Y-32170684D01*
X14474434Y-32265922D01*
X14474434Y-32408779D01*
X14440625Y-32504017D01*
X14406815Y-32551636D01*
X14339196Y-32599255D01*
X14068720Y-32599255D01*
X14068720Y-31599255D01*
X14305386Y-31599255D01*
X14373005Y-31646875D01*
X14406815Y-31694494D01*
X14440625Y-31789732D01*
X14440625Y-31884970D01*
X14406815Y-31980208D01*
X14373005Y-32027827D01*
X14305386Y-32075446D01*
X14068720Y-32075446D01*
X15150625Y-32599255D02*
X14744910Y-32599255D01*
X14947767Y-32599255D02*
X14947767Y-31599255D01*
X14880148Y-31742113D01*
X14812529Y-31837351D01*
X14744910Y-31884970D01*
X15421101Y-31694494D02*
X15454910Y-31646875D01*
X15522529Y-31599255D01*
X15691577Y-31599255D01*
X15759196Y-31646875D01*
X15793005Y-31694494D01*
X15826815Y-31789732D01*
X15826815Y-31884970D01*
X15793005Y-32027827D01*
X15387291Y-32599255D01*
X15826815Y-32599255D01*
X16908720Y-32075446D02*
X17010148Y-32123065D01*
X17043958Y-32170684D01*
X17077767Y-32265922D01*
X17077767Y-32408779D01*
X17043958Y-32504017D01*
X17010148Y-32551636D01*
X16942529Y-32599255D01*
X16672053Y-32599255D01*
X16672053Y-31599255D01*
X16908720Y-31599255D01*
X16976339Y-31646875D01*
X17010148Y-31694494D01*
X17043958Y-31789732D01*
X17043958Y-31884970D01*
X17010148Y-31980208D01*
X16976339Y-32027827D01*
X16908720Y-32075446D01*
X16672053Y-32075446D01*
X17753958Y-32599255D02*
X17348244Y-32599255D01*
X17551101Y-32599255D02*
X17551101Y-31599255D01*
X17483482Y-31742113D01*
X17415863Y-31837351D01*
X17348244Y-31884970D01*
X17990625Y-31599255D02*
X18430148Y-31599255D01*
X18193482Y-31980208D01*
X18294910Y-31980208D01*
X18362529Y-32027827D01*
X18396339Y-32075446D01*
X18430148Y-32170684D01*
X18430148Y-32408779D01*
X18396339Y-32504017D01*
X18362529Y-32551636D01*
X18294910Y-32599255D01*
X18092053Y-32599255D01*
X18024434Y-32551636D01*
X17990625Y-32504017D01*
X19512053Y-32075446D02*
X19613482Y-32123065D01*
X19647291Y-32170684D01*
X19681101Y-32265922D01*
X19681101Y-32408779D01*
X19647291Y-32504017D01*
X19613482Y-32551636D01*
X19545863Y-32599255D01*
X19275386Y-32599255D01*
X19275386Y-31599255D01*
X19512053Y-31599255D01*
X19579672Y-31646875D01*
X19613482Y-31694494D01*
X19647291Y-31789732D01*
X19647291Y-31884970D01*
X19613482Y-31980208D01*
X19579672Y-32027827D01*
X19512053Y-32075446D01*
X19275386Y-32075446D01*
X20357291Y-32599255D02*
X19951577Y-32599255D01*
X20154434Y-32599255D02*
X20154434Y-31599255D01*
X20086815Y-31742113D01*
X20019196Y-31837351D01*
X19951577Y-31884970D01*
X20965863Y-31932589D02*
X20965863Y-32599255D01*
X20796815Y-31551636D02*
X20627767Y-32265922D01*
X21067291Y-32265922D01*
X22115386Y-32075446D02*
X22216815Y-32123065D01*
X22250625Y-32170684D01*
X22284434Y-32265922D01*
X22284434Y-32408779D01*
X22250625Y-32504017D01*
X22216815Y-32551636D01*
X22149196Y-32599255D01*
X21878720Y-32599255D01*
X21878720Y-31599255D01*
X22115386Y-31599255D01*
X22183005Y-31646875D01*
X22216815Y-31694494D01*
X22250625Y-31789732D01*
X22250625Y-31884970D01*
X22216815Y-31980208D01*
X22183005Y-32027827D01*
X22115386Y-32075446D01*
X21878720Y-32075446D01*
X22960625Y-32599255D02*
X22554910Y-32599255D01*
X22757767Y-32599255D02*
X22757767Y-31599255D01*
X22690148Y-31742113D01*
X22622529Y-31837351D01*
X22554910Y-31884970D01*
X23603005Y-31599255D02*
X23264910Y-31599255D01*
X23231101Y-32075446D01*
X23264910Y-32027827D01*
X23332529Y-31980208D01*
X23501577Y-31980208D01*
X23569196Y-32027827D01*
X23603005Y-32075446D01*
X23636815Y-32170684D01*
X23636815Y-32408779D01*
X23603005Y-32504017D01*
X23569196Y-32551636D01*
X23501577Y-32599255D01*
X23332529Y-32599255D01*
X23264910Y-32551636D01*
X23231101Y-32504017D01*
X24448244Y-32313541D02*
X24786339Y-32313541D01*
X24380625Y-32599255D02*
X24617291Y-31599255D01*
X24853958Y-32599255D01*
X25225863Y-31599255D02*
X25293482Y-31599255D01*
X25361101Y-31646875D01*
X25394910Y-31694494D01*
X25428720Y-31789732D01*
X25462529Y-31980208D01*
X25462529Y-32218303D01*
X25428720Y-32408779D01*
X25394910Y-32504017D01*
X25361101Y-32551636D01*
X25293482Y-32599255D01*
X25225863Y-32599255D01*
X25158244Y-32551636D01*
X25124434Y-32504017D01*
X25090625Y-32408779D01*
X25056815Y-32218303D01*
X25056815Y-31980208D01*
X25090625Y-31789732D01*
X25124434Y-31694494D01*
X25158244Y-31646875D01*
X25225863Y-31599255D01*
X25868244Y-32027827D02*
X25800625Y-31980208D01*
X25766815Y-31932589D01*
X25733005Y-31837351D01*
X25733005Y-31789732D01*
X25766815Y-31694494D01*
X25800625Y-31646875D01*
X25868244Y-31599255D01*
X26003482Y-31599255D01*
X26071101Y-31646875D01*
X26104910Y-31694494D01*
X26138720Y-31789732D01*
X26138720Y-31837351D01*
X26104910Y-31932589D01*
X26071101Y-31980208D01*
X26003482Y-32027827D01*
X25868244Y-32027827D01*
X25800625Y-32075446D01*
X25766815Y-32123065D01*
X25733005Y-32218303D01*
X25733005Y-32408779D01*
X25766815Y-32504017D01*
X25800625Y-32551636D01*
X25868244Y-32599255D01*
X26003482Y-32599255D01*
X26071101Y-32551636D01*
X26104910Y-32504017D01*
X26138720Y-32408779D01*
X26138720Y-32218303D01*
X26104910Y-32123065D01*
X26071101Y-32075446D01*
X26003482Y-32027827D01*
X26950148Y-32313541D02*
X27288244Y-32313541D01*
X26882529Y-32599255D02*
X27119196Y-31599255D01*
X27355863Y-32599255D01*
X27727767Y-31599255D02*
X27795386Y-31599255D01*
X27863005Y-31646875D01*
X27896815Y-31694494D01*
X27930625Y-31789732D01*
X27964434Y-31980208D01*
X27964434Y-32218303D01*
X27930625Y-32408779D01*
X27896815Y-32504017D01*
X27863005Y-32551636D01*
X27795386Y-32599255D01*
X27727767Y-32599255D01*
X27660148Y-32551636D01*
X27626339Y-32504017D01*
X27592529Y-32408779D01*
X27558720Y-32218303D01*
X27558720Y-31980208D01*
X27592529Y-31789732D01*
X27626339Y-31694494D01*
X27660148Y-31646875D01*
X27727767Y-31599255D01*
X28302529Y-32599255D02*
X28437767Y-32599255D01*
X28505386Y-32551636D01*
X28539196Y-32504017D01*
X28606815Y-32361160D01*
X28640625Y-32170684D01*
X28640625Y-31789732D01*
X28606815Y-31694494D01*
X28573005Y-31646875D01*
X28505386Y-31599255D01*
X28370148Y-31599255D01*
X28302529Y-31646875D01*
X28268720Y-31694494D01*
X28234910Y-31789732D01*
X28234910Y-32027827D01*
X28268720Y-32123065D01*
X28302529Y-32170684D01*
X28370148Y-32218303D01*
X28505386Y-32218303D01*
X28573005Y-32170684D01*
X28606815Y-32123065D01*
X28640625Y-32027827D01*
X29452053Y-32313541D02*
X29790148Y-32313541D01*
X29384434Y-32599255D02*
X29621101Y-31599255D01*
X29857767Y-32599255D01*
X30466339Y-32599255D02*
X30060625Y-32599255D01*
X30263482Y-32599255D02*
X30263482Y-31599255D01*
X30195863Y-31742113D01*
X30128244Y-31837351D01*
X30060625Y-31884970D01*
X30905863Y-31599255D02*
X30973482Y-31599255D01*
X31041101Y-31646875D01*
X31074910Y-31694494D01*
X31108720Y-31789732D01*
X31142529Y-31980208D01*
X31142529Y-32218303D01*
X31108720Y-32408779D01*
X31074910Y-32504017D01*
X31041101Y-32551636D01*
X30973482Y-32599255D01*
X30905863Y-32599255D01*
X30838244Y-32551636D01*
X30804434Y-32504017D01*
X30770625Y-32408779D01*
X30736815Y-32218303D01*
X30736815Y-31980208D01*
X30770625Y-31789732D01*
X30804434Y-31694494D01*
X30838244Y-31646875D01*
X30905863Y-31599255D01*
X31953958Y-32313541D02*
X32292053Y-32313541D01*
X31886339Y-32599255D02*
X32123005Y-31599255D01*
X32359672Y-32599255D01*
X32968244Y-32599255D02*
X32562529Y-32599255D01*
X32765386Y-32599255D02*
X32765386Y-31599255D01*
X32697767Y-31742113D01*
X32630148Y-31837351D01*
X32562529Y-31884970D01*
X33644434Y-32599255D02*
X33238720Y-32599255D01*
X33441577Y-32599255D02*
X33441577Y-31599255D01*
X33373958Y-31742113D01*
X33306339Y-31837351D01*
X33238720Y-31884970D01*
X34455863Y-32313541D02*
X34793958Y-32313541D01*
X34388244Y-32599255D02*
X34624910Y-31599255D01*
X34861577Y-32599255D01*
X35470148Y-32599255D02*
X35064434Y-32599255D01*
X35267291Y-32599255D02*
X35267291Y-31599255D01*
X35199672Y-31742113D01*
X35132053Y-31837351D01*
X35064434Y-31884970D01*
X35740625Y-31694494D02*
X35774434Y-31646875D01*
X35842053Y-31599255D01*
X36011101Y-31599255D01*
X36078720Y-31646875D01*
X36112529Y-31694494D01*
X36146339Y-31789732D01*
X36146339Y-31884970D01*
X36112529Y-32027827D01*
X35706815Y-32599255D01*
X36146339Y-32599255D01*
X36957767Y-32313541D02*
X37295863Y-32313541D01*
X36890148Y-32599255D02*
X37126815Y-31599255D01*
X37363482Y-32599255D01*
X37972053Y-32599255D02*
X37566339Y-32599255D01*
X37769196Y-32599255D02*
X37769196Y-31599255D01*
X37701577Y-31742113D01*
X37633958Y-31837351D01*
X37566339Y-31884970D01*
X38614434Y-31599255D02*
X38276339Y-31599255D01*
X38242529Y-32075446D01*
X38276339Y-32027827D01*
X38343958Y-31980208D01*
X38513005Y-31980208D01*
X38580625Y-32027827D01*
X38614434Y-32075446D01*
X38648244Y-32170684D01*
X38648244Y-32408779D01*
X38614434Y-32504017D01*
X38580625Y-32551636D01*
X38513005Y-32599255D01*
X38343958Y-32599255D01*
X38276339Y-32551636D01*
X38242529Y-32504017D01*
X39730148Y-32075446D02*
X39831577Y-32123065D01*
X39865386Y-32170684D01*
X39899196Y-32265922D01*
X39899196Y-32408779D01*
X39865386Y-32504017D01*
X39831577Y-32551636D01*
X39763958Y-32599255D01*
X39493482Y-32599255D01*
X39493482Y-31599255D01*
X39730148Y-31599255D01*
X39797767Y-31646875D01*
X39831577Y-31694494D01*
X39865386Y-31789732D01*
X39865386Y-31884970D01*
X39831577Y-31980208D01*
X39797767Y-32027827D01*
X39730148Y-32075446D01*
X39493482Y-32075446D01*
X40338720Y-31599255D02*
X40406339Y-31599255D01*
X40473958Y-31646875D01*
X40507767Y-31694494D01*
X40541577Y-31789732D01*
X40575386Y-31980208D01*
X40575386Y-32218303D01*
X40541577Y-32408779D01*
X40507767Y-32504017D01*
X40473958Y-32551636D01*
X40406339Y-32599255D01*
X40338720Y-32599255D01*
X40271101Y-32551636D01*
X40237291Y-32504017D01*
X40203482Y-32408779D01*
X40169672Y-32218303D01*
X40169672Y-31980208D01*
X40203482Y-31789732D01*
X40237291Y-31694494D01*
X40271101Y-31646875D01*
X40338720Y-31599255D01*
X40812053Y-31599255D02*
X41251577Y-31599255D01*
X41014910Y-31980208D01*
X41116339Y-31980208D01*
X41183958Y-32027827D01*
X41217767Y-32075446D01*
X41251577Y-32170684D01*
X41251577Y-32408779D01*
X41217767Y-32504017D01*
X41183958Y-32551636D01*
X41116339Y-32599255D01*
X40913482Y-32599255D01*
X40845863Y-32551636D01*
X40812053Y-32504017D01*
X42333482Y-32075446D02*
X42434910Y-32123065D01*
X42468720Y-32170684D01*
X42502529Y-32265922D01*
X42502529Y-32408779D01*
X42468720Y-32504017D01*
X42434910Y-32551636D01*
X42367291Y-32599255D01*
X42096815Y-32599255D01*
X42096815Y-31599255D01*
X42333482Y-31599255D01*
X42401101Y-31646875D01*
X42434910Y-31694494D01*
X42468720Y-31789732D01*
X42468720Y-31884970D01*
X42434910Y-31980208D01*
X42401101Y-32027827D01*
X42333482Y-32075446D01*
X42096815Y-32075446D01*
X42942053Y-31599255D02*
X43009672Y-31599255D01*
X43077291Y-31646875D01*
X43111101Y-31694494D01*
X43144910Y-31789732D01*
X43178720Y-31980208D01*
X43178720Y-32218303D01*
X43144910Y-32408779D01*
X43111101Y-32504017D01*
X43077291Y-32551636D01*
X43009672Y-32599255D01*
X42942053Y-32599255D01*
X42874434Y-32551636D01*
X42840625Y-32504017D01*
X42806815Y-32408779D01*
X42773005Y-32218303D01*
X42773005Y-31980208D01*
X42806815Y-31789732D01*
X42840625Y-31694494D01*
X42874434Y-31646875D01*
X42942053Y-31599255D01*
X43787291Y-31932589D02*
X43787291Y-32599255D01*
X43618244Y-31551636D02*
X43449196Y-32265922D01*
X43888720Y-32265922D01*
X44936815Y-32075446D02*
X45038244Y-32123065D01*
X45072053Y-32170684D01*
X45105863Y-32265922D01*
X45105863Y-32408779D01*
X45072053Y-32504017D01*
X45038244Y-32551636D01*
X44970625Y-32599255D01*
X44700148Y-32599255D01*
X44700148Y-31599255D01*
X44936815Y-31599255D01*
X45004434Y-31646875D01*
X45038244Y-31694494D01*
X45072053Y-31789732D01*
X45072053Y-31884970D01*
X45038244Y-31980208D01*
X45004434Y-32027827D01*
X44936815Y-32075446D01*
X44700148Y-32075446D01*
X45545386Y-31599255D02*
X45613005Y-31599255D01*
X45680625Y-31646875D01*
X45714434Y-31694494D01*
X45748244Y-31789732D01*
X45782053Y-31980208D01*
X45782053Y-32218303D01*
X45748244Y-32408779D01*
X45714434Y-32504017D01*
X45680625Y-32551636D01*
X45613005Y-32599255D01*
X45545386Y-32599255D01*
X45477767Y-32551636D01*
X45443958Y-32504017D01*
X45410148Y-32408779D01*
X45376339Y-32218303D01*
X45376339Y-31980208D01*
X45410148Y-31789732D01*
X45443958Y-31694494D01*
X45477767Y-31646875D01*
X45545386Y-31599255D01*
X46424434Y-31599255D02*
X46086339Y-31599255D01*
X46052529Y-32075446D01*
X46086339Y-32027827D01*
X46153958Y-31980208D01*
X46323005Y-31980208D01*
X46390625Y-32027827D01*
X46424434Y-32075446D01*
X46458244Y-32170684D01*
X46458244Y-32408779D01*
X46424434Y-32504017D01*
X46390625Y-32551636D01*
X46323005Y-32599255D01*
X46153958Y-32599255D01*
X46086339Y-32551636D01*
X46052529Y-32504017D01*
X47540148Y-32075446D02*
X47641577Y-32123065D01*
X47675386Y-32170684D01*
X47709196Y-32265922D01*
X47709196Y-32408779D01*
X47675386Y-32504017D01*
X47641577Y-32551636D01*
X47573958Y-32599255D01*
X47303482Y-32599255D01*
X47303482Y-31599255D01*
X47540148Y-31599255D01*
X47607767Y-31646875D01*
X47641577Y-31694494D01*
X47675386Y-31789732D01*
X47675386Y-31884970D01*
X47641577Y-31980208D01*
X47607767Y-32027827D01*
X47540148Y-32075446D01*
X47303482Y-32075446D01*
X48148720Y-31599255D02*
X48216339Y-31599255D01*
X48283958Y-31646875D01*
X48317767Y-31694494D01*
X48351577Y-31789732D01*
X48385386Y-31980208D01*
X48385386Y-32218303D01*
X48351577Y-32408779D01*
X48317767Y-32504017D01*
X48283958Y-32551636D01*
X48216339Y-32599255D01*
X48148720Y-32599255D01*
X48081101Y-32551636D01*
X48047291Y-32504017D01*
X48013482Y-32408779D01*
X47979672Y-32218303D01*
X47979672Y-31980208D01*
X48013482Y-31789732D01*
X48047291Y-31694494D01*
X48081101Y-31646875D01*
X48148720Y-31599255D01*
X48993958Y-31599255D02*
X48858720Y-31599255D01*
X48791101Y-31646875D01*
X48757291Y-31694494D01*
X48689672Y-31837351D01*
X48655863Y-32027827D01*
X48655863Y-32408779D01*
X48689672Y-32504017D01*
X48723482Y-32551636D01*
X48791101Y-32599255D01*
X48926339Y-32599255D01*
X48993958Y-32551636D01*
X49027767Y-32504017D01*
X49061577Y-32408779D01*
X49061577Y-32170684D01*
X49027767Y-32075446D01*
X48993958Y-32027827D01*
X48926339Y-31980208D01*
X48791101Y-31980208D01*
X48723482Y-32027827D01*
X48689672Y-32075446D01*
X48655863Y-32170684D01*
X50143482Y-32075446D02*
X50244910Y-32123065D01*
X50278720Y-32170684D01*
X50312529Y-32265922D01*
X50312529Y-32408779D01*
X50278720Y-32504017D01*
X50244910Y-32551636D01*
X50177291Y-32599255D01*
X49906815Y-32599255D01*
X49906815Y-31599255D01*
X50143482Y-31599255D01*
X50211101Y-31646875D01*
X50244910Y-31694494D01*
X50278720Y-31789732D01*
X50278720Y-31884970D01*
X50244910Y-31980208D01*
X50211101Y-32027827D01*
X50143482Y-32075446D01*
X49906815Y-32075446D01*
X50752053Y-31599255D02*
X50819672Y-31599255D01*
X50887291Y-31646875D01*
X50921101Y-31694494D01*
X50954910Y-31789732D01*
X50988720Y-31980208D01*
X50988720Y-32218303D01*
X50954910Y-32408779D01*
X50921101Y-32504017D01*
X50887291Y-32551636D01*
X50819672Y-32599255D01*
X50752053Y-32599255D01*
X50684434Y-32551636D01*
X50650625Y-32504017D01*
X50616815Y-32408779D01*
X50583005Y-32218303D01*
X50583005Y-31980208D01*
X50616815Y-31789732D01*
X50650625Y-31694494D01*
X50684434Y-31646875D01*
X50752053Y-31599255D01*
X51225386Y-31599255D02*
X51698720Y-31599255D01*
X51394434Y-32599255D01*
X52746815Y-32075446D02*
X52848244Y-32123065D01*
X52882053Y-32170684D01*
X52915863Y-32265922D01*
X52915863Y-32408779D01*
X52882053Y-32504017D01*
X52848244Y-32551636D01*
X52780625Y-32599255D01*
X52510148Y-32599255D01*
X52510148Y-31599255D01*
X52746815Y-31599255D01*
X52814434Y-31646875D01*
X52848244Y-31694494D01*
X52882053Y-31789732D01*
X52882053Y-31884970D01*
X52848244Y-31980208D01*
X52814434Y-32027827D01*
X52746815Y-32075446D01*
X52510148Y-32075446D01*
X53355386Y-31599255D02*
X53423005Y-31599255D01*
X53490625Y-31646875D01*
X53524434Y-31694494D01*
X53558244Y-31789732D01*
X53592053Y-31980208D01*
X53592053Y-32218303D01*
X53558244Y-32408779D01*
X53524434Y-32504017D01*
X53490625Y-32551636D01*
X53423005Y-32599255D01*
X53355386Y-32599255D01*
X53287767Y-32551636D01*
X53253958Y-32504017D01*
X53220148Y-32408779D01*
X53186339Y-32218303D01*
X53186339Y-31980208D01*
X53220148Y-31789732D01*
X53253958Y-31694494D01*
X53287767Y-31646875D01*
X53355386Y-31599255D01*
X53997767Y-32027827D02*
X53930148Y-31980208D01*
X53896339Y-31932589D01*
X53862529Y-31837351D01*
X53862529Y-31789732D01*
X53896339Y-31694494D01*
X53930148Y-31646875D01*
X53997767Y-31599255D01*
X54133005Y-31599255D01*
X54200625Y-31646875D01*
X54234434Y-31694494D01*
X54268244Y-31789732D01*
X54268244Y-31837351D01*
X54234434Y-31932589D01*
X54200625Y-31980208D01*
X54133005Y-32027827D01*
X53997767Y-32027827D01*
X53930148Y-32075446D01*
X53896339Y-32123065D01*
X53862529Y-32218303D01*
X53862529Y-32408779D01*
X53896339Y-32504017D01*
X53930148Y-32551636D01*
X53997767Y-32599255D01*
X54133005Y-32599255D01*
X54200625Y-32551636D01*
X54234434Y-32504017D01*
X54268244Y-32408779D01*
X54268244Y-32218303D01*
X54234434Y-32123065D01*
X54200625Y-32075446D01*
X54133005Y-32027827D01*
X55350148Y-32075446D02*
X55451577Y-32123065D01*
X55485386Y-32170684D01*
X55519196Y-32265922D01*
X55519196Y-32408779D01*
X55485386Y-32504017D01*
X55451577Y-32551636D01*
X55383958Y-32599255D01*
X55113482Y-32599255D01*
X55113482Y-31599255D01*
X55350148Y-31599255D01*
X55417767Y-31646875D01*
X55451577Y-31694494D01*
X55485386Y-31789732D01*
X55485386Y-31884970D01*
X55451577Y-31980208D01*
X55417767Y-32027827D01*
X55350148Y-32075446D01*
X55113482Y-32075446D01*
X55958720Y-31599255D02*
X56026339Y-31599255D01*
X56093958Y-31646875D01*
X56127767Y-31694494D01*
X56161577Y-31789732D01*
X56195386Y-31980208D01*
X56195386Y-32218303D01*
X56161577Y-32408779D01*
X56127767Y-32504017D01*
X56093958Y-32551636D01*
X56026339Y-32599255D01*
X55958720Y-32599255D01*
X55891101Y-32551636D01*
X55857291Y-32504017D01*
X55823482Y-32408779D01*
X55789672Y-32218303D01*
X55789672Y-31980208D01*
X55823482Y-31789732D01*
X55857291Y-31694494D01*
X55891101Y-31646875D01*
X55958720Y-31599255D01*
X56533482Y-32599255D02*
X56668720Y-32599255D01*
X56736339Y-32551636D01*
X56770148Y-32504017D01*
X56837767Y-32361160D01*
X56871577Y-32170684D01*
X56871577Y-31789732D01*
X56837767Y-31694494D01*
X56803958Y-31646875D01*
X56736339Y-31599255D01*
X56601101Y-31599255D01*
X56533482Y-31646875D01*
X56499672Y-31694494D01*
X56465863Y-31789732D01*
X56465863Y-32027827D01*
X56499672Y-32123065D01*
X56533482Y-32170684D01*
X56601101Y-32218303D01*
X56736339Y-32218303D01*
X56803958Y-32170684D01*
X56837767Y-32123065D01*
X56871577Y-32027827D01*
X57615386Y-31599255D02*
X57852053Y-32599255D01*
X58088720Y-31599255D01*
X58325386Y-32599255D02*
X58325386Y-31932589D01*
X58325386Y-31599255D02*
X58291577Y-31646875D01*
X58325386Y-31694494D01*
X58359196Y-31646875D01*
X58325386Y-31599255D01*
X58325386Y-31694494D01*
X58663482Y-31932589D02*
X58663482Y-32599255D01*
X58663482Y-32027827D02*
X58697291Y-31980208D01*
X58764910Y-31932589D01*
X58866339Y-31932589D01*
X58933958Y-31980208D01*
X58967767Y-32075446D01*
X58967767Y-32599255D01*
X60218720Y-31646875D02*
X60151101Y-31599255D01*
X60049672Y-31599255D01*
X59948244Y-31646875D01*
X59880625Y-31742113D01*
X59846815Y-31837351D01*
X59813005Y-32027827D01*
X59813005Y-32170684D01*
X59846815Y-32361160D01*
X59880625Y-32456398D01*
X59948244Y-32551636D01*
X60049672Y-32599255D01*
X60117291Y-32599255D01*
X60218720Y-32551636D01*
X60252529Y-32504017D01*
X60252529Y-32170684D01*
X60117291Y-32170684D01*
X60556815Y-32599255D02*
X60556815Y-31599255D01*
X60962529Y-32599255D01*
X60962529Y-31599255D01*
X61300625Y-32599255D02*
X61300625Y-31599255D01*
X61469672Y-31599255D01*
X61571101Y-31646875D01*
X61638720Y-31742113D01*
X61672529Y-31837351D01*
X61706339Y-32027827D01*
X61706339Y-32170684D01*
X61672529Y-32361160D01*
X61638720Y-32456398D01*
X61571101Y-32551636D01*
X61469672Y-32599255D01*
X61300625Y-32599255D01*
X62483958Y-31599255D02*
X62923482Y-31599255D01*
X62686815Y-31980208D01*
X62788244Y-31980208D01*
X62855863Y-32027827D01*
X62889672Y-32075446D01*
X62923482Y-32170684D01*
X62923482Y-32408779D01*
X62889672Y-32504017D01*
X62855863Y-32551636D01*
X62788244Y-32599255D01*
X62585386Y-32599255D01*
X62517767Y-32551636D01*
X62483958Y-32504017D01*
X63227767Y-32504017D02*
X63261577Y-32551636D01*
X63227767Y-32599255D01*
X63193958Y-32551636D01*
X63227767Y-32504017D01*
X63227767Y-32599255D01*
X63498244Y-31599255D02*
X63937767Y-31599255D01*
X63701101Y-31980208D01*
X63802529Y-31980208D01*
X63870148Y-32027827D01*
X63903958Y-32075446D01*
X63937767Y-32170684D01*
X63937767Y-32408779D01*
X63903958Y-32504017D01*
X63870148Y-32551636D01*
X63802529Y-32599255D01*
X63599672Y-32599255D01*
X63532053Y-32551636D01*
X63498244Y-32504017D01*
X64140625Y-31599255D02*
X64377291Y-32599255D01*
X64613958Y-31599255D01*
D11*
X42887113Y-22541802D02*
X43799281Y-21629634D01*
X43205311Y-22860000D02*
X42887113Y-22541802D01*
X42887113Y-23178198D02*
X43205311Y-22860000D01*
X38100000Y-27965311D02*
X37781802Y-27647113D01*
X38418198Y-27647113D02*
X38100000Y-27965311D01*
X38100000Y-17754689D02*
X38418198Y-18072887D01*
X37781802Y-18072887D02*
X38100000Y-17754689D01*
X32994689Y-22860000D02*
X33312887Y-23178198D01*
X33312887Y-22541802D02*
X32994689Y-22860000D01*
X23300000Y-25400000D02*
X25400000Y-25400000D01*
X23300000Y-28600000D02*
X23300000Y-25400000D01*
X27500000Y-28600000D02*
X23300000Y-28600000D01*
X27500000Y-25400000D02*
X27500000Y-28600000D01*
X25400000Y-25400000D02*
X27500000Y-25400000D01*
X50710000Y-26086252D02*
X50710000Y-25563748D01*
X49290000Y-26086252D02*
X49290000Y-25563748D01*
X52938750Y-19611252D02*
X52938750Y-19088748D01*
X51518750Y-19611252D02*
X51518750Y-19088748D01*
X59885000Y-18040000D02*
X57025000Y-18040000D01*
X59885000Y-19960000D02*
X59885000Y-18040000D01*
X57025000Y-19960000D02*
X59885000Y-19960000D01*
X59835000Y-26065000D02*
X56975000Y-26065000D01*
X59835000Y-27985000D02*
X59835000Y-26065000D01*
X56975000Y-27985000D02*
X59835000Y-27985000D01*
D10*
X37174026Y-22976522D02*
X37746446Y-23548942D01*
X37847461Y-23582614D01*
X37914805Y-23582614D01*
X38015820Y-23548942D01*
X38150507Y-23414255D01*
X38184179Y-23313240D01*
X38184179Y-23245896D01*
X38150507Y-23144881D01*
X37578087Y-22572461D01*
X37948477Y-22336759D02*
X37948477Y-22269416D01*
X37982148Y-22168400D01*
X38150507Y-22000042D01*
X38251522Y-21966370D01*
X38318866Y-21966370D01*
X38419881Y-22000042D01*
X38487225Y-22067385D01*
X38554568Y-22202072D01*
X38554568Y-23010194D01*
X38992301Y-22572461D01*
X30059255Y-27535119D02*
X29583065Y-27868452D01*
X30059255Y-28106547D02*
X29059255Y-28106547D01*
X29059255Y-27725595D01*
X29106875Y-27630357D01*
X29154494Y-27582738D01*
X29249732Y-27535119D01*
X29392589Y-27535119D01*
X29487827Y-27582738D01*
X29535446Y-27630357D01*
X29583065Y-27725595D01*
X29583065Y-28106547D01*
X30011636Y-27154166D02*
X30059255Y-27011309D01*
X30059255Y-26773214D01*
X30011636Y-26677976D01*
X29964017Y-26630357D01*
X29868779Y-26582738D01*
X29773541Y-26582738D01*
X29678303Y-26630357D01*
X29630684Y-26677976D01*
X29583065Y-26773214D01*
X29535446Y-26963690D01*
X29487827Y-27058928D01*
X29440208Y-27106547D01*
X29344970Y-27154166D01*
X29249732Y-27154166D01*
X29154494Y-27106547D01*
X29106875Y-27058928D01*
X29059255Y-26963690D01*
X29059255Y-26725595D01*
X29106875Y-26582738D01*
X29059255Y-26297023D02*
X29059255Y-25725595D01*
X30059255Y-26011309D02*
X29059255Y-26011309D01*
X56388214Y-17835505D02*
X56388214Y-16835505D01*
X56769166Y-16835505D01*
X56864404Y-16883125D01*
X56912023Y-16930744D01*
X56959642Y-17025982D01*
X56959642Y-17168839D01*
X56912023Y-17264077D01*
X56864404Y-17311696D01*
X56769166Y-17359315D01*
X56388214Y-17359315D01*
X57959642Y-17740267D02*
X57912023Y-17787886D01*
X57769166Y-17835505D01*
X57673928Y-17835505D01*
X57531071Y-17787886D01*
X57435833Y-17692648D01*
X57388214Y-17597410D01*
X57340595Y-17406934D01*
X57340595Y-17264077D01*
X57388214Y-17073601D01*
X57435833Y-16978363D01*
X57531071Y-16883125D01*
X57673928Y-16835505D01*
X57769166Y-16835505D01*
X57912023Y-16883125D01*
X57959642Y-16930744D01*
X58912023Y-17835505D02*
X58340595Y-17835505D01*
X58626309Y-17835505D02*
X58626309Y-16835505D01*
X58531071Y-16978363D01*
X58435833Y-17073601D01*
X58340595Y-17121220D01*
X59245357Y-16835505D02*
X59864404Y-16835505D01*
X59531071Y-17216458D01*
X59673928Y-17216458D01*
X59769166Y-17264077D01*
X59816785Y-17311696D01*
X59864404Y-17406934D01*
X59864404Y-17645029D01*
X59816785Y-17740267D01*
X59769166Y-17787886D01*
X59673928Y-17835505D01*
X59388214Y-17835505D01*
X59292976Y-17787886D01*
X59245357Y-17740267D01*
X56689791Y-29186130D02*
X56689791Y-28186130D01*
X57070744Y-28186130D01*
X57165982Y-28233750D01*
X57213601Y-28281369D01*
X57261220Y-28376607D01*
X57261220Y-28519464D01*
X57213601Y-28614702D01*
X57165982Y-28662321D01*
X57070744Y-28709940D01*
X56689791Y-28709940D01*
X57594553Y-28186130D02*
X57832648Y-29186130D01*
X58023125Y-28471845D01*
X58213601Y-29186130D01*
X58451696Y-28186130D01*
X59404077Y-29186130D02*
X59070744Y-28709940D01*
X58832648Y-29186130D02*
X58832648Y-28186130D01*
X59213601Y-28186130D01*
X59308839Y-28233750D01*
X59356458Y-28281369D01*
X59404077Y-28376607D01*
X59404077Y-28519464D01*
X59356458Y-28614702D01*
X59308839Y-28662321D01*
X59213601Y-28709940D01*
X58832648Y-28709940D01*
M02*
