G04 #@! TF.GenerationSoftware,KiCad,Pcbnew,(5.1.2-1)-1*
G04 #@! TF.CreationDate,2020-03-21T16:32:46+05:30*
G04 #@! TF.ProjectId,BluePill,426c7565-5069-46c6-9c2e-6b696361645f,rev?*
G04 #@! TF.SameCoordinates,Original*
G04 #@! TF.FileFunction,Paste,Top*
G04 #@! TF.FilePolarity,Positive*
%FSLAX46Y46*%
G04 Gerber Fmt 4.6, Leading zero omitted, Abs format (unit mm)*
G04 Created by KiCad (PCBNEW (5.1.2-1)-1) date 2020-03-21 16:32:46*
%MOMM*%
%LPD*%
G04 APERTURE LIST*
%ADD10R,1.800000X1.750000*%
%ADD11R,1.800000X2.100000*%
%ADD12C,0.100000*%
%ADD13C,0.300000*%
%ADD14R,2.500000X0.650000*%
%ADD15C,1.150000*%
%ADD16R,1.524000X0.299974*%
G04 APERTURE END LIST*
D10*
X47800000Y-27350000D03*
X47800000Y-24100000D03*
D11*
X47700000Y-21250000D03*
X47700000Y-18350000D03*
X50000000Y-18350000D03*
X50000000Y-21250000D03*
D12*
G36*
X42579802Y-23262658D02*
G01*
X42587083Y-23263738D01*
X42594222Y-23265526D01*
X42601152Y-23268006D01*
X42607806Y-23271153D01*
X42614119Y-23274937D01*
X42620030Y-23279321D01*
X42625484Y-23284264D01*
X43562400Y-24221180D01*
X43567343Y-24226634D01*
X43571727Y-24232545D01*
X43575511Y-24238858D01*
X43578658Y-24245512D01*
X43581138Y-24252442D01*
X43582926Y-24259581D01*
X43584006Y-24266862D01*
X43584367Y-24274213D01*
X43584006Y-24281564D01*
X43582926Y-24288845D01*
X43581138Y-24295984D01*
X43578658Y-24302914D01*
X43575511Y-24309568D01*
X43571727Y-24315881D01*
X43567343Y-24321792D01*
X43562400Y-24327246D01*
X43456334Y-24433312D01*
X43450880Y-24438255D01*
X43444969Y-24442639D01*
X43438656Y-24446423D01*
X43432002Y-24449570D01*
X43425072Y-24452050D01*
X43417933Y-24453838D01*
X43410652Y-24454918D01*
X43403301Y-24455279D01*
X43395950Y-24454918D01*
X43388669Y-24453838D01*
X43381530Y-24452050D01*
X43374600Y-24449570D01*
X43367946Y-24446423D01*
X43361633Y-24442639D01*
X43355722Y-24438255D01*
X43350268Y-24433312D01*
X42413352Y-23496396D01*
X42408409Y-23490942D01*
X42404025Y-23485031D01*
X42400241Y-23478718D01*
X42397094Y-23472064D01*
X42394614Y-23465134D01*
X42392826Y-23457995D01*
X42391746Y-23450714D01*
X42391385Y-23443363D01*
X42391746Y-23436012D01*
X42392826Y-23428731D01*
X42394614Y-23421592D01*
X42397094Y-23414662D01*
X42400241Y-23408008D01*
X42404025Y-23401695D01*
X42408409Y-23395784D01*
X42413352Y-23390330D01*
X42519418Y-23284264D01*
X42524872Y-23279321D01*
X42530783Y-23274937D01*
X42537096Y-23271153D01*
X42543750Y-23268006D01*
X42550680Y-23265526D01*
X42557819Y-23263738D01*
X42565100Y-23262658D01*
X42572451Y-23262297D01*
X42579802Y-23262658D01*
X42579802Y-23262658D01*
G37*
D13*
X42987876Y-23858788D03*
D12*
G36*
X42226248Y-23616212D02*
G01*
X42233529Y-23617292D01*
X42240668Y-23619080D01*
X42247598Y-23621560D01*
X42254252Y-23624707D01*
X42260565Y-23628491D01*
X42266476Y-23632875D01*
X42271930Y-23637818D01*
X43208846Y-24574734D01*
X43213789Y-24580188D01*
X43218173Y-24586099D01*
X43221957Y-24592412D01*
X43225104Y-24599066D01*
X43227584Y-24605996D01*
X43229372Y-24613135D01*
X43230452Y-24620416D01*
X43230813Y-24627767D01*
X43230452Y-24635118D01*
X43229372Y-24642399D01*
X43227584Y-24649538D01*
X43225104Y-24656468D01*
X43221957Y-24663122D01*
X43218173Y-24669435D01*
X43213789Y-24675346D01*
X43208846Y-24680800D01*
X43102780Y-24786866D01*
X43097326Y-24791809D01*
X43091415Y-24796193D01*
X43085102Y-24799977D01*
X43078448Y-24803124D01*
X43071518Y-24805604D01*
X43064379Y-24807392D01*
X43057098Y-24808472D01*
X43049747Y-24808833D01*
X43042396Y-24808472D01*
X43035115Y-24807392D01*
X43027976Y-24805604D01*
X43021046Y-24803124D01*
X43014392Y-24799977D01*
X43008079Y-24796193D01*
X43002168Y-24791809D01*
X42996714Y-24786866D01*
X42059798Y-23849950D01*
X42054855Y-23844496D01*
X42050471Y-23838585D01*
X42046687Y-23832272D01*
X42043540Y-23825618D01*
X42041060Y-23818688D01*
X42039272Y-23811549D01*
X42038192Y-23804268D01*
X42037831Y-23796917D01*
X42038192Y-23789566D01*
X42039272Y-23782285D01*
X42041060Y-23775146D01*
X42043540Y-23768216D01*
X42046687Y-23761562D01*
X42050471Y-23755249D01*
X42054855Y-23749338D01*
X42059798Y-23743884D01*
X42165864Y-23637818D01*
X42171318Y-23632875D01*
X42177229Y-23628491D01*
X42183542Y-23624707D01*
X42190196Y-23621560D01*
X42197126Y-23619080D01*
X42204265Y-23617292D01*
X42211546Y-23616212D01*
X42218897Y-23615851D01*
X42226248Y-23616212D01*
X42226248Y-23616212D01*
G37*
D13*
X42634322Y-24212342D03*
D12*
G36*
X41872695Y-23969765D02*
G01*
X41879976Y-23970845D01*
X41887115Y-23972633D01*
X41894045Y-23975113D01*
X41900699Y-23978260D01*
X41907012Y-23982044D01*
X41912923Y-23986428D01*
X41918377Y-23991371D01*
X42855293Y-24928287D01*
X42860236Y-24933741D01*
X42864620Y-24939652D01*
X42868404Y-24945965D01*
X42871551Y-24952619D01*
X42874031Y-24959549D01*
X42875819Y-24966688D01*
X42876899Y-24973969D01*
X42877260Y-24981320D01*
X42876899Y-24988671D01*
X42875819Y-24995952D01*
X42874031Y-25003091D01*
X42871551Y-25010021D01*
X42868404Y-25016675D01*
X42864620Y-25022988D01*
X42860236Y-25028899D01*
X42855293Y-25034353D01*
X42749227Y-25140419D01*
X42743773Y-25145362D01*
X42737862Y-25149746D01*
X42731549Y-25153530D01*
X42724895Y-25156677D01*
X42717965Y-25159157D01*
X42710826Y-25160945D01*
X42703545Y-25162025D01*
X42696194Y-25162386D01*
X42688843Y-25162025D01*
X42681562Y-25160945D01*
X42674423Y-25159157D01*
X42667493Y-25156677D01*
X42660839Y-25153530D01*
X42654526Y-25149746D01*
X42648615Y-25145362D01*
X42643161Y-25140419D01*
X41706245Y-24203503D01*
X41701302Y-24198049D01*
X41696918Y-24192138D01*
X41693134Y-24185825D01*
X41689987Y-24179171D01*
X41687507Y-24172241D01*
X41685719Y-24165102D01*
X41684639Y-24157821D01*
X41684278Y-24150470D01*
X41684639Y-24143119D01*
X41685719Y-24135838D01*
X41687507Y-24128699D01*
X41689987Y-24121769D01*
X41693134Y-24115115D01*
X41696918Y-24108802D01*
X41701302Y-24102891D01*
X41706245Y-24097437D01*
X41812311Y-23991371D01*
X41817765Y-23986428D01*
X41823676Y-23982044D01*
X41829989Y-23978260D01*
X41836643Y-23975113D01*
X41843573Y-23972633D01*
X41850712Y-23970845D01*
X41857993Y-23969765D01*
X41865344Y-23969404D01*
X41872695Y-23969765D01*
X41872695Y-23969765D01*
G37*
D13*
X42280769Y-24565895D03*
D12*
G36*
X41519141Y-24323319D02*
G01*
X41526422Y-24324399D01*
X41533561Y-24326187D01*
X41540491Y-24328667D01*
X41547145Y-24331814D01*
X41553458Y-24335598D01*
X41559369Y-24339982D01*
X41564823Y-24344925D01*
X42501739Y-25281841D01*
X42506682Y-25287295D01*
X42511066Y-25293206D01*
X42514850Y-25299519D01*
X42517997Y-25306173D01*
X42520477Y-25313103D01*
X42522265Y-25320242D01*
X42523345Y-25327523D01*
X42523706Y-25334874D01*
X42523345Y-25342225D01*
X42522265Y-25349506D01*
X42520477Y-25356645D01*
X42517997Y-25363575D01*
X42514850Y-25370229D01*
X42511066Y-25376542D01*
X42506682Y-25382453D01*
X42501739Y-25387907D01*
X42395673Y-25493973D01*
X42390219Y-25498916D01*
X42384308Y-25503300D01*
X42377995Y-25507084D01*
X42371341Y-25510231D01*
X42364411Y-25512711D01*
X42357272Y-25514499D01*
X42349991Y-25515579D01*
X42342640Y-25515940D01*
X42335289Y-25515579D01*
X42328008Y-25514499D01*
X42320869Y-25512711D01*
X42313939Y-25510231D01*
X42307285Y-25507084D01*
X42300972Y-25503300D01*
X42295061Y-25498916D01*
X42289607Y-25493973D01*
X41352691Y-24557057D01*
X41347748Y-24551603D01*
X41343364Y-24545692D01*
X41339580Y-24539379D01*
X41336433Y-24532725D01*
X41333953Y-24525795D01*
X41332165Y-24518656D01*
X41331085Y-24511375D01*
X41330724Y-24504024D01*
X41331085Y-24496673D01*
X41332165Y-24489392D01*
X41333953Y-24482253D01*
X41336433Y-24475323D01*
X41339580Y-24468669D01*
X41343364Y-24462356D01*
X41347748Y-24456445D01*
X41352691Y-24450991D01*
X41458757Y-24344925D01*
X41464211Y-24339982D01*
X41470122Y-24335598D01*
X41476435Y-24331814D01*
X41483089Y-24328667D01*
X41490019Y-24326187D01*
X41497158Y-24324399D01*
X41504439Y-24323319D01*
X41511790Y-24322958D01*
X41519141Y-24323319D01*
X41519141Y-24323319D01*
G37*
D13*
X41927215Y-24919449D03*
D12*
G36*
X41165588Y-24676872D02*
G01*
X41172869Y-24677952D01*
X41180008Y-24679740D01*
X41186938Y-24682220D01*
X41193592Y-24685367D01*
X41199905Y-24689151D01*
X41205816Y-24693535D01*
X41211270Y-24698478D01*
X42148186Y-25635394D01*
X42153129Y-25640848D01*
X42157513Y-25646759D01*
X42161297Y-25653072D01*
X42164444Y-25659726D01*
X42166924Y-25666656D01*
X42168712Y-25673795D01*
X42169792Y-25681076D01*
X42170153Y-25688427D01*
X42169792Y-25695778D01*
X42168712Y-25703059D01*
X42166924Y-25710198D01*
X42164444Y-25717128D01*
X42161297Y-25723782D01*
X42157513Y-25730095D01*
X42153129Y-25736006D01*
X42148186Y-25741460D01*
X42042120Y-25847526D01*
X42036666Y-25852469D01*
X42030755Y-25856853D01*
X42024442Y-25860637D01*
X42017788Y-25863784D01*
X42010858Y-25866264D01*
X42003719Y-25868052D01*
X41996438Y-25869132D01*
X41989087Y-25869493D01*
X41981736Y-25869132D01*
X41974455Y-25868052D01*
X41967316Y-25866264D01*
X41960386Y-25863784D01*
X41953732Y-25860637D01*
X41947419Y-25856853D01*
X41941508Y-25852469D01*
X41936054Y-25847526D01*
X40999138Y-24910610D01*
X40994195Y-24905156D01*
X40989811Y-24899245D01*
X40986027Y-24892932D01*
X40982880Y-24886278D01*
X40980400Y-24879348D01*
X40978612Y-24872209D01*
X40977532Y-24864928D01*
X40977171Y-24857577D01*
X40977532Y-24850226D01*
X40978612Y-24842945D01*
X40980400Y-24835806D01*
X40982880Y-24828876D01*
X40986027Y-24822222D01*
X40989811Y-24815909D01*
X40994195Y-24809998D01*
X40999138Y-24804544D01*
X41105204Y-24698478D01*
X41110658Y-24693535D01*
X41116569Y-24689151D01*
X41122882Y-24685367D01*
X41129536Y-24682220D01*
X41136466Y-24679740D01*
X41143605Y-24677952D01*
X41150886Y-24676872D01*
X41158237Y-24676511D01*
X41165588Y-24676872D01*
X41165588Y-24676872D01*
G37*
D13*
X41573662Y-25273002D03*
D12*
G36*
X40812035Y-25030425D02*
G01*
X40819316Y-25031505D01*
X40826455Y-25033293D01*
X40833385Y-25035773D01*
X40840039Y-25038920D01*
X40846352Y-25042704D01*
X40852263Y-25047088D01*
X40857717Y-25052031D01*
X41794633Y-25988947D01*
X41799576Y-25994401D01*
X41803960Y-26000312D01*
X41807744Y-26006625D01*
X41810891Y-26013279D01*
X41813371Y-26020209D01*
X41815159Y-26027348D01*
X41816239Y-26034629D01*
X41816600Y-26041980D01*
X41816239Y-26049331D01*
X41815159Y-26056612D01*
X41813371Y-26063751D01*
X41810891Y-26070681D01*
X41807744Y-26077335D01*
X41803960Y-26083648D01*
X41799576Y-26089559D01*
X41794633Y-26095013D01*
X41688567Y-26201079D01*
X41683113Y-26206022D01*
X41677202Y-26210406D01*
X41670889Y-26214190D01*
X41664235Y-26217337D01*
X41657305Y-26219817D01*
X41650166Y-26221605D01*
X41642885Y-26222685D01*
X41635534Y-26223046D01*
X41628183Y-26222685D01*
X41620902Y-26221605D01*
X41613763Y-26219817D01*
X41606833Y-26217337D01*
X41600179Y-26214190D01*
X41593866Y-26210406D01*
X41587955Y-26206022D01*
X41582501Y-26201079D01*
X40645585Y-25264163D01*
X40640642Y-25258709D01*
X40636258Y-25252798D01*
X40632474Y-25246485D01*
X40629327Y-25239831D01*
X40626847Y-25232901D01*
X40625059Y-25225762D01*
X40623979Y-25218481D01*
X40623618Y-25211130D01*
X40623979Y-25203779D01*
X40625059Y-25196498D01*
X40626847Y-25189359D01*
X40629327Y-25182429D01*
X40632474Y-25175775D01*
X40636258Y-25169462D01*
X40640642Y-25163551D01*
X40645585Y-25158097D01*
X40751651Y-25052031D01*
X40757105Y-25047088D01*
X40763016Y-25042704D01*
X40769329Y-25038920D01*
X40775983Y-25035773D01*
X40782913Y-25033293D01*
X40790052Y-25031505D01*
X40797333Y-25030425D01*
X40804684Y-25030064D01*
X40812035Y-25030425D01*
X40812035Y-25030425D01*
G37*
D13*
X41220109Y-25626555D03*
D12*
G36*
X40458481Y-25383979D02*
G01*
X40465762Y-25385059D01*
X40472901Y-25386847D01*
X40479831Y-25389327D01*
X40486485Y-25392474D01*
X40492798Y-25396258D01*
X40498709Y-25400642D01*
X40504163Y-25405585D01*
X41441079Y-26342501D01*
X41446022Y-26347955D01*
X41450406Y-26353866D01*
X41454190Y-26360179D01*
X41457337Y-26366833D01*
X41459817Y-26373763D01*
X41461605Y-26380902D01*
X41462685Y-26388183D01*
X41463046Y-26395534D01*
X41462685Y-26402885D01*
X41461605Y-26410166D01*
X41459817Y-26417305D01*
X41457337Y-26424235D01*
X41454190Y-26430889D01*
X41450406Y-26437202D01*
X41446022Y-26443113D01*
X41441079Y-26448567D01*
X41335013Y-26554633D01*
X41329559Y-26559576D01*
X41323648Y-26563960D01*
X41317335Y-26567744D01*
X41310681Y-26570891D01*
X41303751Y-26573371D01*
X41296612Y-26575159D01*
X41289331Y-26576239D01*
X41281980Y-26576600D01*
X41274629Y-26576239D01*
X41267348Y-26575159D01*
X41260209Y-26573371D01*
X41253279Y-26570891D01*
X41246625Y-26567744D01*
X41240312Y-26563960D01*
X41234401Y-26559576D01*
X41228947Y-26554633D01*
X40292031Y-25617717D01*
X40287088Y-25612263D01*
X40282704Y-25606352D01*
X40278920Y-25600039D01*
X40275773Y-25593385D01*
X40273293Y-25586455D01*
X40271505Y-25579316D01*
X40270425Y-25572035D01*
X40270064Y-25564684D01*
X40270425Y-25557333D01*
X40271505Y-25550052D01*
X40273293Y-25542913D01*
X40275773Y-25535983D01*
X40278920Y-25529329D01*
X40282704Y-25523016D01*
X40287088Y-25517105D01*
X40292031Y-25511651D01*
X40398097Y-25405585D01*
X40403551Y-25400642D01*
X40409462Y-25396258D01*
X40415775Y-25392474D01*
X40422429Y-25389327D01*
X40429359Y-25386847D01*
X40436498Y-25385059D01*
X40443779Y-25383979D01*
X40451130Y-25383618D01*
X40458481Y-25383979D01*
X40458481Y-25383979D01*
G37*
D13*
X40866555Y-25980109D03*
D12*
G36*
X40104928Y-25737532D02*
G01*
X40112209Y-25738612D01*
X40119348Y-25740400D01*
X40126278Y-25742880D01*
X40132932Y-25746027D01*
X40139245Y-25749811D01*
X40145156Y-25754195D01*
X40150610Y-25759138D01*
X41087526Y-26696054D01*
X41092469Y-26701508D01*
X41096853Y-26707419D01*
X41100637Y-26713732D01*
X41103784Y-26720386D01*
X41106264Y-26727316D01*
X41108052Y-26734455D01*
X41109132Y-26741736D01*
X41109493Y-26749087D01*
X41109132Y-26756438D01*
X41108052Y-26763719D01*
X41106264Y-26770858D01*
X41103784Y-26777788D01*
X41100637Y-26784442D01*
X41096853Y-26790755D01*
X41092469Y-26796666D01*
X41087526Y-26802120D01*
X40981460Y-26908186D01*
X40976006Y-26913129D01*
X40970095Y-26917513D01*
X40963782Y-26921297D01*
X40957128Y-26924444D01*
X40950198Y-26926924D01*
X40943059Y-26928712D01*
X40935778Y-26929792D01*
X40928427Y-26930153D01*
X40921076Y-26929792D01*
X40913795Y-26928712D01*
X40906656Y-26926924D01*
X40899726Y-26924444D01*
X40893072Y-26921297D01*
X40886759Y-26917513D01*
X40880848Y-26913129D01*
X40875394Y-26908186D01*
X39938478Y-25971270D01*
X39933535Y-25965816D01*
X39929151Y-25959905D01*
X39925367Y-25953592D01*
X39922220Y-25946938D01*
X39919740Y-25940008D01*
X39917952Y-25932869D01*
X39916872Y-25925588D01*
X39916511Y-25918237D01*
X39916872Y-25910886D01*
X39917952Y-25903605D01*
X39919740Y-25896466D01*
X39922220Y-25889536D01*
X39925367Y-25882882D01*
X39929151Y-25876569D01*
X39933535Y-25870658D01*
X39938478Y-25865204D01*
X40044544Y-25759138D01*
X40049998Y-25754195D01*
X40055909Y-25749811D01*
X40062222Y-25746027D01*
X40068876Y-25742880D01*
X40075806Y-25740400D01*
X40082945Y-25738612D01*
X40090226Y-25737532D01*
X40097577Y-25737171D01*
X40104928Y-25737532D01*
X40104928Y-25737532D01*
G37*
D13*
X40513002Y-26333662D03*
D12*
G36*
X39751375Y-26091085D02*
G01*
X39758656Y-26092165D01*
X39765795Y-26093953D01*
X39772725Y-26096433D01*
X39779379Y-26099580D01*
X39785692Y-26103364D01*
X39791603Y-26107748D01*
X39797057Y-26112691D01*
X40733973Y-27049607D01*
X40738916Y-27055061D01*
X40743300Y-27060972D01*
X40747084Y-27067285D01*
X40750231Y-27073939D01*
X40752711Y-27080869D01*
X40754499Y-27088008D01*
X40755579Y-27095289D01*
X40755940Y-27102640D01*
X40755579Y-27109991D01*
X40754499Y-27117272D01*
X40752711Y-27124411D01*
X40750231Y-27131341D01*
X40747084Y-27137995D01*
X40743300Y-27144308D01*
X40738916Y-27150219D01*
X40733973Y-27155673D01*
X40627907Y-27261739D01*
X40622453Y-27266682D01*
X40616542Y-27271066D01*
X40610229Y-27274850D01*
X40603575Y-27277997D01*
X40596645Y-27280477D01*
X40589506Y-27282265D01*
X40582225Y-27283345D01*
X40574874Y-27283706D01*
X40567523Y-27283345D01*
X40560242Y-27282265D01*
X40553103Y-27280477D01*
X40546173Y-27277997D01*
X40539519Y-27274850D01*
X40533206Y-27271066D01*
X40527295Y-27266682D01*
X40521841Y-27261739D01*
X39584925Y-26324823D01*
X39579982Y-26319369D01*
X39575598Y-26313458D01*
X39571814Y-26307145D01*
X39568667Y-26300491D01*
X39566187Y-26293561D01*
X39564399Y-26286422D01*
X39563319Y-26279141D01*
X39562958Y-26271790D01*
X39563319Y-26264439D01*
X39564399Y-26257158D01*
X39566187Y-26250019D01*
X39568667Y-26243089D01*
X39571814Y-26236435D01*
X39575598Y-26230122D01*
X39579982Y-26224211D01*
X39584925Y-26218757D01*
X39690991Y-26112691D01*
X39696445Y-26107748D01*
X39702356Y-26103364D01*
X39708669Y-26099580D01*
X39715323Y-26096433D01*
X39722253Y-26093953D01*
X39729392Y-26092165D01*
X39736673Y-26091085D01*
X39744024Y-26090724D01*
X39751375Y-26091085D01*
X39751375Y-26091085D01*
G37*
D13*
X40159449Y-26687215D03*
D12*
G36*
X39397821Y-26444639D02*
G01*
X39405102Y-26445719D01*
X39412241Y-26447507D01*
X39419171Y-26449987D01*
X39425825Y-26453134D01*
X39432138Y-26456918D01*
X39438049Y-26461302D01*
X39443503Y-26466245D01*
X40380419Y-27403161D01*
X40385362Y-27408615D01*
X40389746Y-27414526D01*
X40393530Y-27420839D01*
X40396677Y-27427493D01*
X40399157Y-27434423D01*
X40400945Y-27441562D01*
X40402025Y-27448843D01*
X40402386Y-27456194D01*
X40402025Y-27463545D01*
X40400945Y-27470826D01*
X40399157Y-27477965D01*
X40396677Y-27484895D01*
X40393530Y-27491549D01*
X40389746Y-27497862D01*
X40385362Y-27503773D01*
X40380419Y-27509227D01*
X40274353Y-27615293D01*
X40268899Y-27620236D01*
X40262988Y-27624620D01*
X40256675Y-27628404D01*
X40250021Y-27631551D01*
X40243091Y-27634031D01*
X40235952Y-27635819D01*
X40228671Y-27636899D01*
X40221320Y-27637260D01*
X40213969Y-27636899D01*
X40206688Y-27635819D01*
X40199549Y-27634031D01*
X40192619Y-27631551D01*
X40185965Y-27628404D01*
X40179652Y-27624620D01*
X40173741Y-27620236D01*
X40168287Y-27615293D01*
X39231371Y-26678377D01*
X39226428Y-26672923D01*
X39222044Y-26667012D01*
X39218260Y-26660699D01*
X39215113Y-26654045D01*
X39212633Y-26647115D01*
X39210845Y-26639976D01*
X39209765Y-26632695D01*
X39209404Y-26625344D01*
X39209765Y-26617993D01*
X39210845Y-26610712D01*
X39212633Y-26603573D01*
X39215113Y-26596643D01*
X39218260Y-26589989D01*
X39222044Y-26583676D01*
X39226428Y-26577765D01*
X39231371Y-26572311D01*
X39337437Y-26466245D01*
X39342891Y-26461302D01*
X39348802Y-26456918D01*
X39355115Y-26453134D01*
X39361769Y-26449987D01*
X39368699Y-26447507D01*
X39375838Y-26445719D01*
X39383119Y-26444639D01*
X39390470Y-26444278D01*
X39397821Y-26444639D01*
X39397821Y-26444639D01*
G37*
D13*
X39805895Y-27040769D03*
D12*
G36*
X39044268Y-26798192D02*
G01*
X39051549Y-26799272D01*
X39058688Y-26801060D01*
X39065618Y-26803540D01*
X39072272Y-26806687D01*
X39078585Y-26810471D01*
X39084496Y-26814855D01*
X39089950Y-26819798D01*
X40026866Y-27756714D01*
X40031809Y-27762168D01*
X40036193Y-27768079D01*
X40039977Y-27774392D01*
X40043124Y-27781046D01*
X40045604Y-27787976D01*
X40047392Y-27795115D01*
X40048472Y-27802396D01*
X40048833Y-27809747D01*
X40048472Y-27817098D01*
X40047392Y-27824379D01*
X40045604Y-27831518D01*
X40043124Y-27838448D01*
X40039977Y-27845102D01*
X40036193Y-27851415D01*
X40031809Y-27857326D01*
X40026866Y-27862780D01*
X39920800Y-27968846D01*
X39915346Y-27973789D01*
X39909435Y-27978173D01*
X39903122Y-27981957D01*
X39896468Y-27985104D01*
X39889538Y-27987584D01*
X39882399Y-27989372D01*
X39875118Y-27990452D01*
X39867767Y-27990813D01*
X39860416Y-27990452D01*
X39853135Y-27989372D01*
X39845996Y-27987584D01*
X39839066Y-27985104D01*
X39832412Y-27981957D01*
X39826099Y-27978173D01*
X39820188Y-27973789D01*
X39814734Y-27968846D01*
X38877818Y-27031930D01*
X38872875Y-27026476D01*
X38868491Y-27020565D01*
X38864707Y-27014252D01*
X38861560Y-27007598D01*
X38859080Y-27000668D01*
X38857292Y-26993529D01*
X38856212Y-26986248D01*
X38855851Y-26978897D01*
X38856212Y-26971546D01*
X38857292Y-26964265D01*
X38859080Y-26957126D01*
X38861560Y-26950196D01*
X38864707Y-26943542D01*
X38868491Y-26937229D01*
X38872875Y-26931318D01*
X38877818Y-26925864D01*
X38983884Y-26819798D01*
X38989338Y-26814855D01*
X38995249Y-26810471D01*
X39001562Y-26806687D01*
X39008216Y-26803540D01*
X39015146Y-26801060D01*
X39022285Y-26799272D01*
X39029566Y-26798192D01*
X39036917Y-26797831D01*
X39044268Y-26798192D01*
X39044268Y-26798192D01*
G37*
D13*
X39452342Y-27394322D03*
D12*
G36*
X38690714Y-27151746D02*
G01*
X38697995Y-27152826D01*
X38705134Y-27154614D01*
X38712064Y-27157094D01*
X38718718Y-27160241D01*
X38725031Y-27164025D01*
X38730942Y-27168409D01*
X38736396Y-27173352D01*
X39673312Y-28110268D01*
X39678255Y-28115722D01*
X39682639Y-28121633D01*
X39686423Y-28127946D01*
X39689570Y-28134600D01*
X39692050Y-28141530D01*
X39693838Y-28148669D01*
X39694918Y-28155950D01*
X39695279Y-28163301D01*
X39694918Y-28170652D01*
X39693838Y-28177933D01*
X39692050Y-28185072D01*
X39689570Y-28192002D01*
X39686423Y-28198656D01*
X39682639Y-28204969D01*
X39678255Y-28210880D01*
X39673312Y-28216334D01*
X39567246Y-28322400D01*
X39561792Y-28327343D01*
X39555881Y-28331727D01*
X39549568Y-28335511D01*
X39542914Y-28338658D01*
X39535984Y-28341138D01*
X39528845Y-28342926D01*
X39521564Y-28344006D01*
X39514213Y-28344367D01*
X39506862Y-28344006D01*
X39499581Y-28342926D01*
X39492442Y-28341138D01*
X39485512Y-28338658D01*
X39478858Y-28335511D01*
X39472545Y-28331727D01*
X39466634Y-28327343D01*
X39461180Y-28322400D01*
X38524264Y-27385484D01*
X38519321Y-27380030D01*
X38514937Y-27374119D01*
X38511153Y-27367806D01*
X38508006Y-27361152D01*
X38505526Y-27354222D01*
X38503738Y-27347083D01*
X38502658Y-27339802D01*
X38502297Y-27332451D01*
X38502658Y-27325100D01*
X38503738Y-27317819D01*
X38505526Y-27310680D01*
X38508006Y-27303750D01*
X38511153Y-27297096D01*
X38514937Y-27290783D01*
X38519321Y-27284872D01*
X38524264Y-27279418D01*
X38630330Y-27173352D01*
X38635784Y-27168409D01*
X38641695Y-27164025D01*
X38648008Y-27160241D01*
X38654662Y-27157094D01*
X38661592Y-27154614D01*
X38668731Y-27152826D01*
X38676012Y-27151746D01*
X38683363Y-27151385D01*
X38690714Y-27151746D01*
X38690714Y-27151746D01*
G37*
D13*
X39098788Y-27747876D03*
D12*
G36*
X37523988Y-27151746D02*
G01*
X37531269Y-27152826D01*
X37538408Y-27154614D01*
X37545338Y-27157094D01*
X37551992Y-27160241D01*
X37558305Y-27164025D01*
X37564216Y-27168409D01*
X37569670Y-27173352D01*
X37675736Y-27279418D01*
X37680679Y-27284872D01*
X37685063Y-27290783D01*
X37688847Y-27297096D01*
X37691994Y-27303750D01*
X37694474Y-27310680D01*
X37696262Y-27317819D01*
X37697342Y-27325100D01*
X37697703Y-27332451D01*
X37697342Y-27339802D01*
X37696262Y-27347083D01*
X37694474Y-27354222D01*
X37691994Y-27361152D01*
X37688847Y-27367806D01*
X37685063Y-27374119D01*
X37680679Y-27380030D01*
X37675736Y-27385484D01*
X36738820Y-28322400D01*
X36733366Y-28327343D01*
X36727455Y-28331727D01*
X36721142Y-28335511D01*
X36714488Y-28338658D01*
X36707558Y-28341138D01*
X36700419Y-28342926D01*
X36693138Y-28344006D01*
X36685787Y-28344367D01*
X36678436Y-28344006D01*
X36671155Y-28342926D01*
X36664016Y-28341138D01*
X36657086Y-28338658D01*
X36650432Y-28335511D01*
X36644119Y-28331727D01*
X36638208Y-28327343D01*
X36632754Y-28322400D01*
X36526688Y-28216334D01*
X36521745Y-28210880D01*
X36517361Y-28204969D01*
X36513577Y-28198656D01*
X36510430Y-28192002D01*
X36507950Y-28185072D01*
X36506162Y-28177933D01*
X36505082Y-28170652D01*
X36504721Y-28163301D01*
X36505082Y-28155950D01*
X36506162Y-28148669D01*
X36507950Y-28141530D01*
X36510430Y-28134600D01*
X36513577Y-28127946D01*
X36517361Y-28121633D01*
X36521745Y-28115722D01*
X36526688Y-28110268D01*
X37463604Y-27173352D01*
X37469058Y-27168409D01*
X37474969Y-27164025D01*
X37481282Y-27160241D01*
X37487936Y-27157094D01*
X37494866Y-27154614D01*
X37502005Y-27152826D01*
X37509286Y-27151746D01*
X37516637Y-27151385D01*
X37523988Y-27151746D01*
X37523988Y-27151746D01*
G37*
D13*
X37101212Y-27747876D03*
D12*
G36*
X37170434Y-26798192D02*
G01*
X37177715Y-26799272D01*
X37184854Y-26801060D01*
X37191784Y-26803540D01*
X37198438Y-26806687D01*
X37204751Y-26810471D01*
X37210662Y-26814855D01*
X37216116Y-26819798D01*
X37322182Y-26925864D01*
X37327125Y-26931318D01*
X37331509Y-26937229D01*
X37335293Y-26943542D01*
X37338440Y-26950196D01*
X37340920Y-26957126D01*
X37342708Y-26964265D01*
X37343788Y-26971546D01*
X37344149Y-26978897D01*
X37343788Y-26986248D01*
X37342708Y-26993529D01*
X37340920Y-27000668D01*
X37338440Y-27007598D01*
X37335293Y-27014252D01*
X37331509Y-27020565D01*
X37327125Y-27026476D01*
X37322182Y-27031930D01*
X36385266Y-27968846D01*
X36379812Y-27973789D01*
X36373901Y-27978173D01*
X36367588Y-27981957D01*
X36360934Y-27985104D01*
X36354004Y-27987584D01*
X36346865Y-27989372D01*
X36339584Y-27990452D01*
X36332233Y-27990813D01*
X36324882Y-27990452D01*
X36317601Y-27989372D01*
X36310462Y-27987584D01*
X36303532Y-27985104D01*
X36296878Y-27981957D01*
X36290565Y-27978173D01*
X36284654Y-27973789D01*
X36279200Y-27968846D01*
X36173134Y-27862780D01*
X36168191Y-27857326D01*
X36163807Y-27851415D01*
X36160023Y-27845102D01*
X36156876Y-27838448D01*
X36154396Y-27831518D01*
X36152608Y-27824379D01*
X36151528Y-27817098D01*
X36151167Y-27809747D01*
X36151528Y-27802396D01*
X36152608Y-27795115D01*
X36154396Y-27787976D01*
X36156876Y-27781046D01*
X36160023Y-27774392D01*
X36163807Y-27768079D01*
X36168191Y-27762168D01*
X36173134Y-27756714D01*
X37110050Y-26819798D01*
X37115504Y-26814855D01*
X37121415Y-26810471D01*
X37127728Y-26806687D01*
X37134382Y-26803540D01*
X37141312Y-26801060D01*
X37148451Y-26799272D01*
X37155732Y-26798192D01*
X37163083Y-26797831D01*
X37170434Y-26798192D01*
X37170434Y-26798192D01*
G37*
D13*
X36747658Y-27394322D03*
D12*
G36*
X36816881Y-26444639D02*
G01*
X36824162Y-26445719D01*
X36831301Y-26447507D01*
X36838231Y-26449987D01*
X36844885Y-26453134D01*
X36851198Y-26456918D01*
X36857109Y-26461302D01*
X36862563Y-26466245D01*
X36968629Y-26572311D01*
X36973572Y-26577765D01*
X36977956Y-26583676D01*
X36981740Y-26589989D01*
X36984887Y-26596643D01*
X36987367Y-26603573D01*
X36989155Y-26610712D01*
X36990235Y-26617993D01*
X36990596Y-26625344D01*
X36990235Y-26632695D01*
X36989155Y-26639976D01*
X36987367Y-26647115D01*
X36984887Y-26654045D01*
X36981740Y-26660699D01*
X36977956Y-26667012D01*
X36973572Y-26672923D01*
X36968629Y-26678377D01*
X36031713Y-27615293D01*
X36026259Y-27620236D01*
X36020348Y-27624620D01*
X36014035Y-27628404D01*
X36007381Y-27631551D01*
X36000451Y-27634031D01*
X35993312Y-27635819D01*
X35986031Y-27636899D01*
X35978680Y-27637260D01*
X35971329Y-27636899D01*
X35964048Y-27635819D01*
X35956909Y-27634031D01*
X35949979Y-27631551D01*
X35943325Y-27628404D01*
X35937012Y-27624620D01*
X35931101Y-27620236D01*
X35925647Y-27615293D01*
X35819581Y-27509227D01*
X35814638Y-27503773D01*
X35810254Y-27497862D01*
X35806470Y-27491549D01*
X35803323Y-27484895D01*
X35800843Y-27477965D01*
X35799055Y-27470826D01*
X35797975Y-27463545D01*
X35797614Y-27456194D01*
X35797975Y-27448843D01*
X35799055Y-27441562D01*
X35800843Y-27434423D01*
X35803323Y-27427493D01*
X35806470Y-27420839D01*
X35810254Y-27414526D01*
X35814638Y-27408615D01*
X35819581Y-27403161D01*
X36756497Y-26466245D01*
X36761951Y-26461302D01*
X36767862Y-26456918D01*
X36774175Y-26453134D01*
X36780829Y-26449987D01*
X36787759Y-26447507D01*
X36794898Y-26445719D01*
X36802179Y-26444639D01*
X36809530Y-26444278D01*
X36816881Y-26444639D01*
X36816881Y-26444639D01*
G37*
D13*
X36394105Y-27040769D03*
D12*
G36*
X36463327Y-26091085D02*
G01*
X36470608Y-26092165D01*
X36477747Y-26093953D01*
X36484677Y-26096433D01*
X36491331Y-26099580D01*
X36497644Y-26103364D01*
X36503555Y-26107748D01*
X36509009Y-26112691D01*
X36615075Y-26218757D01*
X36620018Y-26224211D01*
X36624402Y-26230122D01*
X36628186Y-26236435D01*
X36631333Y-26243089D01*
X36633813Y-26250019D01*
X36635601Y-26257158D01*
X36636681Y-26264439D01*
X36637042Y-26271790D01*
X36636681Y-26279141D01*
X36635601Y-26286422D01*
X36633813Y-26293561D01*
X36631333Y-26300491D01*
X36628186Y-26307145D01*
X36624402Y-26313458D01*
X36620018Y-26319369D01*
X36615075Y-26324823D01*
X35678159Y-27261739D01*
X35672705Y-27266682D01*
X35666794Y-27271066D01*
X35660481Y-27274850D01*
X35653827Y-27277997D01*
X35646897Y-27280477D01*
X35639758Y-27282265D01*
X35632477Y-27283345D01*
X35625126Y-27283706D01*
X35617775Y-27283345D01*
X35610494Y-27282265D01*
X35603355Y-27280477D01*
X35596425Y-27277997D01*
X35589771Y-27274850D01*
X35583458Y-27271066D01*
X35577547Y-27266682D01*
X35572093Y-27261739D01*
X35466027Y-27155673D01*
X35461084Y-27150219D01*
X35456700Y-27144308D01*
X35452916Y-27137995D01*
X35449769Y-27131341D01*
X35447289Y-27124411D01*
X35445501Y-27117272D01*
X35444421Y-27109991D01*
X35444060Y-27102640D01*
X35444421Y-27095289D01*
X35445501Y-27088008D01*
X35447289Y-27080869D01*
X35449769Y-27073939D01*
X35452916Y-27067285D01*
X35456700Y-27060972D01*
X35461084Y-27055061D01*
X35466027Y-27049607D01*
X36402943Y-26112691D01*
X36408397Y-26107748D01*
X36414308Y-26103364D01*
X36420621Y-26099580D01*
X36427275Y-26096433D01*
X36434205Y-26093953D01*
X36441344Y-26092165D01*
X36448625Y-26091085D01*
X36455976Y-26090724D01*
X36463327Y-26091085D01*
X36463327Y-26091085D01*
G37*
D13*
X36040551Y-26687215D03*
D12*
G36*
X36109774Y-25737532D02*
G01*
X36117055Y-25738612D01*
X36124194Y-25740400D01*
X36131124Y-25742880D01*
X36137778Y-25746027D01*
X36144091Y-25749811D01*
X36150002Y-25754195D01*
X36155456Y-25759138D01*
X36261522Y-25865204D01*
X36266465Y-25870658D01*
X36270849Y-25876569D01*
X36274633Y-25882882D01*
X36277780Y-25889536D01*
X36280260Y-25896466D01*
X36282048Y-25903605D01*
X36283128Y-25910886D01*
X36283489Y-25918237D01*
X36283128Y-25925588D01*
X36282048Y-25932869D01*
X36280260Y-25940008D01*
X36277780Y-25946938D01*
X36274633Y-25953592D01*
X36270849Y-25959905D01*
X36266465Y-25965816D01*
X36261522Y-25971270D01*
X35324606Y-26908186D01*
X35319152Y-26913129D01*
X35313241Y-26917513D01*
X35306928Y-26921297D01*
X35300274Y-26924444D01*
X35293344Y-26926924D01*
X35286205Y-26928712D01*
X35278924Y-26929792D01*
X35271573Y-26930153D01*
X35264222Y-26929792D01*
X35256941Y-26928712D01*
X35249802Y-26926924D01*
X35242872Y-26924444D01*
X35236218Y-26921297D01*
X35229905Y-26917513D01*
X35223994Y-26913129D01*
X35218540Y-26908186D01*
X35112474Y-26802120D01*
X35107531Y-26796666D01*
X35103147Y-26790755D01*
X35099363Y-26784442D01*
X35096216Y-26777788D01*
X35093736Y-26770858D01*
X35091948Y-26763719D01*
X35090868Y-26756438D01*
X35090507Y-26749087D01*
X35090868Y-26741736D01*
X35091948Y-26734455D01*
X35093736Y-26727316D01*
X35096216Y-26720386D01*
X35099363Y-26713732D01*
X35103147Y-26707419D01*
X35107531Y-26701508D01*
X35112474Y-26696054D01*
X36049390Y-25759138D01*
X36054844Y-25754195D01*
X36060755Y-25749811D01*
X36067068Y-25746027D01*
X36073722Y-25742880D01*
X36080652Y-25740400D01*
X36087791Y-25738612D01*
X36095072Y-25737532D01*
X36102423Y-25737171D01*
X36109774Y-25737532D01*
X36109774Y-25737532D01*
G37*
D13*
X35686998Y-26333662D03*
D12*
G36*
X35756221Y-25383979D02*
G01*
X35763502Y-25385059D01*
X35770641Y-25386847D01*
X35777571Y-25389327D01*
X35784225Y-25392474D01*
X35790538Y-25396258D01*
X35796449Y-25400642D01*
X35801903Y-25405585D01*
X35907969Y-25511651D01*
X35912912Y-25517105D01*
X35917296Y-25523016D01*
X35921080Y-25529329D01*
X35924227Y-25535983D01*
X35926707Y-25542913D01*
X35928495Y-25550052D01*
X35929575Y-25557333D01*
X35929936Y-25564684D01*
X35929575Y-25572035D01*
X35928495Y-25579316D01*
X35926707Y-25586455D01*
X35924227Y-25593385D01*
X35921080Y-25600039D01*
X35917296Y-25606352D01*
X35912912Y-25612263D01*
X35907969Y-25617717D01*
X34971053Y-26554633D01*
X34965599Y-26559576D01*
X34959688Y-26563960D01*
X34953375Y-26567744D01*
X34946721Y-26570891D01*
X34939791Y-26573371D01*
X34932652Y-26575159D01*
X34925371Y-26576239D01*
X34918020Y-26576600D01*
X34910669Y-26576239D01*
X34903388Y-26575159D01*
X34896249Y-26573371D01*
X34889319Y-26570891D01*
X34882665Y-26567744D01*
X34876352Y-26563960D01*
X34870441Y-26559576D01*
X34864987Y-26554633D01*
X34758921Y-26448567D01*
X34753978Y-26443113D01*
X34749594Y-26437202D01*
X34745810Y-26430889D01*
X34742663Y-26424235D01*
X34740183Y-26417305D01*
X34738395Y-26410166D01*
X34737315Y-26402885D01*
X34736954Y-26395534D01*
X34737315Y-26388183D01*
X34738395Y-26380902D01*
X34740183Y-26373763D01*
X34742663Y-26366833D01*
X34745810Y-26360179D01*
X34749594Y-26353866D01*
X34753978Y-26347955D01*
X34758921Y-26342501D01*
X35695837Y-25405585D01*
X35701291Y-25400642D01*
X35707202Y-25396258D01*
X35713515Y-25392474D01*
X35720169Y-25389327D01*
X35727099Y-25386847D01*
X35734238Y-25385059D01*
X35741519Y-25383979D01*
X35748870Y-25383618D01*
X35756221Y-25383979D01*
X35756221Y-25383979D01*
G37*
D13*
X35333445Y-25980109D03*
D12*
G36*
X35402667Y-25030425D02*
G01*
X35409948Y-25031505D01*
X35417087Y-25033293D01*
X35424017Y-25035773D01*
X35430671Y-25038920D01*
X35436984Y-25042704D01*
X35442895Y-25047088D01*
X35448349Y-25052031D01*
X35554415Y-25158097D01*
X35559358Y-25163551D01*
X35563742Y-25169462D01*
X35567526Y-25175775D01*
X35570673Y-25182429D01*
X35573153Y-25189359D01*
X35574941Y-25196498D01*
X35576021Y-25203779D01*
X35576382Y-25211130D01*
X35576021Y-25218481D01*
X35574941Y-25225762D01*
X35573153Y-25232901D01*
X35570673Y-25239831D01*
X35567526Y-25246485D01*
X35563742Y-25252798D01*
X35559358Y-25258709D01*
X35554415Y-25264163D01*
X34617499Y-26201079D01*
X34612045Y-26206022D01*
X34606134Y-26210406D01*
X34599821Y-26214190D01*
X34593167Y-26217337D01*
X34586237Y-26219817D01*
X34579098Y-26221605D01*
X34571817Y-26222685D01*
X34564466Y-26223046D01*
X34557115Y-26222685D01*
X34549834Y-26221605D01*
X34542695Y-26219817D01*
X34535765Y-26217337D01*
X34529111Y-26214190D01*
X34522798Y-26210406D01*
X34516887Y-26206022D01*
X34511433Y-26201079D01*
X34405367Y-26095013D01*
X34400424Y-26089559D01*
X34396040Y-26083648D01*
X34392256Y-26077335D01*
X34389109Y-26070681D01*
X34386629Y-26063751D01*
X34384841Y-26056612D01*
X34383761Y-26049331D01*
X34383400Y-26041980D01*
X34383761Y-26034629D01*
X34384841Y-26027348D01*
X34386629Y-26020209D01*
X34389109Y-26013279D01*
X34392256Y-26006625D01*
X34396040Y-26000312D01*
X34400424Y-25994401D01*
X34405367Y-25988947D01*
X35342283Y-25052031D01*
X35347737Y-25047088D01*
X35353648Y-25042704D01*
X35359961Y-25038920D01*
X35366615Y-25035773D01*
X35373545Y-25033293D01*
X35380684Y-25031505D01*
X35387965Y-25030425D01*
X35395316Y-25030064D01*
X35402667Y-25030425D01*
X35402667Y-25030425D01*
G37*
D13*
X34979891Y-25626555D03*
D12*
G36*
X35049114Y-24676872D02*
G01*
X35056395Y-24677952D01*
X35063534Y-24679740D01*
X35070464Y-24682220D01*
X35077118Y-24685367D01*
X35083431Y-24689151D01*
X35089342Y-24693535D01*
X35094796Y-24698478D01*
X35200862Y-24804544D01*
X35205805Y-24809998D01*
X35210189Y-24815909D01*
X35213973Y-24822222D01*
X35217120Y-24828876D01*
X35219600Y-24835806D01*
X35221388Y-24842945D01*
X35222468Y-24850226D01*
X35222829Y-24857577D01*
X35222468Y-24864928D01*
X35221388Y-24872209D01*
X35219600Y-24879348D01*
X35217120Y-24886278D01*
X35213973Y-24892932D01*
X35210189Y-24899245D01*
X35205805Y-24905156D01*
X35200862Y-24910610D01*
X34263946Y-25847526D01*
X34258492Y-25852469D01*
X34252581Y-25856853D01*
X34246268Y-25860637D01*
X34239614Y-25863784D01*
X34232684Y-25866264D01*
X34225545Y-25868052D01*
X34218264Y-25869132D01*
X34210913Y-25869493D01*
X34203562Y-25869132D01*
X34196281Y-25868052D01*
X34189142Y-25866264D01*
X34182212Y-25863784D01*
X34175558Y-25860637D01*
X34169245Y-25856853D01*
X34163334Y-25852469D01*
X34157880Y-25847526D01*
X34051814Y-25741460D01*
X34046871Y-25736006D01*
X34042487Y-25730095D01*
X34038703Y-25723782D01*
X34035556Y-25717128D01*
X34033076Y-25710198D01*
X34031288Y-25703059D01*
X34030208Y-25695778D01*
X34029847Y-25688427D01*
X34030208Y-25681076D01*
X34031288Y-25673795D01*
X34033076Y-25666656D01*
X34035556Y-25659726D01*
X34038703Y-25653072D01*
X34042487Y-25646759D01*
X34046871Y-25640848D01*
X34051814Y-25635394D01*
X34988730Y-24698478D01*
X34994184Y-24693535D01*
X35000095Y-24689151D01*
X35006408Y-24685367D01*
X35013062Y-24682220D01*
X35019992Y-24679740D01*
X35027131Y-24677952D01*
X35034412Y-24676872D01*
X35041763Y-24676511D01*
X35049114Y-24676872D01*
X35049114Y-24676872D01*
G37*
D13*
X34626338Y-25273002D03*
D12*
G36*
X34695561Y-24323319D02*
G01*
X34702842Y-24324399D01*
X34709981Y-24326187D01*
X34716911Y-24328667D01*
X34723565Y-24331814D01*
X34729878Y-24335598D01*
X34735789Y-24339982D01*
X34741243Y-24344925D01*
X34847309Y-24450991D01*
X34852252Y-24456445D01*
X34856636Y-24462356D01*
X34860420Y-24468669D01*
X34863567Y-24475323D01*
X34866047Y-24482253D01*
X34867835Y-24489392D01*
X34868915Y-24496673D01*
X34869276Y-24504024D01*
X34868915Y-24511375D01*
X34867835Y-24518656D01*
X34866047Y-24525795D01*
X34863567Y-24532725D01*
X34860420Y-24539379D01*
X34856636Y-24545692D01*
X34852252Y-24551603D01*
X34847309Y-24557057D01*
X33910393Y-25493973D01*
X33904939Y-25498916D01*
X33899028Y-25503300D01*
X33892715Y-25507084D01*
X33886061Y-25510231D01*
X33879131Y-25512711D01*
X33871992Y-25514499D01*
X33864711Y-25515579D01*
X33857360Y-25515940D01*
X33850009Y-25515579D01*
X33842728Y-25514499D01*
X33835589Y-25512711D01*
X33828659Y-25510231D01*
X33822005Y-25507084D01*
X33815692Y-25503300D01*
X33809781Y-25498916D01*
X33804327Y-25493973D01*
X33698261Y-25387907D01*
X33693318Y-25382453D01*
X33688934Y-25376542D01*
X33685150Y-25370229D01*
X33682003Y-25363575D01*
X33679523Y-25356645D01*
X33677735Y-25349506D01*
X33676655Y-25342225D01*
X33676294Y-25334874D01*
X33676655Y-25327523D01*
X33677735Y-25320242D01*
X33679523Y-25313103D01*
X33682003Y-25306173D01*
X33685150Y-25299519D01*
X33688934Y-25293206D01*
X33693318Y-25287295D01*
X33698261Y-25281841D01*
X34635177Y-24344925D01*
X34640631Y-24339982D01*
X34646542Y-24335598D01*
X34652855Y-24331814D01*
X34659509Y-24328667D01*
X34666439Y-24326187D01*
X34673578Y-24324399D01*
X34680859Y-24323319D01*
X34688210Y-24322958D01*
X34695561Y-24323319D01*
X34695561Y-24323319D01*
G37*
D13*
X34272785Y-24919449D03*
D12*
G36*
X34342007Y-23969765D02*
G01*
X34349288Y-23970845D01*
X34356427Y-23972633D01*
X34363357Y-23975113D01*
X34370011Y-23978260D01*
X34376324Y-23982044D01*
X34382235Y-23986428D01*
X34387689Y-23991371D01*
X34493755Y-24097437D01*
X34498698Y-24102891D01*
X34503082Y-24108802D01*
X34506866Y-24115115D01*
X34510013Y-24121769D01*
X34512493Y-24128699D01*
X34514281Y-24135838D01*
X34515361Y-24143119D01*
X34515722Y-24150470D01*
X34515361Y-24157821D01*
X34514281Y-24165102D01*
X34512493Y-24172241D01*
X34510013Y-24179171D01*
X34506866Y-24185825D01*
X34503082Y-24192138D01*
X34498698Y-24198049D01*
X34493755Y-24203503D01*
X33556839Y-25140419D01*
X33551385Y-25145362D01*
X33545474Y-25149746D01*
X33539161Y-25153530D01*
X33532507Y-25156677D01*
X33525577Y-25159157D01*
X33518438Y-25160945D01*
X33511157Y-25162025D01*
X33503806Y-25162386D01*
X33496455Y-25162025D01*
X33489174Y-25160945D01*
X33482035Y-25159157D01*
X33475105Y-25156677D01*
X33468451Y-25153530D01*
X33462138Y-25149746D01*
X33456227Y-25145362D01*
X33450773Y-25140419D01*
X33344707Y-25034353D01*
X33339764Y-25028899D01*
X33335380Y-25022988D01*
X33331596Y-25016675D01*
X33328449Y-25010021D01*
X33325969Y-25003091D01*
X33324181Y-24995952D01*
X33323101Y-24988671D01*
X33322740Y-24981320D01*
X33323101Y-24973969D01*
X33324181Y-24966688D01*
X33325969Y-24959549D01*
X33328449Y-24952619D01*
X33331596Y-24945965D01*
X33335380Y-24939652D01*
X33339764Y-24933741D01*
X33344707Y-24928287D01*
X34281623Y-23991371D01*
X34287077Y-23986428D01*
X34292988Y-23982044D01*
X34299301Y-23978260D01*
X34305955Y-23975113D01*
X34312885Y-23972633D01*
X34320024Y-23970845D01*
X34327305Y-23969765D01*
X34334656Y-23969404D01*
X34342007Y-23969765D01*
X34342007Y-23969765D01*
G37*
D13*
X33919231Y-24565895D03*
D12*
G36*
X33988454Y-23616212D02*
G01*
X33995735Y-23617292D01*
X34002874Y-23619080D01*
X34009804Y-23621560D01*
X34016458Y-23624707D01*
X34022771Y-23628491D01*
X34028682Y-23632875D01*
X34034136Y-23637818D01*
X34140202Y-23743884D01*
X34145145Y-23749338D01*
X34149529Y-23755249D01*
X34153313Y-23761562D01*
X34156460Y-23768216D01*
X34158940Y-23775146D01*
X34160728Y-23782285D01*
X34161808Y-23789566D01*
X34162169Y-23796917D01*
X34161808Y-23804268D01*
X34160728Y-23811549D01*
X34158940Y-23818688D01*
X34156460Y-23825618D01*
X34153313Y-23832272D01*
X34149529Y-23838585D01*
X34145145Y-23844496D01*
X34140202Y-23849950D01*
X33203286Y-24786866D01*
X33197832Y-24791809D01*
X33191921Y-24796193D01*
X33185608Y-24799977D01*
X33178954Y-24803124D01*
X33172024Y-24805604D01*
X33164885Y-24807392D01*
X33157604Y-24808472D01*
X33150253Y-24808833D01*
X33142902Y-24808472D01*
X33135621Y-24807392D01*
X33128482Y-24805604D01*
X33121552Y-24803124D01*
X33114898Y-24799977D01*
X33108585Y-24796193D01*
X33102674Y-24791809D01*
X33097220Y-24786866D01*
X32991154Y-24680800D01*
X32986211Y-24675346D01*
X32981827Y-24669435D01*
X32978043Y-24663122D01*
X32974896Y-24656468D01*
X32972416Y-24649538D01*
X32970628Y-24642399D01*
X32969548Y-24635118D01*
X32969187Y-24627767D01*
X32969548Y-24620416D01*
X32970628Y-24613135D01*
X32972416Y-24605996D01*
X32974896Y-24599066D01*
X32978043Y-24592412D01*
X32981827Y-24586099D01*
X32986211Y-24580188D01*
X32991154Y-24574734D01*
X33928070Y-23637818D01*
X33933524Y-23632875D01*
X33939435Y-23628491D01*
X33945748Y-23624707D01*
X33952402Y-23621560D01*
X33959332Y-23619080D01*
X33966471Y-23617292D01*
X33973752Y-23616212D01*
X33981103Y-23615851D01*
X33988454Y-23616212D01*
X33988454Y-23616212D01*
G37*
D13*
X33565678Y-24212342D03*
D12*
G36*
X33634900Y-23262658D02*
G01*
X33642181Y-23263738D01*
X33649320Y-23265526D01*
X33656250Y-23268006D01*
X33662904Y-23271153D01*
X33669217Y-23274937D01*
X33675128Y-23279321D01*
X33680582Y-23284264D01*
X33786648Y-23390330D01*
X33791591Y-23395784D01*
X33795975Y-23401695D01*
X33799759Y-23408008D01*
X33802906Y-23414662D01*
X33805386Y-23421592D01*
X33807174Y-23428731D01*
X33808254Y-23436012D01*
X33808615Y-23443363D01*
X33808254Y-23450714D01*
X33807174Y-23457995D01*
X33805386Y-23465134D01*
X33802906Y-23472064D01*
X33799759Y-23478718D01*
X33795975Y-23485031D01*
X33791591Y-23490942D01*
X33786648Y-23496396D01*
X32849732Y-24433312D01*
X32844278Y-24438255D01*
X32838367Y-24442639D01*
X32832054Y-24446423D01*
X32825400Y-24449570D01*
X32818470Y-24452050D01*
X32811331Y-24453838D01*
X32804050Y-24454918D01*
X32796699Y-24455279D01*
X32789348Y-24454918D01*
X32782067Y-24453838D01*
X32774928Y-24452050D01*
X32767998Y-24449570D01*
X32761344Y-24446423D01*
X32755031Y-24442639D01*
X32749120Y-24438255D01*
X32743666Y-24433312D01*
X32637600Y-24327246D01*
X32632657Y-24321792D01*
X32628273Y-24315881D01*
X32624489Y-24309568D01*
X32621342Y-24302914D01*
X32618862Y-24295984D01*
X32617074Y-24288845D01*
X32615994Y-24281564D01*
X32615633Y-24274213D01*
X32615994Y-24266862D01*
X32617074Y-24259581D01*
X32618862Y-24252442D01*
X32621342Y-24245512D01*
X32624489Y-24238858D01*
X32628273Y-24232545D01*
X32632657Y-24226634D01*
X32637600Y-24221180D01*
X33574516Y-23284264D01*
X33579970Y-23279321D01*
X33585881Y-23274937D01*
X33592194Y-23271153D01*
X33598848Y-23268006D01*
X33605778Y-23265526D01*
X33612917Y-23263738D01*
X33620198Y-23262658D01*
X33627549Y-23262297D01*
X33634900Y-23262658D01*
X33634900Y-23262658D01*
G37*
D13*
X33212124Y-23858788D03*
D12*
G36*
X32804050Y-21265082D02*
G01*
X32811331Y-21266162D01*
X32818470Y-21267950D01*
X32825400Y-21270430D01*
X32832054Y-21273577D01*
X32838367Y-21277361D01*
X32844278Y-21281745D01*
X32849732Y-21286688D01*
X33786648Y-22223604D01*
X33791591Y-22229058D01*
X33795975Y-22234969D01*
X33799759Y-22241282D01*
X33802906Y-22247936D01*
X33805386Y-22254866D01*
X33807174Y-22262005D01*
X33808254Y-22269286D01*
X33808615Y-22276637D01*
X33808254Y-22283988D01*
X33807174Y-22291269D01*
X33805386Y-22298408D01*
X33802906Y-22305338D01*
X33799759Y-22311992D01*
X33795975Y-22318305D01*
X33791591Y-22324216D01*
X33786648Y-22329670D01*
X33680582Y-22435736D01*
X33675128Y-22440679D01*
X33669217Y-22445063D01*
X33662904Y-22448847D01*
X33656250Y-22451994D01*
X33649320Y-22454474D01*
X33642181Y-22456262D01*
X33634900Y-22457342D01*
X33627549Y-22457703D01*
X33620198Y-22457342D01*
X33612917Y-22456262D01*
X33605778Y-22454474D01*
X33598848Y-22451994D01*
X33592194Y-22448847D01*
X33585881Y-22445063D01*
X33579970Y-22440679D01*
X33574516Y-22435736D01*
X32637600Y-21498820D01*
X32632657Y-21493366D01*
X32628273Y-21487455D01*
X32624489Y-21481142D01*
X32621342Y-21474488D01*
X32618862Y-21467558D01*
X32617074Y-21460419D01*
X32615994Y-21453138D01*
X32615633Y-21445787D01*
X32615994Y-21438436D01*
X32617074Y-21431155D01*
X32618862Y-21424016D01*
X32621342Y-21417086D01*
X32624489Y-21410432D01*
X32628273Y-21404119D01*
X32632657Y-21398208D01*
X32637600Y-21392754D01*
X32743666Y-21286688D01*
X32749120Y-21281745D01*
X32755031Y-21277361D01*
X32761344Y-21273577D01*
X32767998Y-21270430D01*
X32774928Y-21267950D01*
X32782067Y-21266162D01*
X32789348Y-21265082D01*
X32796699Y-21264721D01*
X32804050Y-21265082D01*
X32804050Y-21265082D01*
G37*
D13*
X33212124Y-21861212D03*
D12*
G36*
X33157604Y-20911528D02*
G01*
X33164885Y-20912608D01*
X33172024Y-20914396D01*
X33178954Y-20916876D01*
X33185608Y-20920023D01*
X33191921Y-20923807D01*
X33197832Y-20928191D01*
X33203286Y-20933134D01*
X34140202Y-21870050D01*
X34145145Y-21875504D01*
X34149529Y-21881415D01*
X34153313Y-21887728D01*
X34156460Y-21894382D01*
X34158940Y-21901312D01*
X34160728Y-21908451D01*
X34161808Y-21915732D01*
X34162169Y-21923083D01*
X34161808Y-21930434D01*
X34160728Y-21937715D01*
X34158940Y-21944854D01*
X34156460Y-21951784D01*
X34153313Y-21958438D01*
X34149529Y-21964751D01*
X34145145Y-21970662D01*
X34140202Y-21976116D01*
X34034136Y-22082182D01*
X34028682Y-22087125D01*
X34022771Y-22091509D01*
X34016458Y-22095293D01*
X34009804Y-22098440D01*
X34002874Y-22100920D01*
X33995735Y-22102708D01*
X33988454Y-22103788D01*
X33981103Y-22104149D01*
X33973752Y-22103788D01*
X33966471Y-22102708D01*
X33959332Y-22100920D01*
X33952402Y-22098440D01*
X33945748Y-22095293D01*
X33939435Y-22091509D01*
X33933524Y-22087125D01*
X33928070Y-22082182D01*
X32991154Y-21145266D01*
X32986211Y-21139812D01*
X32981827Y-21133901D01*
X32978043Y-21127588D01*
X32974896Y-21120934D01*
X32972416Y-21114004D01*
X32970628Y-21106865D01*
X32969548Y-21099584D01*
X32969187Y-21092233D01*
X32969548Y-21084882D01*
X32970628Y-21077601D01*
X32972416Y-21070462D01*
X32974896Y-21063532D01*
X32978043Y-21056878D01*
X32981827Y-21050565D01*
X32986211Y-21044654D01*
X32991154Y-21039200D01*
X33097220Y-20933134D01*
X33102674Y-20928191D01*
X33108585Y-20923807D01*
X33114898Y-20920023D01*
X33121552Y-20916876D01*
X33128482Y-20914396D01*
X33135621Y-20912608D01*
X33142902Y-20911528D01*
X33150253Y-20911167D01*
X33157604Y-20911528D01*
X33157604Y-20911528D01*
G37*
D13*
X33565678Y-21507658D03*
D12*
G36*
X33511157Y-20557975D02*
G01*
X33518438Y-20559055D01*
X33525577Y-20560843D01*
X33532507Y-20563323D01*
X33539161Y-20566470D01*
X33545474Y-20570254D01*
X33551385Y-20574638D01*
X33556839Y-20579581D01*
X34493755Y-21516497D01*
X34498698Y-21521951D01*
X34503082Y-21527862D01*
X34506866Y-21534175D01*
X34510013Y-21540829D01*
X34512493Y-21547759D01*
X34514281Y-21554898D01*
X34515361Y-21562179D01*
X34515722Y-21569530D01*
X34515361Y-21576881D01*
X34514281Y-21584162D01*
X34512493Y-21591301D01*
X34510013Y-21598231D01*
X34506866Y-21604885D01*
X34503082Y-21611198D01*
X34498698Y-21617109D01*
X34493755Y-21622563D01*
X34387689Y-21728629D01*
X34382235Y-21733572D01*
X34376324Y-21737956D01*
X34370011Y-21741740D01*
X34363357Y-21744887D01*
X34356427Y-21747367D01*
X34349288Y-21749155D01*
X34342007Y-21750235D01*
X34334656Y-21750596D01*
X34327305Y-21750235D01*
X34320024Y-21749155D01*
X34312885Y-21747367D01*
X34305955Y-21744887D01*
X34299301Y-21741740D01*
X34292988Y-21737956D01*
X34287077Y-21733572D01*
X34281623Y-21728629D01*
X33344707Y-20791713D01*
X33339764Y-20786259D01*
X33335380Y-20780348D01*
X33331596Y-20774035D01*
X33328449Y-20767381D01*
X33325969Y-20760451D01*
X33324181Y-20753312D01*
X33323101Y-20746031D01*
X33322740Y-20738680D01*
X33323101Y-20731329D01*
X33324181Y-20724048D01*
X33325969Y-20716909D01*
X33328449Y-20709979D01*
X33331596Y-20703325D01*
X33335380Y-20697012D01*
X33339764Y-20691101D01*
X33344707Y-20685647D01*
X33450773Y-20579581D01*
X33456227Y-20574638D01*
X33462138Y-20570254D01*
X33468451Y-20566470D01*
X33475105Y-20563323D01*
X33482035Y-20560843D01*
X33489174Y-20559055D01*
X33496455Y-20557975D01*
X33503806Y-20557614D01*
X33511157Y-20557975D01*
X33511157Y-20557975D01*
G37*
D13*
X33919231Y-21154105D03*
D12*
G36*
X33864711Y-20204421D02*
G01*
X33871992Y-20205501D01*
X33879131Y-20207289D01*
X33886061Y-20209769D01*
X33892715Y-20212916D01*
X33899028Y-20216700D01*
X33904939Y-20221084D01*
X33910393Y-20226027D01*
X34847309Y-21162943D01*
X34852252Y-21168397D01*
X34856636Y-21174308D01*
X34860420Y-21180621D01*
X34863567Y-21187275D01*
X34866047Y-21194205D01*
X34867835Y-21201344D01*
X34868915Y-21208625D01*
X34869276Y-21215976D01*
X34868915Y-21223327D01*
X34867835Y-21230608D01*
X34866047Y-21237747D01*
X34863567Y-21244677D01*
X34860420Y-21251331D01*
X34856636Y-21257644D01*
X34852252Y-21263555D01*
X34847309Y-21269009D01*
X34741243Y-21375075D01*
X34735789Y-21380018D01*
X34729878Y-21384402D01*
X34723565Y-21388186D01*
X34716911Y-21391333D01*
X34709981Y-21393813D01*
X34702842Y-21395601D01*
X34695561Y-21396681D01*
X34688210Y-21397042D01*
X34680859Y-21396681D01*
X34673578Y-21395601D01*
X34666439Y-21393813D01*
X34659509Y-21391333D01*
X34652855Y-21388186D01*
X34646542Y-21384402D01*
X34640631Y-21380018D01*
X34635177Y-21375075D01*
X33698261Y-20438159D01*
X33693318Y-20432705D01*
X33688934Y-20426794D01*
X33685150Y-20420481D01*
X33682003Y-20413827D01*
X33679523Y-20406897D01*
X33677735Y-20399758D01*
X33676655Y-20392477D01*
X33676294Y-20385126D01*
X33676655Y-20377775D01*
X33677735Y-20370494D01*
X33679523Y-20363355D01*
X33682003Y-20356425D01*
X33685150Y-20349771D01*
X33688934Y-20343458D01*
X33693318Y-20337547D01*
X33698261Y-20332093D01*
X33804327Y-20226027D01*
X33809781Y-20221084D01*
X33815692Y-20216700D01*
X33822005Y-20212916D01*
X33828659Y-20209769D01*
X33835589Y-20207289D01*
X33842728Y-20205501D01*
X33850009Y-20204421D01*
X33857360Y-20204060D01*
X33864711Y-20204421D01*
X33864711Y-20204421D01*
G37*
D13*
X34272785Y-20800551D03*
D12*
G36*
X34218264Y-19850868D02*
G01*
X34225545Y-19851948D01*
X34232684Y-19853736D01*
X34239614Y-19856216D01*
X34246268Y-19859363D01*
X34252581Y-19863147D01*
X34258492Y-19867531D01*
X34263946Y-19872474D01*
X35200862Y-20809390D01*
X35205805Y-20814844D01*
X35210189Y-20820755D01*
X35213973Y-20827068D01*
X35217120Y-20833722D01*
X35219600Y-20840652D01*
X35221388Y-20847791D01*
X35222468Y-20855072D01*
X35222829Y-20862423D01*
X35222468Y-20869774D01*
X35221388Y-20877055D01*
X35219600Y-20884194D01*
X35217120Y-20891124D01*
X35213973Y-20897778D01*
X35210189Y-20904091D01*
X35205805Y-20910002D01*
X35200862Y-20915456D01*
X35094796Y-21021522D01*
X35089342Y-21026465D01*
X35083431Y-21030849D01*
X35077118Y-21034633D01*
X35070464Y-21037780D01*
X35063534Y-21040260D01*
X35056395Y-21042048D01*
X35049114Y-21043128D01*
X35041763Y-21043489D01*
X35034412Y-21043128D01*
X35027131Y-21042048D01*
X35019992Y-21040260D01*
X35013062Y-21037780D01*
X35006408Y-21034633D01*
X35000095Y-21030849D01*
X34994184Y-21026465D01*
X34988730Y-21021522D01*
X34051814Y-20084606D01*
X34046871Y-20079152D01*
X34042487Y-20073241D01*
X34038703Y-20066928D01*
X34035556Y-20060274D01*
X34033076Y-20053344D01*
X34031288Y-20046205D01*
X34030208Y-20038924D01*
X34029847Y-20031573D01*
X34030208Y-20024222D01*
X34031288Y-20016941D01*
X34033076Y-20009802D01*
X34035556Y-20002872D01*
X34038703Y-19996218D01*
X34042487Y-19989905D01*
X34046871Y-19983994D01*
X34051814Y-19978540D01*
X34157880Y-19872474D01*
X34163334Y-19867531D01*
X34169245Y-19863147D01*
X34175558Y-19859363D01*
X34182212Y-19856216D01*
X34189142Y-19853736D01*
X34196281Y-19851948D01*
X34203562Y-19850868D01*
X34210913Y-19850507D01*
X34218264Y-19850868D01*
X34218264Y-19850868D01*
G37*
D13*
X34626338Y-20446998D03*
D12*
G36*
X34571817Y-19497315D02*
G01*
X34579098Y-19498395D01*
X34586237Y-19500183D01*
X34593167Y-19502663D01*
X34599821Y-19505810D01*
X34606134Y-19509594D01*
X34612045Y-19513978D01*
X34617499Y-19518921D01*
X35554415Y-20455837D01*
X35559358Y-20461291D01*
X35563742Y-20467202D01*
X35567526Y-20473515D01*
X35570673Y-20480169D01*
X35573153Y-20487099D01*
X35574941Y-20494238D01*
X35576021Y-20501519D01*
X35576382Y-20508870D01*
X35576021Y-20516221D01*
X35574941Y-20523502D01*
X35573153Y-20530641D01*
X35570673Y-20537571D01*
X35567526Y-20544225D01*
X35563742Y-20550538D01*
X35559358Y-20556449D01*
X35554415Y-20561903D01*
X35448349Y-20667969D01*
X35442895Y-20672912D01*
X35436984Y-20677296D01*
X35430671Y-20681080D01*
X35424017Y-20684227D01*
X35417087Y-20686707D01*
X35409948Y-20688495D01*
X35402667Y-20689575D01*
X35395316Y-20689936D01*
X35387965Y-20689575D01*
X35380684Y-20688495D01*
X35373545Y-20686707D01*
X35366615Y-20684227D01*
X35359961Y-20681080D01*
X35353648Y-20677296D01*
X35347737Y-20672912D01*
X35342283Y-20667969D01*
X34405367Y-19731053D01*
X34400424Y-19725599D01*
X34396040Y-19719688D01*
X34392256Y-19713375D01*
X34389109Y-19706721D01*
X34386629Y-19699791D01*
X34384841Y-19692652D01*
X34383761Y-19685371D01*
X34383400Y-19678020D01*
X34383761Y-19670669D01*
X34384841Y-19663388D01*
X34386629Y-19656249D01*
X34389109Y-19649319D01*
X34392256Y-19642665D01*
X34396040Y-19636352D01*
X34400424Y-19630441D01*
X34405367Y-19624987D01*
X34511433Y-19518921D01*
X34516887Y-19513978D01*
X34522798Y-19509594D01*
X34529111Y-19505810D01*
X34535765Y-19502663D01*
X34542695Y-19500183D01*
X34549834Y-19498395D01*
X34557115Y-19497315D01*
X34564466Y-19496954D01*
X34571817Y-19497315D01*
X34571817Y-19497315D01*
G37*
D13*
X34979891Y-20093445D03*
D12*
G36*
X34925371Y-19143761D02*
G01*
X34932652Y-19144841D01*
X34939791Y-19146629D01*
X34946721Y-19149109D01*
X34953375Y-19152256D01*
X34959688Y-19156040D01*
X34965599Y-19160424D01*
X34971053Y-19165367D01*
X35907969Y-20102283D01*
X35912912Y-20107737D01*
X35917296Y-20113648D01*
X35921080Y-20119961D01*
X35924227Y-20126615D01*
X35926707Y-20133545D01*
X35928495Y-20140684D01*
X35929575Y-20147965D01*
X35929936Y-20155316D01*
X35929575Y-20162667D01*
X35928495Y-20169948D01*
X35926707Y-20177087D01*
X35924227Y-20184017D01*
X35921080Y-20190671D01*
X35917296Y-20196984D01*
X35912912Y-20202895D01*
X35907969Y-20208349D01*
X35801903Y-20314415D01*
X35796449Y-20319358D01*
X35790538Y-20323742D01*
X35784225Y-20327526D01*
X35777571Y-20330673D01*
X35770641Y-20333153D01*
X35763502Y-20334941D01*
X35756221Y-20336021D01*
X35748870Y-20336382D01*
X35741519Y-20336021D01*
X35734238Y-20334941D01*
X35727099Y-20333153D01*
X35720169Y-20330673D01*
X35713515Y-20327526D01*
X35707202Y-20323742D01*
X35701291Y-20319358D01*
X35695837Y-20314415D01*
X34758921Y-19377499D01*
X34753978Y-19372045D01*
X34749594Y-19366134D01*
X34745810Y-19359821D01*
X34742663Y-19353167D01*
X34740183Y-19346237D01*
X34738395Y-19339098D01*
X34737315Y-19331817D01*
X34736954Y-19324466D01*
X34737315Y-19317115D01*
X34738395Y-19309834D01*
X34740183Y-19302695D01*
X34742663Y-19295765D01*
X34745810Y-19289111D01*
X34749594Y-19282798D01*
X34753978Y-19276887D01*
X34758921Y-19271433D01*
X34864987Y-19165367D01*
X34870441Y-19160424D01*
X34876352Y-19156040D01*
X34882665Y-19152256D01*
X34889319Y-19149109D01*
X34896249Y-19146629D01*
X34903388Y-19144841D01*
X34910669Y-19143761D01*
X34918020Y-19143400D01*
X34925371Y-19143761D01*
X34925371Y-19143761D01*
G37*
D13*
X35333445Y-19739891D03*
D12*
G36*
X35278924Y-18790208D02*
G01*
X35286205Y-18791288D01*
X35293344Y-18793076D01*
X35300274Y-18795556D01*
X35306928Y-18798703D01*
X35313241Y-18802487D01*
X35319152Y-18806871D01*
X35324606Y-18811814D01*
X36261522Y-19748730D01*
X36266465Y-19754184D01*
X36270849Y-19760095D01*
X36274633Y-19766408D01*
X36277780Y-19773062D01*
X36280260Y-19779992D01*
X36282048Y-19787131D01*
X36283128Y-19794412D01*
X36283489Y-19801763D01*
X36283128Y-19809114D01*
X36282048Y-19816395D01*
X36280260Y-19823534D01*
X36277780Y-19830464D01*
X36274633Y-19837118D01*
X36270849Y-19843431D01*
X36266465Y-19849342D01*
X36261522Y-19854796D01*
X36155456Y-19960862D01*
X36150002Y-19965805D01*
X36144091Y-19970189D01*
X36137778Y-19973973D01*
X36131124Y-19977120D01*
X36124194Y-19979600D01*
X36117055Y-19981388D01*
X36109774Y-19982468D01*
X36102423Y-19982829D01*
X36095072Y-19982468D01*
X36087791Y-19981388D01*
X36080652Y-19979600D01*
X36073722Y-19977120D01*
X36067068Y-19973973D01*
X36060755Y-19970189D01*
X36054844Y-19965805D01*
X36049390Y-19960862D01*
X35112474Y-19023946D01*
X35107531Y-19018492D01*
X35103147Y-19012581D01*
X35099363Y-19006268D01*
X35096216Y-18999614D01*
X35093736Y-18992684D01*
X35091948Y-18985545D01*
X35090868Y-18978264D01*
X35090507Y-18970913D01*
X35090868Y-18963562D01*
X35091948Y-18956281D01*
X35093736Y-18949142D01*
X35096216Y-18942212D01*
X35099363Y-18935558D01*
X35103147Y-18929245D01*
X35107531Y-18923334D01*
X35112474Y-18917880D01*
X35218540Y-18811814D01*
X35223994Y-18806871D01*
X35229905Y-18802487D01*
X35236218Y-18798703D01*
X35242872Y-18795556D01*
X35249802Y-18793076D01*
X35256941Y-18791288D01*
X35264222Y-18790208D01*
X35271573Y-18789847D01*
X35278924Y-18790208D01*
X35278924Y-18790208D01*
G37*
D13*
X35686998Y-19386338D03*
D12*
G36*
X35632477Y-18436655D02*
G01*
X35639758Y-18437735D01*
X35646897Y-18439523D01*
X35653827Y-18442003D01*
X35660481Y-18445150D01*
X35666794Y-18448934D01*
X35672705Y-18453318D01*
X35678159Y-18458261D01*
X36615075Y-19395177D01*
X36620018Y-19400631D01*
X36624402Y-19406542D01*
X36628186Y-19412855D01*
X36631333Y-19419509D01*
X36633813Y-19426439D01*
X36635601Y-19433578D01*
X36636681Y-19440859D01*
X36637042Y-19448210D01*
X36636681Y-19455561D01*
X36635601Y-19462842D01*
X36633813Y-19469981D01*
X36631333Y-19476911D01*
X36628186Y-19483565D01*
X36624402Y-19489878D01*
X36620018Y-19495789D01*
X36615075Y-19501243D01*
X36509009Y-19607309D01*
X36503555Y-19612252D01*
X36497644Y-19616636D01*
X36491331Y-19620420D01*
X36484677Y-19623567D01*
X36477747Y-19626047D01*
X36470608Y-19627835D01*
X36463327Y-19628915D01*
X36455976Y-19629276D01*
X36448625Y-19628915D01*
X36441344Y-19627835D01*
X36434205Y-19626047D01*
X36427275Y-19623567D01*
X36420621Y-19620420D01*
X36414308Y-19616636D01*
X36408397Y-19612252D01*
X36402943Y-19607309D01*
X35466027Y-18670393D01*
X35461084Y-18664939D01*
X35456700Y-18659028D01*
X35452916Y-18652715D01*
X35449769Y-18646061D01*
X35447289Y-18639131D01*
X35445501Y-18631992D01*
X35444421Y-18624711D01*
X35444060Y-18617360D01*
X35444421Y-18610009D01*
X35445501Y-18602728D01*
X35447289Y-18595589D01*
X35449769Y-18588659D01*
X35452916Y-18582005D01*
X35456700Y-18575692D01*
X35461084Y-18569781D01*
X35466027Y-18564327D01*
X35572093Y-18458261D01*
X35577547Y-18453318D01*
X35583458Y-18448934D01*
X35589771Y-18445150D01*
X35596425Y-18442003D01*
X35603355Y-18439523D01*
X35610494Y-18437735D01*
X35617775Y-18436655D01*
X35625126Y-18436294D01*
X35632477Y-18436655D01*
X35632477Y-18436655D01*
G37*
D13*
X36040551Y-19032785D03*
D12*
G36*
X35986031Y-18083101D02*
G01*
X35993312Y-18084181D01*
X36000451Y-18085969D01*
X36007381Y-18088449D01*
X36014035Y-18091596D01*
X36020348Y-18095380D01*
X36026259Y-18099764D01*
X36031713Y-18104707D01*
X36968629Y-19041623D01*
X36973572Y-19047077D01*
X36977956Y-19052988D01*
X36981740Y-19059301D01*
X36984887Y-19065955D01*
X36987367Y-19072885D01*
X36989155Y-19080024D01*
X36990235Y-19087305D01*
X36990596Y-19094656D01*
X36990235Y-19102007D01*
X36989155Y-19109288D01*
X36987367Y-19116427D01*
X36984887Y-19123357D01*
X36981740Y-19130011D01*
X36977956Y-19136324D01*
X36973572Y-19142235D01*
X36968629Y-19147689D01*
X36862563Y-19253755D01*
X36857109Y-19258698D01*
X36851198Y-19263082D01*
X36844885Y-19266866D01*
X36838231Y-19270013D01*
X36831301Y-19272493D01*
X36824162Y-19274281D01*
X36816881Y-19275361D01*
X36809530Y-19275722D01*
X36802179Y-19275361D01*
X36794898Y-19274281D01*
X36787759Y-19272493D01*
X36780829Y-19270013D01*
X36774175Y-19266866D01*
X36767862Y-19263082D01*
X36761951Y-19258698D01*
X36756497Y-19253755D01*
X35819581Y-18316839D01*
X35814638Y-18311385D01*
X35810254Y-18305474D01*
X35806470Y-18299161D01*
X35803323Y-18292507D01*
X35800843Y-18285577D01*
X35799055Y-18278438D01*
X35797975Y-18271157D01*
X35797614Y-18263806D01*
X35797975Y-18256455D01*
X35799055Y-18249174D01*
X35800843Y-18242035D01*
X35803323Y-18235105D01*
X35806470Y-18228451D01*
X35810254Y-18222138D01*
X35814638Y-18216227D01*
X35819581Y-18210773D01*
X35925647Y-18104707D01*
X35931101Y-18099764D01*
X35937012Y-18095380D01*
X35943325Y-18091596D01*
X35949979Y-18088449D01*
X35956909Y-18085969D01*
X35964048Y-18084181D01*
X35971329Y-18083101D01*
X35978680Y-18082740D01*
X35986031Y-18083101D01*
X35986031Y-18083101D01*
G37*
D13*
X36394105Y-18679231D03*
D12*
G36*
X36339584Y-17729548D02*
G01*
X36346865Y-17730628D01*
X36354004Y-17732416D01*
X36360934Y-17734896D01*
X36367588Y-17738043D01*
X36373901Y-17741827D01*
X36379812Y-17746211D01*
X36385266Y-17751154D01*
X37322182Y-18688070D01*
X37327125Y-18693524D01*
X37331509Y-18699435D01*
X37335293Y-18705748D01*
X37338440Y-18712402D01*
X37340920Y-18719332D01*
X37342708Y-18726471D01*
X37343788Y-18733752D01*
X37344149Y-18741103D01*
X37343788Y-18748454D01*
X37342708Y-18755735D01*
X37340920Y-18762874D01*
X37338440Y-18769804D01*
X37335293Y-18776458D01*
X37331509Y-18782771D01*
X37327125Y-18788682D01*
X37322182Y-18794136D01*
X37216116Y-18900202D01*
X37210662Y-18905145D01*
X37204751Y-18909529D01*
X37198438Y-18913313D01*
X37191784Y-18916460D01*
X37184854Y-18918940D01*
X37177715Y-18920728D01*
X37170434Y-18921808D01*
X37163083Y-18922169D01*
X37155732Y-18921808D01*
X37148451Y-18920728D01*
X37141312Y-18918940D01*
X37134382Y-18916460D01*
X37127728Y-18913313D01*
X37121415Y-18909529D01*
X37115504Y-18905145D01*
X37110050Y-18900202D01*
X36173134Y-17963286D01*
X36168191Y-17957832D01*
X36163807Y-17951921D01*
X36160023Y-17945608D01*
X36156876Y-17938954D01*
X36154396Y-17932024D01*
X36152608Y-17924885D01*
X36151528Y-17917604D01*
X36151167Y-17910253D01*
X36151528Y-17902902D01*
X36152608Y-17895621D01*
X36154396Y-17888482D01*
X36156876Y-17881552D01*
X36160023Y-17874898D01*
X36163807Y-17868585D01*
X36168191Y-17862674D01*
X36173134Y-17857220D01*
X36279200Y-17751154D01*
X36284654Y-17746211D01*
X36290565Y-17741827D01*
X36296878Y-17738043D01*
X36303532Y-17734896D01*
X36310462Y-17732416D01*
X36317601Y-17730628D01*
X36324882Y-17729548D01*
X36332233Y-17729187D01*
X36339584Y-17729548D01*
X36339584Y-17729548D01*
G37*
D13*
X36747658Y-18325678D03*
D12*
G36*
X36693138Y-17375994D02*
G01*
X36700419Y-17377074D01*
X36707558Y-17378862D01*
X36714488Y-17381342D01*
X36721142Y-17384489D01*
X36727455Y-17388273D01*
X36733366Y-17392657D01*
X36738820Y-17397600D01*
X37675736Y-18334516D01*
X37680679Y-18339970D01*
X37685063Y-18345881D01*
X37688847Y-18352194D01*
X37691994Y-18358848D01*
X37694474Y-18365778D01*
X37696262Y-18372917D01*
X37697342Y-18380198D01*
X37697703Y-18387549D01*
X37697342Y-18394900D01*
X37696262Y-18402181D01*
X37694474Y-18409320D01*
X37691994Y-18416250D01*
X37688847Y-18422904D01*
X37685063Y-18429217D01*
X37680679Y-18435128D01*
X37675736Y-18440582D01*
X37569670Y-18546648D01*
X37564216Y-18551591D01*
X37558305Y-18555975D01*
X37551992Y-18559759D01*
X37545338Y-18562906D01*
X37538408Y-18565386D01*
X37531269Y-18567174D01*
X37523988Y-18568254D01*
X37516637Y-18568615D01*
X37509286Y-18568254D01*
X37502005Y-18567174D01*
X37494866Y-18565386D01*
X37487936Y-18562906D01*
X37481282Y-18559759D01*
X37474969Y-18555975D01*
X37469058Y-18551591D01*
X37463604Y-18546648D01*
X36526688Y-17609732D01*
X36521745Y-17604278D01*
X36517361Y-17598367D01*
X36513577Y-17592054D01*
X36510430Y-17585400D01*
X36507950Y-17578470D01*
X36506162Y-17571331D01*
X36505082Y-17564050D01*
X36504721Y-17556699D01*
X36505082Y-17549348D01*
X36506162Y-17542067D01*
X36507950Y-17534928D01*
X36510430Y-17527998D01*
X36513577Y-17521344D01*
X36517361Y-17515031D01*
X36521745Y-17509120D01*
X36526688Y-17503666D01*
X36632754Y-17397600D01*
X36638208Y-17392657D01*
X36644119Y-17388273D01*
X36650432Y-17384489D01*
X36657086Y-17381342D01*
X36664016Y-17378862D01*
X36671155Y-17377074D01*
X36678436Y-17375994D01*
X36685787Y-17375633D01*
X36693138Y-17375994D01*
X36693138Y-17375994D01*
G37*
D13*
X37101212Y-17972124D03*
D12*
G36*
X39521564Y-17375994D02*
G01*
X39528845Y-17377074D01*
X39535984Y-17378862D01*
X39542914Y-17381342D01*
X39549568Y-17384489D01*
X39555881Y-17388273D01*
X39561792Y-17392657D01*
X39567246Y-17397600D01*
X39673312Y-17503666D01*
X39678255Y-17509120D01*
X39682639Y-17515031D01*
X39686423Y-17521344D01*
X39689570Y-17527998D01*
X39692050Y-17534928D01*
X39693838Y-17542067D01*
X39694918Y-17549348D01*
X39695279Y-17556699D01*
X39694918Y-17564050D01*
X39693838Y-17571331D01*
X39692050Y-17578470D01*
X39689570Y-17585400D01*
X39686423Y-17592054D01*
X39682639Y-17598367D01*
X39678255Y-17604278D01*
X39673312Y-17609732D01*
X38736396Y-18546648D01*
X38730942Y-18551591D01*
X38725031Y-18555975D01*
X38718718Y-18559759D01*
X38712064Y-18562906D01*
X38705134Y-18565386D01*
X38697995Y-18567174D01*
X38690714Y-18568254D01*
X38683363Y-18568615D01*
X38676012Y-18568254D01*
X38668731Y-18567174D01*
X38661592Y-18565386D01*
X38654662Y-18562906D01*
X38648008Y-18559759D01*
X38641695Y-18555975D01*
X38635784Y-18551591D01*
X38630330Y-18546648D01*
X38524264Y-18440582D01*
X38519321Y-18435128D01*
X38514937Y-18429217D01*
X38511153Y-18422904D01*
X38508006Y-18416250D01*
X38505526Y-18409320D01*
X38503738Y-18402181D01*
X38502658Y-18394900D01*
X38502297Y-18387549D01*
X38502658Y-18380198D01*
X38503738Y-18372917D01*
X38505526Y-18365778D01*
X38508006Y-18358848D01*
X38511153Y-18352194D01*
X38514937Y-18345881D01*
X38519321Y-18339970D01*
X38524264Y-18334516D01*
X39461180Y-17397600D01*
X39466634Y-17392657D01*
X39472545Y-17388273D01*
X39478858Y-17384489D01*
X39485512Y-17381342D01*
X39492442Y-17378862D01*
X39499581Y-17377074D01*
X39506862Y-17375994D01*
X39514213Y-17375633D01*
X39521564Y-17375994D01*
X39521564Y-17375994D01*
G37*
D13*
X39098788Y-17972124D03*
D12*
G36*
X39875118Y-17729548D02*
G01*
X39882399Y-17730628D01*
X39889538Y-17732416D01*
X39896468Y-17734896D01*
X39903122Y-17738043D01*
X39909435Y-17741827D01*
X39915346Y-17746211D01*
X39920800Y-17751154D01*
X40026866Y-17857220D01*
X40031809Y-17862674D01*
X40036193Y-17868585D01*
X40039977Y-17874898D01*
X40043124Y-17881552D01*
X40045604Y-17888482D01*
X40047392Y-17895621D01*
X40048472Y-17902902D01*
X40048833Y-17910253D01*
X40048472Y-17917604D01*
X40047392Y-17924885D01*
X40045604Y-17932024D01*
X40043124Y-17938954D01*
X40039977Y-17945608D01*
X40036193Y-17951921D01*
X40031809Y-17957832D01*
X40026866Y-17963286D01*
X39089950Y-18900202D01*
X39084496Y-18905145D01*
X39078585Y-18909529D01*
X39072272Y-18913313D01*
X39065618Y-18916460D01*
X39058688Y-18918940D01*
X39051549Y-18920728D01*
X39044268Y-18921808D01*
X39036917Y-18922169D01*
X39029566Y-18921808D01*
X39022285Y-18920728D01*
X39015146Y-18918940D01*
X39008216Y-18916460D01*
X39001562Y-18913313D01*
X38995249Y-18909529D01*
X38989338Y-18905145D01*
X38983884Y-18900202D01*
X38877818Y-18794136D01*
X38872875Y-18788682D01*
X38868491Y-18782771D01*
X38864707Y-18776458D01*
X38861560Y-18769804D01*
X38859080Y-18762874D01*
X38857292Y-18755735D01*
X38856212Y-18748454D01*
X38855851Y-18741103D01*
X38856212Y-18733752D01*
X38857292Y-18726471D01*
X38859080Y-18719332D01*
X38861560Y-18712402D01*
X38864707Y-18705748D01*
X38868491Y-18699435D01*
X38872875Y-18693524D01*
X38877818Y-18688070D01*
X39814734Y-17751154D01*
X39820188Y-17746211D01*
X39826099Y-17741827D01*
X39832412Y-17738043D01*
X39839066Y-17734896D01*
X39845996Y-17732416D01*
X39853135Y-17730628D01*
X39860416Y-17729548D01*
X39867767Y-17729187D01*
X39875118Y-17729548D01*
X39875118Y-17729548D01*
G37*
D13*
X39452342Y-18325678D03*
D12*
G36*
X40228671Y-18083101D02*
G01*
X40235952Y-18084181D01*
X40243091Y-18085969D01*
X40250021Y-18088449D01*
X40256675Y-18091596D01*
X40262988Y-18095380D01*
X40268899Y-18099764D01*
X40274353Y-18104707D01*
X40380419Y-18210773D01*
X40385362Y-18216227D01*
X40389746Y-18222138D01*
X40393530Y-18228451D01*
X40396677Y-18235105D01*
X40399157Y-18242035D01*
X40400945Y-18249174D01*
X40402025Y-18256455D01*
X40402386Y-18263806D01*
X40402025Y-18271157D01*
X40400945Y-18278438D01*
X40399157Y-18285577D01*
X40396677Y-18292507D01*
X40393530Y-18299161D01*
X40389746Y-18305474D01*
X40385362Y-18311385D01*
X40380419Y-18316839D01*
X39443503Y-19253755D01*
X39438049Y-19258698D01*
X39432138Y-19263082D01*
X39425825Y-19266866D01*
X39419171Y-19270013D01*
X39412241Y-19272493D01*
X39405102Y-19274281D01*
X39397821Y-19275361D01*
X39390470Y-19275722D01*
X39383119Y-19275361D01*
X39375838Y-19274281D01*
X39368699Y-19272493D01*
X39361769Y-19270013D01*
X39355115Y-19266866D01*
X39348802Y-19263082D01*
X39342891Y-19258698D01*
X39337437Y-19253755D01*
X39231371Y-19147689D01*
X39226428Y-19142235D01*
X39222044Y-19136324D01*
X39218260Y-19130011D01*
X39215113Y-19123357D01*
X39212633Y-19116427D01*
X39210845Y-19109288D01*
X39209765Y-19102007D01*
X39209404Y-19094656D01*
X39209765Y-19087305D01*
X39210845Y-19080024D01*
X39212633Y-19072885D01*
X39215113Y-19065955D01*
X39218260Y-19059301D01*
X39222044Y-19052988D01*
X39226428Y-19047077D01*
X39231371Y-19041623D01*
X40168287Y-18104707D01*
X40173741Y-18099764D01*
X40179652Y-18095380D01*
X40185965Y-18091596D01*
X40192619Y-18088449D01*
X40199549Y-18085969D01*
X40206688Y-18084181D01*
X40213969Y-18083101D01*
X40221320Y-18082740D01*
X40228671Y-18083101D01*
X40228671Y-18083101D01*
G37*
D13*
X39805895Y-18679231D03*
D12*
G36*
X40582225Y-18436655D02*
G01*
X40589506Y-18437735D01*
X40596645Y-18439523D01*
X40603575Y-18442003D01*
X40610229Y-18445150D01*
X40616542Y-18448934D01*
X40622453Y-18453318D01*
X40627907Y-18458261D01*
X40733973Y-18564327D01*
X40738916Y-18569781D01*
X40743300Y-18575692D01*
X40747084Y-18582005D01*
X40750231Y-18588659D01*
X40752711Y-18595589D01*
X40754499Y-18602728D01*
X40755579Y-18610009D01*
X40755940Y-18617360D01*
X40755579Y-18624711D01*
X40754499Y-18631992D01*
X40752711Y-18639131D01*
X40750231Y-18646061D01*
X40747084Y-18652715D01*
X40743300Y-18659028D01*
X40738916Y-18664939D01*
X40733973Y-18670393D01*
X39797057Y-19607309D01*
X39791603Y-19612252D01*
X39785692Y-19616636D01*
X39779379Y-19620420D01*
X39772725Y-19623567D01*
X39765795Y-19626047D01*
X39758656Y-19627835D01*
X39751375Y-19628915D01*
X39744024Y-19629276D01*
X39736673Y-19628915D01*
X39729392Y-19627835D01*
X39722253Y-19626047D01*
X39715323Y-19623567D01*
X39708669Y-19620420D01*
X39702356Y-19616636D01*
X39696445Y-19612252D01*
X39690991Y-19607309D01*
X39584925Y-19501243D01*
X39579982Y-19495789D01*
X39575598Y-19489878D01*
X39571814Y-19483565D01*
X39568667Y-19476911D01*
X39566187Y-19469981D01*
X39564399Y-19462842D01*
X39563319Y-19455561D01*
X39562958Y-19448210D01*
X39563319Y-19440859D01*
X39564399Y-19433578D01*
X39566187Y-19426439D01*
X39568667Y-19419509D01*
X39571814Y-19412855D01*
X39575598Y-19406542D01*
X39579982Y-19400631D01*
X39584925Y-19395177D01*
X40521841Y-18458261D01*
X40527295Y-18453318D01*
X40533206Y-18448934D01*
X40539519Y-18445150D01*
X40546173Y-18442003D01*
X40553103Y-18439523D01*
X40560242Y-18437735D01*
X40567523Y-18436655D01*
X40574874Y-18436294D01*
X40582225Y-18436655D01*
X40582225Y-18436655D01*
G37*
D13*
X40159449Y-19032785D03*
D12*
G36*
X40935778Y-18790208D02*
G01*
X40943059Y-18791288D01*
X40950198Y-18793076D01*
X40957128Y-18795556D01*
X40963782Y-18798703D01*
X40970095Y-18802487D01*
X40976006Y-18806871D01*
X40981460Y-18811814D01*
X41087526Y-18917880D01*
X41092469Y-18923334D01*
X41096853Y-18929245D01*
X41100637Y-18935558D01*
X41103784Y-18942212D01*
X41106264Y-18949142D01*
X41108052Y-18956281D01*
X41109132Y-18963562D01*
X41109493Y-18970913D01*
X41109132Y-18978264D01*
X41108052Y-18985545D01*
X41106264Y-18992684D01*
X41103784Y-18999614D01*
X41100637Y-19006268D01*
X41096853Y-19012581D01*
X41092469Y-19018492D01*
X41087526Y-19023946D01*
X40150610Y-19960862D01*
X40145156Y-19965805D01*
X40139245Y-19970189D01*
X40132932Y-19973973D01*
X40126278Y-19977120D01*
X40119348Y-19979600D01*
X40112209Y-19981388D01*
X40104928Y-19982468D01*
X40097577Y-19982829D01*
X40090226Y-19982468D01*
X40082945Y-19981388D01*
X40075806Y-19979600D01*
X40068876Y-19977120D01*
X40062222Y-19973973D01*
X40055909Y-19970189D01*
X40049998Y-19965805D01*
X40044544Y-19960862D01*
X39938478Y-19854796D01*
X39933535Y-19849342D01*
X39929151Y-19843431D01*
X39925367Y-19837118D01*
X39922220Y-19830464D01*
X39919740Y-19823534D01*
X39917952Y-19816395D01*
X39916872Y-19809114D01*
X39916511Y-19801763D01*
X39916872Y-19794412D01*
X39917952Y-19787131D01*
X39919740Y-19779992D01*
X39922220Y-19773062D01*
X39925367Y-19766408D01*
X39929151Y-19760095D01*
X39933535Y-19754184D01*
X39938478Y-19748730D01*
X40875394Y-18811814D01*
X40880848Y-18806871D01*
X40886759Y-18802487D01*
X40893072Y-18798703D01*
X40899726Y-18795556D01*
X40906656Y-18793076D01*
X40913795Y-18791288D01*
X40921076Y-18790208D01*
X40928427Y-18789847D01*
X40935778Y-18790208D01*
X40935778Y-18790208D01*
G37*
D13*
X40513002Y-19386338D03*
D12*
G36*
X41289331Y-19143761D02*
G01*
X41296612Y-19144841D01*
X41303751Y-19146629D01*
X41310681Y-19149109D01*
X41317335Y-19152256D01*
X41323648Y-19156040D01*
X41329559Y-19160424D01*
X41335013Y-19165367D01*
X41441079Y-19271433D01*
X41446022Y-19276887D01*
X41450406Y-19282798D01*
X41454190Y-19289111D01*
X41457337Y-19295765D01*
X41459817Y-19302695D01*
X41461605Y-19309834D01*
X41462685Y-19317115D01*
X41463046Y-19324466D01*
X41462685Y-19331817D01*
X41461605Y-19339098D01*
X41459817Y-19346237D01*
X41457337Y-19353167D01*
X41454190Y-19359821D01*
X41450406Y-19366134D01*
X41446022Y-19372045D01*
X41441079Y-19377499D01*
X40504163Y-20314415D01*
X40498709Y-20319358D01*
X40492798Y-20323742D01*
X40486485Y-20327526D01*
X40479831Y-20330673D01*
X40472901Y-20333153D01*
X40465762Y-20334941D01*
X40458481Y-20336021D01*
X40451130Y-20336382D01*
X40443779Y-20336021D01*
X40436498Y-20334941D01*
X40429359Y-20333153D01*
X40422429Y-20330673D01*
X40415775Y-20327526D01*
X40409462Y-20323742D01*
X40403551Y-20319358D01*
X40398097Y-20314415D01*
X40292031Y-20208349D01*
X40287088Y-20202895D01*
X40282704Y-20196984D01*
X40278920Y-20190671D01*
X40275773Y-20184017D01*
X40273293Y-20177087D01*
X40271505Y-20169948D01*
X40270425Y-20162667D01*
X40270064Y-20155316D01*
X40270425Y-20147965D01*
X40271505Y-20140684D01*
X40273293Y-20133545D01*
X40275773Y-20126615D01*
X40278920Y-20119961D01*
X40282704Y-20113648D01*
X40287088Y-20107737D01*
X40292031Y-20102283D01*
X41228947Y-19165367D01*
X41234401Y-19160424D01*
X41240312Y-19156040D01*
X41246625Y-19152256D01*
X41253279Y-19149109D01*
X41260209Y-19146629D01*
X41267348Y-19144841D01*
X41274629Y-19143761D01*
X41281980Y-19143400D01*
X41289331Y-19143761D01*
X41289331Y-19143761D01*
G37*
D13*
X40866555Y-19739891D03*
D12*
G36*
X41642885Y-19497315D02*
G01*
X41650166Y-19498395D01*
X41657305Y-19500183D01*
X41664235Y-19502663D01*
X41670889Y-19505810D01*
X41677202Y-19509594D01*
X41683113Y-19513978D01*
X41688567Y-19518921D01*
X41794633Y-19624987D01*
X41799576Y-19630441D01*
X41803960Y-19636352D01*
X41807744Y-19642665D01*
X41810891Y-19649319D01*
X41813371Y-19656249D01*
X41815159Y-19663388D01*
X41816239Y-19670669D01*
X41816600Y-19678020D01*
X41816239Y-19685371D01*
X41815159Y-19692652D01*
X41813371Y-19699791D01*
X41810891Y-19706721D01*
X41807744Y-19713375D01*
X41803960Y-19719688D01*
X41799576Y-19725599D01*
X41794633Y-19731053D01*
X40857717Y-20667969D01*
X40852263Y-20672912D01*
X40846352Y-20677296D01*
X40840039Y-20681080D01*
X40833385Y-20684227D01*
X40826455Y-20686707D01*
X40819316Y-20688495D01*
X40812035Y-20689575D01*
X40804684Y-20689936D01*
X40797333Y-20689575D01*
X40790052Y-20688495D01*
X40782913Y-20686707D01*
X40775983Y-20684227D01*
X40769329Y-20681080D01*
X40763016Y-20677296D01*
X40757105Y-20672912D01*
X40751651Y-20667969D01*
X40645585Y-20561903D01*
X40640642Y-20556449D01*
X40636258Y-20550538D01*
X40632474Y-20544225D01*
X40629327Y-20537571D01*
X40626847Y-20530641D01*
X40625059Y-20523502D01*
X40623979Y-20516221D01*
X40623618Y-20508870D01*
X40623979Y-20501519D01*
X40625059Y-20494238D01*
X40626847Y-20487099D01*
X40629327Y-20480169D01*
X40632474Y-20473515D01*
X40636258Y-20467202D01*
X40640642Y-20461291D01*
X40645585Y-20455837D01*
X41582501Y-19518921D01*
X41587955Y-19513978D01*
X41593866Y-19509594D01*
X41600179Y-19505810D01*
X41606833Y-19502663D01*
X41613763Y-19500183D01*
X41620902Y-19498395D01*
X41628183Y-19497315D01*
X41635534Y-19496954D01*
X41642885Y-19497315D01*
X41642885Y-19497315D01*
G37*
D13*
X41220109Y-20093445D03*
D12*
G36*
X41996438Y-19850868D02*
G01*
X42003719Y-19851948D01*
X42010858Y-19853736D01*
X42017788Y-19856216D01*
X42024442Y-19859363D01*
X42030755Y-19863147D01*
X42036666Y-19867531D01*
X42042120Y-19872474D01*
X42148186Y-19978540D01*
X42153129Y-19983994D01*
X42157513Y-19989905D01*
X42161297Y-19996218D01*
X42164444Y-20002872D01*
X42166924Y-20009802D01*
X42168712Y-20016941D01*
X42169792Y-20024222D01*
X42170153Y-20031573D01*
X42169792Y-20038924D01*
X42168712Y-20046205D01*
X42166924Y-20053344D01*
X42164444Y-20060274D01*
X42161297Y-20066928D01*
X42157513Y-20073241D01*
X42153129Y-20079152D01*
X42148186Y-20084606D01*
X41211270Y-21021522D01*
X41205816Y-21026465D01*
X41199905Y-21030849D01*
X41193592Y-21034633D01*
X41186938Y-21037780D01*
X41180008Y-21040260D01*
X41172869Y-21042048D01*
X41165588Y-21043128D01*
X41158237Y-21043489D01*
X41150886Y-21043128D01*
X41143605Y-21042048D01*
X41136466Y-21040260D01*
X41129536Y-21037780D01*
X41122882Y-21034633D01*
X41116569Y-21030849D01*
X41110658Y-21026465D01*
X41105204Y-21021522D01*
X40999138Y-20915456D01*
X40994195Y-20910002D01*
X40989811Y-20904091D01*
X40986027Y-20897778D01*
X40982880Y-20891124D01*
X40980400Y-20884194D01*
X40978612Y-20877055D01*
X40977532Y-20869774D01*
X40977171Y-20862423D01*
X40977532Y-20855072D01*
X40978612Y-20847791D01*
X40980400Y-20840652D01*
X40982880Y-20833722D01*
X40986027Y-20827068D01*
X40989811Y-20820755D01*
X40994195Y-20814844D01*
X40999138Y-20809390D01*
X41936054Y-19872474D01*
X41941508Y-19867531D01*
X41947419Y-19863147D01*
X41953732Y-19859363D01*
X41960386Y-19856216D01*
X41967316Y-19853736D01*
X41974455Y-19851948D01*
X41981736Y-19850868D01*
X41989087Y-19850507D01*
X41996438Y-19850868D01*
X41996438Y-19850868D01*
G37*
D13*
X41573662Y-20446998D03*
D12*
G36*
X42349991Y-20204421D02*
G01*
X42357272Y-20205501D01*
X42364411Y-20207289D01*
X42371341Y-20209769D01*
X42377995Y-20212916D01*
X42384308Y-20216700D01*
X42390219Y-20221084D01*
X42395673Y-20226027D01*
X42501739Y-20332093D01*
X42506682Y-20337547D01*
X42511066Y-20343458D01*
X42514850Y-20349771D01*
X42517997Y-20356425D01*
X42520477Y-20363355D01*
X42522265Y-20370494D01*
X42523345Y-20377775D01*
X42523706Y-20385126D01*
X42523345Y-20392477D01*
X42522265Y-20399758D01*
X42520477Y-20406897D01*
X42517997Y-20413827D01*
X42514850Y-20420481D01*
X42511066Y-20426794D01*
X42506682Y-20432705D01*
X42501739Y-20438159D01*
X41564823Y-21375075D01*
X41559369Y-21380018D01*
X41553458Y-21384402D01*
X41547145Y-21388186D01*
X41540491Y-21391333D01*
X41533561Y-21393813D01*
X41526422Y-21395601D01*
X41519141Y-21396681D01*
X41511790Y-21397042D01*
X41504439Y-21396681D01*
X41497158Y-21395601D01*
X41490019Y-21393813D01*
X41483089Y-21391333D01*
X41476435Y-21388186D01*
X41470122Y-21384402D01*
X41464211Y-21380018D01*
X41458757Y-21375075D01*
X41352691Y-21269009D01*
X41347748Y-21263555D01*
X41343364Y-21257644D01*
X41339580Y-21251331D01*
X41336433Y-21244677D01*
X41333953Y-21237747D01*
X41332165Y-21230608D01*
X41331085Y-21223327D01*
X41330724Y-21215976D01*
X41331085Y-21208625D01*
X41332165Y-21201344D01*
X41333953Y-21194205D01*
X41336433Y-21187275D01*
X41339580Y-21180621D01*
X41343364Y-21174308D01*
X41347748Y-21168397D01*
X41352691Y-21162943D01*
X42289607Y-20226027D01*
X42295061Y-20221084D01*
X42300972Y-20216700D01*
X42307285Y-20212916D01*
X42313939Y-20209769D01*
X42320869Y-20207289D01*
X42328008Y-20205501D01*
X42335289Y-20204421D01*
X42342640Y-20204060D01*
X42349991Y-20204421D01*
X42349991Y-20204421D01*
G37*
D13*
X41927215Y-20800551D03*
D12*
G36*
X42703545Y-20557975D02*
G01*
X42710826Y-20559055D01*
X42717965Y-20560843D01*
X42724895Y-20563323D01*
X42731549Y-20566470D01*
X42737862Y-20570254D01*
X42743773Y-20574638D01*
X42749227Y-20579581D01*
X42855293Y-20685647D01*
X42860236Y-20691101D01*
X42864620Y-20697012D01*
X42868404Y-20703325D01*
X42871551Y-20709979D01*
X42874031Y-20716909D01*
X42875819Y-20724048D01*
X42876899Y-20731329D01*
X42877260Y-20738680D01*
X42876899Y-20746031D01*
X42875819Y-20753312D01*
X42874031Y-20760451D01*
X42871551Y-20767381D01*
X42868404Y-20774035D01*
X42864620Y-20780348D01*
X42860236Y-20786259D01*
X42855293Y-20791713D01*
X41918377Y-21728629D01*
X41912923Y-21733572D01*
X41907012Y-21737956D01*
X41900699Y-21741740D01*
X41894045Y-21744887D01*
X41887115Y-21747367D01*
X41879976Y-21749155D01*
X41872695Y-21750235D01*
X41865344Y-21750596D01*
X41857993Y-21750235D01*
X41850712Y-21749155D01*
X41843573Y-21747367D01*
X41836643Y-21744887D01*
X41829989Y-21741740D01*
X41823676Y-21737956D01*
X41817765Y-21733572D01*
X41812311Y-21728629D01*
X41706245Y-21622563D01*
X41701302Y-21617109D01*
X41696918Y-21611198D01*
X41693134Y-21604885D01*
X41689987Y-21598231D01*
X41687507Y-21591301D01*
X41685719Y-21584162D01*
X41684639Y-21576881D01*
X41684278Y-21569530D01*
X41684639Y-21562179D01*
X41685719Y-21554898D01*
X41687507Y-21547759D01*
X41689987Y-21540829D01*
X41693134Y-21534175D01*
X41696918Y-21527862D01*
X41701302Y-21521951D01*
X41706245Y-21516497D01*
X42643161Y-20579581D01*
X42648615Y-20574638D01*
X42654526Y-20570254D01*
X42660839Y-20566470D01*
X42667493Y-20563323D01*
X42674423Y-20560843D01*
X42681562Y-20559055D01*
X42688843Y-20557975D01*
X42696194Y-20557614D01*
X42703545Y-20557975D01*
X42703545Y-20557975D01*
G37*
D13*
X42280769Y-21154105D03*
D12*
G36*
X43057098Y-20911528D02*
G01*
X43064379Y-20912608D01*
X43071518Y-20914396D01*
X43078448Y-20916876D01*
X43085102Y-20920023D01*
X43091415Y-20923807D01*
X43097326Y-20928191D01*
X43102780Y-20933134D01*
X43208846Y-21039200D01*
X43213789Y-21044654D01*
X43218173Y-21050565D01*
X43221957Y-21056878D01*
X43225104Y-21063532D01*
X43227584Y-21070462D01*
X43229372Y-21077601D01*
X43230452Y-21084882D01*
X43230813Y-21092233D01*
X43230452Y-21099584D01*
X43229372Y-21106865D01*
X43227584Y-21114004D01*
X43225104Y-21120934D01*
X43221957Y-21127588D01*
X43218173Y-21133901D01*
X43213789Y-21139812D01*
X43208846Y-21145266D01*
X42271930Y-22082182D01*
X42266476Y-22087125D01*
X42260565Y-22091509D01*
X42254252Y-22095293D01*
X42247598Y-22098440D01*
X42240668Y-22100920D01*
X42233529Y-22102708D01*
X42226248Y-22103788D01*
X42218897Y-22104149D01*
X42211546Y-22103788D01*
X42204265Y-22102708D01*
X42197126Y-22100920D01*
X42190196Y-22098440D01*
X42183542Y-22095293D01*
X42177229Y-22091509D01*
X42171318Y-22087125D01*
X42165864Y-22082182D01*
X42059798Y-21976116D01*
X42054855Y-21970662D01*
X42050471Y-21964751D01*
X42046687Y-21958438D01*
X42043540Y-21951784D01*
X42041060Y-21944854D01*
X42039272Y-21937715D01*
X42038192Y-21930434D01*
X42037831Y-21923083D01*
X42038192Y-21915732D01*
X42039272Y-21908451D01*
X42041060Y-21901312D01*
X42043540Y-21894382D01*
X42046687Y-21887728D01*
X42050471Y-21881415D01*
X42054855Y-21875504D01*
X42059798Y-21870050D01*
X42996714Y-20933134D01*
X43002168Y-20928191D01*
X43008079Y-20923807D01*
X43014392Y-20920023D01*
X43021046Y-20916876D01*
X43027976Y-20914396D01*
X43035115Y-20912608D01*
X43042396Y-20911528D01*
X43049747Y-20911167D01*
X43057098Y-20911528D01*
X43057098Y-20911528D01*
G37*
D13*
X42634322Y-21507658D03*
D12*
G36*
X43410652Y-21265082D02*
G01*
X43417933Y-21266162D01*
X43425072Y-21267950D01*
X43432002Y-21270430D01*
X43438656Y-21273577D01*
X43444969Y-21277361D01*
X43450880Y-21281745D01*
X43456334Y-21286688D01*
X43562400Y-21392754D01*
X43567343Y-21398208D01*
X43571727Y-21404119D01*
X43575511Y-21410432D01*
X43578658Y-21417086D01*
X43581138Y-21424016D01*
X43582926Y-21431155D01*
X43584006Y-21438436D01*
X43584367Y-21445787D01*
X43584006Y-21453138D01*
X43582926Y-21460419D01*
X43581138Y-21467558D01*
X43578658Y-21474488D01*
X43575511Y-21481142D01*
X43571727Y-21487455D01*
X43567343Y-21493366D01*
X43562400Y-21498820D01*
X42625484Y-22435736D01*
X42620030Y-22440679D01*
X42614119Y-22445063D01*
X42607806Y-22448847D01*
X42601152Y-22451994D01*
X42594222Y-22454474D01*
X42587083Y-22456262D01*
X42579802Y-22457342D01*
X42572451Y-22457703D01*
X42565100Y-22457342D01*
X42557819Y-22456262D01*
X42550680Y-22454474D01*
X42543750Y-22451994D01*
X42537096Y-22448847D01*
X42530783Y-22445063D01*
X42524872Y-22440679D01*
X42519418Y-22435736D01*
X42413352Y-22329670D01*
X42408409Y-22324216D01*
X42404025Y-22318305D01*
X42400241Y-22311992D01*
X42397094Y-22305338D01*
X42394614Y-22298408D01*
X42392826Y-22291269D01*
X42391746Y-22283988D01*
X42391385Y-22276637D01*
X42391746Y-22269286D01*
X42392826Y-22262005D01*
X42394614Y-22254866D01*
X42397094Y-22247936D01*
X42400241Y-22241282D01*
X42404025Y-22234969D01*
X42408409Y-22229058D01*
X42413352Y-22223604D01*
X43350268Y-21286688D01*
X43355722Y-21281745D01*
X43361633Y-21277361D01*
X43367946Y-21273577D01*
X43374600Y-21270430D01*
X43381530Y-21267950D01*
X43388669Y-21266162D01*
X43395950Y-21265082D01*
X43403301Y-21264721D01*
X43410652Y-21265082D01*
X43410652Y-21265082D01*
G37*
D13*
X42987876Y-21861212D03*
D14*
X27400000Y-28000000D03*
X23400000Y-28000000D03*
X27400000Y-26000000D03*
X23350000Y-25950000D03*
D12*
G36*
X50474505Y-24226204D02*
G01*
X50498773Y-24229804D01*
X50522572Y-24235765D01*
X50545671Y-24244030D01*
X50567850Y-24254520D01*
X50588893Y-24267132D01*
X50608599Y-24281747D01*
X50626777Y-24298223D01*
X50643253Y-24316401D01*
X50657868Y-24336107D01*
X50670480Y-24357150D01*
X50680970Y-24379329D01*
X50689235Y-24402428D01*
X50695196Y-24426227D01*
X50698796Y-24450495D01*
X50700000Y-24474999D01*
X50700000Y-25125001D01*
X50698796Y-25149505D01*
X50695196Y-25173773D01*
X50689235Y-25197572D01*
X50680970Y-25220671D01*
X50670480Y-25242850D01*
X50657868Y-25263893D01*
X50643253Y-25283599D01*
X50626777Y-25301777D01*
X50608599Y-25318253D01*
X50588893Y-25332868D01*
X50567850Y-25345480D01*
X50545671Y-25355970D01*
X50522572Y-25364235D01*
X50498773Y-25370196D01*
X50474505Y-25373796D01*
X50450001Y-25375000D01*
X49549999Y-25375000D01*
X49525495Y-25373796D01*
X49501227Y-25370196D01*
X49477428Y-25364235D01*
X49454329Y-25355970D01*
X49432150Y-25345480D01*
X49411107Y-25332868D01*
X49391401Y-25318253D01*
X49373223Y-25301777D01*
X49356747Y-25283599D01*
X49342132Y-25263893D01*
X49329520Y-25242850D01*
X49319030Y-25220671D01*
X49310765Y-25197572D01*
X49304804Y-25173773D01*
X49301204Y-25149505D01*
X49300000Y-25125001D01*
X49300000Y-24474999D01*
X49301204Y-24450495D01*
X49304804Y-24426227D01*
X49310765Y-24402428D01*
X49319030Y-24379329D01*
X49329520Y-24357150D01*
X49342132Y-24336107D01*
X49356747Y-24316401D01*
X49373223Y-24298223D01*
X49391401Y-24281747D01*
X49411107Y-24267132D01*
X49432150Y-24254520D01*
X49454329Y-24244030D01*
X49477428Y-24235765D01*
X49501227Y-24229804D01*
X49525495Y-24226204D01*
X49549999Y-24225000D01*
X50450001Y-24225000D01*
X50474505Y-24226204D01*
X50474505Y-24226204D01*
G37*
D15*
X50000000Y-24800000D03*
D12*
G36*
X50474505Y-26276204D02*
G01*
X50498773Y-26279804D01*
X50522572Y-26285765D01*
X50545671Y-26294030D01*
X50567850Y-26304520D01*
X50588893Y-26317132D01*
X50608599Y-26331747D01*
X50626777Y-26348223D01*
X50643253Y-26366401D01*
X50657868Y-26386107D01*
X50670480Y-26407150D01*
X50680970Y-26429329D01*
X50689235Y-26452428D01*
X50695196Y-26476227D01*
X50698796Y-26500495D01*
X50700000Y-26524999D01*
X50700000Y-27175001D01*
X50698796Y-27199505D01*
X50695196Y-27223773D01*
X50689235Y-27247572D01*
X50680970Y-27270671D01*
X50670480Y-27292850D01*
X50657868Y-27313893D01*
X50643253Y-27333599D01*
X50626777Y-27351777D01*
X50608599Y-27368253D01*
X50588893Y-27382868D01*
X50567850Y-27395480D01*
X50545671Y-27405970D01*
X50522572Y-27414235D01*
X50498773Y-27420196D01*
X50474505Y-27423796D01*
X50450001Y-27425000D01*
X49549999Y-27425000D01*
X49525495Y-27423796D01*
X49501227Y-27420196D01*
X49477428Y-27414235D01*
X49454329Y-27405970D01*
X49432150Y-27395480D01*
X49411107Y-27382868D01*
X49391401Y-27368253D01*
X49373223Y-27351777D01*
X49356747Y-27333599D01*
X49342132Y-27313893D01*
X49329520Y-27292850D01*
X49319030Y-27270671D01*
X49310765Y-27247572D01*
X49304804Y-27223773D01*
X49301204Y-27199505D01*
X49300000Y-27175001D01*
X49300000Y-26524999D01*
X49301204Y-26500495D01*
X49304804Y-26476227D01*
X49310765Y-26452428D01*
X49319030Y-26429329D01*
X49329520Y-26407150D01*
X49342132Y-26386107D01*
X49356747Y-26366401D01*
X49373223Y-26348223D01*
X49391401Y-26331747D01*
X49411107Y-26317132D01*
X49432150Y-26304520D01*
X49454329Y-26294030D01*
X49477428Y-26285765D01*
X49501227Y-26279804D01*
X49525495Y-26276204D01*
X49549999Y-26275000D01*
X50450001Y-26275000D01*
X50474505Y-26276204D01*
X50474505Y-26276204D01*
G37*
D15*
X50000000Y-26850000D03*
D12*
G36*
X52703255Y-17751204D02*
G01*
X52727523Y-17754804D01*
X52751322Y-17760765D01*
X52774421Y-17769030D01*
X52796600Y-17779520D01*
X52817643Y-17792132D01*
X52837349Y-17806747D01*
X52855527Y-17823223D01*
X52872003Y-17841401D01*
X52886618Y-17861107D01*
X52899230Y-17882150D01*
X52909720Y-17904329D01*
X52917985Y-17927428D01*
X52923946Y-17951227D01*
X52927546Y-17975495D01*
X52928750Y-17999999D01*
X52928750Y-18650001D01*
X52927546Y-18674505D01*
X52923946Y-18698773D01*
X52917985Y-18722572D01*
X52909720Y-18745671D01*
X52899230Y-18767850D01*
X52886618Y-18788893D01*
X52872003Y-18808599D01*
X52855527Y-18826777D01*
X52837349Y-18843253D01*
X52817643Y-18857868D01*
X52796600Y-18870480D01*
X52774421Y-18880970D01*
X52751322Y-18889235D01*
X52727523Y-18895196D01*
X52703255Y-18898796D01*
X52678751Y-18900000D01*
X51778749Y-18900000D01*
X51754245Y-18898796D01*
X51729977Y-18895196D01*
X51706178Y-18889235D01*
X51683079Y-18880970D01*
X51660900Y-18870480D01*
X51639857Y-18857868D01*
X51620151Y-18843253D01*
X51601973Y-18826777D01*
X51585497Y-18808599D01*
X51570882Y-18788893D01*
X51558270Y-18767850D01*
X51547780Y-18745671D01*
X51539515Y-18722572D01*
X51533554Y-18698773D01*
X51529954Y-18674505D01*
X51528750Y-18650001D01*
X51528750Y-17999999D01*
X51529954Y-17975495D01*
X51533554Y-17951227D01*
X51539515Y-17927428D01*
X51547780Y-17904329D01*
X51558270Y-17882150D01*
X51570882Y-17861107D01*
X51585497Y-17841401D01*
X51601973Y-17823223D01*
X51620151Y-17806747D01*
X51639857Y-17792132D01*
X51660900Y-17779520D01*
X51683079Y-17769030D01*
X51706178Y-17760765D01*
X51729977Y-17754804D01*
X51754245Y-17751204D01*
X51778749Y-17750000D01*
X52678751Y-17750000D01*
X52703255Y-17751204D01*
X52703255Y-17751204D01*
G37*
D15*
X52228750Y-18325000D03*
D12*
G36*
X52703255Y-19801204D02*
G01*
X52727523Y-19804804D01*
X52751322Y-19810765D01*
X52774421Y-19819030D01*
X52796600Y-19829520D01*
X52817643Y-19842132D01*
X52837349Y-19856747D01*
X52855527Y-19873223D01*
X52872003Y-19891401D01*
X52886618Y-19911107D01*
X52899230Y-19932150D01*
X52909720Y-19954329D01*
X52917985Y-19977428D01*
X52923946Y-20001227D01*
X52927546Y-20025495D01*
X52928750Y-20049999D01*
X52928750Y-20700001D01*
X52927546Y-20724505D01*
X52923946Y-20748773D01*
X52917985Y-20772572D01*
X52909720Y-20795671D01*
X52899230Y-20817850D01*
X52886618Y-20838893D01*
X52872003Y-20858599D01*
X52855527Y-20876777D01*
X52837349Y-20893253D01*
X52817643Y-20907868D01*
X52796600Y-20920480D01*
X52774421Y-20930970D01*
X52751322Y-20939235D01*
X52727523Y-20945196D01*
X52703255Y-20948796D01*
X52678751Y-20950000D01*
X51778749Y-20950000D01*
X51754245Y-20948796D01*
X51729977Y-20945196D01*
X51706178Y-20939235D01*
X51683079Y-20930970D01*
X51660900Y-20920480D01*
X51639857Y-20907868D01*
X51620151Y-20893253D01*
X51601973Y-20876777D01*
X51585497Y-20858599D01*
X51570882Y-20838893D01*
X51558270Y-20817850D01*
X51547780Y-20795671D01*
X51539515Y-20772572D01*
X51533554Y-20748773D01*
X51529954Y-20724505D01*
X51528750Y-20700001D01*
X51528750Y-20049999D01*
X51529954Y-20025495D01*
X51533554Y-20001227D01*
X51539515Y-19977428D01*
X51547780Y-19954329D01*
X51558270Y-19932150D01*
X51570882Y-19911107D01*
X51585497Y-19891401D01*
X51601973Y-19873223D01*
X51620151Y-19856747D01*
X51639857Y-19842132D01*
X51660900Y-19829520D01*
X51683079Y-19819030D01*
X51706178Y-19810765D01*
X51729977Y-19804804D01*
X51754245Y-19801204D01*
X51778749Y-19800000D01*
X52678751Y-19800000D01*
X52703255Y-19801204D01*
X52703255Y-19801204D01*
G37*
D15*
X52228750Y-20375000D03*
D16*
X19126200Y-26222000D03*
X19126200Y-25921500D03*
X19126200Y-25413500D03*
X19126200Y-25159500D03*
X19126200Y-24651500D03*
X19126200Y-24143500D03*
X19126200Y-23635500D03*
X19126200Y-23127500D03*
X19126200Y-22619500D03*
X19126200Y-22111500D03*
X19126200Y-21603500D03*
X19126200Y-21095500D03*
X19126200Y-20587500D03*
X19126200Y-20333500D03*
X19126200Y-19742000D03*
X19126200Y-19442000D03*
D12*
G36*
X57349505Y-18301204D02*
G01*
X57373773Y-18304804D01*
X57397572Y-18310765D01*
X57420671Y-18319030D01*
X57442850Y-18329520D01*
X57463893Y-18342132D01*
X57483599Y-18356747D01*
X57501777Y-18373223D01*
X57518253Y-18391401D01*
X57532868Y-18411107D01*
X57545480Y-18432150D01*
X57555970Y-18454329D01*
X57564235Y-18477428D01*
X57570196Y-18501227D01*
X57573796Y-18525495D01*
X57575000Y-18549999D01*
X57575000Y-19450001D01*
X57573796Y-19474505D01*
X57570196Y-19498773D01*
X57564235Y-19522572D01*
X57555970Y-19545671D01*
X57545480Y-19567850D01*
X57532868Y-19588893D01*
X57518253Y-19608599D01*
X57501777Y-19626777D01*
X57483599Y-19643253D01*
X57463893Y-19657868D01*
X57442850Y-19670480D01*
X57420671Y-19680970D01*
X57397572Y-19689235D01*
X57373773Y-19695196D01*
X57349505Y-19698796D01*
X57325001Y-19700000D01*
X56674999Y-19700000D01*
X56650495Y-19698796D01*
X56626227Y-19695196D01*
X56602428Y-19689235D01*
X56579329Y-19680970D01*
X56557150Y-19670480D01*
X56536107Y-19657868D01*
X56516401Y-19643253D01*
X56498223Y-19626777D01*
X56481747Y-19608599D01*
X56467132Y-19588893D01*
X56454520Y-19567850D01*
X56444030Y-19545671D01*
X56435765Y-19522572D01*
X56429804Y-19498773D01*
X56426204Y-19474505D01*
X56425000Y-19450001D01*
X56425000Y-18549999D01*
X56426204Y-18525495D01*
X56429804Y-18501227D01*
X56435765Y-18477428D01*
X56444030Y-18454329D01*
X56454520Y-18432150D01*
X56467132Y-18411107D01*
X56481747Y-18391401D01*
X56498223Y-18373223D01*
X56516401Y-18356747D01*
X56536107Y-18342132D01*
X56557150Y-18329520D01*
X56579329Y-18319030D01*
X56602428Y-18310765D01*
X56626227Y-18304804D01*
X56650495Y-18301204D01*
X56674999Y-18300000D01*
X57325001Y-18300000D01*
X57349505Y-18301204D01*
X57349505Y-18301204D01*
G37*
D15*
X57000000Y-19000000D03*
D12*
G36*
X59399505Y-18301204D02*
G01*
X59423773Y-18304804D01*
X59447572Y-18310765D01*
X59470671Y-18319030D01*
X59492850Y-18329520D01*
X59513893Y-18342132D01*
X59533599Y-18356747D01*
X59551777Y-18373223D01*
X59568253Y-18391401D01*
X59582868Y-18411107D01*
X59595480Y-18432150D01*
X59605970Y-18454329D01*
X59614235Y-18477428D01*
X59620196Y-18501227D01*
X59623796Y-18525495D01*
X59625000Y-18549999D01*
X59625000Y-19450001D01*
X59623796Y-19474505D01*
X59620196Y-19498773D01*
X59614235Y-19522572D01*
X59605970Y-19545671D01*
X59595480Y-19567850D01*
X59582868Y-19588893D01*
X59568253Y-19608599D01*
X59551777Y-19626777D01*
X59533599Y-19643253D01*
X59513893Y-19657868D01*
X59492850Y-19670480D01*
X59470671Y-19680970D01*
X59447572Y-19689235D01*
X59423773Y-19695196D01*
X59399505Y-19698796D01*
X59375001Y-19700000D01*
X58724999Y-19700000D01*
X58700495Y-19698796D01*
X58676227Y-19695196D01*
X58652428Y-19689235D01*
X58629329Y-19680970D01*
X58607150Y-19670480D01*
X58586107Y-19657868D01*
X58566401Y-19643253D01*
X58548223Y-19626777D01*
X58531747Y-19608599D01*
X58517132Y-19588893D01*
X58504520Y-19567850D01*
X58494030Y-19545671D01*
X58485765Y-19522572D01*
X58479804Y-19498773D01*
X58476204Y-19474505D01*
X58475000Y-19450001D01*
X58475000Y-18549999D01*
X58476204Y-18525495D01*
X58479804Y-18501227D01*
X58485765Y-18477428D01*
X58494030Y-18454329D01*
X58504520Y-18432150D01*
X58517132Y-18411107D01*
X58531747Y-18391401D01*
X58548223Y-18373223D01*
X58566401Y-18356747D01*
X58586107Y-18342132D01*
X58607150Y-18329520D01*
X58629329Y-18319030D01*
X58652428Y-18310765D01*
X58676227Y-18304804D01*
X58700495Y-18301204D01*
X58724999Y-18300000D01*
X59375001Y-18300000D01*
X59399505Y-18301204D01*
X59399505Y-18301204D01*
G37*
D15*
X59050000Y-19000000D03*
D12*
G36*
X57299505Y-26326204D02*
G01*
X57323773Y-26329804D01*
X57347572Y-26335765D01*
X57370671Y-26344030D01*
X57392850Y-26354520D01*
X57413893Y-26367132D01*
X57433599Y-26381747D01*
X57451777Y-26398223D01*
X57468253Y-26416401D01*
X57482868Y-26436107D01*
X57495480Y-26457150D01*
X57505970Y-26479329D01*
X57514235Y-26502428D01*
X57520196Y-26526227D01*
X57523796Y-26550495D01*
X57525000Y-26574999D01*
X57525000Y-27475001D01*
X57523796Y-27499505D01*
X57520196Y-27523773D01*
X57514235Y-27547572D01*
X57505970Y-27570671D01*
X57495480Y-27592850D01*
X57482868Y-27613893D01*
X57468253Y-27633599D01*
X57451777Y-27651777D01*
X57433599Y-27668253D01*
X57413893Y-27682868D01*
X57392850Y-27695480D01*
X57370671Y-27705970D01*
X57347572Y-27714235D01*
X57323773Y-27720196D01*
X57299505Y-27723796D01*
X57275001Y-27725000D01*
X56624999Y-27725000D01*
X56600495Y-27723796D01*
X56576227Y-27720196D01*
X56552428Y-27714235D01*
X56529329Y-27705970D01*
X56507150Y-27695480D01*
X56486107Y-27682868D01*
X56466401Y-27668253D01*
X56448223Y-27651777D01*
X56431747Y-27633599D01*
X56417132Y-27613893D01*
X56404520Y-27592850D01*
X56394030Y-27570671D01*
X56385765Y-27547572D01*
X56379804Y-27523773D01*
X56376204Y-27499505D01*
X56375000Y-27475001D01*
X56375000Y-26574999D01*
X56376204Y-26550495D01*
X56379804Y-26526227D01*
X56385765Y-26502428D01*
X56394030Y-26479329D01*
X56404520Y-26457150D01*
X56417132Y-26436107D01*
X56431747Y-26416401D01*
X56448223Y-26398223D01*
X56466401Y-26381747D01*
X56486107Y-26367132D01*
X56507150Y-26354520D01*
X56529329Y-26344030D01*
X56552428Y-26335765D01*
X56576227Y-26329804D01*
X56600495Y-26326204D01*
X56624999Y-26325000D01*
X57275001Y-26325000D01*
X57299505Y-26326204D01*
X57299505Y-26326204D01*
G37*
D15*
X56950000Y-27025000D03*
D12*
G36*
X59349505Y-26326204D02*
G01*
X59373773Y-26329804D01*
X59397572Y-26335765D01*
X59420671Y-26344030D01*
X59442850Y-26354520D01*
X59463893Y-26367132D01*
X59483599Y-26381747D01*
X59501777Y-26398223D01*
X59518253Y-26416401D01*
X59532868Y-26436107D01*
X59545480Y-26457150D01*
X59555970Y-26479329D01*
X59564235Y-26502428D01*
X59570196Y-26526227D01*
X59573796Y-26550495D01*
X59575000Y-26574999D01*
X59575000Y-27475001D01*
X59573796Y-27499505D01*
X59570196Y-27523773D01*
X59564235Y-27547572D01*
X59555970Y-27570671D01*
X59545480Y-27592850D01*
X59532868Y-27613893D01*
X59518253Y-27633599D01*
X59501777Y-27651777D01*
X59483599Y-27668253D01*
X59463893Y-27682868D01*
X59442850Y-27695480D01*
X59420671Y-27705970D01*
X59397572Y-27714235D01*
X59373773Y-27720196D01*
X59349505Y-27723796D01*
X59325001Y-27725000D01*
X58674999Y-27725000D01*
X58650495Y-27723796D01*
X58626227Y-27720196D01*
X58602428Y-27714235D01*
X58579329Y-27705970D01*
X58557150Y-27695480D01*
X58536107Y-27682868D01*
X58516401Y-27668253D01*
X58498223Y-27651777D01*
X58481747Y-27633599D01*
X58467132Y-27613893D01*
X58454520Y-27592850D01*
X58444030Y-27570671D01*
X58435765Y-27547572D01*
X58429804Y-27523773D01*
X58426204Y-27499505D01*
X58425000Y-27475001D01*
X58425000Y-26574999D01*
X58426204Y-26550495D01*
X58429804Y-26526227D01*
X58435765Y-26502428D01*
X58444030Y-26479329D01*
X58454520Y-26457150D01*
X58467132Y-26436107D01*
X58481747Y-26416401D01*
X58498223Y-26398223D01*
X58516401Y-26381747D01*
X58536107Y-26367132D01*
X58557150Y-26354520D01*
X58579329Y-26344030D01*
X58602428Y-26335765D01*
X58626227Y-26329804D01*
X58650495Y-26326204D01*
X58674999Y-26325000D01*
X59325001Y-26325000D01*
X59349505Y-26326204D01*
X59349505Y-26326204D01*
G37*
D15*
X59000000Y-27025000D03*
M02*
