M48
; DRILL file {KiCad (5.1.2-1)-1} date Saturday, March 21, 2020 at 06:46:46 PM
; FORMAT={-:-/ absolute / metric / decimal}
; #@! TF.CreationDate,2020-03-21T18:46:46+05:30
; #@! TF.GenerationSoftware,Kicad,Pcbnew,(5.1.2-1)-1
FMAT,2
METRIC
T1C0.300
T2C0.400
T3C0.650
T4C1.000
T5C1.016
%
G90
G05
T1
X13.335Y-22.86
X13.335Y-23.495
X13.335Y-24.13
X13.97Y-22.86
X13.97Y-23.495
X13.97Y-24.13
X14.986Y-23.368
X16.002Y-21.59
X17.26Y-23.5
X17.27Y-22.619
X17.87Y-22.12
X17.875Y-23.111
X20.54Y-22.11
X20.6Y-23.65
X20.65Y-21.25
X20.7Y-24.6
X21.85Y-24.2
X22.3Y-25.95
X23.016Y-27.159
X23.39Y-27.99
X27.41Y-27.98
X33.587Y-19.393
X34.369Y-27.639
X35.87Y-28.97
X39.907Y-22.926
X40.084Y-28.734
X44.0Y-18.8
X44.35Y-21.45
X44.88Y-21.948
X46.91Y-15.704
X47.8Y-18.4
X47.8Y-21.3
X50.0Y-18.35
X50.0Y-21.3
X50.0Y-23.85
X50.0Y-27.779
X59.0Y-19.0
X59.05Y-27.0
T2
X32.483Y-20.547
X35.05Y-22.8
X36.57Y-24.37
X36.87Y-31.62
X38.05Y-25.8
X38.1Y-19.85
X41.15Y-22.9
X41.293Y-18.543
X43.55Y-25.07
X58.976Y-20.399
T3
X17.502Y-19.922
X17.502Y-25.692
T4
X63.738Y-19.05
X63.738Y-21.59
X63.738Y-24.13
X63.738Y-26.67
X15.24Y-30.48
X17.78Y-30.48
X20.32Y-30.48
X22.86Y-30.48
X25.4Y-30.48
X27.94Y-30.48
X30.48Y-30.48
X33.02Y-30.48
X35.56Y-30.48
X38.1Y-30.48
X40.64Y-30.48
X43.18Y-30.48
X45.72Y-30.48
X48.26Y-30.48
X50.8Y-30.48
X53.34Y-30.48
X55.88Y-30.48
X58.42Y-30.48
X60.96Y-30.48
X63.5Y-30.48
X23.876Y-19.685
X23.876Y-22.225
X26.416Y-19.685
X26.416Y-22.225
X28.956Y-19.685
X28.956Y-22.225
X15.24Y-15.24
X17.78Y-15.24
X20.32Y-15.24
X22.86Y-15.24
X25.4Y-15.24
X27.94Y-15.24
X30.48Y-15.24
X33.02Y-15.24
X35.56Y-15.24
X38.1Y-15.24
X40.64Y-15.24
X43.18Y-15.24
X45.72Y-15.24
X48.26Y-15.24
X50.8Y-15.24
X53.34Y-15.24
X55.88Y-15.24
X58.42Y-15.24
X60.96Y-15.24
X63.5Y-15.24
T5
G00X14.072Y-18.492
M15
G01X13.513Y-18.492
M16
G05
G00X14.072Y-27.128
M15
G01X13.513Y-27.128
M16
G05
G00X18.491Y-18.492
M15
G01X17.729Y-18.492
M16
G05
G00X18.491Y-27.128
M15
G01X17.729Y-27.128
M16
G05
T0
M30
