G04 #@! TF.GenerationSoftware,KiCad,Pcbnew,(5.1.2-1)-1*
G04 #@! TF.CreationDate,2020-03-21T16:32:46+05:30*
G04 #@! TF.ProjectId,BluePill,426c7565-5069-46c6-9c2e-6b696361645f,rev?*
G04 #@! TF.SameCoordinates,Original*
G04 #@! TF.FileFunction,Soldermask,Top*
G04 #@! TF.FilePolarity,Negative*
%FSLAX46Y46*%
G04 Gerber Fmt 4.6, Leading zero omitted, Abs format (unit mm)*
G04 Created by KiCad (PCBNEW (5.1.2-1)-1) date 2020-03-21 16:32:46*
%MOMM*%
%LPD*%
G04 APERTURE LIST*
%ADD10C,0.190000*%
%ADD11C,0.100000*%
G04 APERTURE END LIST*
D10*
X51741069Y-25570837D02*
X51679197Y-25566713D01*
X51584327Y-25595586D01*
X51518331Y-25661583D01*
X51481207Y-25764703D01*
X51477083Y-25834824D01*
X51501831Y-25942069D01*
X51559578Y-26016315D01*
X51650324Y-26057563D01*
X51712196Y-26061687D01*
X51807066Y-26032814D01*
X51873062Y-25966817D01*
X51910186Y-25863698D01*
X51914310Y-25793576D01*
X51683322Y-25496591D02*
X51914310Y-25793576D01*
X51976182Y-25797701D01*
X52009181Y-25764703D01*
X52046304Y-25661583D01*
X52021555Y-25554338D01*
X51877187Y-25368723D01*
X51724570Y-25323350D01*
X51567828Y-25348099D01*
X51406961Y-25442969D01*
X51303842Y-25612085D01*
X51262594Y-25785327D01*
X51283218Y-25962692D01*
X51365713Y-26144183D01*
X51514206Y-26259677D01*
X51666823Y-26305050D01*
X51823565Y-26280301D01*
X51984432Y-26185431D01*
X52087552Y-26016315D01*
X52128799Y-25843074D01*
X52285541Y-25290352D02*
X52615525Y-24960369D01*
X52392786Y-25579087D02*
X52017430Y-24568514D01*
X52854762Y-25117111D01*
X52929009Y-24382898D02*
X53217744Y-24754129D01*
X52380412Y-24205532D02*
X52929009Y-24382898D01*
X52842388Y-23743556D01*
X53362112Y-23883799D02*
X53593100Y-23652810D01*
X54009703Y-23962170D02*
X53679720Y-24292153D01*
X53073376Y-23512567D01*
X53403359Y-23182584D01*
X53989080Y-23256831D02*
X54220068Y-23025842D01*
X54636671Y-23335202D02*
X54306688Y-23665185D01*
X53700344Y-22885599D01*
X54030327Y-22555616D01*
X54933656Y-23038217D02*
X54327312Y-22258631D01*
X54492304Y-22093640D01*
X54620172Y-22031768D01*
X54743916Y-22040018D01*
X54834661Y-22081266D01*
X54983154Y-22196760D01*
X55069774Y-22308129D01*
X55152270Y-22489620D01*
X55177019Y-22596864D01*
X55168769Y-22737107D01*
X55098648Y-22873225D01*
X54933656Y-23038217D01*
X55626621Y-22345252D02*
X55020277Y-21565667D01*
X55251265Y-21334679D02*
X55647245Y-20938699D01*
X56055599Y-21916274D02*
X55449255Y-21136689D01*
X56327835Y-20984071D02*
X56616570Y-21355303D01*
X55779238Y-20806706D02*
X56327835Y-20984071D01*
X56241215Y-20344729D01*
X56872307Y-20703586D02*
X57202291Y-20373603D01*
X56979552Y-20992321D02*
X56604196Y-19981748D01*
X57441528Y-20530345D01*
X53863568Y-26455899D02*
X53343844Y-26315656D01*
X53467588Y-26851879D02*
X52861244Y-26072294D01*
X53125230Y-25808307D01*
X53220101Y-25779434D01*
X53281972Y-25783559D01*
X53372718Y-25824806D01*
X53459338Y-25936176D01*
X53484087Y-26043420D01*
X53479962Y-26113542D01*
X53442839Y-26216661D01*
X53178853Y-26480648D01*
X53842944Y-25750560D02*
X54073932Y-25519572D01*
X54490536Y-25828931D02*
X54160553Y-26158914D01*
X53554209Y-25379329D01*
X53884192Y-25049346D01*
X54787521Y-25531946D02*
X54181177Y-24752361D01*
X54346168Y-24587370D01*
X54474037Y-24525498D01*
X54597780Y-24533747D01*
X54688526Y-24574995D01*
X54837018Y-24690489D01*
X54923639Y-24801859D01*
X55006135Y-24983349D01*
X55030883Y-25090594D01*
X55022634Y-25230837D01*
X54952512Y-25366955D01*
X54787521Y-25531946D01*
X56008458Y-24311009D02*
X55402114Y-23531423D01*
X55666101Y-23267437D01*
X55760971Y-23238563D01*
X55822843Y-23242688D01*
X55913588Y-23283936D01*
X56000209Y-23395305D01*
X56024958Y-23502550D01*
X56020833Y-23572671D01*
X55983710Y-23675791D01*
X55719723Y-23939778D01*
X56701423Y-23618044D02*
X56095079Y-22838459D01*
X57361389Y-22958078D02*
X57031406Y-23288061D01*
X56425062Y-22508476D01*
X57922361Y-22397106D02*
X57592378Y-22727089D01*
X56986034Y-21947504D01*
X55598336Y-27068725D02*
X55078613Y-26928482D01*
X55202356Y-27464705D02*
X54596012Y-26685119D01*
X54859999Y-26421133D01*
X54954869Y-26392259D01*
X55016741Y-26396384D01*
X55107486Y-26437632D01*
X55194107Y-26549001D01*
X55218856Y-26656246D01*
X55214731Y-26726367D01*
X55177608Y-26829487D01*
X54913621Y-27093474D01*
X55577712Y-26363386D02*
X55808700Y-26132398D01*
X56225304Y-26441757D02*
X55895321Y-26771740D01*
X55288977Y-25992155D01*
X55618960Y-25662172D01*
X55816950Y-25464182D02*
X56654282Y-26012779D01*
X56278926Y-25002205D01*
X57479240Y-25187821D02*
X57083260Y-25583801D01*
X57281250Y-25385811D02*
X56674906Y-24606225D01*
X56695530Y-24783591D01*
X56687281Y-24923834D01*
X56650158Y-25026954D01*
X57718478Y-24816590D02*
X57780350Y-24820715D01*
X57776225Y-24890836D01*
X57714353Y-24886711D01*
X57718478Y-24816590D01*
X57776225Y-24890836D01*
X57631857Y-23649274D02*
X57697854Y-23583278D01*
X57792724Y-23554404D01*
X57854596Y-23558529D01*
X57945341Y-23599777D01*
X58093834Y-23715271D01*
X58238202Y-23900886D01*
X58320697Y-24082377D01*
X58345446Y-24189622D01*
X58341321Y-24259743D01*
X58304198Y-24362863D01*
X58238202Y-24428860D01*
X58143331Y-24457733D01*
X58081460Y-24453608D01*
X57990714Y-24412360D01*
X57842222Y-24296866D01*
X57697854Y-24111251D01*
X57615358Y-23929760D01*
X57590610Y-23822515D01*
X57594734Y-23752394D01*
X57631857Y-23649274D01*
D11*
G36*
X63613512Y-29583927D02*
G01*
X63762812Y-29613624D01*
X63926784Y-29681544D01*
X64074354Y-29780147D01*
X64199853Y-29905646D01*
X64298456Y-30053216D01*
X64366376Y-30217188D01*
X64401000Y-30391259D01*
X64401000Y-30568741D01*
X64366376Y-30742812D01*
X64298456Y-30906784D01*
X64199853Y-31054354D01*
X64074354Y-31179853D01*
X63926784Y-31278456D01*
X63762812Y-31346376D01*
X63613512Y-31376073D01*
X63588742Y-31381000D01*
X63411258Y-31381000D01*
X63386488Y-31376073D01*
X63237188Y-31346376D01*
X63073216Y-31278456D01*
X62925646Y-31179853D01*
X62800147Y-31054354D01*
X62701544Y-30906784D01*
X62633624Y-30742812D01*
X62599000Y-30568741D01*
X62599000Y-30391259D01*
X62633624Y-30217188D01*
X62701544Y-30053216D01*
X62800147Y-29905646D01*
X62925646Y-29780147D01*
X63073216Y-29681544D01*
X63237188Y-29613624D01*
X63386488Y-29583927D01*
X63411258Y-29579000D01*
X63588742Y-29579000D01*
X63613512Y-29583927D01*
X63613512Y-29583927D01*
G37*
G36*
X61070443Y-29585519D02*
G01*
X61136627Y-29592037D01*
X61306466Y-29643557D01*
X61462991Y-29727222D01*
X61498729Y-29756552D01*
X61600186Y-29839814D01*
X61683448Y-29941271D01*
X61712778Y-29977009D01*
X61796443Y-30133534D01*
X61847963Y-30303373D01*
X61865359Y-30480000D01*
X61847963Y-30656627D01*
X61796443Y-30826466D01*
X61712778Y-30982991D01*
X61683448Y-31018729D01*
X61600186Y-31120186D01*
X61527480Y-31179853D01*
X61462991Y-31232778D01*
X61306466Y-31316443D01*
X61136627Y-31367963D01*
X61070443Y-31374481D01*
X61004260Y-31381000D01*
X60915740Y-31381000D01*
X60849557Y-31374481D01*
X60783373Y-31367963D01*
X60613534Y-31316443D01*
X60457009Y-31232778D01*
X60392520Y-31179853D01*
X60319814Y-31120186D01*
X60236552Y-31018729D01*
X60207222Y-30982991D01*
X60123557Y-30826466D01*
X60072037Y-30656627D01*
X60054641Y-30480000D01*
X60072037Y-30303373D01*
X60123557Y-30133534D01*
X60207222Y-29977009D01*
X60236552Y-29941271D01*
X60319814Y-29839814D01*
X60421271Y-29756552D01*
X60457009Y-29727222D01*
X60613534Y-29643557D01*
X60783373Y-29592037D01*
X60849557Y-29585519D01*
X60915740Y-29579000D01*
X61004260Y-29579000D01*
X61070443Y-29585519D01*
X61070443Y-29585519D01*
G37*
G36*
X58530443Y-29585519D02*
G01*
X58596627Y-29592037D01*
X58766466Y-29643557D01*
X58922991Y-29727222D01*
X58958729Y-29756552D01*
X59060186Y-29839814D01*
X59143448Y-29941271D01*
X59172778Y-29977009D01*
X59256443Y-30133534D01*
X59307963Y-30303373D01*
X59325359Y-30480000D01*
X59307963Y-30656627D01*
X59256443Y-30826466D01*
X59172778Y-30982991D01*
X59143448Y-31018729D01*
X59060186Y-31120186D01*
X58987480Y-31179853D01*
X58922991Y-31232778D01*
X58766466Y-31316443D01*
X58596627Y-31367963D01*
X58530443Y-31374481D01*
X58464260Y-31381000D01*
X58375740Y-31381000D01*
X58309557Y-31374481D01*
X58243373Y-31367963D01*
X58073534Y-31316443D01*
X57917009Y-31232778D01*
X57852520Y-31179853D01*
X57779814Y-31120186D01*
X57696552Y-31018729D01*
X57667222Y-30982991D01*
X57583557Y-30826466D01*
X57532037Y-30656627D01*
X57514641Y-30480000D01*
X57532037Y-30303373D01*
X57583557Y-30133534D01*
X57667222Y-29977009D01*
X57696552Y-29941271D01*
X57779814Y-29839814D01*
X57881271Y-29756552D01*
X57917009Y-29727222D01*
X58073534Y-29643557D01*
X58243373Y-29592037D01*
X58309557Y-29585519D01*
X58375740Y-29579000D01*
X58464260Y-29579000D01*
X58530443Y-29585519D01*
X58530443Y-29585519D01*
G37*
G36*
X55990443Y-29585519D02*
G01*
X56056627Y-29592037D01*
X56226466Y-29643557D01*
X56382991Y-29727222D01*
X56418729Y-29756552D01*
X56520186Y-29839814D01*
X56603448Y-29941271D01*
X56632778Y-29977009D01*
X56716443Y-30133534D01*
X56767963Y-30303373D01*
X56785359Y-30480000D01*
X56767963Y-30656627D01*
X56716443Y-30826466D01*
X56632778Y-30982991D01*
X56603448Y-31018729D01*
X56520186Y-31120186D01*
X56447480Y-31179853D01*
X56382991Y-31232778D01*
X56226466Y-31316443D01*
X56056627Y-31367963D01*
X55990443Y-31374481D01*
X55924260Y-31381000D01*
X55835740Y-31381000D01*
X55769557Y-31374481D01*
X55703373Y-31367963D01*
X55533534Y-31316443D01*
X55377009Y-31232778D01*
X55312520Y-31179853D01*
X55239814Y-31120186D01*
X55156552Y-31018729D01*
X55127222Y-30982991D01*
X55043557Y-30826466D01*
X54992037Y-30656627D01*
X54974641Y-30480000D01*
X54992037Y-30303373D01*
X55043557Y-30133534D01*
X55127222Y-29977009D01*
X55156552Y-29941271D01*
X55239814Y-29839814D01*
X55341271Y-29756552D01*
X55377009Y-29727222D01*
X55533534Y-29643557D01*
X55703373Y-29592037D01*
X55769557Y-29585519D01*
X55835740Y-29579000D01*
X55924260Y-29579000D01*
X55990443Y-29585519D01*
X55990443Y-29585519D01*
G37*
G36*
X53450443Y-29585519D02*
G01*
X53516627Y-29592037D01*
X53686466Y-29643557D01*
X53842991Y-29727222D01*
X53878729Y-29756552D01*
X53980186Y-29839814D01*
X54063448Y-29941271D01*
X54092778Y-29977009D01*
X54176443Y-30133534D01*
X54227963Y-30303373D01*
X54245359Y-30480000D01*
X54227963Y-30656627D01*
X54176443Y-30826466D01*
X54092778Y-30982991D01*
X54063448Y-31018729D01*
X53980186Y-31120186D01*
X53907480Y-31179853D01*
X53842991Y-31232778D01*
X53686466Y-31316443D01*
X53516627Y-31367963D01*
X53450443Y-31374481D01*
X53384260Y-31381000D01*
X53295740Y-31381000D01*
X53229557Y-31374481D01*
X53163373Y-31367963D01*
X52993534Y-31316443D01*
X52837009Y-31232778D01*
X52772520Y-31179853D01*
X52699814Y-31120186D01*
X52616552Y-31018729D01*
X52587222Y-30982991D01*
X52503557Y-30826466D01*
X52452037Y-30656627D01*
X52434641Y-30480000D01*
X52452037Y-30303373D01*
X52503557Y-30133534D01*
X52587222Y-29977009D01*
X52616552Y-29941271D01*
X52699814Y-29839814D01*
X52801271Y-29756552D01*
X52837009Y-29727222D01*
X52993534Y-29643557D01*
X53163373Y-29592037D01*
X53229557Y-29585519D01*
X53295740Y-29579000D01*
X53384260Y-29579000D01*
X53450443Y-29585519D01*
X53450443Y-29585519D01*
G37*
G36*
X50910443Y-29585519D02*
G01*
X50976627Y-29592037D01*
X51146466Y-29643557D01*
X51302991Y-29727222D01*
X51338729Y-29756552D01*
X51440186Y-29839814D01*
X51523448Y-29941271D01*
X51552778Y-29977009D01*
X51636443Y-30133534D01*
X51687963Y-30303373D01*
X51705359Y-30480000D01*
X51687963Y-30656627D01*
X51636443Y-30826466D01*
X51552778Y-30982991D01*
X51523448Y-31018729D01*
X51440186Y-31120186D01*
X51367480Y-31179853D01*
X51302991Y-31232778D01*
X51146466Y-31316443D01*
X50976627Y-31367963D01*
X50910443Y-31374481D01*
X50844260Y-31381000D01*
X50755740Y-31381000D01*
X50689557Y-31374481D01*
X50623373Y-31367963D01*
X50453534Y-31316443D01*
X50297009Y-31232778D01*
X50232520Y-31179853D01*
X50159814Y-31120186D01*
X50076552Y-31018729D01*
X50047222Y-30982991D01*
X49963557Y-30826466D01*
X49912037Y-30656627D01*
X49894641Y-30480000D01*
X49912037Y-30303373D01*
X49963557Y-30133534D01*
X50047222Y-29977009D01*
X50076552Y-29941271D01*
X50159814Y-29839814D01*
X50261271Y-29756552D01*
X50297009Y-29727222D01*
X50453534Y-29643557D01*
X50623373Y-29592037D01*
X50689557Y-29585519D01*
X50755740Y-29579000D01*
X50844260Y-29579000D01*
X50910443Y-29585519D01*
X50910443Y-29585519D01*
G37*
G36*
X48370443Y-29585519D02*
G01*
X48436627Y-29592037D01*
X48606466Y-29643557D01*
X48762991Y-29727222D01*
X48798729Y-29756552D01*
X48900186Y-29839814D01*
X48983448Y-29941271D01*
X49012778Y-29977009D01*
X49096443Y-30133534D01*
X49147963Y-30303373D01*
X49165359Y-30480000D01*
X49147963Y-30656627D01*
X49096443Y-30826466D01*
X49012778Y-30982991D01*
X48983448Y-31018729D01*
X48900186Y-31120186D01*
X48827480Y-31179853D01*
X48762991Y-31232778D01*
X48606466Y-31316443D01*
X48436627Y-31367963D01*
X48370443Y-31374481D01*
X48304260Y-31381000D01*
X48215740Y-31381000D01*
X48149557Y-31374481D01*
X48083373Y-31367963D01*
X47913534Y-31316443D01*
X47757009Y-31232778D01*
X47692520Y-31179853D01*
X47619814Y-31120186D01*
X47536552Y-31018729D01*
X47507222Y-30982991D01*
X47423557Y-30826466D01*
X47372037Y-30656627D01*
X47354641Y-30480000D01*
X47372037Y-30303373D01*
X47423557Y-30133534D01*
X47507222Y-29977009D01*
X47536552Y-29941271D01*
X47619814Y-29839814D01*
X47721271Y-29756552D01*
X47757009Y-29727222D01*
X47913534Y-29643557D01*
X48083373Y-29592037D01*
X48149557Y-29585519D01*
X48215740Y-29579000D01*
X48304260Y-29579000D01*
X48370443Y-29585519D01*
X48370443Y-29585519D01*
G37*
G36*
X45830443Y-29585519D02*
G01*
X45896627Y-29592037D01*
X46066466Y-29643557D01*
X46222991Y-29727222D01*
X46258729Y-29756552D01*
X46360186Y-29839814D01*
X46443448Y-29941271D01*
X46472778Y-29977009D01*
X46556443Y-30133534D01*
X46607963Y-30303373D01*
X46625359Y-30480000D01*
X46607963Y-30656627D01*
X46556443Y-30826466D01*
X46472778Y-30982991D01*
X46443448Y-31018729D01*
X46360186Y-31120186D01*
X46287480Y-31179853D01*
X46222991Y-31232778D01*
X46066466Y-31316443D01*
X45896627Y-31367963D01*
X45830443Y-31374481D01*
X45764260Y-31381000D01*
X45675740Y-31381000D01*
X45609557Y-31374481D01*
X45543373Y-31367963D01*
X45373534Y-31316443D01*
X45217009Y-31232778D01*
X45152520Y-31179853D01*
X45079814Y-31120186D01*
X44996552Y-31018729D01*
X44967222Y-30982991D01*
X44883557Y-30826466D01*
X44832037Y-30656627D01*
X44814641Y-30480000D01*
X44832037Y-30303373D01*
X44883557Y-30133534D01*
X44967222Y-29977009D01*
X44996552Y-29941271D01*
X45079814Y-29839814D01*
X45181271Y-29756552D01*
X45217009Y-29727222D01*
X45373534Y-29643557D01*
X45543373Y-29592037D01*
X45609557Y-29585519D01*
X45675740Y-29579000D01*
X45764260Y-29579000D01*
X45830443Y-29585519D01*
X45830443Y-29585519D01*
G37*
G36*
X43290443Y-29585519D02*
G01*
X43356627Y-29592037D01*
X43526466Y-29643557D01*
X43682991Y-29727222D01*
X43718729Y-29756552D01*
X43820186Y-29839814D01*
X43903448Y-29941271D01*
X43932778Y-29977009D01*
X44016443Y-30133534D01*
X44067963Y-30303373D01*
X44085359Y-30480000D01*
X44067963Y-30656627D01*
X44016443Y-30826466D01*
X43932778Y-30982991D01*
X43903448Y-31018729D01*
X43820186Y-31120186D01*
X43747480Y-31179853D01*
X43682991Y-31232778D01*
X43526466Y-31316443D01*
X43356627Y-31367963D01*
X43290443Y-31374481D01*
X43224260Y-31381000D01*
X43135740Y-31381000D01*
X43069557Y-31374481D01*
X43003373Y-31367963D01*
X42833534Y-31316443D01*
X42677009Y-31232778D01*
X42612520Y-31179853D01*
X42539814Y-31120186D01*
X42456552Y-31018729D01*
X42427222Y-30982991D01*
X42343557Y-30826466D01*
X42292037Y-30656627D01*
X42274641Y-30480000D01*
X42292037Y-30303373D01*
X42343557Y-30133534D01*
X42427222Y-29977009D01*
X42456552Y-29941271D01*
X42539814Y-29839814D01*
X42641271Y-29756552D01*
X42677009Y-29727222D01*
X42833534Y-29643557D01*
X43003373Y-29592037D01*
X43069557Y-29585519D01*
X43135740Y-29579000D01*
X43224260Y-29579000D01*
X43290443Y-29585519D01*
X43290443Y-29585519D01*
G37*
G36*
X40750443Y-29585519D02*
G01*
X40816627Y-29592037D01*
X40986466Y-29643557D01*
X41142991Y-29727222D01*
X41178729Y-29756552D01*
X41280186Y-29839814D01*
X41363448Y-29941271D01*
X41392778Y-29977009D01*
X41476443Y-30133534D01*
X41527963Y-30303373D01*
X41545359Y-30480000D01*
X41527963Y-30656627D01*
X41476443Y-30826466D01*
X41392778Y-30982991D01*
X41363448Y-31018729D01*
X41280186Y-31120186D01*
X41207480Y-31179853D01*
X41142991Y-31232778D01*
X40986466Y-31316443D01*
X40816627Y-31367963D01*
X40750443Y-31374481D01*
X40684260Y-31381000D01*
X40595740Y-31381000D01*
X40529557Y-31374481D01*
X40463373Y-31367963D01*
X40293534Y-31316443D01*
X40137009Y-31232778D01*
X40072520Y-31179853D01*
X39999814Y-31120186D01*
X39916552Y-31018729D01*
X39887222Y-30982991D01*
X39803557Y-30826466D01*
X39752037Y-30656627D01*
X39734641Y-30480000D01*
X39752037Y-30303373D01*
X39803557Y-30133534D01*
X39887222Y-29977009D01*
X39916552Y-29941271D01*
X39999814Y-29839814D01*
X40101271Y-29756552D01*
X40137009Y-29727222D01*
X40293534Y-29643557D01*
X40463373Y-29592037D01*
X40529557Y-29585519D01*
X40595740Y-29579000D01*
X40684260Y-29579000D01*
X40750443Y-29585519D01*
X40750443Y-29585519D01*
G37*
G36*
X38210443Y-29585519D02*
G01*
X38276627Y-29592037D01*
X38446466Y-29643557D01*
X38602991Y-29727222D01*
X38638729Y-29756552D01*
X38740186Y-29839814D01*
X38823448Y-29941271D01*
X38852778Y-29977009D01*
X38936443Y-30133534D01*
X38987963Y-30303373D01*
X39005359Y-30480000D01*
X38987963Y-30656627D01*
X38936443Y-30826466D01*
X38852778Y-30982991D01*
X38823448Y-31018729D01*
X38740186Y-31120186D01*
X38667480Y-31179853D01*
X38602991Y-31232778D01*
X38446466Y-31316443D01*
X38276627Y-31367963D01*
X38210443Y-31374481D01*
X38144260Y-31381000D01*
X38055740Y-31381000D01*
X37989557Y-31374481D01*
X37923373Y-31367963D01*
X37753534Y-31316443D01*
X37597009Y-31232778D01*
X37532520Y-31179853D01*
X37459814Y-31120186D01*
X37376552Y-31018729D01*
X37347222Y-30982991D01*
X37263557Y-30826466D01*
X37212037Y-30656627D01*
X37194641Y-30480000D01*
X37212037Y-30303373D01*
X37263557Y-30133534D01*
X37347222Y-29977009D01*
X37376552Y-29941271D01*
X37459814Y-29839814D01*
X37561271Y-29756552D01*
X37597009Y-29727222D01*
X37753534Y-29643557D01*
X37923373Y-29592037D01*
X37989557Y-29585519D01*
X38055740Y-29579000D01*
X38144260Y-29579000D01*
X38210443Y-29585519D01*
X38210443Y-29585519D01*
G37*
G36*
X35670443Y-29585519D02*
G01*
X35736627Y-29592037D01*
X35906466Y-29643557D01*
X36062991Y-29727222D01*
X36098729Y-29756552D01*
X36200186Y-29839814D01*
X36283448Y-29941271D01*
X36312778Y-29977009D01*
X36396443Y-30133534D01*
X36447963Y-30303373D01*
X36465359Y-30480000D01*
X36447963Y-30656627D01*
X36396443Y-30826466D01*
X36312778Y-30982991D01*
X36283448Y-31018729D01*
X36200186Y-31120186D01*
X36127480Y-31179853D01*
X36062991Y-31232778D01*
X35906466Y-31316443D01*
X35736627Y-31367963D01*
X35670443Y-31374481D01*
X35604260Y-31381000D01*
X35515740Y-31381000D01*
X35449557Y-31374481D01*
X35383373Y-31367963D01*
X35213534Y-31316443D01*
X35057009Y-31232778D01*
X34992520Y-31179853D01*
X34919814Y-31120186D01*
X34836552Y-31018729D01*
X34807222Y-30982991D01*
X34723557Y-30826466D01*
X34672037Y-30656627D01*
X34654641Y-30480000D01*
X34672037Y-30303373D01*
X34723557Y-30133534D01*
X34807222Y-29977009D01*
X34836552Y-29941271D01*
X34919814Y-29839814D01*
X35021271Y-29756552D01*
X35057009Y-29727222D01*
X35213534Y-29643557D01*
X35383373Y-29592037D01*
X35449557Y-29585519D01*
X35515740Y-29579000D01*
X35604260Y-29579000D01*
X35670443Y-29585519D01*
X35670443Y-29585519D01*
G37*
G36*
X33130443Y-29585519D02*
G01*
X33196627Y-29592037D01*
X33366466Y-29643557D01*
X33522991Y-29727222D01*
X33558729Y-29756552D01*
X33660186Y-29839814D01*
X33743448Y-29941271D01*
X33772778Y-29977009D01*
X33856443Y-30133534D01*
X33907963Y-30303373D01*
X33925359Y-30480000D01*
X33907963Y-30656627D01*
X33856443Y-30826466D01*
X33772778Y-30982991D01*
X33743448Y-31018729D01*
X33660186Y-31120186D01*
X33587480Y-31179853D01*
X33522991Y-31232778D01*
X33366466Y-31316443D01*
X33196627Y-31367963D01*
X33130443Y-31374481D01*
X33064260Y-31381000D01*
X32975740Y-31381000D01*
X32909557Y-31374481D01*
X32843373Y-31367963D01*
X32673534Y-31316443D01*
X32517009Y-31232778D01*
X32452520Y-31179853D01*
X32379814Y-31120186D01*
X32296552Y-31018729D01*
X32267222Y-30982991D01*
X32183557Y-30826466D01*
X32132037Y-30656627D01*
X32114641Y-30480000D01*
X32132037Y-30303373D01*
X32183557Y-30133534D01*
X32267222Y-29977009D01*
X32296552Y-29941271D01*
X32379814Y-29839814D01*
X32481271Y-29756552D01*
X32517009Y-29727222D01*
X32673534Y-29643557D01*
X32843373Y-29592037D01*
X32909557Y-29585519D01*
X32975740Y-29579000D01*
X33064260Y-29579000D01*
X33130443Y-29585519D01*
X33130443Y-29585519D01*
G37*
G36*
X30590443Y-29585519D02*
G01*
X30656627Y-29592037D01*
X30826466Y-29643557D01*
X30982991Y-29727222D01*
X31018729Y-29756552D01*
X31120186Y-29839814D01*
X31203448Y-29941271D01*
X31232778Y-29977009D01*
X31316443Y-30133534D01*
X31367963Y-30303373D01*
X31385359Y-30480000D01*
X31367963Y-30656627D01*
X31316443Y-30826466D01*
X31232778Y-30982991D01*
X31203448Y-31018729D01*
X31120186Y-31120186D01*
X31047480Y-31179853D01*
X30982991Y-31232778D01*
X30826466Y-31316443D01*
X30656627Y-31367963D01*
X30590443Y-31374481D01*
X30524260Y-31381000D01*
X30435740Y-31381000D01*
X30369557Y-31374481D01*
X30303373Y-31367963D01*
X30133534Y-31316443D01*
X29977009Y-31232778D01*
X29912520Y-31179853D01*
X29839814Y-31120186D01*
X29756552Y-31018729D01*
X29727222Y-30982991D01*
X29643557Y-30826466D01*
X29592037Y-30656627D01*
X29574641Y-30480000D01*
X29592037Y-30303373D01*
X29643557Y-30133534D01*
X29727222Y-29977009D01*
X29756552Y-29941271D01*
X29839814Y-29839814D01*
X29941271Y-29756552D01*
X29977009Y-29727222D01*
X30133534Y-29643557D01*
X30303373Y-29592037D01*
X30369557Y-29585519D01*
X30435740Y-29579000D01*
X30524260Y-29579000D01*
X30590443Y-29585519D01*
X30590443Y-29585519D01*
G37*
G36*
X28050443Y-29585519D02*
G01*
X28116627Y-29592037D01*
X28286466Y-29643557D01*
X28442991Y-29727222D01*
X28478729Y-29756552D01*
X28580186Y-29839814D01*
X28663448Y-29941271D01*
X28692778Y-29977009D01*
X28776443Y-30133534D01*
X28827963Y-30303373D01*
X28845359Y-30480000D01*
X28827963Y-30656627D01*
X28776443Y-30826466D01*
X28692778Y-30982991D01*
X28663448Y-31018729D01*
X28580186Y-31120186D01*
X28507480Y-31179853D01*
X28442991Y-31232778D01*
X28286466Y-31316443D01*
X28116627Y-31367963D01*
X28050443Y-31374481D01*
X27984260Y-31381000D01*
X27895740Y-31381000D01*
X27829557Y-31374481D01*
X27763373Y-31367963D01*
X27593534Y-31316443D01*
X27437009Y-31232778D01*
X27372520Y-31179853D01*
X27299814Y-31120186D01*
X27216552Y-31018729D01*
X27187222Y-30982991D01*
X27103557Y-30826466D01*
X27052037Y-30656627D01*
X27034641Y-30480000D01*
X27052037Y-30303373D01*
X27103557Y-30133534D01*
X27187222Y-29977009D01*
X27216552Y-29941271D01*
X27299814Y-29839814D01*
X27401271Y-29756552D01*
X27437009Y-29727222D01*
X27593534Y-29643557D01*
X27763373Y-29592037D01*
X27829557Y-29585519D01*
X27895740Y-29579000D01*
X27984260Y-29579000D01*
X28050443Y-29585519D01*
X28050443Y-29585519D01*
G37*
G36*
X25510443Y-29585519D02*
G01*
X25576627Y-29592037D01*
X25746466Y-29643557D01*
X25902991Y-29727222D01*
X25938729Y-29756552D01*
X26040186Y-29839814D01*
X26123448Y-29941271D01*
X26152778Y-29977009D01*
X26236443Y-30133534D01*
X26287963Y-30303373D01*
X26305359Y-30480000D01*
X26287963Y-30656627D01*
X26236443Y-30826466D01*
X26152778Y-30982991D01*
X26123448Y-31018729D01*
X26040186Y-31120186D01*
X25967480Y-31179853D01*
X25902991Y-31232778D01*
X25746466Y-31316443D01*
X25576627Y-31367963D01*
X25510443Y-31374481D01*
X25444260Y-31381000D01*
X25355740Y-31381000D01*
X25289557Y-31374481D01*
X25223373Y-31367963D01*
X25053534Y-31316443D01*
X24897009Y-31232778D01*
X24832520Y-31179853D01*
X24759814Y-31120186D01*
X24676552Y-31018729D01*
X24647222Y-30982991D01*
X24563557Y-30826466D01*
X24512037Y-30656627D01*
X24494641Y-30480000D01*
X24512037Y-30303373D01*
X24563557Y-30133534D01*
X24647222Y-29977009D01*
X24676552Y-29941271D01*
X24759814Y-29839814D01*
X24861271Y-29756552D01*
X24897009Y-29727222D01*
X25053534Y-29643557D01*
X25223373Y-29592037D01*
X25289557Y-29585519D01*
X25355740Y-29579000D01*
X25444260Y-29579000D01*
X25510443Y-29585519D01*
X25510443Y-29585519D01*
G37*
G36*
X22970443Y-29585519D02*
G01*
X23036627Y-29592037D01*
X23206466Y-29643557D01*
X23362991Y-29727222D01*
X23398729Y-29756552D01*
X23500186Y-29839814D01*
X23583448Y-29941271D01*
X23612778Y-29977009D01*
X23696443Y-30133534D01*
X23747963Y-30303373D01*
X23765359Y-30480000D01*
X23747963Y-30656627D01*
X23696443Y-30826466D01*
X23612778Y-30982991D01*
X23583448Y-31018729D01*
X23500186Y-31120186D01*
X23427480Y-31179853D01*
X23362991Y-31232778D01*
X23206466Y-31316443D01*
X23036627Y-31367963D01*
X22970443Y-31374481D01*
X22904260Y-31381000D01*
X22815740Y-31381000D01*
X22749557Y-31374481D01*
X22683373Y-31367963D01*
X22513534Y-31316443D01*
X22357009Y-31232778D01*
X22292520Y-31179853D01*
X22219814Y-31120186D01*
X22136552Y-31018729D01*
X22107222Y-30982991D01*
X22023557Y-30826466D01*
X21972037Y-30656627D01*
X21954641Y-30480000D01*
X21972037Y-30303373D01*
X22023557Y-30133534D01*
X22107222Y-29977009D01*
X22136552Y-29941271D01*
X22219814Y-29839814D01*
X22321271Y-29756552D01*
X22357009Y-29727222D01*
X22513534Y-29643557D01*
X22683373Y-29592037D01*
X22749557Y-29585519D01*
X22815740Y-29579000D01*
X22904260Y-29579000D01*
X22970443Y-29585519D01*
X22970443Y-29585519D01*
G37*
G36*
X20430443Y-29585519D02*
G01*
X20496627Y-29592037D01*
X20666466Y-29643557D01*
X20822991Y-29727222D01*
X20858729Y-29756552D01*
X20960186Y-29839814D01*
X21043448Y-29941271D01*
X21072778Y-29977009D01*
X21156443Y-30133534D01*
X21207963Y-30303373D01*
X21225359Y-30480000D01*
X21207963Y-30656627D01*
X21156443Y-30826466D01*
X21072778Y-30982991D01*
X21043448Y-31018729D01*
X20960186Y-31120186D01*
X20887480Y-31179853D01*
X20822991Y-31232778D01*
X20666466Y-31316443D01*
X20496627Y-31367963D01*
X20430443Y-31374481D01*
X20364260Y-31381000D01*
X20275740Y-31381000D01*
X20209557Y-31374481D01*
X20143373Y-31367963D01*
X19973534Y-31316443D01*
X19817009Y-31232778D01*
X19752520Y-31179853D01*
X19679814Y-31120186D01*
X19596552Y-31018729D01*
X19567222Y-30982991D01*
X19483557Y-30826466D01*
X19432037Y-30656627D01*
X19414641Y-30480000D01*
X19432037Y-30303373D01*
X19483557Y-30133534D01*
X19567222Y-29977009D01*
X19596552Y-29941271D01*
X19679814Y-29839814D01*
X19781271Y-29756552D01*
X19817009Y-29727222D01*
X19973534Y-29643557D01*
X20143373Y-29592037D01*
X20209557Y-29585519D01*
X20275740Y-29579000D01*
X20364260Y-29579000D01*
X20430443Y-29585519D01*
X20430443Y-29585519D01*
G37*
G36*
X17890443Y-29585519D02*
G01*
X17956627Y-29592037D01*
X18126466Y-29643557D01*
X18282991Y-29727222D01*
X18318729Y-29756552D01*
X18420186Y-29839814D01*
X18503448Y-29941271D01*
X18532778Y-29977009D01*
X18616443Y-30133534D01*
X18667963Y-30303373D01*
X18685359Y-30480000D01*
X18667963Y-30656627D01*
X18616443Y-30826466D01*
X18532778Y-30982991D01*
X18503448Y-31018729D01*
X18420186Y-31120186D01*
X18347480Y-31179853D01*
X18282991Y-31232778D01*
X18126466Y-31316443D01*
X17956627Y-31367963D01*
X17890443Y-31374481D01*
X17824260Y-31381000D01*
X17735740Y-31381000D01*
X17669557Y-31374481D01*
X17603373Y-31367963D01*
X17433534Y-31316443D01*
X17277009Y-31232778D01*
X17212520Y-31179853D01*
X17139814Y-31120186D01*
X17056552Y-31018729D01*
X17027222Y-30982991D01*
X16943557Y-30826466D01*
X16892037Y-30656627D01*
X16874641Y-30480000D01*
X16892037Y-30303373D01*
X16943557Y-30133534D01*
X17027222Y-29977009D01*
X17056552Y-29941271D01*
X17139814Y-29839814D01*
X17241271Y-29756552D01*
X17277009Y-29727222D01*
X17433534Y-29643557D01*
X17603373Y-29592037D01*
X17669557Y-29585519D01*
X17735740Y-29579000D01*
X17824260Y-29579000D01*
X17890443Y-29585519D01*
X17890443Y-29585519D01*
G37*
G36*
X15350443Y-29585519D02*
G01*
X15416627Y-29592037D01*
X15586466Y-29643557D01*
X15742991Y-29727222D01*
X15778729Y-29756552D01*
X15880186Y-29839814D01*
X15963448Y-29941271D01*
X15992778Y-29977009D01*
X16076443Y-30133534D01*
X16127963Y-30303373D01*
X16145359Y-30480000D01*
X16127963Y-30656627D01*
X16076443Y-30826466D01*
X15992778Y-30982991D01*
X15963448Y-31018729D01*
X15880186Y-31120186D01*
X15807480Y-31179853D01*
X15742991Y-31232778D01*
X15586466Y-31316443D01*
X15416627Y-31367963D01*
X15350443Y-31374481D01*
X15284260Y-31381000D01*
X15195740Y-31381000D01*
X15129557Y-31374481D01*
X15063373Y-31367963D01*
X14893534Y-31316443D01*
X14737009Y-31232778D01*
X14672520Y-31179853D01*
X14599814Y-31120186D01*
X14516552Y-31018729D01*
X14487222Y-30982991D01*
X14403557Y-30826466D01*
X14352037Y-30656627D01*
X14334641Y-30480000D01*
X14352037Y-30303373D01*
X14403557Y-30133534D01*
X14487222Y-29977009D01*
X14516552Y-29941271D01*
X14599814Y-29839814D01*
X14701271Y-29756552D01*
X14737009Y-29727222D01*
X14893534Y-29643557D01*
X15063373Y-29592037D01*
X15129557Y-29585519D01*
X15195740Y-29579000D01*
X15284260Y-29579000D01*
X15350443Y-29585519D01*
X15350443Y-29585519D01*
G37*
G36*
X42579746Y-23176169D02*
G01*
X42586761Y-23178297D01*
X42593227Y-23181754D01*
X42603661Y-23190316D01*
X43656348Y-24243003D01*
X43664910Y-24253437D01*
X43668367Y-24259903D01*
X43670495Y-24266918D01*
X43671213Y-24274213D01*
X43670495Y-24281508D01*
X43668367Y-24288523D01*
X43664910Y-24294989D01*
X43656348Y-24305423D01*
X43434511Y-24527260D01*
X43424077Y-24535822D01*
X43417610Y-24539279D01*
X43402674Y-24543810D01*
X43380035Y-24553187D01*
X43359661Y-24566801D01*
X43342334Y-24584128D01*
X43328720Y-24604503D01*
X43319344Y-24627140D01*
X43314813Y-24642076D01*
X43311356Y-24648543D01*
X43302794Y-24658977D01*
X43080957Y-24880814D01*
X43070523Y-24889376D01*
X43064057Y-24892833D01*
X43049120Y-24897364D01*
X43026481Y-24906742D01*
X43006107Y-24920356D01*
X42988780Y-24937683D01*
X42975167Y-24958058D01*
X42965791Y-24980693D01*
X42961260Y-24995630D01*
X42957803Y-25002096D01*
X42949241Y-25012530D01*
X42727404Y-25234367D01*
X42716970Y-25242929D01*
X42710503Y-25246386D01*
X42695567Y-25250917D01*
X42672928Y-25260294D01*
X42652554Y-25273908D01*
X42635227Y-25291235D01*
X42621613Y-25311610D01*
X42612237Y-25334247D01*
X42607706Y-25349183D01*
X42604249Y-25355650D01*
X42595687Y-25366084D01*
X42373850Y-25587921D01*
X42363416Y-25596483D01*
X42356950Y-25599940D01*
X42342013Y-25604471D01*
X42319374Y-25613849D01*
X42299000Y-25627463D01*
X42281673Y-25644790D01*
X42268060Y-25665165D01*
X42258684Y-25687800D01*
X42254153Y-25702737D01*
X42250696Y-25709203D01*
X42242134Y-25719637D01*
X42020297Y-25941474D01*
X42009863Y-25950036D01*
X42003397Y-25953493D01*
X41988460Y-25958024D01*
X41965821Y-25967402D01*
X41945447Y-25981016D01*
X41928120Y-25998343D01*
X41914507Y-26018718D01*
X41905131Y-26041353D01*
X41900600Y-26056290D01*
X41897143Y-26062756D01*
X41888581Y-26073190D01*
X41666744Y-26295027D01*
X41656310Y-26303589D01*
X41649843Y-26307046D01*
X41634907Y-26311577D01*
X41612268Y-26320954D01*
X41591894Y-26334568D01*
X41574567Y-26351895D01*
X41560953Y-26372270D01*
X41551577Y-26394907D01*
X41547046Y-26409843D01*
X41543589Y-26416310D01*
X41535027Y-26426744D01*
X41313190Y-26648581D01*
X41302756Y-26657143D01*
X41296290Y-26660600D01*
X41281353Y-26665131D01*
X41258714Y-26674509D01*
X41238340Y-26688123D01*
X41221013Y-26705450D01*
X41207400Y-26725825D01*
X41198024Y-26748460D01*
X41193493Y-26763397D01*
X41190036Y-26769863D01*
X41181474Y-26780297D01*
X40959637Y-27002134D01*
X40949203Y-27010696D01*
X40942737Y-27014153D01*
X40927800Y-27018684D01*
X40905161Y-27028062D01*
X40884787Y-27041676D01*
X40867460Y-27059003D01*
X40853847Y-27079378D01*
X40844471Y-27102013D01*
X40839940Y-27116950D01*
X40836483Y-27123416D01*
X40827921Y-27133850D01*
X40606084Y-27355687D01*
X40595650Y-27364249D01*
X40589183Y-27367706D01*
X40574247Y-27372237D01*
X40551608Y-27381614D01*
X40531234Y-27395228D01*
X40513907Y-27412555D01*
X40500293Y-27432930D01*
X40490917Y-27455567D01*
X40486386Y-27470503D01*
X40482929Y-27476970D01*
X40474367Y-27487404D01*
X40252530Y-27709241D01*
X40242096Y-27717803D01*
X40235630Y-27721260D01*
X40220693Y-27725791D01*
X40198054Y-27735169D01*
X40177680Y-27748783D01*
X40160353Y-27766110D01*
X40146740Y-27786485D01*
X40137364Y-27809120D01*
X40132833Y-27824057D01*
X40129376Y-27830523D01*
X40120814Y-27840957D01*
X39898977Y-28062794D01*
X39888543Y-28071356D01*
X39882076Y-28074813D01*
X39867140Y-28079344D01*
X39844501Y-28088721D01*
X39824127Y-28102335D01*
X39806800Y-28119662D01*
X39793186Y-28140037D01*
X39783810Y-28162674D01*
X39779279Y-28177610D01*
X39775822Y-28184077D01*
X39767260Y-28194511D01*
X39545423Y-28416348D01*
X39534989Y-28424910D01*
X39528523Y-28428367D01*
X39521508Y-28430495D01*
X39514213Y-28431213D01*
X39506918Y-28430495D01*
X39499903Y-28428367D01*
X39493437Y-28424910D01*
X39483003Y-28416348D01*
X38430316Y-27363661D01*
X38421754Y-27353227D01*
X38418297Y-27346761D01*
X38416169Y-27339746D01*
X38415451Y-27332451D01*
X38416169Y-27325156D01*
X38418297Y-27318141D01*
X38421754Y-27311675D01*
X38430316Y-27301241D01*
X38652153Y-27079404D01*
X38662587Y-27070842D01*
X38669054Y-27067385D01*
X38683990Y-27062854D01*
X38706629Y-27053477D01*
X38727003Y-27039863D01*
X38744330Y-27022536D01*
X38757944Y-27002161D01*
X38767320Y-26979524D01*
X38771851Y-26964588D01*
X38775308Y-26958121D01*
X38783870Y-26947687D01*
X39005707Y-26725850D01*
X39016141Y-26717288D01*
X39022607Y-26713831D01*
X39037544Y-26709300D01*
X39060183Y-26699922D01*
X39080557Y-26686308D01*
X39097884Y-26668981D01*
X39111497Y-26648606D01*
X39120873Y-26625971D01*
X39125404Y-26611034D01*
X39128861Y-26604568D01*
X39137423Y-26594134D01*
X39359260Y-26372297D01*
X39369694Y-26363735D01*
X39376161Y-26360278D01*
X39391097Y-26355747D01*
X39413736Y-26346370D01*
X39434110Y-26332756D01*
X39451437Y-26315429D01*
X39465051Y-26295054D01*
X39474427Y-26272417D01*
X39478958Y-26257481D01*
X39482415Y-26251014D01*
X39490977Y-26240580D01*
X39712814Y-26018743D01*
X39723248Y-26010181D01*
X39729714Y-26006724D01*
X39744651Y-26002193D01*
X39767290Y-25992815D01*
X39787664Y-25979201D01*
X39804991Y-25961874D01*
X39818604Y-25941499D01*
X39827980Y-25918864D01*
X39832511Y-25903927D01*
X39835968Y-25897461D01*
X39844530Y-25887027D01*
X40066367Y-25665190D01*
X40076801Y-25656628D01*
X40083267Y-25653171D01*
X40098204Y-25648640D01*
X40120843Y-25639262D01*
X40141217Y-25625648D01*
X40158544Y-25608321D01*
X40172157Y-25587946D01*
X40181533Y-25565311D01*
X40186064Y-25550374D01*
X40189521Y-25543908D01*
X40198083Y-25533474D01*
X40419920Y-25311637D01*
X40430354Y-25303075D01*
X40436821Y-25299618D01*
X40451757Y-25295087D01*
X40474396Y-25285710D01*
X40494770Y-25272096D01*
X40512097Y-25254769D01*
X40525711Y-25234394D01*
X40535087Y-25211757D01*
X40539618Y-25196821D01*
X40543075Y-25190354D01*
X40551637Y-25179920D01*
X40773474Y-24958083D01*
X40783908Y-24949521D01*
X40790374Y-24946064D01*
X40805311Y-24941533D01*
X40827950Y-24932155D01*
X40848324Y-24918541D01*
X40865651Y-24901214D01*
X40879264Y-24880839D01*
X40888640Y-24858204D01*
X40893171Y-24843267D01*
X40896628Y-24836801D01*
X40905190Y-24826367D01*
X41127027Y-24604530D01*
X41137461Y-24595968D01*
X41143927Y-24592511D01*
X41158864Y-24587980D01*
X41181503Y-24578602D01*
X41201877Y-24564988D01*
X41219204Y-24547661D01*
X41232817Y-24527286D01*
X41242193Y-24504651D01*
X41246724Y-24489714D01*
X41250181Y-24483248D01*
X41258743Y-24472814D01*
X41480580Y-24250977D01*
X41491014Y-24242415D01*
X41497481Y-24238958D01*
X41512417Y-24234427D01*
X41535056Y-24225050D01*
X41555430Y-24211436D01*
X41572757Y-24194109D01*
X41586371Y-24173734D01*
X41595747Y-24151097D01*
X41600278Y-24136161D01*
X41603735Y-24129694D01*
X41612297Y-24119260D01*
X41834134Y-23897423D01*
X41844568Y-23888861D01*
X41851034Y-23885404D01*
X41865971Y-23880873D01*
X41888610Y-23871495D01*
X41908984Y-23857881D01*
X41926311Y-23840554D01*
X41939924Y-23820179D01*
X41949300Y-23797544D01*
X41953831Y-23782607D01*
X41957288Y-23776141D01*
X41965850Y-23765707D01*
X42187687Y-23543870D01*
X42198121Y-23535308D01*
X42204588Y-23531851D01*
X42219524Y-23527320D01*
X42242163Y-23517943D01*
X42262537Y-23504329D01*
X42279864Y-23487002D01*
X42293478Y-23466627D01*
X42302854Y-23443990D01*
X42307385Y-23429054D01*
X42310842Y-23422587D01*
X42319404Y-23412153D01*
X42541241Y-23190316D01*
X42551675Y-23181754D01*
X42558141Y-23178297D01*
X42565156Y-23176169D01*
X42572451Y-23175451D01*
X42579746Y-23176169D01*
X42579746Y-23176169D01*
G37*
G36*
X33634844Y-23176169D02*
G01*
X33641859Y-23178297D01*
X33648325Y-23181754D01*
X33658759Y-23190316D01*
X33880596Y-23412153D01*
X33889158Y-23422587D01*
X33892615Y-23429054D01*
X33897146Y-23443990D01*
X33906523Y-23466629D01*
X33920137Y-23487003D01*
X33937464Y-23504330D01*
X33957839Y-23517944D01*
X33980476Y-23527320D01*
X33995412Y-23531851D01*
X34001879Y-23535308D01*
X34012313Y-23543870D01*
X34234150Y-23765707D01*
X34242712Y-23776141D01*
X34246169Y-23782607D01*
X34250700Y-23797544D01*
X34260078Y-23820183D01*
X34273692Y-23840557D01*
X34291019Y-23857884D01*
X34311394Y-23871497D01*
X34334029Y-23880873D01*
X34348966Y-23885404D01*
X34355432Y-23888861D01*
X34365866Y-23897423D01*
X34587703Y-24119260D01*
X34596265Y-24129694D01*
X34599722Y-24136161D01*
X34604253Y-24151097D01*
X34613630Y-24173736D01*
X34627244Y-24194110D01*
X34644571Y-24211437D01*
X34664946Y-24225051D01*
X34687583Y-24234427D01*
X34702519Y-24238958D01*
X34708986Y-24242415D01*
X34719420Y-24250977D01*
X34941257Y-24472814D01*
X34949819Y-24483248D01*
X34953276Y-24489714D01*
X34957807Y-24504651D01*
X34967185Y-24527290D01*
X34980799Y-24547664D01*
X34998126Y-24564991D01*
X35018501Y-24578604D01*
X35041136Y-24587980D01*
X35056073Y-24592511D01*
X35062539Y-24595968D01*
X35072973Y-24604530D01*
X35294810Y-24826367D01*
X35303372Y-24836801D01*
X35306829Y-24843267D01*
X35311360Y-24858204D01*
X35320738Y-24880843D01*
X35334352Y-24901217D01*
X35351679Y-24918544D01*
X35372054Y-24932157D01*
X35394689Y-24941533D01*
X35409626Y-24946064D01*
X35416092Y-24949521D01*
X35426526Y-24958083D01*
X35648363Y-25179920D01*
X35656925Y-25190354D01*
X35660382Y-25196821D01*
X35664913Y-25211757D01*
X35674290Y-25234396D01*
X35687904Y-25254770D01*
X35705231Y-25272097D01*
X35725606Y-25285711D01*
X35748243Y-25295087D01*
X35763179Y-25299618D01*
X35769646Y-25303075D01*
X35780080Y-25311637D01*
X36001917Y-25533474D01*
X36010479Y-25543908D01*
X36013936Y-25550374D01*
X36018467Y-25565311D01*
X36027845Y-25587950D01*
X36041459Y-25608324D01*
X36058786Y-25625651D01*
X36079161Y-25639264D01*
X36101796Y-25648640D01*
X36116733Y-25653171D01*
X36123199Y-25656628D01*
X36133633Y-25665190D01*
X36355470Y-25887027D01*
X36364032Y-25897461D01*
X36367489Y-25903927D01*
X36372020Y-25918864D01*
X36381398Y-25941503D01*
X36395012Y-25961877D01*
X36412339Y-25979204D01*
X36432714Y-25992817D01*
X36455349Y-26002193D01*
X36470286Y-26006724D01*
X36476752Y-26010181D01*
X36487186Y-26018743D01*
X36709023Y-26240580D01*
X36717585Y-26251014D01*
X36721042Y-26257481D01*
X36725573Y-26272417D01*
X36734950Y-26295056D01*
X36748564Y-26315430D01*
X36765891Y-26332757D01*
X36786266Y-26346371D01*
X36808903Y-26355747D01*
X36823839Y-26360278D01*
X36830306Y-26363735D01*
X36840740Y-26372297D01*
X37062577Y-26594134D01*
X37071139Y-26604568D01*
X37074596Y-26611034D01*
X37079127Y-26625971D01*
X37088505Y-26648610D01*
X37102119Y-26668984D01*
X37119446Y-26686311D01*
X37139821Y-26699924D01*
X37162456Y-26709300D01*
X37177393Y-26713831D01*
X37183859Y-26717288D01*
X37194293Y-26725850D01*
X37416130Y-26947687D01*
X37424692Y-26958121D01*
X37428149Y-26964588D01*
X37432680Y-26979524D01*
X37442057Y-27002163D01*
X37455671Y-27022537D01*
X37472998Y-27039864D01*
X37493373Y-27053478D01*
X37516010Y-27062854D01*
X37530946Y-27067385D01*
X37537413Y-27070842D01*
X37547847Y-27079404D01*
X37769684Y-27301241D01*
X37778246Y-27311675D01*
X37781703Y-27318141D01*
X37783831Y-27325156D01*
X37784549Y-27332451D01*
X37783831Y-27339746D01*
X37781703Y-27346761D01*
X37778246Y-27353227D01*
X37769684Y-27363661D01*
X36716997Y-28416348D01*
X36706563Y-28424910D01*
X36700097Y-28428367D01*
X36693082Y-28430495D01*
X36685787Y-28431213D01*
X36678492Y-28430495D01*
X36671477Y-28428367D01*
X36665011Y-28424910D01*
X36654577Y-28416348D01*
X36432740Y-28194511D01*
X36424178Y-28184077D01*
X36420721Y-28177610D01*
X36416190Y-28162674D01*
X36406813Y-28140035D01*
X36393199Y-28119661D01*
X36375872Y-28102334D01*
X36355497Y-28088720D01*
X36332860Y-28079344D01*
X36317924Y-28074813D01*
X36311457Y-28071356D01*
X36301023Y-28062794D01*
X36079186Y-27840957D01*
X36070624Y-27830523D01*
X36067167Y-27824057D01*
X36062636Y-27809120D01*
X36053258Y-27786481D01*
X36039644Y-27766107D01*
X36022317Y-27748780D01*
X36001942Y-27735167D01*
X35979307Y-27725791D01*
X35964370Y-27721260D01*
X35957904Y-27717803D01*
X35947470Y-27709241D01*
X35725633Y-27487404D01*
X35717071Y-27476970D01*
X35713614Y-27470503D01*
X35709083Y-27455567D01*
X35699706Y-27432928D01*
X35686092Y-27412554D01*
X35668765Y-27395227D01*
X35648390Y-27381613D01*
X35625753Y-27372237D01*
X35610817Y-27367706D01*
X35604350Y-27364249D01*
X35593916Y-27355687D01*
X35372079Y-27133850D01*
X35363517Y-27123416D01*
X35360060Y-27116950D01*
X35355529Y-27102013D01*
X35346151Y-27079374D01*
X35332537Y-27059000D01*
X35315210Y-27041673D01*
X35294835Y-27028060D01*
X35272200Y-27018684D01*
X35257263Y-27014153D01*
X35250797Y-27010696D01*
X35240363Y-27002134D01*
X35018526Y-26780297D01*
X35009964Y-26769863D01*
X35006507Y-26763397D01*
X35001976Y-26748460D01*
X34992598Y-26725821D01*
X34978984Y-26705447D01*
X34961657Y-26688120D01*
X34941282Y-26674507D01*
X34918647Y-26665131D01*
X34903710Y-26660600D01*
X34897244Y-26657143D01*
X34886810Y-26648581D01*
X34664973Y-26426744D01*
X34656411Y-26416310D01*
X34652954Y-26409843D01*
X34648423Y-26394907D01*
X34639046Y-26372268D01*
X34625432Y-26351894D01*
X34608105Y-26334567D01*
X34587730Y-26320953D01*
X34565093Y-26311577D01*
X34550157Y-26307046D01*
X34543690Y-26303589D01*
X34533256Y-26295027D01*
X34311419Y-26073190D01*
X34302857Y-26062756D01*
X34299400Y-26056290D01*
X34294869Y-26041353D01*
X34285491Y-26018714D01*
X34271877Y-25998340D01*
X34254550Y-25981013D01*
X34234175Y-25967400D01*
X34211540Y-25958024D01*
X34196603Y-25953493D01*
X34190137Y-25950036D01*
X34179703Y-25941474D01*
X33957866Y-25719637D01*
X33949304Y-25709203D01*
X33945847Y-25702737D01*
X33941316Y-25687800D01*
X33931938Y-25665161D01*
X33918324Y-25644787D01*
X33900997Y-25627460D01*
X33880622Y-25613847D01*
X33857987Y-25604471D01*
X33843050Y-25599940D01*
X33836584Y-25596483D01*
X33826150Y-25587921D01*
X33604313Y-25366084D01*
X33595751Y-25355650D01*
X33592294Y-25349183D01*
X33587763Y-25334247D01*
X33578386Y-25311608D01*
X33564772Y-25291234D01*
X33547445Y-25273907D01*
X33527070Y-25260293D01*
X33504433Y-25250917D01*
X33489497Y-25246386D01*
X33483030Y-25242929D01*
X33472596Y-25234367D01*
X33250759Y-25012530D01*
X33242197Y-25002096D01*
X33238740Y-24995630D01*
X33234209Y-24980693D01*
X33224831Y-24958054D01*
X33211217Y-24937680D01*
X33193890Y-24920353D01*
X33173515Y-24906740D01*
X33150880Y-24897364D01*
X33135943Y-24892833D01*
X33129477Y-24889376D01*
X33119043Y-24880814D01*
X32897206Y-24658977D01*
X32888644Y-24648543D01*
X32885187Y-24642076D01*
X32880656Y-24627140D01*
X32871279Y-24604501D01*
X32857665Y-24584127D01*
X32840338Y-24566800D01*
X32819963Y-24553186D01*
X32797326Y-24543810D01*
X32782390Y-24539279D01*
X32775923Y-24535822D01*
X32765489Y-24527260D01*
X32543652Y-24305423D01*
X32535090Y-24294989D01*
X32531633Y-24288523D01*
X32529505Y-24281508D01*
X32528787Y-24274213D01*
X32529505Y-24266918D01*
X32531633Y-24259903D01*
X32535090Y-24253437D01*
X32543652Y-24243003D01*
X33596339Y-23190316D01*
X33606773Y-23181754D01*
X33613239Y-23178297D01*
X33620254Y-23176169D01*
X33627549Y-23175451D01*
X33634844Y-23176169D01*
X33634844Y-23176169D01*
G37*
G36*
X28701000Y-28376000D02*
G01*
X26099000Y-28376000D01*
X26099000Y-27624000D01*
X28701000Y-27624000D01*
X28701000Y-28376000D01*
X28701000Y-28376000D01*
G37*
G36*
X24701000Y-28376000D02*
G01*
X22099000Y-28376000D01*
X22099000Y-27624000D01*
X24701000Y-27624000D01*
X24701000Y-28376000D01*
X24701000Y-28376000D01*
G37*
G36*
X48751000Y-28276000D02*
G01*
X46849000Y-28276000D01*
X46849000Y-26424000D01*
X48751000Y-26424000D01*
X48751000Y-28276000D01*
X48751000Y-28276000D01*
G37*
G36*
X18592085Y-17812617D02*
G01*
X18625679Y-17815926D01*
X18701594Y-17838954D01*
X18754995Y-17855153D01*
X18874164Y-17918851D01*
X18978623Y-18004577D01*
X19064349Y-18109036D01*
X19128047Y-18228205D01*
X19144246Y-18281606D01*
X19167274Y-18357521D01*
X19180519Y-18492000D01*
X19167274Y-18626479D01*
X19150997Y-18680136D01*
X19128047Y-18755795D01*
X19064349Y-18874964D01*
X18978622Y-18979423D01*
X18929924Y-19019389D01*
X18912597Y-19036716D01*
X18898984Y-19057090D01*
X18889606Y-19079729D01*
X18884826Y-19103762D01*
X18884826Y-19128266D01*
X18889606Y-19152300D01*
X18898984Y-19174938D01*
X18912598Y-19195313D01*
X18929925Y-19212640D01*
X18950299Y-19226253D01*
X18972938Y-19235631D01*
X19009223Y-19241013D01*
X19939200Y-19241013D01*
X19939200Y-26422987D01*
X19062837Y-26422987D01*
X19038451Y-26425389D01*
X19015002Y-26432502D01*
X18993391Y-26444053D01*
X18974449Y-26459598D01*
X18958904Y-26478540D01*
X18947353Y-26500151D01*
X18940240Y-26523600D01*
X18937838Y-26547986D01*
X18940240Y-26572372D01*
X18947353Y-26595821D01*
X18958904Y-26617432D01*
X18971067Y-26630851D01*
X18970812Y-26631060D01*
X19064349Y-26745036D01*
X19128047Y-26864205D01*
X19128048Y-26864209D01*
X19167274Y-26993521D01*
X19180519Y-27128000D01*
X19167274Y-27262479D01*
X19157715Y-27293991D01*
X19128047Y-27391795D01*
X19064349Y-27510964D01*
X18978623Y-27615423D01*
X18874164Y-27701149D01*
X18754995Y-27764847D01*
X18701594Y-27781046D01*
X18625679Y-27804074D01*
X18592085Y-27807383D01*
X18524900Y-27814000D01*
X17695500Y-27814000D01*
X17628315Y-27807383D01*
X17594721Y-27804074D01*
X17518806Y-27781046D01*
X17465405Y-27764847D01*
X17346236Y-27701149D01*
X17241777Y-27615423D01*
X17156051Y-27510964D01*
X17092353Y-27391795D01*
X17062685Y-27293991D01*
X17053126Y-27262479D01*
X17039881Y-27128000D01*
X17053126Y-26993521D01*
X17092352Y-26864209D01*
X17092353Y-26864205D01*
X17156051Y-26745036D01*
X17241777Y-26640577D01*
X17346236Y-26554851D01*
X17465405Y-26491153D01*
X17518806Y-26474955D01*
X17594721Y-26451926D01*
X17628315Y-26448617D01*
X17695500Y-26442000D01*
X18188201Y-26442000D01*
X18212587Y-26439598D01*
X18236036Y-26432485D01*
X18257647Y-26420934D01*
X18276589Y-26405389D01*
X18292134Y-26386447D01*
X18303685Y-26364836D01*
X18310798Y-26341387D01*
X18313200Y-26317001D01*
X18313200Y-19302999D01*
X18310798Y-19278613D01*
X18303685Y-19255164D01*
X18292134Y-19233553D01*
X18276589Y-19214611D01*
X18257647Y-19199066D01*
X18236036Y-19187515D01*
X18212587Y-19180402D01*
X18188201Y-19178000D01*
X17695500Y-19178000D01*
X17628315Y-19171383D01*
X17594721Y-19168074D01*
X17518806Y-19145046D01*
X17465405Y-19128847D01*
X17346236Y-19065149D01*
X17241777Y-18979423D01*
X17156051Y-18874964D01*
X17092353Y-18755795D01*
X17069403Y-18680136D01*
X17053126Y-18626479D01*
X17039881Y-18492000D01*
X17053126Y-18357521D01*
X17076154Y-18281606D01*
X17092353Y-18228205D01*
X17156051Y-18109036D01*
X17241777Y-18004577D01*
X17346236Y-17918851D01*
X17465405Y-17855153D01*
X17518806Y-17838954D01*
X17594721Y-17815926D01*
X17628315Y-17812617D01*
X17695500Y-17806000D01*
X18524900Y-17806000D01*
X18592085Y-17812617D01*
X18592085Y-17812617D01*
G37*
G36*
X14172485Y-26448617D02*
G01*
X14206079Y-26451926D01*
X14281994Y-26474955D01*
X14335395Y-26491153D01*
X14454564Y-26554851D01*
X14559023Y-26640577D01*
X14644749Y-26745036D01*
X14708447Y-26864205D01*
X14708448Y-26864209D01*
X14747674Y-26993521D01*
X14760919Y-27128000D01*
X14747674Y-27262479D01*
X14738115Y-27293991D01*
X14708447Y-27391795D01*
X14644749Y-27510964D01*
X14559023Y-27615423D01*
X14454564Y-27701149D01*
X14335395Y-27764847D01*
X14281994Y-27781046D01*
X14206079Y-27804074D01*
X14172485Y-27807383D01*
X14105300Y-27814000D01*
X13479100Y-27814000D01*
X13411915Y-27807383D01*
X13378321Y-27804074D01*
X13302406Y-27781046D01*
X13249005Y-27764847D01*
X13129836Y-27701149D01*
X13025377Y-27615423D01*
X12939651Y-27510964D01*
X12875953Y-27391795D01*
X12846285Y-27293991D01*
X12836726Y-27262479D01*
X12823481Y-27128000D01*
X12836726Y-26993521D01*
X12875952Y-26864209D01*
X12875953Y-26864205D01*
X12939651Y-26745036D01*
X13025377Y-26640577D01*
X13129836Y-26554851D01*
X13249005Y-26491153D01*
X13302406Y-26474955D01*
X13378321Y-26451926D01*
X13411915Y-26448617D01*
X13479100Y-26442000D01*
X14105300Y-26442000D01*
X14172485Y-26448617D01*
X14172485Y-26448617D01*
G37*
G36*
X59463674Y-26278465D02*
G01*
X59501367Y-26289899D01*
X59536103Y-26308466D01*
X59566548Y-26333452D01*
X59591534Y-26363897D01*
X59610101Y-26398633D01*
X59621535Y-26436326D01*
X59626000Y-26481661D01*
X59626000Y-27568339D01*
X59621535Y-27613674D01*
X59610101Y-27651367D01*
X59591534Y-27686103D01*
X59566548Y-27716548D01*
X59536103Y-27741534D01*
X59501367Y-27760101D01*
X59463674Y-27771535D01*
X59418339Y-27776000D01*
X58581661Y-27776000D01*
X58536326Y-27771535D01*
X58498633Y-27760101D01*
X58463897Y-27741534D01*
X58433452Y-27716548D01*
X58408466Y-27686103D01*
X58389899Y-27651367D01*
X58378465Y-27613674D01*
X58374000Y-27568339D01*
X58374000Y-26481661D01*
X58378465Y-26436326D01*
X58389899Y-26398633D01*
X58408466Y-26363897D01*
X58433452Y-26333452D01*
X58463897Y-26308466D01*
X58498633Y-26289899D01*
X58536326Y-26278465D01*
X58581661Y-26274000D01*
X59418339Y-26274000D01*
X59463674Y-26278465D01*
X59463674Y-26278465D01*
G37*
G36*
X57413674Y-26278465D02*
G01*
X57451367Y-26289899D01*
X57486103Y-26308466D01*
X57516548Y-26333452D01*
X57541534Y-26363897D01*
X57560101Y-26398633D01*
X57571535Y-26436326D01*
X57576000Y-26481661D01*
X57576000Y-27568339D01*
X57571535Y-27613674D01*
X57560101Y-27651367D01*
X57541534Y-27686103D01*
X57516548Y-27716548D01*
X57486103Y-27741534D01*
X57451367Y-27760101D01*
X57413674Y-27771535D01*
X57368339Y-27776000D01*
X56531661Y-27776000D01*
X56486326Y-27771535D01*
X56448633Y-27760101D01*
X56413897Y-27741534D01*
X56383452Y-27716548D01*
X56358466Y-27686103D01*
X56339899Y-27651367D01*
X56328465Y-27613674D01*
X56324000Y-27568339D01*
X56324000Y-26481661D01*
X56328465Y-26436326D01*
X56339899Y-26398633D01*
X56358466Y-26363897D01*
X56383452Y-26333452D01*
X56413897Y-26308466D01*
X56448633Y-26289899D01*
X56486326Y-26278465D01*
X56531661Y-26274000D01*
X57368339Y-26274000D01*
X57413674Y-26278465D01*
X57413674Y-26278465D01*
G37*
G36*
X63851637Y-25773927D02*
G01*
X64000937Y-25803624D01*
X64164909Y-25871544D01*
X64312479Y-25970147D01*
X64437978Y-26095646D01*
X64536581Y-26243216D01*
X64604501Y-26407188D01*
X64639125Y-26581259D01*
X64639125Y-26758741D01*
X64604501Y-26932812D01*
X64536581Y-27096784D01*
X64437978Y-27244354D01*
X64312479Y-27369853D01*
X64164909Y-27468456D01*
X64000937Y-27536376D01*
X63851637Y-27566073D01*
X63826867Y-27571000D01*
X63649383Y-27571000D01*
X63624613Y-27566073D01*
X63475313Y-27536376D01*
X63311341Y-27468456D01*
X63163771Y-27369853D01*
X63038272Y-27244354D01*
X62939669Y-27096784D01*
X62871749Y-26932812D01*
X62837125Y-26758741D01*
X62837125Y-26581259D01*
X62871749Y-26407188D01*
X62939669Y-26243216D01*
X63038272Y-26095646D01*
X63163771Y-25970147D01*
X63311341Y-25871544D01*
X63475313Y-25803624D01*
X63624613Y-25773927D01*
X63649383Y-25769000D01*
X63826867Y-25769000D01*
X63851637Y-25773927D01*
X63851637Y-25773927D01*
G37*
G36*
X50588674Y-26228465D02*
G01*
X50626367Y-26239899D01*
X50661103Y-26258466D01*
X50691548Y-26283452D01*
X50716534Y-26313897D01*
X50735101Y-26348633D01*
X50746535Y-26386326D01*
X50751000Y-26431661D01*
X50751000Y-27268339D01*
X50746535Y-27313674D01*
X50735101Y-27351367D01*
X50716534Y-27386103D01*
X50691548Y-27416548D01*
X50661103Y-27441534D01*
X50626367Y-27460101D01*
X50588674Y-27471535D01*
X50543339Y-27476000D01*
X49456661Y-27476000D01*
X49411326Y-27471535D01*
X49373633Y-27460101D01*
X49338897Y-27441534D01*
X49308452Y-27416548D01*
X49283466Y-27386103D01*
X49264899Y-27351367D01*
X49253465Y-27313674D01*
X49249000Y-27268339D01*
X49249000Y-26431661D01*
X49253465Y-26386326D01*
X49264899Y-26348633D01*
X49283466Y-26313897D01*
X49308452Y-26283452D01*
X49338897Y-26258466D01*
X49373633Y-26239899D01*
X49411326Y-26228465D01*
X49456661Y-26224000D01*
X50543339Y-26224000D01*
X50588674Y-26228465D01*
X50588674Y-26228465D01*
G37*
G36*
X28701000Y-26376000D02*
G01*
X26099000Y-26376000D01*
X26099000Y-25624000D01*
X28701000Y-25624000D01*
X28701000Y-26376000D01*
X28701000Y-26376000D01*
G37*
G36*
X24651000Y-26326000D02*
G01*
X22049000Y-26326000D01*
X22049000Y-25574000D01*
X24651000Y-25574000D01*
X24651000Y-26326000D01*
X24651000Y-26326000D01*
G37*
G36*
X17641043Y-25234292D02*
G01*
X17661894Y-25242929D01*
X17727670Y-25270174D01*
X17805632Y-25322267D01*
X17871933Y-25388568D01*
X17924026Y-25466530D01*
X17924026Y-25466531D01*
X17959908Y-25553157D01*
X17978200Y-25645117D01*
X17978200Y-25738883D01*
X17959908Y-25830843D01*
X17943049Y-25871544D01*
X17924026Y-25917470D01*
X17871933Y-25995432D01*
X17805632Y-26061733D01*
X17727670Y-26113826D01*
X17706760Y-26122487D01*
X17641043Y-26149708D01*
X17549083Y-26168000D01*
X17455317Y-26168000D01*
X17363357Y-26149708D01*
X17297640Y-26122487D01*
X17276730Y-26113826D01*
X17198768Y-26061733D01*
X17132467Y-25995432D01*
X17080374Y-25917470D01*
X17061351Y-25871544D01*
X17044492Y-25830843D01*
X17026200Y-25738883D01*
X17026200Y-25645117D01*
X17044492Y-25553157D01*
X17080374Y-25466531D01*
X17080374Y-25466530D01*
X17132467Y-25388568D01*
X17198768Y-25322267D01*
X17276730Y-25270174D01*
X17342506Y-25242929D01*
X17363357Y-25234292D01*
X17455317Y-25216000D01*
X17549083Y-25216000D01*
X17641043Y-25234292D01*
X17641043Y-25234292D01*
G37*
G36*
X50588674Y-24178465D02*
G01*
X50626367Y-24189899D01*
X50661103Y-24208466D01*
X50691548Y-24233452D01*
X50716534Y-24263897D01*
X50735101Y-24298633D01*
X50746535Y-24336326D01*
X50751000Y-24381661D01*
X50751000Y-25218339D01*
X50746535Y-25263674D01*
X50735101Y-25301367D01*
X50716534Y-25336103D01*
X50691548Y-25366548D01*
X50661103Y-25391534D01*
X50626367Y-25410101D01*
X50588674Y-25421535D01*
X50543339Y-25426000D01*
X49456661Y-25426000D01*
X49411326Y-25421535D01*
X49373633Y-25410101D01*
X49338897Y-25391534D01*
X49308452Y-25366548D01*
X49283466Y-25336103D01*
X49264899Y-25301367D01*
X49253465Y-25263674D01*
X49249000Y-25218339D01*
X49249000Y-24381661D01*
X49253465Y-24336326D01*
X49264899Y-24298633D01*
X49283466Y-24263897D01*
X49308452Y-24233452D01*
X49338897Y-24208466D01*
X49373633Y-24189899D01*
X49411326Y-24178465D01*
X49456661Y-24174000D01*
X50543339Y-24174000D01*
X50588674Y-24178465D01*
X50588674Y-24178465D01*
G37*
G36*
X63848567Y-23235518D02*
G01*
X63914752Y-23242037D01*
X64084591Y-23293557D01*
X64241116Y-23377222D01*
X64274845Y-23404903D01*
X64378311Y-23489814D01*
X64445122Y-23571225D01*
X64490903Y-23627009D01*
X64574568Y-23783534D01*
X64626088Y-23953373D01*
X64643484Y-24130000D01*
X64626088Y-24306627D01*
X64574568Y-24476466D01*
X64574567Y-24476468D01*
X64539280Y-24542484D01*
X64490903Y-24632991D01*
X64469577Y-24658977D01*
X64378311Y-24770186D01*
X64292071Y-24840960D01*
X64241116Y-24882778D01*
X64084591Y-24966443D01*
X63914752Y-25017963D01*
X63848568Y-25024481D01*
X63782385Y-25031000D01*
X63693865Y-25031000D01*
X63627682Y-25024481D01*
X63561498Y-25017963D01*
X63391659Y-24966443D01*
X63235134Y-24882778D01*
X63184179Y-24840960D01*
X63097939Y-24770186D01*
X63006673Y-24658977D01*
X62985347Y-24632991D01*
X62936970Y-24542484D01*
X62901683Y-24476468D01*
X62901682Y-24476466D01*
X62850162Y-24306627D01*
X62832766Y-24130000D01*
X62850162Y-23953373D01*
X62901682Y-23783534D01*
X62985347Y-23627009D01*
X63031128Y-23571225D01*
X63097939Y-23489814D01*
X63201405Y-23404903D01*
X63235134Y-23377222D01*
X63391659Y-23293557D01*
X63561498Y-23242037D01*
X63627683Y-23235518D01*
X63693865Y-23229000D01*
X63782385Y-23229000D01*
X63848567Y-23235518D01*
X63848567Y-23235518D01*
G37*
G36*
X48751000Y-25026000D02*
G01*
X46849000Y-25026000D01*
X46849000Y-23174000D01*
X48751000Y-23174000D01*
X48751000Y-25026000D01*
X48751000Y-25026000D01*
G37*
G36*
X23977526Y-21961543D02*
G01*
X24138812Y-21993624D01*
X24302784Y-22061544D01*
X24450354Y-22160147D01*
X24575853Y-22285646D01*
X24674456Y-22433216D01*
X24742376Y-22597188D01*
X24777000Y-22771259D01*
X24777000Y-22948741D01*
X24742376Y-23122812D01*
X24674456Y-23286784D01*
X24575853Y-23434354D01*
X24450354Y-23559853D01*
X24302784Y-23658456D01*
X24138812Y-23726376D01*
X23989512Y-23756073D01*
X23964742Y-23761000D01*
X23787258Y-23761000D01*
X23762488Y-23756073D01*
X23613188Y-23726376D01*
X23449216Y-23658456D01*
X23301646Y-23559853D01*
X23176147Y-23434354D01*
X23077544Y-23286784D01*
X23009624Y-23122812D01*
X22975000Y-22948741D01*
X22975000Y-22771259D01*
X23009624Y-22597188D01*
X23077544Y-22433216D01*
X23176147Y-22285646D01*
X23301646Y-22160147D01*
X23449216Y-22061544D01*
X23613188Y-21993624D01*
X23774474Y-21961543D01*
X23787258Y-21959000D01*
X23964742Y-21959000D01*
X23977526Y-21961543D01*
X23977526Y-21961543D01*
G37*
G36*
X26526443Y-21965519D02*
G01*
X26592627Y-21972037D01*
X26762466Y-22023557D01*
X26918991Y-22107222D01*
X26954393Y-22136276D01*
X27056186Y-22219814D01*
X27139448Y-22321271D01*
X27168778Y-22357009D01*
X27252443Y-22513534D01*
X27303963Y-22683373D01*
X27321359Y-22860000D01*
X27303963Y-23036627D01*
X27252443Y-23206466D01*
X27168778Y-23362991D01*
X27148641Y-23387528D01*
X27056186Y-23500186D01*
X26969623Y-23571225D01*
X26918991Y-23612778D01*
X26762466Y-23696443D01*
X26592627Y-23747963D01*
X26526442Y-23754482D01*
X26460260Y-23761000D01*
X26371740Y-23761000D01*
X26305558Y-23754482D01*
X26239373Y-23747963D01*
X26069534Y-23696443D01*
X25913009Y-23612778D01*
X25862377Y-23571225D01*
X25775814Y-23500186D01*
X25683359Y-23387528D01*
X25663222Y-23362991D01*
X25579557Y-23206466D01*
X25528037Y-23036627D01*
X25510641Y-22860000D01*
X25528037Y-22683373D01*
X25579557Y-22513534D01*
X25663222Y-22357009D01*
X25692552Y-22321271D01*
X25775814Y-22219814D01*
X25877607Y-22136276D01*
X25913009Y-22107222D01*
X26069534Y-22023557D01*
X26239373Y-21972037D01*
X26305557Y-21965519D01*
X26371740Y-21959000D01*
X26460260Y-21959000D01*
X26526443Y-21965519D01*
X26526443Y-21965519D01*
G37*
G36*
X29066443Y-21965519D02*
G01*
X29132627Y-21972037D01*
X29302466Y-22023557D01*
X29458991Y-22107222D01*
X29494393Y-22136276D01*
X29596186Y-22219814D01*
X29679448Y-22321271D01*
X29708778Y-22357009D01*
X29792443Y-22513534D01*
X29843963Y-22683373D01*
X29861359Y-22860000D01*
X29843963Y-23036627D01*
X29792443Y-23206466D01*
X29708778Y-23362991D01*
X29688641Y-23387528D01*
X29596186Y-23500186D01*
X29509623Y-23571225D01*
X29458991Y-23612778D01*
X29302466Y-23696443D01*
X29132627Y-23747963D01*
X29066442Y-23754482D01*
X29000260Y-23761000D01*
X28911740Y-23761000D01*
X28845558Y-23754482D01*
X28779373Y-23747963D01*
X28609534Y-23696443D01*
X28453009Y-23612778D01*
X28402377Y-23571225D01*
X28315814Y-23500186D01*
X28223359Y-23387528D01*
X28203222Y-23362991D01*
X28119557Y-23206466D01*
X28068037Y-23036627D01*
X28050641Y-22860000D01*
X28068037Y-22683373D01*
X28119557Y-22513534D01*
X28203222Y-22357009D01*
X28232552Y-22321271D01*
X28315814Y-22219814D01*
X28417607Y-22136276D01*
X28453009Y-22107222D01*
X28609534Y-22023557D01*
X28779373Y-21972037D01*
X28845557Y-21965519D01*
X28911740Y-21959000D01*
X29000260Y-21959000D01*
X29066443Y-21965519D01*
X29066443Y-21965519D01*
G37*
G36*
X36693082Y-17289505D02*
G01*
X36700097Y-17291633D01*
X36706563Y-17295090D01*
X36716997Y-17303652D01*
X37769684Y-18356339D01*
X37778246Y-18366773D01*
X37781703Y-18373239D01*
X37783831Y-18380254D01*
X37784549Y-18387549D01*
X37783831Y-18394844D01*
X37781703Y-18401859D01*
X37778246Y-18408325D01*
X37769684Y-18418759D01*
X37547847Y-18640596D01*
X37537413Y-18649158D01*
X37530946Y-18652615D01*
X37516010Y-18657146D01*
X37493371Y-18666523D01*
X37472997Y-18680137D01*
X37455670Y-18697464D01*
X37442056Y-18717839D01*
X37432680Y-18740476D01*
X37428149Y-18755412D01*
X37424692Y-18761879D01*
X37416130Y-18772313D01*
X37194293Y-18994150D01*
X37183859Y-19002712D01*
X37177393Y-19006169D01*
X37162456Y-19010700D01*
X37139817Y-19020078D01*
X37119443Y-19033692D01*
X37102116Y-19051019D01*
X37088503Y-19071394D01*
X37079127Y-19094029D01*
X37074596Y-19108966D01*
X37071139Y-19115432D01*
X37062577Y-19125866D01*
X36840740Y-19347703D01*
X36830306Y-19356265D01*
X36823839Y-19359722D01*
X36808903Y-19364253D01*
X36786264Y-19373630D01*
X36765890Y-19387244D01*
X36748563Y-19404571D01*
X36734949Y-19424946D01*
X36725573Y-19447583D01*
X36721042Y-19462519D01*
X36717585Y-19468986D01*
X36709023Y-19479420D01*
X36487186Y-19701257D01*
X36476752Y-19709819D01*
X36470286Y-19713276D01*
X36455349Y-19717807D01*
X36432710Y-19727185D01*
X36412336Y-19740799D01*
X36395009Y-19758126D01*
X36381396Y-19778501D01*
X36372020Y-19801136D01*
X36367489Y-19816073D01*
X36364032Y-19822539D01*
X36355470Y-19832973D01*
X36133633Y-20054810D01*
X36123199Y-20063372D01*
X36116733Y-20066829D01*
X36101796Y-20071360D01*
X36079157Y-20080738D01*
X36058783Y-20094352D01*
X36041456Y-20111679D01*
X36027843Y-20132054D01*
X36018467Y-20154689D01*
X36013936Y-20169626D01*
X36010479Y-20176092D01*
X36001917Y-20186526D01*
X35780080Y-20408363D01*
X35769646Y-20416925D01*
X35763179Y-20420382D01*
X35748243Y-20424913D01*
X35725604Y-20434290D01*
X35705230Y-20447904D01*
X35687903Y-20465231D01*
X35674289Y-20485606D01*
X35664913Y-20508243D01*
X35660382Y-20523179D01*
X35656925Y-20529646D01*
X35648363Y-20540080D01*
X35426526Y-20761917D01*
X35416092Y-20770479D01*
X35409626Y-20773936D01*
X35394689Y-20778467D01*
X35372050Y-20787845D01*
X35351676Y-20801459D01*
X35334349Y-20818786D01*
X35320736Y-20839161D01*
X35311360Y-20861796D01*
X35306829Y-20876733D01*
X35303372Y-20883199D01*
X35294810Y-20893633D01*
X35072973Y-21115470D01*
X35062539Y-21124032D01*
X35056073Y-21127489D01*
X35041136Y-21132020D01*
X35018497Y-21141398D01*
X34998123Y-21155012D01*
X34980796Y-21172339D01*
X34967183Y-21192714D01*
X34957807Y-21215349D01*
X34953276Y-21230286D01*
X34949819Y-21236752D01*
X34941257Y-21247186D01*
X34719420Y-21469023D01*
X34708986Y-21477585D01*
X34702519Y-21481042D01*
X34687583Y-21485573D01*
X34664944Y-21494950D01*
X34644570Y-21508564D01*
X34627243Y-21525891D01*
X34613629Y-21546266D01*
X34604253Y-21568903D01*
X34599722Y-21583839D01*
X34596265Y-21590306D01*
X34587703Y-21600740D01*
X34365866Y-21822577D01*
X34355432Y-21831139D01*
X34348966Y-21834596D01*
X34334029Y-21839127D01*
X34311390Y-21848505D01*
X34291016Y-21862119D01*
X34273689Y-21879446D01*
X34260076Y-21899821D01*
X34250700Y-21922456D01*
X34246169Y-21937393D01*
X34242712Y-21943859D01*
X34234150Y-21954293D01*
X34012313Y-22176130D01*
X34001879Y-22184692D01*
X33995412Y-22188149D01*
X33980476Y-22192680D01*
X33957837Y-22202057D01*
X33937463Y-22215671D01*
X33920136Y-22232998D01*
X33906522Y-22253373D01*
X33897146Y-22276010D01*
X33892615Y-22290946D01*
X33889158Y-22297413D01*
X33880596Y-22307847D01*
X33658759Y-22529684D01*
X33648325Y-22538246D01*
X33641859Y-22541703D01*
X33634844Y-22543831D01*
X33627549Y-22544549D01*
X33620254Y-22543831D01*
X33613239Y-22541703D01*
X33606773Y-22538246D01*
X33596339Y-22529684D01*
X32543652Y-21476997D01*
X32535090Y-21466563D01*
X32531633Y-21460097D01*
X32529505Y-21453082D01*
X32528787Y-21445787D01*
X32529505Y-21438492D01*
X32531633Y-21431477D01*
X32535090Y-21425011D01*
X32543652Y-21414577D01*
X32765489Y-21192740D01*
X32775923Y-21184178D01*
X32782390Y-21180721D01*
X32797326Y-21176190D01*
X32819965Y-21166813D01*
X32840339Y-21153199D01*
X32857666Y-21135872D01*
X32871280Y-21115497D01*
X32880656Y-21092860D01*
X32885187Y-21077924D01*
X32888644Y-21071457D01*
X32897206Y-21061023D01*
X33119043Y-20839186D01*
X33129477Y-20830624D01*
X33135943Y-20827167D01*
X33150880Y-20822636D01*
X33173519Y-20813258D01*
X33193893Y-20799644D01*
X33211220Y-20782317D01*
X33224833Y-20761942D01*
X33234209Y-20739307D01*
X33238740Y-20724370D01*
X33242197Y-20717904D01*
X33250759Y-20707470D01*
X33472596Y-20485633D01*
X33483030Y-20477071D01*
X33489497Y-20473614D01*
X33504433Y-20469083D01*
X33527072Y-20459706D01*
X33547446Y-20446092D01*
X33564773Y-20428765D01*
X33578387Y-20408390D01*
X33587763Y-20385753D01*
X33592294Y-20370817D01*
X33595751Y-20364350D01*
X33604313Y-20353916D01*
X33826150Y-20132079D01*
X33836584Y-20123517D01*
X33843050Y-20120060D01*
X33857987Y-20115529D01*
X33880626Y-20106151D01*
X33901000Y-20092537D01*
X33918327Y-20075210D01*
X33931940Y-20054835D01*
X33941316Y-20032200D01*
X33945847Y-20017263D01*
X33949304Y-20010797D01*
X33957866Y-20000363D01*
X34179703Y-19778526D01*
X34190137Y-19769964D01*
X34196603Y-19766507D01*
X34211540Y-19761976D01*
X34234179Y-19752598D01*
X34254553Y-19738984D01*
X34271880Y-19721657D01*
X34285493Y-19701282D01*
X34294869Y-19678647D01*
X34299400Y-19663710D01*
X34302857Y-19657244D01*
X34311419Y-19646810D01*
X34533256Y-19424973D01*
X34543690Y-19416411D01*
X34550157Y-19412954D01*
X34565093Y-19408423D01*
X34587732Y-19399046D01*
X34608106Y-19385432D01*
X34625433Y-19368105D01*
X34639047Y-19347730D01*
X34648423Y-19325093D01*
X34652954Y-19310157D01*
X34656411Y-19303690D01*
X34664973Y-19293256D01*
X34886810Y-19071419D01*
X34897244Y-19062857D01*
X34903710Y-19059400D01*
X34918647Y-19054869D01*
X34941286Y-19045491D01*
X34961660Y-19031877D01*
X34978987Y-19014550D01*
X34992600Y-18994175D01*
X35001976Y-18971540D01*
X35006507Y-18956603D01*
X35009964Y-18950137D01*
X35018526Y-18939703D01*
X35240363Y-18717866D01*
X35250797Y-18709304D01*
X35257263Y-18705847D01*
X35272200Y-18701316D01*
X35294839Y-18691938D01*
X35315213Y-18678324D01*
X35332540Y-18660997D01*
X35346153Y-18640622D01*
X35355529Y-18617987D01*
X35360060Y-18603050D01*
X35363517Y-18596584D01*
X35372079Y-18586150D01*
X35593916Y-18364313D01*
X35604350Y-18355751D01*
X35610817Y-18352294D01*
X35625753Y-18347763D01*
X35648392Y-18338386D01*
X35668766Y-18324772D01*
X35686093Y-18307445D01*
X35699707Y-18287070D01*
X35709083Y-18264433D01*
X35713614Y-18249497D01*
X35717071Y-18243030D01*
X35725633Y-18232596D01*
X35947470Y-18010759D01*
X35957904Y-18002197D01*
X35964370Y-17998740D01*
X35979307Y-17994209D01*
X36001946Y-17984831D01*
X36022320Y-17971217D01*
X36039647Y-17953890D01*
X36053260Y-17933515D01*
X36062636Y-17910880D01*
X36067167Y-17895943D01*
X36070624Y-17889477D01*
X36079186Y-17879043D01*
X36301023Y-17657206D01*
X36311457Y-17648644D01*
X36317924Y-17645187D01*
X36332860Y-17640656D01*
X36355499Y-17631279D01*
X36375873Y-17617665D01*
X36393200Y-17600338D01*
X36406814Y-17579963D01*
X36416190Y-17557326D01*
X36420721Y-17542390D01*
X36424178Y-17535923D01*
X36432740Y-17525489D01*
X36654577Y-17303652D01*
X36665011Y-17295090D01*
X36671477Y-17291633D01*
X36678492Y-17289505D01*
X36685787Y-17288787D01*
X36693082Y-17289505D01*
X36693082Y-17289505D01*
G37*
G36*
X39521508Y-17289505D02*
G01*
X39528523Y-17291633D01*
X39534989Y-17295090D01*
X39545423Y-17303652D01*
X39767260Y-17525489D01*
X39775822Y-17535923D01*
X39779279Y-17542390D01*
X39783810Y-17557326D01*
X39793187Y-17579965D01*
X39806801Y-17600339D01*
X39824128Y-17617666D01*
X39844503Y-17631280D01*
X39867140Y-17640656D01*
X39882076Y-17645187D01*
X39888543Y-17648644D01*
X39898977Y-17657206D01*
X40120814Y-17879043D01*
X40129376Y-17889477D01*
X40132833Y-17895943D01*
X40137364Y-17910880D01*
X40146742Y-17933519D01*
X40160356Y-17953893D01*
X40177683Y-17971220D01*
X40198058Y-17984833D01*
X40220693Y-17994209D01*
X40235630Y-17998740D01*
X40242096Y-18002197D01*
X40252530Y-18010759D01*
X40474367Y-18232596D01*
X40482929Y-18243030D01*
X40486386Y-18249497D01*
X40490917Y-18264433D01*
X40500294Y-18287072D01*
X40513908Y-18307446D01*
X40531235Y-18324773D01*
X40551610Y-18338387D01*
X40574247Y-18347763D01*
X40589183Y-18352294D01*
X40595650Y-18355751D01*
X40606084Y-18364313D01*
X40827921Y-18586150D01*
X40836483Y-18596584D01*
X40839940Y-18603050D01*
X40844471Y-18617987D01*
X40853849Y-18640626D01*
X40867463Y-18661000D01*
X40884790Y-18678327D01*
X40905165Y-18691940D01*
X40927800Y-18701316D01*
X40942737Y-18705847D01*
X40949203Y-18709304D01*
X40959637Y-18717866D01*
X41181474Y-18939703D01*
X41190036Y-18950137D01*
X41193493Y-18956603D01*
X41198024Y-18971540D01*
X41207402Y-18994179D01*
X41221016Y-19014553D01*
X41238343Y-19031880D01*
X41258718Y-19045493D01*
X41281353Y-19054869D01*
X41296290Y-19059400D01*
X41302756Y-19062857D01*
X41313190Y-19071419D01*
X41535027Y-19293256D01*
X41543589Y-19303690D01*
X41547046Y-19310157D01*
X41551577Y-19325093D01*
X41560954Y-19347732D01*
X41574568Y-19368106D01*
X41591895Y-19385433D01*
X41612270Y-19399047D01*
X41634907Y-19408423D01*
X41649843Y-19412954D01*
X41656310Y-19416411D01*
X41666744Y-19424973D01*
X41888581Y-19646810D01*
X41897143Y-19657244D01*
X41900600Y-19663710D01*
X41905131Y-19678647D01*
X41914509Y-19701286D01*
X41928123Y-19721660D01*
X41945450Y-19738987D01*
X41965825Y-19752600D01*
X41988460Y-19761976D01*
X42003397Y-19766507D01*
X42009863Y-19769964D01*
X42020297Y-19778526D01*
X42242134Y-20000363D01*
X42250696Y-20010797D01*
X42254153Y-20017263D01*
X42258684Y-20032200D01*
X42268062Y-20054839D01*
X42281676Y-20075213D01*
X42299003Y-20092540D01*
X42319378Y-20106153D01*
X42342013Y-20115529D01*
X42356950Y-20120060D01*
X42363416Y-20123517D01*
X42373850Y-20132079D01*
X42595687Y-20353916D01*
X42604249Y-20364350D01*
X42607706Y-20370817D01*
X42612237Y-20385753D01*
X42621614Y-20408392D01*
X42635228Y-20428766D01*
X42652555Y-20446093D01*
X42672930Y-20459707D01*
X42695567Y-20469083D01*
X42710503Y-20473614D01*
X42716970Y-20477071D01*
X42727404Y-20485633D01*
X42949241Y-20707470D01*
X42957803Y-20717904D01*
X42961260Y-20724370D01*
X42965791Y-20739307D01*
X42975169Y-20761946D01*
X42988783Y-20782320D01*
X43006110Y-20799647D01*
X43026485Y-20813260D01*
X43049120Y-20822636D01*
X43064057Y-20827167D01*
X43070523Y-20830624D01*
X43080957Y-20839186D01*
X43302794Y-21061023D01*
X43311356Y-21071457D01*
X43314813Y-21077924D01*
X43319344Y-21092860D01*
X43328721Y-21115499D01*
X43342335Y-21135873D01*
X43359662Y-21153200D01*
X43380037Y-21166814D01*
X43402674Y-21176190D01*
X43417610Y-21180721D01*
X43424077Y-21184178D01*
X43434511Y-21192740D01*
X43656348Y-21414577D01*
X43664910Y-21425011D01*
X43668367Y-21431477D01*
X43670495Y-21438492D01*
X43671213Y-21445787D01*
X43670495Y-21453082D01*
X43668367Y-21460097D01*
X43664910Y-21466563D01*
X43656348Y-21476997D01*
X42603661Y-22529684D01*
X42593227Y-22538246D01*
X42586761Y-22541703D01*
X42579746Y-22543831D01*
X42572451Y-22544549D01*
X42565156Y-22543831D01*
X42558141Y-22541703D01*
X42551675Y-22538246D01*
X42541241Y-22529684D01*
X42319404Y-22307847D01*
X42310842Y-22297413D01*
X42307385Y-22290946D01*
X42302854Y-22276010D01*
X42293477Y-22253371D01*
X42279863Y-22232997D01*
X42262536Y-22215670D01*
X42242161Y-22202056D01*
X42219524Y-22192680D01*
X42204588Y-22188149D01*
X42198121Y-22184692D01*
X42187687Y-22176130D01*
X41965850Y-21954293D01*
X41957288Y-21943859D01*
X41953831Y-21937393D01*
X41949300Y-21922456D01*
X41939922Y-21899817D01*
X41926308Y-21879443D01*
X41908981Y-21862116D01*
X41888606Y-21848503D01*
X41865971Y-21839127D01*
X41851034Y-21834596D01*
X41844568Y-21831139D01*
X41834134Y-21822577D01*
X41612297Y-21600740D01*
X41603735Y-21590306D01*
X41600278Y-21583839D01*
X41595747Y-21568903D01*
X41586370Y-21546264D01*
X41572756Y-21525890D01*
X41555429Y-21508563D01*
X41535054Y-21494949D01*
X41512417Y-21485573D01*
X41497481Y-21481042D01*
X41491014Y-21477585D01*
X41480580Y-21469023D01*
X41258743Y-21247186D01*
X41250181Y-21236752D01*
X41246724Y-21230286D01*
X41242193Y-21215349D01*
X41232815Y-21192710D01*
X41219201Y-21172336D01*
X41201874Y-21155009D01*
X41181499Y-21141396D01*
X41158864Y-21132020D01*
X41143927Y-21127489D01*
X41137461Y-21124032D01*
X41127027Y-21115470D01*
X40905190Y-20893633D01*
X40896628Y-20883199D01*
X40893171Y-20876733D01*
X40888640Y-20861796D01*
X40879262Y-20839157D01*
X40865648Y-20818783D01*
X40848321Y-20801456D01*
X40827946Y-20787843D01*
X40805311Y-20778467D01*
X40790374Y-20773936D01*
X40783908Y-20770479D01*
X40773474Y-20761917D01*
X40551637Y-20540080D01*
X40543075Y-20529646D01*
X40539618Y-20523179D01*
X40535087Y-20508243D01*
X40525710Y-20485604D01*
X40512096Y-20465230D01*
X40494769Y-20447903D01*
X40474394Y-20434289D01*
X40451757Y-20424913D01*
X40436821Y-20420382D01*
X40430354Y-20416925D01*
X40419920Y-20408363D01*
X40198083Y-20186526D01*
X40189521Y-20176092D01*
X40186064Y-20169626D01*
X40181533Y-20154689D01*
X40172155Y-20132050D01*
X40158541Y-20111676D01*
X40141214Y-20094349D01*
X40120839Y-20080736D01*
X40098204Y-20071360D01*
X40083267Y-20066829D01*
X40076801Y-20063372D01*
X40066367Y-20054810D01*
X39844530Y-19832973D01*
X39835968Y-19822539D01*
X39832511Y-19816073D01*
X39827980Y-19801136D01*
X39818602Y-19778497D01*
X39804988Y-19758123D01*
X39787661Y-19740796D01*
X39767286Y-19727183D01*
X39744651Y-19717807D01*
X39729714Y-19713276D01*
X39723248Y-19709819D01*
X39712814Y-19701257D01*
X39490977Y-19479420D01*
X39482415Y-19468986D01*
X39478958Y-19462519D01*
X39474427Y-19447583D01*
X39465050Y-19424944D01*
X39451436Y-19404570D01*
X39434109Y-19387243D01*
X39413734Y-19373629D01*
X39391097Y-19364253D01*
X39376161Y-19359722D01*
X39369694Y-19356265D01*
X39359260Y-19347703D01*
X39137423Y-19125866D01*
X39128861Y-19115432D01*
X39125404Y-19108966D01*
X39120873Y-19094029D01*
X39111495Y-19071390D01*
X39097881Y-19051016D01*
X39080554Y-19033689D01*
X39060179Y-19020076D01*
X39037544Y-19010700D01*
X39022607Y-19006169D01*
X39016141Y-19002712D01*
X39005707Y-18994150D01*
X38783870Y-18772313D01*
X38775308Y-18761879D01*
X38771851Y-18755412D01*
X38767320Y-18740476D01*
X38757943Y-18717837D01*
X38744329Y-18697463D01*
X38727002Y-18680136D01*
X38706627Y-18666522D01*
X38683990Y-18657146D01*
X38669054Y-18652615D01*
X38662587Y-18649158D01*
X38652153Y-18640596D01*
X38430316Y-18418759D01*
X38421754Y-18408325D01*
X38418297Y-18401859D01*
X38416169Y-18394844D01*
X38415451Y-18387549D01*
X38416169Y-18380254D01*
X38418297Y-18373239D01*
X38421754Y-18366773D01*
X38430316Y-18356339D01*
X39483003Y-17303652D01*
X39493437Y-17295090D01*
X39499903Y-17291633D01*
X39506918Y-17289505D01*
X39514213Y-17288787D01*
X39521508Y-17289505D01*
X39521508Y-17289505D01*
G37*
G36*
X63848568Y-20695519D02*
G01*
X63914752Y-20702037D01*
X64084591Y-20753557D01*
X64241116Y-20837222D01*
X64247932Y-20842816D01*
X64378311Y-20949814D01*
X64461573Y-21051271D01*
X64490903Y-21087009D01*
X64490904Y-21087011D01*
X64574567Y-21243531D01*
X64574568Y-21243534D01*
X64626088Y-21413373D01*
X64643484Y-21590000D01*
X64626088Y-21766627D01*
X64574568Y-21936466D01*
X64490903Y-22092991D01*
X64461573Y-22128729D01*
X64378311Y-22230186D01*
X64296393Y-22297413D01*
X64241116Y-22342778D01*
X64084591Y-22426443D01*
X63914752Y-22477963D01*
X63848567Y-22484482D01*
X63782385Y-22491000D01*
X63693865Y-22491000D01*
X63627683Y-22484482D01*
X63561498Y-22477963D01*
X63391659Y-22426443D01*
X63235134Y-22342778D01*
X63179857Y-22297413D01*
X63097939Y-22230186D01*
X63014677Y-22128729D01*
X62985347Y-22092991D01*
X62901682Y-21936466D01*
X62850162Y-21766627D01*
X62832766Y-21590000D01*
X62850162Y-21413373D01*
X62901682Y-21243534D01*
X62901683Y-21243531D01*
X62985346Y-21087011D01*
X62985347Y-21087009D01*
X63014677Y-21051271D01*
X63097939Y-20949814D01*
X63228318Y-20842816D01*
X63235134Y-20837222D01*
X63391659Y-20753557D01*
X63561498Y-20702037D01*
X63627683Y-20695518D01*
X63693865Y-20689000D01*
X63782385Y-20689000D01*
X63848568Y-20695519D01*
X63848568Y-20695519D01*
G37*
G36*
X50951000Y-22351000D02*
G01*
X49049000Y-22351000D01*
X49049000Y-20149000D01*
X50951000Y-20149000D01*
X50951000Y-22351000D01*
X50951000Y-22351000D01*
G37*
G36*
X48651000Y-22351000D02*
G01*
X46749000Y-22351000D01*
X46749000Y-20149000D01*
X48651000Y-20149000D01*
X48651000Y-22351000D01*
X48651000Y-22351000D01*
G37*
G36*
X26520630Y-19424946D02*
G01*
X26592627Y-19432037D01*
X26762466Y-19483557D01*
X26918991Y-19567222D01*
X26945130Y-19588674D01*
X27056186Y-19679814D01*
X27126012Y-19764899D01*
X27168778Y-19817009D01*
X27252443Y-19973534D01*
X27303963Y-20143373D01*
X27321359Y-20320000D01*
X27303963Y-20496627D01*
X27252443Y-20666466D01*
X27168778Y-20822991D01*
X27155487Y-20839186D01*
X27056186Y-20960186D01*
X26963320Y-21036398D01*
X26918991Y-21072778D01*
X26872923Y-21097402D01*
X26778135Y-21148068D01*
X26762466Y-21156443D01*
X26592627Y-21207963D01*
X26526442Y-21214482D01*
X26460260Y-21221000D01*
X26371740Y-21221000D01*
X26305558Y-21214482D01*
X26239373Y-21207963D01*
X26069534Y-21156443D01*
X26053866Y-21148068D01*
X25959077Y-21097402D01*
X25913009Y-21072778D01*
X25868680Y-21036398D01*
X25775814Y-20960186D01*
X25676513Y-20839186D01*
X25663222Y-20822991D01*
X25579557Y-20666466D01*
X25528037Y-20496627D01*
X25510641Y-20320000D01*
X25528037Y-20143373D01*
X25579557Y-19973534D01*
X25663222Y-19817009D01*
X25705988Y-19764899D01*
X25775814Y-19679814D01*
X25886870Y-19588674D01*
X25913009Y-19567222D01*
X26069534Y-19483557D01*
X26239373Y-19432037D01*
X26311370Y-19424946D01*
X26371740Y-19419000D01*
X26460260Y-19419000D01*
X26520630Y-19424946D01*
X26520630Y-19424946D01*
G37*
G36*
X23980630Y-19424946D02*
G01*
X24052627Y-19432037D01*
X24222466Y-19483557D01*
X24378991Y-19567222D01*
X24405130Y-19588674D01*
X24516186Y-19679814D01*
X24586012Y-19764899D01*
X24628778Y-19817009D01*
X24712443Y-19973534D01*
X24763963Y-20143373D01*
X24781359Y-20320000D01*
X24763963Y-20496627D01*
X24712443Y-20666466D01*
X24628778Y-20822991D01*
X24615487Y-20839186D01*
X24516186Y-20960186D01*
X24423320Y-21036398D01*
X24378991Y-21072778D01*
X24332923Y-21097402D01*
X24238135Y-21148068D01*
X24222466Y-21156443D01*
X24052627Y-21207963D01*
X23986442Y-21214482D01*
X23920260Y-21221000D01*
X23831740Y-21221000D01*
X23765558Y-21214482D01*
X23699373Y-21207963D01*
X23529534Y-21156443D01*
X23513866Y-21148068D01*
X23419077Y-21097402D01*
X23373009Y-21072778D01*
X23328680Y-21036398D01*
X23235814Y-20960186D01*
X23136513Y-20839186D01*
X23123222Y-20822991D01*
X23039557Y-20666466D01*
X22988037Y-20496627D01*
X22970641Y-20320000D01*
X22988037Y-20143373D01*
X23039557Y-19973534D01*
X23123222Y-19817009D01*
X23165988Y-19764899D01*
X23235814Y-19679814D01*
X23346870Y-19588674D01*
X23373009Y-19567222D01*
X23529534Y-19483557D01*
X23699373Y-19432037D01*
X23771370Y-19424946D01*
X23831740Y-19419000D01*
X23920260Y-19419000D01*
X23980630Y-19424946D01*
X23980630Y-19424946D01*
G37*
G36*
X29060630Y-19424946D02*
G01*
X29132627Y-19432037D01*
X29302466Y-19483557D01*
X29458991Y-19567222D01*
X29485130Y-19588674D01*
X29596186Y-19679814D01*
X29666012Y-19764899D01*
X29708778Y-19817009D01*
X29792443Y-19973534D01*
X29843963Y-20143373D01*
X29861359Y-20320000D01*
X29843963Y-20496627D01*
X29792443Y-20666466D01*
X29708778Y-20822991D01*
X29695487Y-20839186D01*
X29596186Y-20960186D01*
X29503320Y-21036398D01*
X29458991Y-21072778D01*
X29412923Y-21097402D01*
X29318135Y-21148068D01*
X29302466Y-21156443D01*
X29132627Y-21207963D01*
X29066442Y-21214482D01*
X29000260Y-21221000D01*
X28911740Y-21221000D01*
X28845558Y-21214482D01*
X28779373Y-21207963D01*
X28609534Y-21156443D01*
X28593866Y-21148068D01*
X28499077Y-21097402D01*
X28453009Y-21072778D01*
X28408680Y-21036398D01*
X28315814Y-20960186D01*
X28216513Y-20839186D01*
X28203222Y-20822991D01*
X28119557Y-20666466D01*
X28068037Y-20496627D01*
X28050641Y-20320000D01*
X28068037Y-20143373D01*
X28119557Y-19973534D01*
X28203222Y-19817009D01*
X28245988Y-19764899D01*
X28315814Y-19679814D01*
X28426870Y-19588674D01*
X28453009Y-19567222D01*
X28609534Y-19483557D01*
X28779373Y-19432037D01*
X28851370Y-19424946D01*
X28911740Y-19419000D01*
X29000260Y-19419000D01*
X29060630Y-19424946D01*
X29060630Y-19424946D01*
G37*
G36*
X52817424Y-19753465D02*
G01*
X52855117Y-19764899D01*
X52889853Y-19783466D01*
X52920298Y-19808452D01*
X52945284Y-19838897D01*
X52963851Y-19873633D01*
X52975285Y-19911326D01*
X52979750Y-19956661D01*
X52979750Y-20793339D01*
X52975285Y-20838674D01*
X52963851Y-20876367D01*
X52945284Y-20911103D01*
X52920298Y-20941548D01*
X52889853Y-20966534D01*
X52855117Y-20985101D01*
X52817424Y-20996535D01*
X52772089Y-21001000D01*
X51685411Y-21001000D01*
X51640076Y-20996535D01*
X51602383Y-20985101D01*
X51567647Y-20966534D01*
X51537202Y-20941548D01*
X51512216Y-20911103D01*
X51493649Y-20876367D01*
X51482215Y-20838674D01*
X51477750Y-20793339D01*
X51477750Y-19956661D01*
X51482215Y-19911326D01*
X51493649Y-19873633D01*
X51512216Y-19838897D01*
X51537202Y-19808452D01*
X51567647Y-19783466D01*
X51602383Y-19764899D01*
X51640076Y-19753465D01*
X51685411Y-19749000D01*
X52772089Y-19749000D01*
X52817424Y-19753465D01*
X52817424Y-19753465D01*
G37*
G36*
X17641043Y-19464292D02*
G01*
X17687552Y-19483557D01*
X17727670Y-19500174D01*
X17805632Y-19552267D01*
X17871933Y-19618568D01*
X17924026Y-19696530D01*
X17929530Y-19709819D01*
X17959908Y-19783157D01*
X17978200Y-19875117D01*
X17978200Y-19968883D01*
X17959908Y-20060843D01*
X17946029Y-20094349D01*
X17924026Y-20147470D01*
X17871933Y-20225432D01*
X17805632Y-20291733D01*
X17727670Y-20343826D01*
X17703310Y-20353916D01*
X17641043Y-20379708D01*
X17549083Y-20398000D01*
X17455317Y-20398000D01*
X17363357Y-20379708D01*
X17301090Y-20353916D01*
X17276730Y-20343826D01*
X17198768Y-20291733D01*
X17132467Y-20225432D01*
X17080374Y-20147470D01*
X17058371Y-20094349D01*
X17044492Y-20060843D01*
X17026200Y-19968883D01*
X17026200Y-19875117D01*
X17044492Y-19783157D01*
X17074870Y-19709819D01*
X17080374Y-19696530D01*
X17132467Y-19618568D01*
X17198768Y-19552267D01*
X17276730Y-19500174D01*
X17316848Y-19483557D01*
X17363357Y-19464292D01*
X17455317Y-19446000D01*
X17549083Y-19446000D01*
X17641043Y-19464292D01*
X17641043Y-19464292D01*
G37*
G36*
X63848567Y-18155518D02*
G01*
X63914752Y-18162037D01*
X64084591Y-18213557D01*
X64084593Y-18213558D01*
X64159253Y-18253465D01*
X64241116Y-18297222D01*
X64274687Y-18324773D01*
X64378311Y-18409814D01*
X64445758Y-18492000D01*
X64490903Y-18547009D01*
X64490904Y-18547011D01*
X64573383Y-18701316D01*
X64574568Y-18703534D01*
X64626088Y-18873373D01*
X64643484Y-19050000D01*
X64626088Y-19226627D01*
X64577365Y-19387244D01*
X64574567Y-19396468D01*
X64565755Y-19412954D01*
X64490903Y-19552991D01*
X64466289Y-19582983D01*
X64378311Y-19690186D01*
X64281100Y-19769964D01*
X64241116Y-19802778D01*
X64241114Y-19802779D01*
X64105779Y-19875118D01*
X64084591Y-19886443D01*
X63914752Y-19937963D01*
X63848567Y-19944482D01*
X63782385Y-19951000D01*
X63693865Y-19951000D01*
X63627683Y-19944482D01*
X63561498Y-19937963D01*
X63391659Y-19886443D01*
X63370472Y-19875118D01*
X63235136Y-19802779D01*
X63235134Y-19802778D01*
X63195150Y-19769964D01*
X63097939Y-19690186D01*
X63009961Y-19582983D01*
X62985347Y-19552991D01*
X62910495Y-19412954D01*
X62901683Y-19396468D01*
X62898885Y-19387244D01*
X62850162Y-19226627D01*
X62832766Y-19050000D01*
X62850162Y-18873373D01*
X62901682Y-18703534D01*
X62902868Y-18701316D01*
X62985346Y-18547011D01*
X62985347Y-18547009D01*
X63030492Y-18492000D01*
X63097939Y-18409814D01*
X63201563Y-18324773D01*
X63235134Y-18297222D01*
X63316997Y-18253465D01*
X63391657Y-18213558D01*
X63391659Y-18213557D01*
X63561498Y-18162037D01*
X63627683Y-18155518D01*
X63693865Y-18149000D01*
X63782385Y-18149000D01*
X63848567Y-18155518D01*
X63848567Y-18155518D01*
G37*
G36*
X59513674Y-18253465D02*
G01*
X59551367Y-18264899D01*
X59586103Y-18283466D01*
X59616548Y-18308452D01*
X59641534Y-18338897D01*
X59660101Y-18373633D01*
X59671535Y-18411326D01*
X59676000Y-18456661D01*
X59676000Y-19543339D01*
X59671535Y-19588674D01*
X59660101Y-19626367D01*
X59641534Y-19661103D01*
X59616548Y-19691548D01*
X59586103Y-19716534D01*
X59551367Y-19735101D01*
X59513674Y-19746535D01*
X59468339Y-19751000D01*
X58631661Y-19751000D01*
X58586326Y-19746535D01*
X58548633Y-19735101D01*
X58513897Y-19716534D01*
X58483452Y-19691548D01*
X58458466Y-19661103D01*
X58439899Y-19626367D01*
X58428465Y-19588674D01*
X58424000Y-19543339D01*
X58424000Y-18456661D01*
X58428465Y-18411326D01*
X58439899Y-18373633D01*
X58458466Y-18338897D01*
X58483452Y-18308452D01*
X58513897Y-18283466D01*
X58548633Y-18264899D01*
X58586326Y-18253465D01*
X58631661Y-18249000D01*
X59468339Y-18249000D01*
X59513674Y-18253465D01*
X59513674Y-18253465D01*
G37*
G36*
X57463674Y-18253465D02*
G01*
X57501367Y-18264899D01*
X57536103Y-18283466D01*
X57566548Y-18308452D01*
X57591534Y-18338897D01*
X57610101Y-18373633D01*
X57621535Y-18411326D01*
X57626000Y-18456661D01*
X57626000Y-19543339D01*
X57621535Y-19588674D01*
X57610101Y-19626367D01*
X57591534Y-19661103D01*
X57566548Y-19691548D01*
X57536103Y-19716534D01*
X57501367Y-19735101D01*
X57463674Y-19746535D01*
X57418339Y-19751000D01*
X56581661Y-19751000D01*
X56536326Y-19746535D01*
X56498633Y-19735101D01*
X56463897Y-19716534D01*
X56433452Y-19691548D01*
X56408466Y-19661103D01*
X56389899Y-19626367D01*
X56378465Y-19588674D01*
X56374000Y-19543339D01*
X56374000Y-18456661D01*
X56378465Y-18411326D01*
X56389899Y-18373633D01*
X56408466Y-18338897D01*
X56433452Y-18308452D01*
X56463897Y-18283466D01*
X56498633Y-18264899D01*
X56536326Y-18253465D01*
X56581661Y-18249000D01*
X57418339Y-18249000D01*
X57463674Y-18253465D01*
X57463674Y-18253465D01*
G37*
G36*
X50951000Y-19451000D02*
G01*
X49049000Y-19451000D01*
X49049000Y-17249000D01*
X50951000Y-17249000D01*
X50951000Y-19451000D01*
X50951000Y-19451000D01*
G37*
G36*
X48651000Y-19451000D02*
G01*
X46749000Y-19451000D01*
X46749000Y-17249000D01*
X48651000Y-17249000D01*
X48651000Y-19451000D01*
X48651000Y-19451000D01*
G37*
G36*
X14172485Y-17812617D02*
G01*
X14206079Y-17815926D01*
X14281994Y-17838954D01*
X14335395Y-17855153D01*
X14454564Y-17918851D01*
X14559023Y-18004577D01*
X14644749Y-18109036D01*
X14708447Y-18228205D01*
X14724646Y-18281606D01*
X14747674Y-18357521D01*
X14760919Y-18492000D01*
X14747674Y-18626479D01*
X14731397Y-18680136D01*
X14708447Y-18755795D01*
X14644749Y-18874964D01*
X14559023Y-18979423D01*
X14454564Y-19065149D01*
X14335395Y-19128847D01*
X14281994Y-19145046D01*
X14206079Y-19168074D01*
X14172485Y-19171383D01*
X14105300Y-19178000D01*
X13479100Y-19178000D01*
X13411915Y-19171383D01*
X13378321Y-19168074D01*
X13302406Y-19145046D01*
X13249005Y-19128847D01*
X13129836Y-19065149D01*
X13025377Y-18979423D01*
X12939651Y-18874964D01*
X12875953Y-18755795D01*
X12853003Y-18680136D01*
X12836726Y-18626479D01*
X12823481Y-18492000D01*
X12836726Y-18357521D01*
X12859754Y-18281606D01*
X12875953Y-18228205D01*
X12939651Y-18109036D01*
X13025377Y-18004577D01*
X13129836Y-17918851D01*
X13249005Y-17855153D01*
X13302406Y-17838954D01*
X13378321Y-17815926D01*
X13411915Y-17812617D01*
X13479100Y-17806000D01*
X14105300Y-17806000D01*
X14172485Y-17812617D01*
X14172485Y-17812617D01*
G37*
G36*
X52817424Y-17703465D02*
G01*
X52855117Y-17714899D01*
X52889853Y-17733466D01*
X52920298Y-17758452D01*
X52945284Y-17788897D01*
X52963851Y-17823633D01*
X52975285Y-17861326D01*
X52979750Y-17906661D01*
X52979750Y-18743339D01*
X52975285Y-18788674D01*
X52963851Y-18826367D01*
X52945284Y-18861103D01*
X52920298Y-18891548D01*
X52889853Y-18916534D01*
X52855117Y-18935101D01*
X52817424Y-18946535D01*
X52772089Y-18951000D01*
X51685411Y-18951000D01*
X51640076Y-18946535D01*
X51602383Y-18935101D01*
X51567647Y-18916534D01*
X51537202Y-18891548D01*
X51512216Y-18861103D01*
X51493649Y-18826367D01*
X51482215Y-18788674D01*
X51477750Y-18743339D01*
X51477750Y-17906661D01*
X51482215Y-17861326D01*
X51493649Y-17823633D01*
X51512216Y-17788897D01*
X51537202Y-17758452D01*
X51567647Y-17733466D01*
X51602383Y-17714899D01*
X51640076Y-17703465D01*
X51685411Y-17699000D01*
X52772089Y-17699000D01*
X52817424Y-17703465D01*
X52817424Y-17703465D01*
G37*
G36*
X15350443Y-14345519D02*
G01*
X15416627Y-14352037D01*
X15586466Y-14403557D01*
X15742991Y-14487222D01*
X15778729Y-14516552D01*
X15880186Y-14599814D01*
X15963448Y-14701271D01*
X15992778Y-14737009D01*
X16076443Y-14893534D01*
X16127963Y-15063373D01*
X16145359Y-15240000D01*
X16127963Y-15416627D01*
X16076443Y-15586466D01*
X15992778Y-15742991D01*
X15963448Y-15778729D01*
X15880186Y-15880186D01*
X15807480Y-15939853D01*
X15742991Y-15992778D01*
X15586466Y-16076443D01*
X15416627Y-16127963D01*
X15350443Y-16134481D01*
X15284260Y-16141000D01*
X15195740Y-16141000D01*
X15129557Y-16134481D01*
X15063373Y-16127963D01*
X14893534Y-16076443D01*
X14737009Y-15992778D01*
X14672520Y-15939853D01*
X14599814Y-15880186D01*
X14516552Y-15778729D01*
X14487222Y-15742991D01*
X14403557Y-15586466D01*
X14352037Y-15416627D01*
X14334641Y-15240000D01*
X14352037Y-15063373D01*
X14403557Y-14893534D01*
X14487222Y-14737009D01*
X14516552Y-14701271D01*
X14599814Y-14599814D01*
X14701271Y-14516552D01*
X14737009Y-14487222D01*
X14893534Y-14403557D01*
X15063373Y-14352037D01*
X15129557Y-14345519D01*
X15195740Y-14339000D01*
X15284260Y-14339000D01*
X15350443Y-14345519D01*
X15350443Y-14345519D01*
G37*
G36*
X17890443Y-14345519D02*
G01*
X17956627Y-14352037D01*
X18126466Y-14403557D01*
X18282991Y-14487222D01*
X18318729Y-14516552D01*
X18420186Y-14599814D01*
X18503448Y-14701271D01*
X18532778Y-14737009D01*
X18616443Y-14893534D01*
X18667963Y-15063373D01*
X18685359Y-15240000D01*
X18667963Y-15416627D01*
X18616443Y-15586466D01*
X18532778Y-15742991D01*
X18503448Y-15778729D01*
X18420186Y-15880186D01*
X18347480Y-15939853D01*
X18282991Y-15992778D01*
X18126466Y-16076443D01*
X17956627Y-16127963D01*
X17890443Y-16134481D01*
X17824260Y-16141000D01*
X17735740Y-16141000D01*
X17669557Y-16134481D01*
X17603373Y-16127963D01*
X17433534Y-16076443D01*
X17277009Y-15992778D01*
X17212520Y-15939853D01*
X17139814Y-15880186D01*
X17056552Y-15778729D01*
X17027222Y-15742991D01*
X16943557Y-15586466D01*
X16892037Y-15416627D01*
X16874641Y-15240000D01*
X16892037Y-15063373D01*
X16943557Y-14893534D01*
X17027222Y-14737009D01*
X17056552Y-14701271D01*
X17139814Y-14599814D01*
X17241271Y-14516552D01*
X17277009Y-14487222D01*
X17433534Y-14403557D01*
X17603373Y-14352037D01*
X17669557Y-14345519D01*
X17735740Y-14339000D01*
X17824260Y-14339000D01*
X17890443Y-14345519D01*
X17890443Y-14345519D01*
G37*
G36*
X20430443Y-14345519D02*
G01*
X20496627Y-14352037D01*
X20666466Y-14403557D01*
X20822991Y-14487222D01*
X20858729Y-14516552D01*
X20960186Y-14599814D01*
X21043448Y-14701271D01*
X21072778Y-14737009D01*
X21156443Y-14893534D01*
X21207963Y-15063373D01*
X21225359Y-15240000D01*
X21207963Y-15416627D01*
X21156443Y-15586466D01*
X21072778Y-15742991D01*
X21043448Y-15778729D01*
X20960186Y-15880186D01*
X20887480Y-15939853D01*
X20822991Y-15992778D01*
X20666466Y-16076443D01*
X20496627Y-16127963D01*
X20430443Y-16134481D01*
X20364260Y-16141000D01*
X20275740Y-16141000D01*
X20209557Y-16134481D01*
X20143373Y-16127963D01*
X19973534Y-16076443D01*
X19817009Y-15992778D01*
X19752520Y-15939853D01*
X19679814Y-15880186D01*
X19596552Y-15778729D01*
X19567222Y-15742991D01*
X19483557Y-15586466D01*
X19432037Y-15416627D01*
X19414641Y-15240000D01*
X19432037Y-15063373D01*
X19483557Y-14893534D01*
X19567222Y-14737009D01*
X19596552Y-14701271D01*
X19679814Y-14599814D01*
X19781271Y-14516552D01*
X19817009Y-14487222D01*
X19973534Y-14403557D01*
X20143373Y-14352037D01*
X20209557Y-14345519D01*
X20275740Y-14339000D01*
X20364260Y-14339000D01*
X20430443Y-14345519D01*
X20430443Y-14345519D01*
G37*
G36*
X63613512Y-14343927D02*
G01*
X63762812Y-14373624D01*
X63926784Y-14441544D01*
X64074354Y-14540147D01*
X64199853Y-14665646D01*
X64298456Y-14813216D01*
X64366376Y-14977188D01*
X64401000Y-15151259D01*
X64401000Y-15328741D01*
X64366376Y-15502812D01*
X64298456Y-15666784D01*
X64199853Y-15814354D01*
X64074354Y-15939853D01*
X63926784Y-16038456D01*
X63762812Y-16106376D01*
X63613512Y-16136073D01*
X63588742Y-16141000D01*
X63411258Y-16141000D01*
X63386488Y-16136073D01*
X63237188Y-16106376D01*
X63073216Y-16038456D01*
X62925646Y-15939853D01*
X62800147Y-15814354D01*
X62701544Y-15666784D01*
X62633624Y-15502812D01*
X62599000Y-15328741D01*
X62599000Y-15151259D01*
X62633624Y-14977188D01*
X62701544Y-14813216D01*
X62800147Y-14665646D01*
X62925646Y-14540147D01*
X63073216Y-14441544D01*
X63237188Y-14373624D01*
X63386488Y-14343927D01*
X63411258Y-14339000D01*
X63588742Y-14339000D01*
X63613512Y-14343927D01*
X63613512Y-14343927D01*
G37*
G36*
X61070443Y-14345519D02*
G01*
X61136627Y-14352037D01*
X61306466Y-14403557D01*
X61462991Y-14487222D01*
X61498729Y-14516552D01*
X61600186Y-14599814D01*
X61683448Y-14701271D01*
X61712778Y-14737009D01*
X61796443Y-14893534D01*
X61847963Y-15063373D01*
X61865359Y-15240000D01*
X61847963Y-15416627D01*
X61796443Y-15586466D01*
X61712778Y-15742991D01*
X61683448Y-15778729D01*
X61600186Y-15880186D01*
X61527480Y-15939853D01*
X61462991Y-15992778D01*
X61306466Y-16076443D01*
X61136627Y-16127963D01*
X61070443Y-16134481D01*
X61004260Y-16141000D01*
X60915740Y-16141000D01*
X60849557Y-16134481D01*
X60783373Y-16127963D01*
X60613534Y-16076443D01*
X60457009Y-15992778D01*
X60392520Y-15939853D01*
X60319814Y-15880186D01*
X60236552Y-15778729D01*
X60207222Y-15742991D01*
X60123557Y-15586466D01*
X60072037Y-15416627D01*
X60054641Y-15240000D01*
X60072037Y-15063373D01*
X60123557Y-14893534D01*
X60207222Y-14737009D01*
X60236552Y-14701271D01*
X60319814Y-14599814D01*
X60421271Y-14516552D01*
X60457009Y-14487222D01*
X60613534Y-14403557D01*
X60783373Y-14352037D01*
X60849557Y-14345519D01*
X60915740Y-14339000D01*
X61004260Y-14339000D01*
X61070443Y-14345519D01*
X61070443Y-14345519D01*
G37*
G36*
X58530443Y-14345519D02*
G01*
X58596627Y-14352037D01*
X58766466Y-14403557D01*
X58922991Y-14487222D01*
X58958729Y-14516552D01*
X59060186Y-14599814D01*
X59143448Y-14701271D01*
X59172778Y-14737009D01*
X59256443Y-14893534D01*
X59307963Y-15063373D01*
X59325359Y-15240000D01*
X59307963Y-15416627D01*
X59256443Y-15586466D01*
X59172778Y-15742991D01*
X59143448Y-15778729D01*
X59060186Y-15880186D01*
X58987480Y-15939853D01*
X58922991Y-15992778D01*
X58766466Y-16076443D01*
X58596627Y-16127963D01*
X58530443Y-16134481D01*
X58464260Y-16141000D01*
X58375740Y-16141000D01*
X58309557Y-16134481D01*
X58243373Y-16127963D01*
X58073534Y-16076443D01*
X57917009Y-15992778D01*
X57852520Y-15939853D01*
X57779814Y-15880186D01*
X57696552Y-15778729D01*
X57667222Y-15742991D01*
X57583557Y-15586466D01*
X57532037Y-15416627D01*
X57514641Y-15240000D01*
X57532037Y-15063373D01*
X57583557Y-14893534D01*
X57667222Y-14737009D01*
X57696552Y-14701271D01*
X57779814Y-14599814D01*
X57881271Y-14516552D01*
X57917009Y-14487222D01*
X58073534Y-14403557D01*
X58243373Y-14352037D01*
X58309557Y-14345519D01*
X58375740Y-14339000D01*
X58464260Y-14339000D01*
X58530443Y-14345519D01*
X58530443Y-14345519D01*
G37*
G36*
X22970443Y-14345519D02*
G01*
X23036627Y-14352037D01*
X23206466Y-14403557D01*
X23362991Y-14487222D01*
X23398729Y-14516552D01*
X23500186Y-14599814D01*
X23583448Y-14701271D01*
X23612778Y-14737009D01*
X23696443Y-14893534D01*
X23747963Y-15063373D01*
X23765359Y-15240000D01*
X23747963Y-15416627D01*
X23696443Y-15586466D01*
X23612778Y-15742991D01*
X23583448Y-15778729D01*
X23500186Y-15880186D01*
X23427480Y-15939853D01*
X23362991Y-15992778D01*
X23206466Y-16076443D01*
X23036627Y-16127963D01*
X22970443Y-16134481D01*
X22904260Y-16141000D01*
X22815740Y-16141000D01*
X22749557Y-16134481D01*
X22683373Y-16127963D01*
X22513534Y-16076443D01*
X22357009Y-15992778D01*
X22292520Y-15939853D01*
X22219814Y-15880186D01*
X22136552Y-15778729D01*
X22107222Y-15742991D01*
X22023557Y-15586466D01*
X21972037Y-15416627D01*
X21954641Y-15240000D01*
X21972037Y-15063373D01*
X22023557Y-14893534D01*
X22107222Y-14737009D01*
X22136552Y-14701271D01*
X22219814Y-14599814D01*
X22321271Y-14516552D01*
X22357009Y-14487222D01*
X22513534Y-14403557D01*
X22683373Y-14352037D01*
X22749557Y-14345519D01*
X22815740Y-14339000D01*
X22904260Y-14339000D01*
X22970443Y-14345519D01*
X22970443Y-14345519D01*
G37*
G36*
X40750443Y-14345519D02*
G01*
X40816627Y-14352037D01*
X40986466Y-14403557D01*
X41142991Y-14487222D01*
X41178729Y-14516552D01*
X41280186Y-14599814D01*
X41363448Y-14701271D01*
X41392778Y-14737009D01*
X41476443Y-14893534D01*
X41527963Y-15063373D01*
X41545359Y-15240000D01*
X41527963Y-15416627D01*
X41476443Y-15586466D01*
X41392778Y-15742991D01*
X41363448Y-15778729D01*
X41280186Y-15880186D01*
X41207480Y-15939853D01*
X41142991Y-15992778D01*
X40986466Y-16076443D01*
X40816627Y-16127963D01*
X40750443Y-16134481D01*
X40684260Y-16141000D01*
X40595740Y-16141000D01*
X40529557Y-16134481D01*
X40463373Y-16127963D01*
X40293534Y-16076443D01*
X40137009Y-15992778D01*
X40072520Y-15939853D01*
X39999814Y-15880186D01*
X39916552Y-15778729D01*
X39887222Y-15742991D01*
X39803557Y-15586466D01*
X39752037Y-15416627D01*
X39734641Y-15240000D01*
X39752037Y-15063373D01*
X39803557Y-14893534D01*
X39887222Y-14737009D01*
X39916552Y-14701271D01*
X39999814Y-14599814D01*
X40101271Y-14516552D01*
X40137009Y-14487222D01*
X40293534Y-14403557D01*
X40463373Y-14352037D01*
X40529557Y-14345519D01*
X40595740Y-14339000D01*
X40684260Y-14339000D01*
X40750443Y-14345519D01*
X40750443Y-14345519D01*
G37*
G36*
X25510443Y-14345519D02*
G01*
X25576627Y-14352037D01*
X25746466Y-14403557D01*
X25902991Y-14487222D01*
X25938729Y-14516552D01*
X26040186Y-14599814D01*
X26123448Y-14701271D01*
X26152778Y-14737009D01*
X26236443Y-14893534D01*
X26287963Y-15063373D01*
X26305359Y-15240000D01*
X26287963Y-15416627D01*
X26236443Y-15586466D01*
X26152778Y-15742991D01*
X26123448Y-15778729D01*
X26040186Y-15880186D01*
X25967480Y-15939853D01*
X25902991Y-15992778D01*
X25746466Y-16076443D01*
X25576627Y-16127963D01*
X25510443Y-16134481D01*
X25444260Y-16141000D01*
X25355740Y-16141000D01*
X25289557Y-16134481D01*
X25223373Y-16127963D01*
X25053534Y-16076443D01*
X24897009Y-15992778D01*
X24832520Y-15939853D01*
X24759814Y-15880186D01*
X24676552Y-15778729D01*
X24647222Y-15742991D01*
X24563557Y-15586466D01*
X24512037Y-15416627D01*
X24494641Y-15240000D01*
X24512037Y-15063373D01*
X24563557Y-14893534D01*
X24647222Y-14737009D01*
X24676552Y-14701271D01*
X24759814Y-14599814D01*
X24861271Y-14516552D01*
X24897009Y-14487222D01*
X25053534Y-14403557D01*
X25223373Y-14352037D01*
X25289557Y-14345519D01*
X25355740Y-14339000D01*
X25444260Y-14339000D01*
X25510443Y-14345519D01*
X25510443Y-14345519D01*
G37*
G36*
X28050443Y-14345519D02*
G01*
X28116627Y-14352037D01*
X28286466Y-14403557D01*
X28442991Y-14487222D01*
X28478729Y-14516552D01*
X28580186Y-14599814D01*
X28663448Y-14701271D01*
X28692778Y-14737009D01*
X28776443Y-14893534D01*
X28827963Y-15063373D01*
X28845359Y-15240000D01*
X28827963Y-15416627D01*
X28776443Y-15586466D01*
X28692778Y-15742991D01*
X28663448Y-15778729D01*
X28580186Y-15880186D01*
X28507480Y-15939853D01*
X28442991Y-15992778D01*
X28286466Y-16076443D01*
X28116627Y-16127963D01*
X28050443Y-16134481D01*
X27984260Y-16141000D01*
X27895740Y-16141000D01*
X27829557Y-16134481D01*
X27763373Y-16127963D01*
X27593534Y-16076443D01*
X27437009Y-15992778D01*
X27372520Y-15939853D01*
X27299814Y-15880186D01*
X27216552Y-15778729D01*
X27187222Y-15742991D01*
X27103557Y-15586466D01*
X27052037Y-15416627D01*
X27034641Y-15240000D01*
X27052037Y-15063373D01*
X27103557Y-14893534D01*
X27187222Y-14737009D01*
X27216552Y-14701271D01*
X27299814Y-14599814D01*
X27401271Y-14516552D01*
X27437009Y-14487222D01*
X27593534Y-14403557D01*
X27763373Y-14352037D01*
X27829557Y-14345519D01*
X27895740Y-14339000D01*
X27984260Y-14339000D01*
X28050443Y-14345519D01*
X28050443Y-14345519D01*
G37*
G36*
X55990443Y-14345519D02*
G01*
X56056627Y-14352037D01*
X56226466Y-14403557D01*
X56382991Y-14487222D01*
X56418729Y-14516552D01*
X56520186Y-14599814D01*
X56603448Y-14701271D01*
X56632778Y-14737009D01*
X56716443Y-14893534D01*
X56767963Y-15063373D01*
X56785359Y-15240000D01*
X56767963Y-15416627D01*
X56716443Y-15586466D01*
X56632778Y-15742991D01*
X56603448Y-15778729D01*
X56520186Y-15880186D01*
X56447480Y-15939853D01*
X56382991Y-15992778D01*
X56226466Y-16076443D01*
X56056627Y-16127963D01*
X55990443Y-16134481D01*
X55924260Y-16141000D01*
X55835740Y-16141000D01*
X55769557Y-16134481D01*
X55703373Y-16127963D01*
X55533534Y-16076443D01*
X55377009Y-15992778D01*
X55312520Y-15939853D01*
X55239814Y-15880186D01*
X55156552Y-15778729D01*
X55127222Y-15742991D01*
X55043557Y-15586466D01*
X54992037Y-15416627D01*
X54974641Y-15240000D01*
X54992037Y-15063373D01*
X55043557Y-14893534D01*
X55127222Y-14737009D01*
X55156552Y-14701271D01*
X55239814Y-14599814D01*
X55341271Y-14516552D01*
X55377009Y-14487222D01*
X55533534Y-14403557D01*
X55703373Y-14352037D01*
X55769557Y-14345519D01*
X55835740Y-14339000D01*
X55924260Y-14339000D01*
X55990443Y-14345519D01*
X55990443Y-14345519D01*
G37*
G36*
X53450443Y-14345519D02*
G01*
X53516627Y-14352037D01*
X53686466Y-14403557D01*
X53842991Y-14487222D01*
X53878729Y-14516552D01*
X53980186Y-14599814D01*
X54063448Y-14701271D01*
X54092778Y-14737009D01*
X54176443Y-14893534D01*
X54227963Y-15063373D01*
X54245359Y-15240000D01*
X54227963Y-15416627D01*
X54176443Y-15586466D01*
X54092778Y-15742991D01*
X54063448Y-15778729D01*
X53980186Y-15880186D01*
X53907480Y-15939853D01*
X53842991Y-15992778D01*
X53686466Y-16076443D01*
X53516627Y-16127963D01*
X53450443Y-16134481D01*
X53384260Y-16141000D01*
X53295740Y-16141000D01*
X53229557Y-16134481D01*
X53163373Y-16127963D01*
X52993534Y-16076443D01*
X52837009Y-15992778D01*
X52772520Y-15939853D01*
X52699814Y-15880186D01*
X52616552Y-15778729D01*
X52587222Y-15742991D01*
X52503557Y-15586466D01*
X52452037Y-15416627D01*
X52434641Y-15240000D01*
X52452037Y-15063373D01*
X52503557Y-14893534D01*
X52587222Y-14737009D01*
X52616552Y-14701271D01*
X52699814Y-14599814D01*
X52801271Y-14516552D01*
X52837009Y-14487222D01*
X52993534Y-14403557D01*
X53163373Y-14352037D01*
X53229557Y-14345519D01*
X53295740Y-14339000D01*
X53384260Y-14339000D01*
X53450443Y-14345519D01*
X53450443Y-14345519D01*
G37*
G36*
X30590443Y-14345519D02*
G01*
X30656627Y-14352037D01*
X30826466Y-14403557D01*
X30982991Y-14487222D01*
X31018729Y-14516552D01*
X31120186Y-14599814D01*
X31203448Y-14701271D01*
X31232778Y-14737009D01*
X31316443Y-14893534D01*
X31367963Y-15063373D01*
X31385359Y-15240000D01*
X31367963Y-15416627D01*
X31316443Y-15586466D01*
X31232778Y-15742991D01*
X31203448Y-15778729D01*
X31120186Y-15880186D01*
X31047480Y-15939853D01*
X30982991Y-15992778D01*
X30826466Y-16076443D01*
X30656627Y-16127963D01*
X30590443Y-16134481D01*
X30524260Y-16141000D01*
X30435740Y-16141000D01*
X30369557Y-16134481D01*
X30303373Y-16127963D01*
X30133534Y-16076443D01*
X29977009Y-15992778D01*
X29912520Y-15939853D01*
X29839814Y-15880186D01*
X29756552Y-15778729D01*
X29727222Y-15742991D01*
X29643557Y-15586466D01*
X29592037Y-15416627D01*
X29574641Y-15240000D01*
X29592037Y-15063373D01*
X29643557Y-14893534D01*
X29727222Y-14737009D01*
X29756552Y-14701271D01*
X29839814Y-14599814D01*
X29941271Y-14516552D01*
X29977009Y-14487222D01*
X30133534Y-14403557D01*
X30303373Y-14352037D01*
X30369557Y-14345519D01*
X30435740Y-14339000D01*
X30524260Y-14339000D01*
X30590443Y-14345519D01*
X30590443Y-14345519D01*
G37*
G36*
X33130443Y-14345519D02*
G01*
X33196627Y-14352037D01*
X33366466Y-14403557D01*
X33522991Y-14487222D01*
X33558729Y-14516552D01*
X33660186Y-14599814D01*
X33743448Y-14701271D01*
X33772778Y-14737009D01*
X33856443Y-14893534D01*
X33907963Y-15063373D01*
X33925359Y-15240000D01*
X33907963Y-15416627D01*
X33856443Y-15586466D01*
X33772778Y-15742991D01*
X33743448Y-15778729D01*
X33660186Y-15880186D01*
X33587480Y-15939853D01*
X33522991Y-15992778D01*
X33366466Y-16076443D01*
X33196627Y-16127963D01*
X33130443Y-16134481D01*
X33064260Y-16141000D01*
X32975740Y-16141000D01*
X32909557Y-16134481D01*
X32843373Y-16127963D01*
X32673534Y-16076443D01*
X32517009Y-15992778D01*
X32452520Y-15939853D01*
X32379814Y-15880186D01*
X32296552Y-15778729D01*
X32267222Y-15742991D01*
X32183557Y-15586466D01*
X32132037Y-15416627D01*
X32114641Y-15240000D01*
X32132037Y-15063373D01*
X32183557Y-14893534D01*
X32267222Y-14737009D01*
X32296552Y-14701271D01*
X32379814Y-14599814D01*
X32481271Y-14516552D01*
X32517009Y-14487222D01*
X32673534Y-14403557D01*
X32843373Y-14352037D01*
X32909557Y-14345519D01*
X32975740Y-14339000D01*
X33064260Y-14339000D01*
X33130443Y-14345519D01*
X33130443Y-14345519D01*
G37*
G36*
X35670443Y-14345519D02*
G01*
X35736627Y-14352037D01*
X35906466Y-14403557D01*
X36062991Y-14487222D01*
X36098729Y-14516552D01*
X36200186Y-14599814D01*
X36283448Y-14701271D01*
X36312778Y-14737009D01*
X36396443Y-14893534D01*
X36447963Y-15063373D01*
X36465359Y-15240000D01*
X36447963Y-15416627D01*
X36396443Y-15586466D01*
X36312778Y-15742991D01*
X36283448Y-15778729D01*
X36200186Y-15880186D01*
X36127480Y-15939853D01*
X36062991Y-15992778D01*
X35906466Y-16076443D01*
X35736627Y-16127963D01*
X35670443Y-16134481D01*
X35604260Y-16141000D01*
X35515740Y-16141000D01*
X35449557Y-16134481D01*
X35383373Y-16127963D01*
X35213534Y-16076443D01*
X35057009Y-15992778D01*
X34992520Y-15939853D01*
X34919814Y-15880186D01*
X34836552Y-15778729D01*
X34807222Y-15742991D01*
X34723557Y-15586466D01*
X34672037Y-15416627D01*
X34654641Y-15240000D01*
X34672037Y-15063373D01*
X34723557Y-14893534D01*
X34807222Y-14737009D01*
X34836552Y-14701271D01*
X34919814Y-14599814D01*
X35021271Y-14516552D01*
X35057009Y-14487222D01*
X35213534Y-14403557D01*
X35383373Y-14352037D01*
X35449557Y-14345519D01*
X35515740Y-14339000D01*
X35604260Y-14339000D01*
X35670443Y-14345519D01*
X35670443Y-14345519D01*
G37*
G36*
X38210443Y-14345519D02*
G01*
X38276627Y-14352037D01*
X38446466Y-14403557D01*
X38602991Y-14487222D01*
X38638729Y-14516552D01*
X38740186Y-14599814D01*
X38823448Y-14701271D01*
X38852778Y-14737009D01*
X38936443Y-14893534D01*
X38987963Y-15063373D01*
X39005359Y-15240000D01*
X38987963Y-15416627D01*
X38936443Y-15586466D01*
X38852778Y-15742991D01*
X38823448Y-15778729D01*
X38740186Y-15880186D01*
X38667480Y-15939853D01*
X38602991Y-15992778D01*
X38446466Y-16076443D01*
X38276627Y-16127963D01*
X38210443Y-16134481D01*
X38144260Y-16141000D01*
X38055740Y-16141000D01*
X37989557Y-16134481D01*
X37923373Y-16127963D01*
X37753534Y-16076443D01*
X37597009Y-15992778D01*
X37532520Y-15939853D01*
X37459814Y-15880186D01*
X37376552Y-15778729D01*
X37347222Y-15742991D01*
X37263557Y-15586466D01*
X37212037Y-15416627D01*
X37194641Y-15240000D01*
X37212037Y-15063373D01*
X37263557Y-14893534D01*
X37347222Y-14737009D01*
X37376552Y-14701271D01*
X37459814Y-14599814D01*
X37561271Y-14516552D01*
X37597009Y-14487222D01*
X37753534Y-14403557D01*
X37923373Y-14352037D01*
X37989557Y-14345519D01*
X38055740Y-14339000D01*
X38144260Y-14339000D01*
X38210443Y-14345519D01*
X38210443Y-14345519D01*
G37*
G36*
X48370443Y-14345519D02*
G01*
X48436627Y-14352037D01*
X48606466Y-14403557D01*
X48762991Y-14487222D01*
X48798729Y-14516552D01*
X48900186Y-14599814D01*
X48983448Y-14701271D01*
X49012778Y-14737009D01*
X49096443Y-14893534D01*
X49147963Y-15063373D01*
X49165359Y-15240000D01*
X49147963Y-15416627D01*
X49096443Y-15586466D01*
X49012778Y-15742991D01*
X48983448Y-15778729D01*
X48900186Y-15880186D01*
X48827480Y-15939853D01*
X48762991Y-15992778D01*
X48606466Y-16076443D01*
X48436627Y-16127963D01*
X48370443Y-16134481D01*
X48304260Y-16141000D01*
X48215740Y-16141000D01*
X48149557Y-16134481D01*
X48083373Y-16127963D01*
X47913534Y-16076443D01*
X47757009Y-15992778D01*
X47692520Y-15939853D01*
X47619814Y-15880186D01*
X47536552Y-15778729D01*
X47507222Y-15742991D01*
X47423557Y-15586466D01*
X47372037Y-15416627D01*
X47354641Y-15240000D01*
X47372037Y-15063373D01*
X47423557Y-14893534D01*
X47507222Y-14737009D01*
X47536552Y-14701271D01*
X47619814Y-14599814D01*
X47721271Y-14516552D01*
X47757009Y-14487222D01*
X47913534Y-14403557D01*
X48083373Y-14352037D01*
X48149557Y-14345519D01*
X48215740Y-14339000D01*
X48304260Y-14339000D01*
X48370443Y-14345519D01*
X48370443Y-14345519D01*
G37*
G36*
X45830443Y-14345519D02*
G01*
X45896627Y-14352037D01*
X46066466Y-14403557D01*
X46222991Y-14487222D01*
X46258729Y-14516552D01*
X46360186Y-14599814D01*
X46443448Y-14701271D01*
X46472778Y-14737009D01*
X46556443Y-14893534D01*
X46607963Y-15063373D01*
X46625359Y-15240000D01*
X46607963Y-15416627D01*
X46556443Y-15586466D01*
X46472778Y-15742991D01*
X46443448Y-15778729D01*
X46360186Y-15880186D01*
X46287480Y-15939853D01*
X46222991Y-15992778D01*
X46066466Y-16076443D01*
X45896627Y-16127963D01*
X45830443Y-16134481D01*
X45764260Y-16141000D01*
X45675740Y-16141000D01*
X45609557Y-16134481D01*
X45543373Y-16127963D01*
X45373534Y-16076443D01*
X45217009Y-15992778D01*
X45152520Y-15939853D01*
X45079814Y-15880186D01*
X44996552Y-15778729D01*
X44967222Y-15742991D01*
X44883557Y-15586466D01*
X44832037Y-15416627D01*
X44814641Y-15240000D01*
X44832037Y-15063373D01*
X44883557Y-14893534D01*
X44967222Y-14737009D01*
X44996552Y-14701271D01*
X45079814Y-14599814D01*
X45181271Y-14516552D01*
X45217009Y-14487222D01*
X45373534Y-14403557D01*
X45543373Y-14352037D01*
X45609557Y-14345519D01*
X45675740Y-14339000D01*
X45764260Y-14339000D01*
X45830443Y-14345519D01*
X45830443Y-14345519D01*
G37*
G36*
X43290443Y-14345519D02*
G01*
X43356627Y-14352037D01*
X43526466Y-14403557D01*
X43682991Y-14487222D01*
X43718729Y-14516552D01*
X43820186Y-14599814D01*
X43903448Y-14701271D01*
X43932778Y-14737009D01*
X44016443Y-14893534D01*
X44067963Y-15063373D01*
X44085359Y-15240000D01*
X44067963Y-15416627D01*
X44016443Y-15586466D01*
X43932778Y-15742991D01*
X43903448Y-15778729D01*
X43820186Y-15880186D01*
X43747480Y-15939853D01*
X43682991Y-15992778D01*
X43526466Y-16076443D01*
X43356627Y-16127963D01*
X43290443Y-16134481D01*
X43224260Y-16141000D01*
X43135740Y-16141000D01*
X43069557Y-16134481D01*
X43003373Y-16127963D01*
X42833534Y-16076443D01*
X42677009Y-15992778D01*
X42612520Y-15939853D01*
X42539814Y-15880186D01*
X42456552Y-15778729D01*
X42427222Y-15742991D01*
X42343557Y-15586466D01*
X42292037Y-15416627D01*
X42274641Y-15240000D01*
X42292037Y-15063373D01*
X42343557Y-14893534D01*
X42427222Y-14737009D01*
X42456552Y-14701271D01*
X42539814Y-14599814D01*
X42641271Y-14516552D01*
X42677009Y-14487222D01*
X42833534Y-14403557D01*
X43003373Y-14352037D01*
X43069557Y-14345519D01*
X43135740Y-14339000D01*
X43224260Y-14339000D01*
X43290443Y-14345519D01*
X43290443Y-14345519D01*
G37*
G36*
X50910443Y-14345519D02*
G01*
X50976627Y-14352037D01*
X51146466Y-14403557D01*
X51302991Y-14487222D01*
X51338729Y-14516552D01*
X51440186Y-14599814D01*
X51523448Y-14701271D01*
X51552778Y-14737009D01*
X51636443Y-14893534D01*
X51687963Y-15063373D01*
X51705359Y-15240000D01*
X51687963Y-15416627D01*
X51636443Y-15586466D01*
X51552778Y-15742991D01*
X51523448Y-15778729D01*
X51440186Y-15880186D01*
X51367480Y-15939853D01*
X51302991Y-15992778D01*
X51146466Y-16076443D01*
X50976627Y-16127963D01*
X50910443Y-16134481D01*
X50844260Y-16141000D01*
X50755740Y-16141000D01*
X50689557Y-16134481D01*
X50623373Y-16127963D01*
X50453534Y-16076443D01*
X50297009Y-15992778D01*
X50232520Y-15939853D01*
X50159814Y-15880186D01*
X50076552Y-15778729D01*
X50047222Y-15742991D01*
X49963557Y-15586466D01*
X49912037Y-15416627D01*
X49894641Y-15240000D01*
X49912037Y-15063373D01*
X49963557Y-14893534D01*
X50047222Y-14737009D01*
X50076552Y-14701271D01*
X50159814Y-14599814D01*
X50261271Y-14516552D01*
X50297009Y-14487222D01*
X50453534Y-14403557D01*
X50623373Y-14352037D01*
X50689557Y-14345519D01*
X50755740Y-14339000D01*
X50844260Y-14339000D01*
X50910443Y-14345519D01*
X50910443Y-14345519D01*
G37*
M02*
