G04 #@! TF.GenerationSoftware,KiCad,Pcbnew,(5.1.2-1)-1*
G04 #@! TF.CreationDate,2020-03-21T18:46:45+05:30*
G04 #@! TF.ProjectId,RedPill,52656450-696c-46c2-9e6b-696361645f70,rev?*
G04 #@! TF.SameCoordinates,Original*
G04 #@! TF.FileFunction,Soldermask,Bot*
G04 #@! TF.FilePolarity,Negative*
%FSLAX46Y46*%
G04 Gerber Fmt 4.6, Leading zero omitted, Abs format (unit mm)*
G04 Created by KiCad (PCBNEW (5.1.2-1)-1) date 2020-03-21 18:46:45*
%MOMM*%
%LPD*%
G04 APERTURE LIST*
%ADD10C,0.100000*%
G04 APERTURE END LIST*
D10*
G36*
X63613512Y-29583927D02*
G01*
X63762812Y-29613624D01*
X63926784Y-29681544D01*
X64074354Y-29780147D01*
X64199853Y-29905646D01*
X64298456Y-30053216D01*
X64366376Y-30217188D01*
X64401000Y-30391259D01*
X64401000Y-30568741D01*
X64366376Y-30742812D01*
X64298456Y-30906784D01*
X64199853Y-31054354D01*
X64074354Y-31179853D01*
X63926784Y-31278456D01*
X63762812Y-31346376D01*
X63613512Y-31376073D01*
X63588742Y-31381000D01*
X63411258Y-31381000D01*
X63386488Y-31376073D01*
X63237188Y-31346376D01*
X63073216Y-31278456D01*
X62925646Y-31179853D01*
X62800147Y-31054354D01*
X62701544Y-30906784D01*
X62633624Y-30742812D01*
X62599000Y-30568741D01*
X62599000Y-30391259D01*
X62633624Y-30217188D01*
X62701544Y-30053216D01*
X62800147Y-29905646D01*
X62925646Y-29780147D01*
X63073216Y-29681544D01*
X63237188Y-29613624D01*
X63386488Y-29583927D01*
X63411258Y-29579000D01*
X63588742Y-29579000D01*
X63613512Y-29583927D01*
X63613512Y-29583927D01*
G37*
G36*
X61070443Y-29585519D02*
G01*
X61136627Y-29592037D01*
X61306466Y-29643557D01*
X61462991Y-29727222D01*
X61498729Y-29756552D01*
X61600186Y-29839814D01*
X61683448Y-29941271D01*
X61712778Y-29977009D01*
X61796443Y-30133534D01*
X61847963Y-30303373D01*
X61865359Y-30480000D01*
X61847963Y-30656627D01*
X61796443Y-30826466D01*
X61712778Y-30982991D01*
X61683448Y-31018729D01*
X61600186Y-31120186D01*
X61527480Y-31179853D01*
X61462991Y-31232778D01*
X61306466Y-31316443D01*
X61136627Y-31367963D01*
X61070443Y-31374481D01*
X61004260Y-31381000D01*
X60915740Y-31381000D01*
X60849557Y-31374481D01*
X60783373Y-31367963D01*
X60613534Y-31316443D01*
X60457009Y-31232778D01*
X60392520Y-31179853D01*
X60319814Y-31120186D01*
X60236552Y-31018729D01*
X60207222Y-30982991D01*
X60123557Y-30826466D01*
X60072037Y-30656627D01*
X60054641Y-30480000D01*
X60072037Y-30303373D01*
X60123557Y-30133534D01*
X60207222Y-29977009D01*
X60236552Y-29941271D01*
X60319814Y-29839814D01*
X60421271Y-29756552D01*
X60457009Y-29727222D01*
X60613534Y-29643557D01*
X60783373Y-29592037D01*
X60849557Y-29585519D01*
X60915740Y-29579000D01*
X61004260Y-29579000D01*
X61070443Y-29585519D01*
X61070443Y-29585519D01*
G37*
G36*
X58530443Y-29585519D02*
G01*
X58596627Y-29592037D01*
X58766466Y-29643557D01*
X58922991Y-29727222D01*
X58958729Y-29756552D01*
X59060186Y-29839814D01*
X59143448Y-29941271D01*
X59172778Y-29977009D01*
X59256443Y-30133534D01*
X59307963Y-30303373D01*
X59325359Y-30480000D01*
X59307963Y-30656627D01*
X59256443Y-30826466D01*
X59172778Y-30982991D01*
X59143448Y-31018729D01*
X59060186Y-31120186D01*
X58987480Y-31179853D01*
X58922991Y-31232778D01*
X58766466Y-31316443D01*
X58596627Y-31367963D01*
X58530443Y-31374481D01*
X58464260Y-31381000D01*
X58375740Y-31381000D01*
X58309557Y-31374481D01*
X58243373Y-31367963D01*
X58073534Y-31316443D01*
X57917009Y-31232778D01*
X57852520Y-31179853D01*
X57779814Y-31120186D01*
X57696552Y-31018729D01*
X57667222Y-30982991D01*
X57583557Y-30826466D01*
X57532037Y-30656627D01*
X57514641Y-30480000D01*
X57532037Y-30303373D01*
X57583557Y-30133534D01*
X57667222Y-29977009D01*
X57696552Y-29941271D01*
X57779814Y-29839814D01*
X57881271Y-29756552D01*
X57917009Y-29727222D01*
X58073534Y-29643557D01*
X58243373Y-29592037D01*
X58309557Y-29585519D01*
X58375740Y-29579000D01*
X58464260Y-29579000D01*
X58530443Y-29585519D01*
X58530443Y-29585519D01*
G37*
G36*
X55990443Y-29585519D02*
G01*
X56056627Y-29592037D01*
X56226466Y-29643557D01*
X56382991Y-29727222D01*
X56418729Y-29756552D01*
X56520186Y-29839814D01*
X56603448Y-29941271D01*
X56632778Y-29977009D01*
X56716443Y-30133534D01*
X56767963Y-30303373D01*
X56785359Y-30480000D01*
X56767963Y-30656627D01*
X56716443Y-30826466D01*
X56632778Y-30982991D01*
X56603448Y-31018729D01*
X56520186Y-31120186D01*
X56447480Y-31179853D01*
X56382991Y-31232778D01*
X56226466Y-31316443D01*
X56056627Y-31367963D01*
X55990443Y-31374481D01*
X55924260Y-31381000D01*
X55835740Y-31381000D01*
X55769557Y-31374481D01*
X55703373Y-31367963D01*
X55533534Y-31316443D01*
X55377009Y-31232778D01*
X55312520Y-31179853D01*
X55239814Y-31120186D01*
X55156552Y-31018729D01*
X55127222Y-30982991D01*
X55043557Y-30826466D01*
X54992037Y-30656627D01*
X54974641Y-30480000D01*
X54992037Y-30303373D01*
X55043557Y-30133534D01*
X55127222Y-29977009D01*
X55156552Y-29941271D01*
X55239814Y-29839814D01*
X55341271Y-29756552D01*
X55377009Y-29727222D01*
X55533534Y-29643557D01*
X55703373Y-29592037D01*
X55769557Y-29585519D01*
X55835740Y-29579000D01*
X55924260Y-29579000D01*
X55990443Y-29585519D01*
X55990443Y-29585519D01*
G37*
G36*
X53450443Y-29585519D02*
G01*
X53516627Y-29592037D01*
X53686466Y-29643557D01*
X53842991Y-29727222D01*
X53878729Y-29756552D01*
X53980186Y-29839814D01*
X54063448Y-29941271D01*
X54092778Y-29977009D01*
X54176443Y-30133534D01*
X54227963Y-30303373D01*
X54245359Y-30480000D01*
X54227963Y-30656627D01*
X54176443Y-30826466D01*
X54092778Y-30982991D01*
X54063448Y-31018729D01*
X53980186Y-31120186D01*
X53907480Y-31179853D01*
X53842991Y-31232778D01*
X53686466Y-31316443D01*
X53516627Y-31367963D01*
X53450443Y-31374481D01*
X53384260Y-31381000D01*
X53295740Y-31381000D01*
X53229557Y-31374481D01*
X53163373Y-31367963D01*
X52993534Y-31316443D01*
X52837009Y-31232778D01*
X52772520Y-31179853D01*
X52699814Y-31120186D01*
X52616552Y-31018729D01*
X52587222Y-30982991D01*
X52503557Y-30826466D01*
X52452037Y-30656627D01*
X52434641Y-30480000D01*
X52452037Y-30303373D01*
X52503557Y-30133534D01*
X52587222Y-29977009D01*
X52616552Y-29941271D01*
X52699814Y-29839814D01*
X52801271Y-29756552D01*
X52837009Y-29727222D01*
X52993534Y-29643557D01*
X53163373Y-29592037D01*
X53229557Y-29585519D01*
X53295740Y-29579000D01*
X53384260Y-29579000D01*
X53450443Y-29585519D01*
X53450443Y-29585519D01*
G37*
G36*
X50910443Y-29585519D02*
G01*
X50976627Y-29592037D01*
X51146466Y-29643557D01*
X51302991Y-29727222D01*
X51338729Y-29756552D01*
X51440186Y-29839814D01*
X51523448Y-29941271D01*
X51552778Y-29977009D01*
X51636443Y-30133534D01*
X51687963Y-30303373D01*
X51705359Y-30480000D01*
X51687963Y-30656627D01*
X51636443Y-30826466D01*
X51552778Y-30982991D01*
X51523448Y-31018729D01*
X51440186Y-31120186D01*
X51367480Y-31179853D01*
X51302991Y-31232778D01*
X51146466Y-31316443D01*
X50976627Y-31367963D01*
X50910443Y-31374481D01*
X50844260Y-31381000D01*
X50755740Y-31381000D01*
X50689557Y-31374481D01*
X50623373Y-31367963D01*
X50453534Y-31316443D01*
X50297009Y-31232778D01*
X50232520Y-31179853D01*
X50159814Y-31120186D01*
X50076552Y-31018729D01*
X50047222Y-30982991D01*
X49963557Y-30826466D01*
X49912037Y-30656627D01*
X49894641Y-30480000D01*
X49912037Y-30303373D01*
X49963557Y-30133534D01*
X50047222Y-29977009D01*
X50076552Y-29941271D01*
X50159814Y-29839814D01*
X50261271Y-29756552D01*
X50297009Y-29727222D01*
X50453534Y-29643557D01*
X50623373Y-29592037D01*
X50689557Y-29585519D01*
X50755740Y-29579000D01*
X50844260Y-29579000D01*
X50910443Y-29585519D01*
X50910443Y-29585519D01*
G37*
G36*
X48370443Y-29585519D02*
G01*
X48436627Y-29592037D01*
X48606466Y-29643557D01*
X48762991Y-29727222D01*
X48798729Y-29756552D01*
X48900186Y-29839814D01*
X48983448Y-29941271D01*
X49012778Y-29977009D01*
X49096443Y-30133534D01*
X49147963Y-30303373D01*
X49165359Y-30480000D01*
X49147963Y-30656627D01*
X49096443Y-30826466D01*
X49012778Y-30982991D01*
X48983448Y-31018729D01*
X48900186Y-31120186D01*
X48827480Y-31179853D01*
X48762991Y-31232778D01*
X48606466Y-31316443D01*
X48436627Y-31367963D01*
X48370443Y-31374481D01*
X48304260Y-31381000D01*
X48215740Y-31381000D01*
X48149557Y-31374481D01*
X48083373Y-31367963D01*
X47913534Y-31316443D01*
X47757009Y-31232778D01*
X47692520Y-31179853D01*
X47619814Y-31120186D01*
X47536552Y-31018729D01*
X47507222Y-30982991D01*
X47423557Y-30826466D01*
X47372037Y-30656627D01*
X47354641Y-30480000D01*
X47372037Y-30303373D01*
X47423557Y-30133534D01*
X47507222Y-29977009D01*
X47536552Y-29941271D01*
X47619814Y-29839814D01*
X47721271Y-29756552D01*
X47757009Y-29727222D01*
X47913534Y-29643557D01*
X48083373Y-29592037D01*
X48149557Y-29585519D01*
X48215740Y-29579000D01*
X48304260Y-29579000D01*
X48370443Y-29585519D01*
X48370443Y-29585519D01*
G37*
G36*
X45830443Y-29585519D02*
G01*
X45896627Y-29592037D01*
X46066466Y-29643557D01*
X46222991Y-29727222D01*
X46258729Y-29756552D01*
X46360186Y-29839814D01*
X46443448Y-29941271D01*
X46472778Y-29977009D01*
X46556443Y-30133534D01*
X46607963Y-30303373D01*
X46625359Y-30480000D01*
X46607963Y-30656627D01*
X46556443Y-30826466D01*
X46472778Y-30982991D01*
X46443448Y-31018729D01*
X46360186Y-31120186D01*
X46287480Y-31179853D01*
X46222991Y-31232778D01*
X46066466Y-31316443D01*
X45896627Y-31367963D01*
X45830443Y-31374481D01*
X45764260Y-31381000D01*
X45675740Y-31381000D01*
X45609557Y-31374481D01*
X45543373Y-31367963D01*
X45373534Y-31316443D01*
X45217009Y-31232778D01*
X45152520Y-31179853D01*
X45079814Y-31120186D01*
X44996552Y-31018729D01*
X44967222Y-30982991D01*
X44883557Y-30826466D01*
X44832037Y-30656627D01*
X44814641Y-30480000D01*
X44832037Y-30303373D01*
X44883557Y-30133534D01*
X44967222Y-29977009D01*
X44996552Y-29941271D01*
X45079814Y-29839814D01*
X45181271Y-29756552D01*
X45217009Y-29727222D01*
X45373534Y-29643557D01*
X45543373Y-29592037D01*
X45609557Y-29585519D01*
X45675740Y-29579000D01*
X45764260Y-29579000D01*
X45830443Y-29585519D01*
X45830443Y-29585519D01*
G37*
G36*
X43290443Y-29585519D02*
G01*
X43356627Y-29592037D01*
X43526466Y-29643557D01*
X43682991Y-29727222D01*
X43718729Y-29756552D01*
X43820186Y-29839814D01*
X43903448Y-29941271D01*
X43932778Y-29977009D01*
X44016443Y-30133534D01*
X44067963Y-30303373D01*
X44085359Y-30480000D01*
X44067963Y-30656627D01*
X44016443Y-30826466D01*
X43932778Y-30982991D01*
X43903448Y-31018729D01*
X43820186Y-31120186D01*
X43747480Y-31179853D01*
X43682991Y-31232778D01*
X43526466Y-31316443D01*
X43356627Y-31367963D01*
X43290443Y-31374481D01*
X43224260Y-31381000D01*
X43135740Y-31381000D01*
X43069557Y-31374481D01*
X43003373Y-31367963D01*
X42833534Y-31316443D01*
X42677009Y-31232778D01*
X42612520Y-31179853D01*
X42539814Y-31120186D01*
X42456552Y-31018729D01*
X42427222Y-30982991D01*
X42343557Y-30826466D01*
X42292037Y-30656627D01*
X42274641Y-30480000D01*
X42292037Y-30303373D01*
X42343557Y-30133534D01*
X42427222Y-29977009D01*
X42456552Y-29941271D01*
X42539814Y-29839814D01*
X42641271Y-29756552D01*
X42677009Y-29727222D01*
X42833534Y-29643557D01*
X43003373Y-29592037D01*
X43069557Y-29585519D01*
X43135740Y-29579000D01*
X43224260Y-29579000D01*
X43290443Y-29585519D01*
X43290443Y-29585519D01*
G37*
G36*
X40750443Y-29585519D02*
G01*
X40816627Y-29592037D01*
X40986466Y-29643557D01*
X41142991Y-29727222D01*
X41178729Y-29756552D01*
X41280186Y-29839814D01*
X41363448Y-29941271D01*
X41392778Y-29977009D01*
X41476443Y-30133534D01*
X41527963Y-30303373D01*
X41545359Y-30480000D01*
X41527963Y-30656627D01*
X41476443Y-30826466D01*
X41392778Y-30982991D01*
X41363448Y-31018729D01*
X41280186Y-31120186D01*
X41207480Y-31179853D01*
X41142991Y-31232778D01*
X40986466Y-31316443D01*
X40816627Y-31367963D01*
X40750443Y-31374481D01*
X40684260Y-31381000D01*
X40595740Y-31381000D01*
X40529557Y-31374481D01*
X40463373Y-31367963D01*
X40293534Y-31316443D01*
X40137009Y-31232778D01*
X40072520Y-31179853D01*
X39999814Y-31120186D01*
X39916552Y-31018729D01*
X39887222Y-30982991D01*
X39803557Y-30826466D01*
X39752037Y-30656627D01*
X39734641Y-30480000D01*
X39752037Y-30303373D01*
X39803557Y-30133534D01*
X39887222Y-29977009D01*
X39916552Y-29941271D01*
X39999814Y-29839814D01*
X40101271Y-29756552D01*
X40137009Y-29727222D01*
X40293534Y-29643557D01*
X40463373Y-29592037D01*
X40529557Y-29585519D01*
X40595740Y-29579000D01*
X40684260Y-29579000D01*
X40750443Y-29585519D01*
X40750443Y-29585519D01*
G37*
G36*
X38210443Y-29585519D02*
G01*
X38276627Y-29592037D01*
X38446466Y-29643557D01*
X38602991Y-29727222D01*
X38638729Y-29756552D01*
X38740186Y-29839814D01*
X38823448Y-29941271D01*
X38852778Y-29977009D01*
X38936443Y-30133534D01*
X38987963Y-30303373D01*
X39005359Y-30480000D01*
X38987963Y-30656627D01*
X38936443Y-30826466D01*
X38852778Y-30982991D01*
X38823448Y-31018729D01*
X38740186Y-31120186D01*
X38667480Y-31179853D01*
X38602991Y-31232778D01*
X38446466Y-31316443D01*
X38276627Y-31367963D01*
X38210443Y-31374481D01*
X38144260Y-31381000D01*
X38055740Y-31381000D01*
X37989557Y-31374481D01*
X37923373Y-31367963D01*
X37753534Y-31316443D01*
X37597009Y-31232778D01*
X37532520Y-31179853D01*
X37459814Y-31120186D01*
X37376552Y-31018729D01*
X37347222Y-30982991D01*
X37263557Y-30826466D01*
X37212037Y-30656627D01*
X37194641Y-30480000D01*
X37212037Y-30303373D01*
X37263557Y-30133534D01*
X37347222Y-29977009D01*
X37376552Y-29941271D01*
X37459814Y-29839814D01*
X37561271Y-29756552D01*
X37597009Y-29727222D01*
X37753534Y-29643557D01*
X37923373Y-29592037D01*
X37989557Y-29585519D01*
X38055740Y-29579000D01*
X38144260Y-29579000D01*
X38210443Y-29585519D01*
X38210443Y-29585519D01*
G37*
G36*
X35670443Y-29585519D02*
G01*
X35736627Y-29592037D01*
X35906466Y-29643557D01*
X36062991Y-29727222D01*
X36098729Y-29756552D01*
X36200186Y-29839814D01*
X36283448Y-29941271D01*
X36312778Y-29977009D01*
X36396443Y-30133534D01*
X36447963Y-30303373D01*
X36465359Y-30480000D01*
X36447963Y-30656627D01*
X36396443Y-30826466D01*
X36312778Y-30982991D01*
X36283448Y-31018729D01*
X36200186Y-31120186D01*
X36127480Y-31179853D01*
X36062991Y-31232778D01*
X35906466Y-31316443D01*
X35736627Y-31367963D01*
X35670443Y-31374481D01*
X35604260Y-31381000D01*
X35515740Y-31381000D01*
X35449557Y-31374481D01*
X35383373Y-31367963D01*
X35213534Y-31316443D01*
X35057009Y-31232778D01*
X34992520Y-31179853D01*
X34919814Y-31120186D01*
X34836552Y-31018729D01*
X34807222Y-30982991D01*
X34723557Y-30826466D01*
X34672037Y-30656627D01*
X34654641Y-30480000D01*
X34672037Y-30303373D01*
X34723557Y-30133534D01*
X34807222Y-29977009D01*
X34836552Y-29941271D01*
X34919814Y-29839814D01*
X35021271Y-29756552D01*
X35057009Y-29727222D01*
X35213534Y-29643557D01*
X35383373Y-29592037D01*
X35449557Y-29585519D01*
X35515740Y-29579000D01*
X35604260Y-29579000D01*
X35670443Y-29585519D01*
X35670443Y-29585519D01*
G37*
G36*
X33130443Y-29585519D02*
G01*
X33196627Y-29592037D01*
X33366466Y-29643557D01*
X33522991Y-29727222D01*
X33558729Y-29756552D01*
X33660186Y-29839814D01*
X33743448Y-29941271D01*
X33772778Y-29977009D01*
X33856443Y-30133534D01*
X33907963Y-30303373D01*
X33925359Y-30480000D01*
X33907963Y-30656627D01*
X33856443Y-30826466D01*
X33772778Y-30982991D01*
X33743448Y-31018729D01*
X33660186Y-31120186D01*
X33587480Y-31179853D01*
X33522991Y-31232778D01*
X33366466Y-31316443D01*
X33196627Y-31367963D01*
X33130443Y-31374481D01*
X33064260Y-31381000D01*
X32975740Y-31381000D01*
X32909557Y-31374481D01*
X32843373Y-31367963D01*
X32673534Y-31316443D01*
X32517009Y-31232778D01*
X32452520Y-31179853D01*
X32379814Y-31120186D01*
X32296552Y-31018729D01*
X32267222Y-30982991D01*
X32183557Y-30826466D01*
X32132037Y-30656627D01*
X32114641Y-30480000D01*
X32132037Y-30303373D01*
X32183557Y-30133534D01*
X32267222Y-29977009D01*
X32296552Y-29941271D01*
X32379814Y-29839814D01*
X32481271Y-29756552D01*
X32517009Y-29727222D01*
X32673534Y-29643557D01*
X32843373Y-29592037D01*
X32909557Y-29585519D01*
X32975740Y-29579000D01*
X33064260Y-29579000D01*
X33130443Y-29585519D01*
X33130443Y-29585519D01*
G37*
G36*
X30590443Y-29585519D02*
G01*
X30656627Y-29592037D01*
X30826466Y-29643557D01*
X30982991Y-29727222D01*
X31018729Y-29756552D01*
X31120186Y-29839814D01*
X31203448Y-29941271D01*
X31232778Y-29977009D01*
X31316443Y-30133534D01*
X31367963Y-30303373D01*
X31385359Y-30480000D01*
X31367963Y-30656627D01*
X31316443Y-30826466D01*
X31232778Y-30982991D01*
X31203448Y-31018729D01*
X31120186Y-31120186D01*
X31047480Y-31179853D01*
X30982991Y-31232778D01*
X30826466Y-31316443D01*
X30656627Y-31367963D01*
X30590443Y-31374481D01*
X30524260Y-31381000D01*
X30435740Y-31381000D01*
X30369557Y-31374481D01*
X30303373Y-31367963D01*
X30133534Y-31316443D01*
X29977009Y-31232778D01*
X29912520Y-31179853D01*
X29839814Y-31120186D01*
X29756552Y-31018729D01*
X29727222Y-30982991D01*
X29643557Y-30826466D01*
X29592037Y-30656627D01*
X29574641Y-30480000D01*
X29592037Y-30303373D01*
X29643557Y-30133534D01*
X29727222Y-29977009D01*
X29756552Y-29941271D01*
X29839814Y-29839814D01*
X29941271Y-29756552D01*
X29977009Y-29727222D01*
X30133534Y-29643557D01*
X30303373Y-29592037D01*
X30369557Y-29585519D01*
X30435740Y-29579000D01*
X30524260Y-29579000D01*
X30590443Y-29585519D01*
X30590443Y-29585519D01*
G37*
G36*
X28050443Y-29585519D02*
G01*
X28116627Y-29592037D01*
X28286466Y-29643557D01*
X28442991Y-29727222D01*
X28478729Y-29756552D01*
X28580186Y-29839814D01*
X28663448Y-29941271D01*
X28692778Y-29977009D01*
X28776443Y-30133534D01*
X28827963Y-30303373D01*
X28845359Y-30480000D01*
X28827963Y-30656627D01*
X28776443Y-30826466D01*
X28692778Y-30982991D01*
X28663448Y-31018729D01*
X28580186Y-31120186D01*
X28507480Y-31179853D01*
X28442991Y-31232778D01*
X28286466Y-31316443D01*
X28116627Y-31367963D01*
X28050443Y-31374481D01*
X27984260Y-31381000D01*
X27895740Y-31381000D01*
X27829557Y-31374481D01*
X27763373Y-31367963D01*
X27593534Y-31316443D01*
X27437009Y-31232778D01*
X27372520Y-31179853D01*
X27299814Y-31120186D01*
X27216552Y-31018729D01*
X27187222Y-30982991D01*
X27103557Y-30826466D01*
X27052037Y-30656627D01*
X27034641Y-30480000D01*
X27052037Y-30303373D01*
X27103557Y-30133534D01*
X27187222Y-29977009D01*
X27216552Y-29941271D01*
X27299814Y-29839814D01*
X27401271Y-29756552D01*
X27437009Y-29727222D01*
X27593534Y-29643557D01*
X27763373Y-29592037D01*
X27829557Y-29585519D01*
X27895740Y-29579000D01*
X27984260Y-29579000D01*
X28050443Y-29585519D01*
X28050443Y-29585519D01*
G37*
G36*
X25510443Y-29585519D02*
G01*
X25576627Y-29592037D01*
X25746466Y-29643557D01*
X25902991Y-29727222D01*
X25938729Y-29756552D01*
X26040186Y-29839814D01*
X26123448Y-29941271D01*
X26152778Y-29977009D01*
X26236443Y-30133534D01*
X26287963Y-30303373D01*
X26305359Y-30480000D01*
X26287963Y-30656627D01*
X26236443Y-30826466D01*
X26152778Y-30982991D01*
X26123448Y-31018729D01*
X26040186Y-31120186D01*
X25967480Y-31179853D01*
X25902991Y-31232778D01*
X25746466Y-31316443D01*
X25576627Y-31367963D01*
X25510443Y-31374481D01*
X25444260Y-31381000D01*
X25355740Y-31381000D01*
X25289557Y-31374481D01*
X25223373Y-31367963D01*
X25053534Y-31316443D01*
X24897009Y-31232778D01*
X24832520Y-31179853D01*
X24759814Y-31120186D01*
X24676552Y-31018729D01*
X24647222Y-30982991D01*
X24563557Y-30826466D01*
X24512037Y-30656627D01*
X24494641Y-30480000D01*
X24512037Y-30303373D01*
X24563557Y-30133534D01*
X24647222Y-29977009D01*
X24676552Y-29941271D01*
X24759814Y-29839814D01*
X24861271Y-29756552D01*
X24897009Y-29727222D01*
X25053534Y-29643557D01*
X25223373Y-29592037D01*
X25289557Y-29585519D01*
X25355740Y-29579000D01*
X25444260Y-29579000D01*
X25510443Y-29585519D01*
X25510443Y-29585519D01*
G37*
G36*
X22970443Y-29585519D02*
G01*
X23036627Y-29592037D01*
X23206466Y-29643557D01*
X23362991Y-29727222D01*
X23398729Y-29756552D01*
X23500186Y-29839814D01*
X23583448Y-29941271D01*
X23612778Y-29977009D01*
X23696443Y-30133534D01*
X23747963Y-30303373D01*
X23765359Y-30480000D01*
X23747963Y-30656627D01*
X23696443Y-30826466D01*
X23612778Y-30982991D01*
X23583448Y-31018729D01*
X23500186Y-31120186D01*
X23427480Y-31179853D01*
X23362991Y-31232778D01*
X23206466Y-31316443D01*
X23036627Y-31367963D01*
X22970443Y-31374481D01*
X22904260Y-31381000D01*
X22815740Y-31381000D01*
X22749557Y-31374481D01*
X22683373Y-31367963D01*
X22513534Y-31316443D01*
X22357009Y-31232778D01*
X22292520Y-31179853D01*
X22219814Y-31120186D01*
X22136552Y-31018729D01*
X22107222Y-30982991D01*
X22023557Y-30826466D01*
X21972037Y-30656627D01*
X21954641Y-30480000D01*
X21972037Y-30303373D01*
X22023557Y-30133534D01*
X22107222Y-29977009D01*
X22136552Y-29941271D01*
X22219814Y-29839814D01*
X22321271Y-29756552D01*
X22357009Y-29727222D01*
X22513534Y-29643557D01*
X22683373Y-29592037D01*
X22749557Y-29585519D01*
X22815740Y-29579000D01*
X22904260Y-29579000D01*
X22970443Y-29585519D01*
X22970443Y-29585519D01*
G37*
G36*
X20430443Y-29585519D02*
G01*
X20496627Y-29592037D01*
X20666466Y-29643557D01*
X20822991Y-29727222D01*
X20858729Y-29756552D01*
X20960186Y-29839814D01*
X21043448Y-29941271D01*
X21072778Y-29977009D01*
X21156443Y-30133534D01*
X21207963Y-30303373D01*
X21225359Y-30480000D01*
X21207963Y-30656627D01*
X21156443Y-30826466D01*
X21072778Y-30982991D01*
X21043448Y-31018729D01*
X20960186Y-31120186D01*
X20887480Y-31179853D01*
X20822991Y-31232778D01*
X20666466Y-31316443D01*
X20496627Y-31367963D01*
X20430443Y-31374481D01*
X20364260Y-31381000D01*
X20275740Y-31381000D01*
X20209557Y-31374481D01*
X20143373Y-31367963D01*
X19973534Y-31316443D01*
X19817009Y-31232778D01*
X19752520Y-31179853D01*
X19679814Y-31120186D01*
X19596552Y-31018729D01*
X19567222Y-30982991D01*
X19483557Y-30826466D01*
X19432037Y-30656627D01*
X19414641Y-30480000D01*
X19432037Y-30303373D01*
X19483557Y-30133534D01*
X19567222Y-29977009D01*
X19596552Y-29941271D01*
X19679814Y-29839814D01*
X19781271Y-29756552D01*
X19817009Y-29727222D01*
X19973534Y-29643557D01*
X20143373Y-29592037D01*
X20209557Y-29585519D01*
X20275740Y-29579000D01*
X20364260Y-29579000D01*
X20430443Y-29585519D01*
X20430443Y-29585519D01*
G37*
G36*
X17890443Y-29585519D02*
G01*
X17956627Y-29592037D01*
X18126466Y-29643557D01*
X18282991Y-29727222D01*
X18318729Y-29756552D01*
X18420186Y-29839814D01*
X18503448Y-29941271D01*
X18532778Y-29977009D01*
X18616443Y-30133534D01*
X18667963Y-30303373D01*
X18685359Y-30480000D01*
X18667963Y-30656627D01*
X18616443Y-30826466D01*
X18532778Y-30982991D01*
X18503448Y-31018729D01*
X18420186Y-31120186D01*
X18347480Y-31179853D01*
X18282991Y-31232778D01*
X18126466Y-31316443D01*
X17956627Y-31367963D01*
X17890443Y-31374481D01*
X17824260Y-31381000D01*
X17735740Y-31381000D01*
X17669557Y-31374481D01*
X17603373Y-31367963D01*
X17433534Y-31316443D01*
X17277009Y-31232778D01*
X17212520Y-31179853D01*
X17139814Y-31120186D01*
X17056552Y-31018729D01*
X17027222Y-30982991D01*
X16943557Y-30826466D01*
X16892037Y-30656627D01*
X16874641Y-30480000D01*
X16892037Y-30303373D01*
X16943557Y-30133534D01*
X17027222Y-29977009D01*
X17056552Y-29941271D01*
X17139814Y-29839814D01*
X17241271Y-29756552D01*
X17277009Y-29727222D01*
X17433534Y-29643557D01*
X17603373Y-29592037D01*
X17669557Y-29585519D01*
X17735740Y-29579000D01*
X17824260Y-29579000D01*
X17890443Y-29585519D01*
X17890443Y-29585519D01*
G37*
G36*
X15350443Y-29585519D02*
G01*
X15416627Y-29592037D01*
X15586466Y-29643557D01*
X15742991Y-29727222D01*
X15778729Y-29756552D01*
X15880186Y-29839814D01*
X15963448Y-29941271D01*
X15992778Y-29977009D01*
X16076443Y-30133534D01*
X16127963Y-30303373D01*
X16145359Y-30480000D01*
X16127963Y-30656627D01*
X16076443Y-30826466D01*
X15992778Y-30982991D01*
X15963448Y-31018729D01*
X15880186Y-31120186D01*
X15807480Y-31179853D01*
X15742991Y-31232778D01*
X15586466Y-31316443D01*
X15416627Y-31367963D01*
X15350443Y-31374481D01*
X15284260Y-31381000D01*
X15195740Y-31381000D01*
X15129557Y-31374481D01*
X15063373Y-31367963D01*
X14893534Y-31316443D01*
X14737009Y-31232778D01*
X14672520Y-31179853D01*
X14599814Y-31120186D01*
X14516552Y-31018729D01*
X14487222Y-30982991D01*
X14403557Y-30826466D01*
X14352037Y-30656627D01*
X14334641Y-30480000D01*
X14352037Y-30303373D01*
X14403557Y-30133534D01*
X14487222Y-29977009D01*
X14516552Y-29941271D01*
X14599814Y-29839814D01*
X14701271Y-29756552D01*
X14737009Y-29727222D01*
X14893534Y-29643557D01*
X15063373Y-29592037D01*
X15129557Y-29585519D01*
X15195740Y-29579000D01*
X15284260Y-29579000D01*
X15350443Y-29585519D01*
X15350443Y-29585519D01*
G37*
G36*
X21670674Y-27082465D02*
G01*
X21708367Y-27093899D01*
X21743103Y-27112466D01*
X21773548Y-27137452D01*
X21798534Y-27167897D01*
X21817101Y-27202633D01*
X21828535Y-27240326D01*
X21833000Y-27285661D01*
X21833000Y-28122339D01*
X21828535Y-28167674D01*
X21817101Y-28205367D01*
X21798534Y-28240103D01*
X21773548Y-28270548D01*
X21743103Y-28295534D01*
X21708367Y-28314101D01*
X21670674Y-28325535D01*
X21625339Y-28330000D01*
X20538661Y-28330000D01*
X20493326Y-28325535D01*
X20455633Y-28314101D01*
X20420897Y-28295534D01*
X20390452Y-28270548D01*
X20365466Y-28240103D01*
X20346899Y-28205367D01*
X20335465Y-28167674D01*
X20331000Y-28122339D01*
X20331000Y-27285661D01*
X20335465Y-27240326D01*
X20346899Y-27202633D01*
X20365466Y-27167897D01*
X20390452Y-27137452D01*
X20420897Y-27112466D01*
X20455633Y-27093899D01*
X20493326Y-27082465D01*
X20538661Y-27078000D01*
X21625339Y-27078000D01*
X21670674Y-27082465D01*
X21670674Y-27082465D01*
G37*
G36*
X31332367Y-26509036D02*
G01*
X31370060Y-26520470D01*
X31404796Y-26539037D01*
X31440009Y-26567935D01*
X32031633Y-27159559D01*
X32060531Y-27194772D01*
X32079098Y-27229508D01*
X32090532Y-27267201D01*
X32094392Y-27306396D01*
X32090532Y-27345591D01*
X32079098Y-27383284D01*
X32060531Y-27418020D01*
X32031633Y-27453233D01*
X31263233Y-28221633D01*
X31228020Y-28250531D01*
X31193284Y-28269098D01*
X31155591Y-28280532D01*
X31116396Y-28284392D01*
X31077201Y-28280532D01*
X31039508Y-28269098D01*
X31004772Y-28250531D01*
X30969559Y-28221633D01*
X30377935Y-27630009D01*
X30349037Y-27594796D01*
X30330470Y-27560060D01*
X30319036Y-27522367D01*
X30315176Y-27483172D01*
X30319036Y-27443977D01*
X30330470Y-27406284D01*
X30349037Y-27371548D01*
X30377935Y-27336335D01*
X31146335Y-26567935D01*
X31181548Y-26539037D01*
X31216284Y-26520470D01*
X31253977Y-26509036D01*
X31293172Y-26505176D01*
X31332367Y-26509036D01*
X31332367Y-26509036D01*
G37*
G36*
X34126367Y-26509036D02*
G01*
X34164060Y-26520470D01*
X34198796Y-26539037D01*
X34234009Y-26567935D01*
X34825633Y-27159559D01*
X34854531Y-27194772D01*
X34873098Y-27229508D01*
X34884532Y-27267201D01*
X34888392Y-27306396D01*
X34884532Y-27345591D01*
X34873098Y-27383284D01*
X34854531Y-27418020D01*
X34825633Y-27453233D01*
X34057233Y-28221633D01*
X34022020Y-28250531D01*
X33987284Y-28269098D01*
X33949591Y-28280532D01*
X33910396Y-28284392D01*
X33871201Y-28280532D01*
X33833508Y-28269098D01*
X33798772Y-28250531D01*
X33763559Y-28221633D01*
X33171935Y-27630009D01*
X33143037Y-27594796D01*
X33124470Y-27560060D01*
X33113036Y-27522367D01*
X33109176Y-27483172D01*
X33113036Y-27443977D01*
X33124470Y-27406284D01*
X33143037Y-27371548D01*
X33171935Y-27336335D01*
X33940335Y-26567935D01*
X33975548Y-26539037D01*
X34010284Y-26520470D01*
X34047977Y-26509036D01*
X34087172Y-26505176D01*
X34126367Y-26509036D01*
X34126367Y-26509036D01*
G37*
G36*
X52488674Y-26603465D02*
G01*
X52526367Y-26614899D01*
X52561103Y-26633466D01*
X52591548Y-26658452D01*
X52616534Y-26688897D01*
X52635101Y-26723633D01*
X52646535Y-26761326D01*
X52651000Y-26806661D01*
X52651000Y-27893339D01*
X52646535Y-27938674D01*
X52635101Y-27976367D01*
X52616534Y-28011103D01*
X52591548Y-28041548D01*
X52561103Y-28066534D01*
X52526367Y-28085101D01*
X52488674Y-28096535D01*
X52443339Y-28101000D01*
X51606661Y-28101000D01*
X51561326Y-28096535D01*
X51523633Y-28085101D01*
X51488897Y-28066534D01*
X51458452Y-28041548D01*
X51433466Y-28011103D01*
X51414899Y-27976367D01*
X51403465Y-27938674D01*
X51399000Y-27893339D01*
X51399000Y-26806661D01*
X51403465Y-26761326D01*
X51414899Y-26723633D01*
X51433466Y-26688897D01*
X51458452Y-26658452D01*
X51488897Y-26633466D01*
X51523633Y-26614899D01*
X51561326Y-26603465D01*
X51606661Y-26599000D01*
X52443339Y-26599000D01*
X52488674Y-26603465D01*
X52488674Y-26603465D01*
G37*
G36*
X50438674Y-26603465D02*
G01*
X50476367Y-26614899D01*
X50511103Y-26633466D01*
X50541548Y-26658452D01*
X50566534Y-26688897D01*
X50585101Y-26723633D01*
X50596535Y-26761326D01*
X50601000Y-26806661D01*
X50601000Y-27893339D01*
X50596535Y-27938674D01*
X50585101Y-27976367D01*
X50566534Y-28011103D01*
X50541548Y-28041548D01*
X50511103Y-28066534D01*
X50476367Y-28085101D01*
X50438674Y-28096535D01*
X50393339Y-28101000D01*
X49556661Y-28101000D01*
X49511326Y-28096535D01*
X49473633Y-28085101D01*
X49438897Y-28066534D01*
X49408452Y-28041548D01*
X49383466Y-28011103D01*
X49364899Y-27976367D01*
X49353465Y-27938674D01*
X49349000Y-27893339D01*
X49349000Y-26806661D01*
X49353465Y-26761326D01*
X49364899Y-26723633D01*
X49383466Y-26688897D01*
X49408452Y-26658452D01*
X49438897Y-26633466D01*
X49473633Y-26614899D01*
X49511326Y-26603465D01*
X49556661Y-26599000D01*
X50393339Y-26599000D01*
X50438674Y-26603465D01*
X50438674Y-26603465D01*
G37*
G36*
X18592085Y-26448617D02*
G01*
X18625679Y-26451926D01*
X18701594Y-26474955D01*
X18754995Y-26491153D01*
X18874164Y-26554851D01*
X18978623Y-26640577D01*
X19064349Y-26745036D01*
X19128047Y-26864205D01*
X19144246Y-26917606D01*
X19167274Y-26993521D01*
X19180519Y-27128000D01*
X19167274Y-27262479D01*
X19153952Y-27306396D01*
X19128047Y-27391795D01*
X19064349Y-27510964D01*
X18978623Y-27615423D01*
X18874164Y-27701149D01*
X18754995Y-27764847D01*
X18701594Y-27781046D01*
X18625679Y-27804074D01*
X18592085Y-27807383D01*
X18524900Y-27814000D01*
X17695500Y-27814000D01*
X17628315Y-27807383D01*
X17594721Y-27804074D01*
X17518806Y-27781046D01*
X17465405Y-27764847D01*
X17346236Y-27701149D01*
X17241777Y-27615423D01*
X17156051Y-27510964D01*
X17092353Y-27391795D01*
X17066448Y-27306396D01*
X17053126Y-27262479D01*
X17039881Y-27128000D01*
X17053126Y-26993521D01*
X17076154Y-26917606D01*
X17092353Y-26864205D01*
X17156051Y-26745036D01*
X17241777Y-26640577D01*
X17346236Y-26554851D01*
X17465405Y-26491153D01*
X17518806Y-26474955D01*
X17594721Y-26451926D01*
X17628315Y-26448617D01*
X17695500Y-26442000D01*
X18524900Y-26442000D01*
X18592085Y-26448617D01*
X18592085Y-26448617D01*
G37*
G36*
X14172485Y-26448617D02*
G01*
X14206079Y-26451926D01*
X14281994Y-26474955D01*
X14335395Y-26491153D01*
X14454564Y-26554851D01*
X14559023Y-26640577D01*
X14644749Y-26745036D01*
X14708447Y-26864205D01*
X14724646Y-26917606D01*
X14747674Y-26993521D01*
X14760919Y-27128000D01*
X14747674Y-27262479D01*
X14734352Y-27306396D01*
X14708447Y-27391795D01*
X14644749Y-27510964D01*
X14559023Y-27615423D01*
X14454564Y-27701149D01*
X14335395Y-27764847D01*
X14281994Y-27781046D01*
X14206079Y-27804074D01*
X14172485Y-27807383D01*
X14105300Y-27814000D01*
X13479100Y-27814000D01*
X13411915Y-27807383D01*
X13378321Y-27804074D01*
X13302406Y-27781046D01*
X13249005Y-27764847D01*
X13129836Y-27701149D01*
X13025377Y-27615423D01*
X12939651Y-27510964D01*
X12875953Y-27391795D01*
X12850048Y-27306396D01*
X12836726Y-27262479D01*
X12823481Y-27128000D01*
X12836726Y-26993521D01*
X12859754Y-26917606D01*
X12875953Y-26864205D01*
X12939651Y-26745036D01*
X13025377Y-26640577D01*
X13129836Y-26554851D01*
X13249005Y-26491153D01*
X13302406Y-26474955D01*
X13378321Y-26451926D01*
X13411915Y-26448617D01*
X13479100Y-26442000D01*
X14105300Y-26442000D01*
X14172485Y-26448617D01*
X14172485Y-26448617D01*
G37*
G36*
X61513674Y-26253465D02*
G01*
X61551367Y-26264899D01*
X61586103Y-26283466D01*
X61616548Y-26308452D01*
X61641534Y-26338897D01*
X61660101Y-26373633D01*
X61671535Y-26411326D01*
X61676000Y-26456661D01*
X61676000Y-27543339D01*
X61671535Y-27588674D01*
X61660101Y-27626367D01*
X61641534Y-27661103D01*
X61616548Y-27691548D01*
X61586103Y-27716534D01*
X61551367Y-27735101D01*
X61513674Y-27746535D01*
X61468339Y-27751000D01*
X60631661Y-27751000D01*
X60586326Y-27746535D01*
X60548633Y-27735101D01*
X60513897Y-27716534D01*
X60483452Y-27691548D01*
X60458466Y-27661103D01*
X60439899Y-27626367D01*
X60428465Y-27588674D01*
X60424000Y-27543339D01*
X60424000Y-26456661D01*
X60428465Y-26411326D01*
X60439899Y-26373633D01*
X60458466Y-26338897D01*
X60483452Y-26308452D01*
X60513897Y-26283466D01*
X60548633Y-26264899D01*
X60586326Y-26253465D01*
X60631661Y-26249000D01*
X61468339Y-26249000D01*
X61513674Y-26253465D01*
X61513674Y-26253465D01*
G37*
G36*
X59463674Y-26253465D02*
G01*
X59501367Y-26264899D01*
X59536103Y-26283466D01*
X59566548Y-26308452D01*
X59591534Y-26338897D01*
X59610101Y-26373633D01*
X59621535Y-26411326D01*
X59626000Y-26456661D01*
X59626000Y-27543339D01*
X59621535Y-27588674D01*
X59610101Y-27626367D01*
X59591534Y-27661103D01*
X59566548Y-27691548D01*
X59536103Y-27716534D01*
X59501367Y-27735101D01*
X59463674Y-27746535D01*
X59418339Y-27751000D01*
X58581661Y-27751000D01*
X58536326Y-27746535D01*
X58498633Y-27735101D01*
X58463897Y-27716534D01*
X58433452Y-27691548D01*
X58408466Y-27661103D01*
X58389899Y-27626367D01*
X58378465Y-27588674D01*
X58374000Y-27543339D01*
X58374000Y-26456661D01*
X58378465Y-26411326D01*
X58389899Y-26373633D01*
X58408466Y-26338897D01*
X58433452Y-26308452D01*
X58463897Y-26283466D01*
X58498633Y-26264899D01*
X58536326Y-26253465D01*
X58581661Y-26249000D01*
X59418339Y-26249000D01*
X59463674Y-26253465D01*
X59463674Y-26253465D01*
G37*
G36*
X26879674Y-26177465D02*
G01*
X26917367Y-26188899D01*
X26952103Y-26207466D01*
X26982548Y-26232452D01*
X27007534Y-26262897D01*
X27026101Y-26297633D01*
X27037535Y-26335326D01*
X27042000Y-26380661D01*
X27042000Y-27467339D01*
X27037535Y-27512674D01*
X27026101Y-27550367D01*
X27007534Y-27585103D01*
X26982548Y-27615548D01*
X26952103Y-27640534D01*
X26917367Y-27659101D01*
X26879674Y-27670535D01*
X26834339Y-27675000D01*
X25997661Y-27675000D01*
X25952326Y-27670535D01*
X25914633Y-27659101D01*
X25879897Y-27640534D01*
X25849452Y-27615548D01*
X25824466Y-27585103D01*
X25805899Y-27550367D01*
X25794465Y-27512674D01*
X25790000Y-27467339D01*
X25790000Y-26380661D01*
X25794465Y-26335326D01*
X25805899Y-26297633D01*
X25824466Y-26262897D01*
X25849452Y-26232452D01*
X25879897Y-26207466D01*
X25914633Y-26188899D01*
X25952326Y-26177465D01*
X25997661Y-26173000D01*
X26834339Y-26173000D01*
X26879674Y-26177465D01*
X26879674Y-26177465D01*
G37*
G36*
X24829674Y-26177465D02*
G01*
X24867367Y-26188899D01*
X24902103Y-26207466D01*
X24932548Y-26232452D01*
X24957534Y-26262897D01*
X24976101Y-26297633D01*
X24987535Y-26335326D01*
X24992000Y-26380661D01*
X24992000Y-27467339D01*
X24987535Y-27512674D01*
X24976101Y-27550367D01*
X24957534Y-27585103D01*
X24932548Y-27615548D01*
X24902103Y-27640534D01*
X24867367Y-27659101D01*
X24829674Y-27670535D01*
X24784339Y-27675000D01*
X23947661Y-27675000D01*
X23902326Y-27670535D01*
X23864633Y-27659101D01*
X23829897Y-27640534D01*
X23799452Y-27615548D01*
X23774466Y-27585103D01*
X23755899Y-27550367D01*
X23744465Y-27512674D01*
X23740000Y-27467339D01*
X23740000Y-26380661D01*
X23744465Y-26335326D01*
X23755899Y-26297633D01*
X23774466Y-26262897D01*
X23799452Y-26232452D01*
X23829897Y-26207466D01*
X23864633Y-26188899D01*
X23902326Y-26177465D01*
X23947661Y-26173000D01*
X24784339Y-26173000D01*
X24829674Y-26177465D01*
X24829674Y-26177465D01*
G37*
G36*
X63851637Y-25773927D02*
G01*
X64000937Y-25803624D01*
X64164909Y-25871544D01*
X64312479Y-25970147D01*
X64437978Y-26095646D01*
X64536581Y-26243216D01*
X64604501Y-26407188D01*
X64639125Y-26581259D01*
X64639125Y-26758741D01*
X64604501Y-26932812D01*
X64536581Y-27096784D01*
X64437978Y-27244354D01*
X64312479Y-27369853D01*
X64164909Y-27468456D01*
X64000937Y-27536376D01*
X63851637Y-27566073D01*
X63826867Y-27571000D01*
X63649383Y-27571000D01*
X63624613Y-27566073D01*
X63475313Y-27536376D01*
X63311341Y-27468456D01*
X63163771Y-27369853D01*
X63038272Y-27244354D01*
X62939669Y-27096784D01*
X62871749Y-26932812D01*
X62837125Y-26758741D01*
X62837125Y-26581259D01*
X62871749Y-26407188D01*
X62939669Y-26243216D01*
X63038272Y-26095646D01*
X63163771Y-25970147D01*
X63311341Y-25871544D01*
X63475313Y-25803624D01*
X63624613Y-25773927D01*
X63649383Y-25769000D01*
X63826867Y-25769000D01*
X63851637Y-25773927D01*
X63851637Y-25773927D01*
G37*
G36*
X29882799Y-25059468D02*
G01*
X29920492Y-25070902D01*
X29955228Y-25089469D01*
X29990441Y-25118367D01*
X30582065Y-25709991D01*
X30610963Y-25745204D01*
X30629530Y-25779940D01*
X30640964Y-25817633D01*
X30644824Y-25856828D01*
X30640964Y-25896023D01*
X30629530Y-25933716D01*
X30610963Y-25968452D01*
X30582065Y-26003665D01*
X29813665Y-26772065D01*
X29778452Y-26800963D01*
X29743716Y-26819530D01*
X29706023Y-26830964D01*
X29666828Y-26834824D01*
X29627633Y-26830964D01*
X29589940Y-26819530D01*
X29555204Y-26800963D01*
X29519991Y-26772065D01*
X28928367Y-26180441D01*
X28899469Y-26145228D01*
X28880902Y-26110492D01*
X28869468Y-26072799D01*
X28865608Y-26033604D01*
X28869468Y-25994409D01*
X28880902Y-25956716D01*
X28899469Y-25921980D01*
X28928367Y-25886767D01*
X29696767Y-25118367D01*
X29731980Y-25089469D01*
X29766716Y-25070902D01*
X29804409Y-25059468D01*
X29843604Y-25055608D01*
X29882799Y-25059468D01*
X29882799Y-25059468D01*
G37*
G36*
X32676799Y-25059468D02*
G01*
X32714492Y-25070902D01*
X32749228Y-25089469D01*
X32784441Y-25118367D01*
X33376065Y-25709991D01*
X33404963Y-25745204D01*
X33423530Y-25779940D01*
X33434964Y-25817633D01*
X33438824Y-25856828D01*
X33434964Y-25896023D01*
X33423530Y-25933716D01*
X33404963Y-25968452D01*
X33376065Y-26003665D01*
X32607665Y-26772065D01*
X32572452Y-26800963D01*
X32537716Y-26819530D01*
X32500023Y-26830964D01*
X32460828Y-26834824D01*
X32421633Y-26830964D01*
X32383940Y-26819530D01*
X32349204Y-26800963D01*
X32313991Y-26772065D01*
X31722367Y-26180441D01*
X31693469Y-26145228D01*
X31674902Y-26110492D01*
X31663468Y-26072799D01*
X31659608Y-26033604D01*
X31663468Y-25994409D01*
X31674902Y-25956716D01*
X31693469Y-25921980D01*
X31722367Y-25886767D01*
X32490767Y-25118367D01*
X32525980Y-25089469D01*
X32560716Y-25070902D01*
X32598409Y-25059468D01*
X32637604Y-25055608D01*
X32676799Y-25059468D01*
X32676799Y-25059468D01*
G37*
G36*
X38153151Y-24947820D02*
G01*
X38190844Y-24959254D01*
X38225580Y-24977821D01*
X38260793Y-25006719D01*
X38852417Y-25598343D01*
X38881315Y-25633556D01*
X38899882Y-25668292D01*
X38911316Y-25705985D01*
X38915176Y-25745180D01*
X38911316Y-25784375D01*
X38899882Y-25822068D01*
X38881315Y-25856804D01*
X38852417Y-25892017D01*
X38084017Y-26660417D01*
X38048804Y-26689315D01*
X38014068Y-26707882D01*
X37976375Y-26719316D01*
X37937180Y-26723176D01*
X37897985Y-26719316D01*
X37860292Y-26707882D01*
X37825556Y-26689315D01*
X37790343Y-26660417D01*
X37198719Y-26068793D01*
X37169821Y-26033580D01*
X37151254Y-25998844D01*
X37139820Y-25961151D01*
X37135960Y-25921956D01*
X37139820Y-25882761D01*
X37151254Y-25845068D01*
X37169821Y-25810332D01*
X37198719Y-25775119D01*
X37967119Y-25006719D01*
X38002332Y-24977821D01*
X38037068Y-24959254D01*
X38074761Y-24947820D01*
X38113956Y-24943960D01*
X38153151Y-24947820D01*
X38153151Y-24947820D01*
G37*
G36*
X21670674Y-25032465D02*
G01*
X21708367Y-25043899D01*
X21743103Y-25062466D01*
X21773548Y-25087452D01*
X21798534Y-25117897D01*
X21817101Y-25152633D01*
X21828535Y-25190326D01*
X21833000Y-25235661D01*
X21833000Y-26072339D01*
X21828535Y-26117674D01*
X21817101Y-26155367D01*
X21798534Y-26190103D01*
X21773548Y-26220548D01*
X21743103Y-26245534D01*
X21708367Y-26264101D01*
X21670674Y-26275535D01*
X21625339Y-26280000D01*
X20538661Y-26280000D01*
X20493326Y-26275535D01*
X20455633Y-26264101D01*
X20420897Y-26245534D01*
X20390452Y-26220548D01*
X20365466Y-26190103D01*
X20346899Y-26155367D01*
X20335465Y-26117674D01*
X20331000Y-26072339D01*
X20331000Y-25235661D01*
X20335465Y-25190326D01*
X20346899Y-25152633D01*
X20365466Y-25117897D01*
X20390452Y-25087452D01*
X20420897Y-25062466D01*
X20455633Y-25043899D01*
X20493326Y-25032465D01*
X20538661Y-25028000D01*
X21625339Y-25028000D01*
X21670674Y-25032465D01*
X21670674Y-25032465D01*
G37*
G36*
X17641043Y-25234292D02*
G01*
X17691788Y-25255311D01*
X17727670Y-25270174D01*
X17805632Y-25322267D01*
X17871933Y-25388568D01*
X17924026Y-25466530D01*
X17924026Y-25466531D01*
X17959908Y-25553157D01*
X17978200Y-25645117D01*
X17978200Y-25738883D01*
X17959908Y-25830843D01*
X17943049Y-25871544D01*
X17924026Y-25917470D01*
X17871933Y-25995432D01*
X17805632Y-26061733D01*
X17727670Y-26113826D01*
X17691788Y-26128689D01*
X17641043Y-26149708D01*
X17549083Y-26168000D01*
X17455317Y-26168000D01*
X17363357Y-26149708D01*
X17312612Y-26128689D01*
X17276730Y-26113826D01*
X17198768Y-26061733D01*
X17132467Y-25995432D01*
X17080374Y-25917470D01*
X17061351Y-25871544D01*
X17044492Y-25830843D01*
X17026200Y-25738883D01*
X17026200Y-25645117D01*
X17044492Y-25553157D01*
X17080374Y-25466531D01*
X17080374Y-25466530D01*
X17132467Y-25388568D01*
X17198768Y-25322267D01*
X17276730Y-25270174D01*
X17312612Y-25255311D01*
X17363357Y-25234292D01*
X17455317Y-25216000D01*
X17549083Y-25216000D01*
X17641043Y-25234292D01*
X17641043Y-25234292D01*
G37*
G36*
X16366200Y-25993000D02*
G01*
X15464200Y-25993000D01*
X15464200Y-24991000D01*
X16366200Y-24991000D01*
X16366200Y-25993000D01*
X16366200Y-25993000D01*
G37*
G36*
X14466200Y-25993000D02*
G01*
X13564200Y-25993000D01*
X13564200Y-24991000D01*
X14466200Y-24991000D01*
X14466200Y-25993000D01*
X14466200Y-25993000D01*
G37*
G36*
X36703583Y-23498252D02*
G01*
X36741276Y-23509686D01*
X36776012Y-23528253D01*
X36811225Y-23557151D01*
X37402849Y-24148775D01*
X37431747Y-24183988D01*
X37450314Y-24218724D01*
X37461748Y-24256417D01*
X37465608Y-24295612D01*
X37461748Y-24334807D01*
X37450314Y-24372500D01*
X37431747Y-24407236D01*
X37402849Y-24442449D01*
X36634449Y-25210849D01*
X36599236Y-25239747D01*
X36564500Y-25258314D01*
X36526807Y-25269748D01*
X36487612Y-25273608D01*
X36448417Y-25269748D01*
X36410724Y-25258314D01*
X36375988Y-25239747D01*
X36340775Y-25210849D01*
X35749151Y-24619225D01*
X35720253Y-24584012D01*
X35701686Y-24549276D01*
X35690252Y-24511583D01*
X35686392Y-24472388D01*
X35690252Y-24433193D01*
X35701686Y-24395500D01*
X35720253Y-24360764D01*
X35749151Y-24325551D01*
X36517551Y-23557151D01*
X36552764Y-23528253D01*
X36587500Y-23509686D01*
X36625193Y-23498252D01*
X36664388Y-23494392D01*
X36703583Y-23498252D01*
X36703583Y-23498252D01*
G37*
G36*
X39649239Y-23461036D02*
G01*
X39686932Y-23472470D01*
X39721668Y-23491037D01*
X39756881Y-23519935D01*
X40525281Y-24288335D01*
X40554179Y-24323548D01*
X40572746Y-24358284D01*
X40584180Y-24395977D01*
X40588040Y-24435172D01*
X40584180Y-24474367D01*
X40572746Y-24512060D01*
X40554179Y-24546796D01*
X40525281Y-24582009D01*
X39933657Y-25173633D01*
X39898444Y-25202531D01*
X39863708Y-25221098D01*
X39826015Y-25232532D01*
X39786820Y-25236392D01*
X39747625Y-25232532D01*
X39709932Y-25221098D01*
X39675196Y-25202531D01*
X39639983Y-25173633D01*
X38871583Y-24405233D01*
X38842685Y-24370020D01*
X38824118Y-24335284D01*
X38812684Y-24297591D01*
X38808824Y-24258396D01*
X38812684Y-24219201D01*
X38824118Y-24181508D01*
X38842685Y-24146772D01*
X38871583Y-24111559D01*
X39463207Y-23519935D01*
X39498420Y-23491037D01*
X39533156Y-23472470D01*
X39570849Y-23461036D01*
X39610044Y-23457176D01*
X39649239Y-23461036D01*
X39649239Y-23461036D01*
G37*
G36*
X27913674Y-23618465D02*
G01*
X27951367Y-23629899D01*
X27986103Y-23648466D01*
X28016548Y-23673452D01*
X28041534Y-23703897D01*
X28060101Y-23738633D01*
X28071535Y-23776326D01*
X28076000Y-23821661D01*
X28076000Y-24908339D01*
X28071535Y-24953674D01*
X28060101Y-24991367D01*
X28041534Y-25026103D01*
X28016548Y-25056548D01*
X27986103Y-25081534D01*
X27951367Y-25100101D01*
X27913674Y-25111535D01*
X27868339Y-25116000D01*
X27031661Y-25116000D01*
X26986326Y-25111535D01*
X26948633Y-25100101D01*
X26913897Y-25081534D01*
X26883452Y-25056548D01*
X26858466Y-25026103D01*
X26839899Y-24991367D01*
X26828465Y-24953674D01*
X26824000Y-24908339D01*
X26824000Y-23821661D01*
X26828465Y-23776326D01*
X26839899Y-23738633D01*
X26858466Y-23703897D01*
X26883452Y-23673452D01*
X26913897Y-23648466D01*
X26948633Y-23629899D01*
X26986326Y-23618465D01*
X27031661Y-23614000D01*
X27868339Y-23614000D01*
X27913674Y-23618465D01*
X27913674Y-23618465D01*
G37*
G36*
X25863674Y-23618465D02*
G01*
X25901367Y-23629899D01*
X25936103Y-23648466D01*
X25966548Y-23673452D01*
X25991534Y-23703897D01*
X26010101Y-23738633D01*
X26021535Y-23776326D01*
X26026000Y-23821661D01*
X26026000Y-24908339D01*
X26021535Y-24953674D01*
X26010101Y-24991367D01*
X25991534Y-25026103D01*
X25966548Y-25056548D01*
X25936103Y-25081534D01*
X25901367Y-25100101D01*
X25863674Y-25111535D01*
X25818339Y-25116000D01*
X24981661Y-25116000D01*
X24936326Y-25111535D01*
X24898633Y-25100101D01*
X24863897Y-25081534D01*
X24833452Y-25056548D01*
X24808466Y-25026103D01*
X24789899Y-24991367D01*
X24778465Y-24953674D01*
X24774000Y-24908339D01*
X24774000Y-23821661D01*
X24778465Y-23776326D01*
X24789899Y-23738633D01*
X24808466Y-23703897D01*
X24833452Y-23673452D01*
X24863897Y-23648466D01*
X24898633Y-23629899D01*
X24936326Y-23618465D01*
X24981661Y-23614000D01*
X25818339Y-23614000D01*
X25863674Y-23618465D01*
X25863674Y-23618465D01*
G37*
G36*
X52488674Y-23603465D02*
G01*
X52526367Y-23614899D01*
X52561103Y-23633466D01*
X52591548Y-23658452D01*
X52616534Y-23688897D01*
X52635101Y-23723633D01*
X52646535Y-23761326D01*
X52651000Y-23806661D01*
X52651000Y-24893339D01*
X52646535Y-24938674D01*
X52635101Y-24976367D01*
X52616534Y-25011103D01*
X52591548Y-25041548D01*
X52561103Y-25066534D01*
X52526367Y-25085101D01*
X52488674Y-25096535D01*
X52443339Y-25101000D01*
X51606661Y-25101000D01*
X51561326Y-25096535D01*
X51523633Y-25085101D01*
X51488897Y-25066534D01*
X51458452Y-25041548D01*
X51433466Y-25011103D01*
X51414899Y-24976367D01*
X51403465Y-24938674D01*
X51399000Y-24893339D01*
X51399000Y-23806661D01*
X51403465Y-23761326D01*
X51414899Y-23723633D01*
X51433466Y-23688897D01*
X51458452Y-23658452D01*
X51488897Y-23633466D01*
X51523633Y-23614899D01*
X51561326Y-23603465D01*
X51606661Y-23599000D01*
X52443339Y-23599000D01*
X52488674Y-23603465D01*
X52488674Y-23603465D01*
G37*
G36*
X50438674Y-23603465D02*
G01*
X50476367Y-23614899D01*
X50511103Y-23633466D01*
X50541548Y-23658452D01*
X50566534Y-23688897D01*
X50585101Y-23723633D01*
X50596535Y-23761326D01*
X50601000Y-23806661D01*
X50601000Y-24893339D01*
X50596535Y-24938674D01*
X50585101Y-24976367D01*
X50566534Y-25011103D01*
X50541548Y-25041548D01*
X50511103Y-25066534D01*
X50476367Y-25085101D01*
X50438674Y-25096535D01*
X50393339Y-25101000D01*
X49556661Y-25101000D01*
X49511326Y-25096535D01*
X49473633Y-25085101D01*
X49438897Y-25066534D01*
X49408452Y-25041548D01*
X49383466Y-25011103D01*
X49364899Y-24976367D01*
X49353465Y-24938674D01*
X49349000Y-24893339D01*
X49349000Y-23806661D01*
X49353465Y-23761326D01*
X49364899Y-23723633D01*
X49383466Y-23688897D01*
X49408452Y-23658452D01*
X49438897Y-23633466D01*
X49473633Y-23614899D01*
X49511326Y-23603465D01*
X49556661Y-23599000D01*
X50393339Y-23599000D01*
X50438674Y-23603465D01*
X50438674Y-23603465D01*
G37*
G36*
X63848567Y-23235518D02*
G01*
X63914752Y-23242037D01*
X64084591Y-23293557D01*
X64241116Y-23377222D01*
X64249655Y-23384230D01*
X64378311Y-23489814D01*
X64433572Y-23557151D01*
X64490903Y-23627009D01*
X64490904Y-23627011D01*
X64562698Y-23761326D01*
X64574568Y-23783534D01*
X64626088Y-23953373D01*
X64643484Y-24130000D01*
X64626088Y-24306627D01*
X64574568Y-24476466D01*
X64574567Y-24476468D01*
X64548366Y-24525486D01*
X64490903Y-24632991D01*
X64461573Y-24668729D01*
X64378311Y-24770186D01*
X64299174Y-24835131D01*
X64241116Y-24882778D01*
X64084591Y-24966443D01*
X63914752Y-25017963D01*
X63848568Y-25024481D01*
X63782385Y-25031000D01*
X63693865Y-25031000D01*
X63627682Y-25024481D01*
X63561498Y-25017963D01*
X63391659Y-24966443D01*
X63235134Y-24882778D01*
X63177076Y-24835131D01*
X63097939Y-24770186D01*
X63014677Y-24668729D01*
X62985347Y-24632991D01*
X62927884Y-24525486D01*
X62901683Y-24476468D01*
X62901682Y-24476466D01*
X62850162Y-24306627D01*
X62832766Y-24130000D01*
X62850162Y-23953373D01*
X62901682Y-23783534D01*
X62913553Y-23761326D01*
X62985346Y-23627011D01*
X62985347Y-23627009D01*
X63042678Y-23557151D01*
X63097939Y-23489814D01*
X63226595Y-23384230D01*
X63235134Y-23377222D01*
X63391659Y-23293557D01*
X63561498Y-23242037D01*
X63627683Y-23235518D01*
X63693865Y-23229000D01*
X63782385Y-23229000D01*
X63848567Y-23235518D01*
X63848567Y-23235518D01*
G37*
G36*
X59446174Y-23383465D02*
G01*
X59483867Y-23394899D01*
X59518603Y-23413466D01*
X59549048Y-23438452D01*
X59574034Y-23468897D01*
X59592601Y-23503633D01*
X59604035Y-23541326D01*
X59608500Y-23586661D01*
X59608500Y-24673339D01*
X59604035Y-24718674D01*
X59592601Y-24756367D01*
X59574034Y-24791103D01*
X59549048Y-24821548D01*
X59518603Y-24846534D01*
X59483867Y-24865101D01*
X59446174Y-24876535D01*
X59400839Y-24881000D01*
X58564161Y-24881000D01*
X58518826Y-24876535D01*
X58481133Y-24865101D01*
X58446397Y-24846534D01*
X58415952Y-24821548D01*
X58390966Y-24791103D01*
X58372399Y-24756367D01*
X58360965Y-24718674D01*
X58356500Y-24673339D01*
X58356500Y-23586661D01*
X58360965Y-23541326D01*
X58372399Y-23503633D01*
X58390966Y-23468897D01*
X58415952Y-23438452D01*
X58446397Y-23413466D01*
X58481133Y-23394899D01*
X58518826Y-23383465D01*
X58564161Y-23379000D01*
X59400839Y-23379000D01*
X59446174Y-23383465D01*
X59446174Y-23383465D01*
G37*
G36*
X61496174Y-23383465D02*
G01*
X61533867Y-23394899D01*
X61568603Y-23413466D01*
X61599048Y-23438452D01*
X61624034Y-23468897D01*
X61642601Y-23503633D01*
X61654035Y-23541326D01*
X61658500Y-23586661D01*
X61658500Y-24673339D01*
X61654035Y-24718674D01*
X61642601Y-24756367D01*
X61624034Y-24791103D01*
X61599048Y-24821548D01*
X61568603Y-24846534D01*
X61533867Y-24865101D01*
X61496174Y-24876535D01*
X61450839Y-24881000D01*
X60614161Y-24881000D01*
X60568826Y-24876535D01*
X60531133Y-24865101D01*
X60496397Y-24846534D01*
X60465952Y-24821548D01*
X60440966Y-24791103D01*
X60422399Y-24756367D01*
X60410965Y-24718674D01*
X60406500Y-24673339D01*
X60406500Y-23586661D01*
X60410965Y-23541326D01*
X60422399Y-23503633D01*
X60440966Y-23468897D01*
X60465952Y-23438452D01*
X60496397Y-23413466D01*
X60531133Y-23394899D01*
X60568826Y-23383465D01*
X60614161Y-23379000D01*
X61450839Y-23379000D01*
X61496174Y-23383465D01*
X61496174Y-23383465D01*
G37*
G36*
X15416200Y-23993000D02*
G01*
X14514200Y-23993000D01*
X14514200Y-22991000D01*
X15416200Y-22991000D01*
X15416200Y-23993000D01*
X15416200Y-23993000D01*
G37*
G36*
X41098807Y-22011468D02*
G01*
X41136500Y-22022902D01*
X41171236Y-22041469D01*
X41206449Y-22070367D01*
X41974849Y-22838767D01*
X42003747Y-22873980D01*
X42022314Y-22908716D01*
X42033748Y-22946409D01*
X42037608Y-22985604D01*
X42033748Y-23024799D01*
X42022314Y-23062492D01*
X42003747Y-23097228D01*
X41974849Y-23132441D01*
X41383225Y-23724065D01*
X41348012Y-23752963D01*
X41313276Y-23771530D01*
X41275583Y-23782964D01*
X41236388Y-23786824D01*
X41197193Y-23782964D01*
X41159500Y-23771530D01*
X41124764Y-23752963D01*
X41089551Y-23724065D01*
X40321151Y-22955665D01*
X40292253Y-22920452D01*
X40273686Y-22885716D01*
X40262252Y-22848023D01*
X40258392Y-22808828D01*
X40262252Y-22769633D01*
X40273686Y-22731940D01*
X40292253Y-22697204D01*
X40321151Y-22661991D01*
X40912775Y-22070367D01*
X40947988Y-22041469D01*
X40982724Y-22022902D01*
X41020417Y-22011468D01*
X41059612Y-22007608D01*
X41098807Y-22011468D01*
X41098807Y-22011468D01*
G37*
G36*
X35040023Y-21937036D02*
G01*
X35077716Y-21948470D01*
X35112452Y-21967037D01*
X35147665Y-21995935D01*
X35916065Y-22764335D01*
X35944963Y-22799548D01*
X35963530Y-22834284D01*
X35974964Y-22871977D01*
X35978824Y-22911172D01*
X35974964Y-22950367D01*
X35963530Y-22988060D01*
X35944963Y-23022796D01*
X35916065Y-23058009D01*
X35324441Y-23649633D01*
X35289228Y-23678531D01*
X35254492Y-23697098D01*
X35216799Y-23708532D01*
X35177604Y-23712392D01*
X35138409Y-23708532D01*
X35100716Y-23697098D01*
X35065980Y-23678531D01*
X35030767Y-23649633D01*
X34262367Y-22881233D01*
X34233469Y-22846020D01*
X34214902Y-22811284D01*
X34203468Y-22773591D01*
X34199608Y-22734396D01*
X34203468Y-22695201D01*
X34214902Y-22657508D01*
X34233469Y-22622772D01*
X34262367Y-22587559D01*
X34853991Y-21995935D01*
X34889204Y-21967037D01*
X34923940Y-21948470D01*
X34961633Y-21937036D01*
X35000828Y-21933176D01*
X35040023Y-21937036D01*
X35040023Y-21937036D01*
G37*
G36*
X29066443Y-21330519D02*
G01*
X29132627Y-21337037D01*
X29302466Y-21388557D01*
X29458991Y-21472222D01*
X29491371Y-21498796D01*
X29596186Y-21584814D01*
X29679448Y-21686271D01*
X29708778Y-21722009D01*
X29792443Y-21878534D01*
X29843963Y-22048373D01*
X29861359Y-22225000D01*
X29843963Y-22401627D01*
X29792443Y-22571466D01*
X29708778Y-22727991D01*
X29686013Y-22755730D01*
X29596186Y-22865186D01*
X29514155Y-22932506D01*
X29458991Y-22977778D01*
X29302466Y-23061443D01*
X29132627Y-23112963D01*
X29066442Y-23119482D01*
X29000260Y-23126000D01*
X28911740Y-23126000D01*
X28845558Y-23119482D01*
X28779373Y-23112963D01*
X28609534Y-23061443D01*
X28453009Y-22977778D01*
X28397845Y-22932506D01*
X28315814Y-22865186D01*
X28225987Y-22755730D01*
X28203222Y-22727991D01*
X28119557Y-22571466D01*
X28068037Y-22401627D01*
X28050641Y-22225000D01*
X28068037Y-22048373D01*
X28119557Y-21878534D01*
X28203222Y-21722009D01*
X28232552Y-21686271D01*
X28315814Y-21584814D01*
X28420629Y-21498796D01*
X28453009Y-21472222D01*
X28609534Y-21388557D01*
X28779373Y-21337037D01*
X28845557Y-21330519D01*
X28911740Y-21324000D01*
X29000260Y-21324000D01*
X29066443Y-21330519D01*
X29066443Y-21330519D01*
G37*
G36*
X26526443Y-21330519D02*
G01*
X26592627Y-21337037D01*
X26762466Y-21388557D01*
X26918991Y-21472222D01*
X26951371Y-21498796D01*
X27056186Y-21584814D01*
X27139448Y-21686271D01*
X27168778Y-21722009D01*
X27252443Y-21878534D01*
X27303963Y-22048373D01*
X27321359Y-22225000D01*
X27303963Y-22401627D01*
X27252443Y-22571466D01*
X27168778Y-22727991D01*
X27146013Y-22755730D01*
X27056186Y-22865186D01*
X26974155Y-22932506D01*
X26918991Y-22977778D01*
X26762466Y-23061443D01*
X26592627Y-23112963D01*
X26526442Y-23119482D01*
X26460260Y-23126000D01*
X26371740Y-23126000D01*
X26305558Y-23119482D01*
X26239373Y-23112963D01*
X26069534Y-23061443D01*
X25913009Y-22977778D01*
X25857845Y-22932506D01*
X25775814Y-22865186D01*
X25685987Y-22755730D01*
X25663222Y-22727991D01*
X25579557Y-22571466D01*
X25528037Y-22401627D01*
X25510641Y-22225000D01*
X25528037Y-22048373D01*
X25579557Y-21878534D01*
X25663222Y-21722009D01*
X25692552Y-21686271D01*
X25775814Y-21584814D01*
X25880629Y-21498796D01*
X25913009Y-21472222D01*
X26069534Y-21388557D01*
X26239373Y-21337037D01*
X26305557Y-21330519D01*
X26371740Y-21324000D01*
X26460260Y-21324000D01*
X26526443Y-21330519D01*
X26526443Y-21330519D01*
G37*
G36*
X23989512Y-21328927D02*
G01*
X24138812Y-21358624D01*
X24302784Y-21426544D01*
X24450354Y-21525147D01*
X24575853Y-21650646D01*
X24674456Y-21798216D01*
X24742376Y-21962188D01*
X24768393Y-22092989D01*
X24777000Y-22136258D01*
X24777000Y-22313742D01*
X24772618Y-22335770D01*
X24742376Y-22487812D01*
X24674456Y-22651784D01*
X24575853Y-22799354D01*
X24450354Y-22924853D01*
X24302784Y-23023456D01*
X24138812Y-23091376D01*
X23989512Y-23121073D01*
X23964742Y-23126000D01*
X23787258Y-23126000D01*
X23762488Y-23121073D01*
X23613188Y-23091376D01*
X23449216Y-23023456D01*
X23301646Y-22924853D01*
X23176147Y-22799354D01*
X23077544Y-22651784D01*
X23009624Y-22487812D01*
X22979382Y-22335770D01*
X22975000Y-22313742D01*
X22975000Y-22136258D01*
X22983607Y-22092989D01*
X23009624Y-21962188D01*
X23077544Y-21798216D01*
X23176147Y-21650646D01*
X23301646Y-21525147D01*
X23449216Y-21426544D01*
X23613188Y-21358624D01*
X23762488Y-21328927D01*
X23787258Y-21324000D01*
X23964742Y-21324000D01*
X23989512Y-21328927D01*
X23989512Y-21328927D01*
G37*
G36*
X63848568Y-20695519D02*
G01*
X63914752Y-20702037D01*
X64084591Y-20753557D01*
X64241116Y-20837222D01*
X64268527Y-20859718D01*
X64378311Y-20949814D01*
X64457790Y-21046661D01*
X64490903Y-21087009D01*
X64501182Y-21106240D01*
X64555543Y-21207940D01*
X64574568Y-21243534D01*
X64626088Y-21413373D01*
X64643484Y-21590000D01*
X64626088Y-21766627D01*
X64574568Y-21936466D01*
X64490903Y-22092991D01*
X64472031Y-22115986D01*
X64378311Y-22230186D01*
X64299174Y-22295131D01*
X64241116Y-22342778D01*
X64084591Y-22426443D01*
X63914752Y-22477963D01*
X63848567Y-22484482D01*
X63782385Y-22491000D01*
X63693865Y-22491000D01*
X63627683Y-22484482D01*
X63561498Y-22477963D01*
X63391659Y-22426443D01*
X63235134Y-22342778D01*
X63177076Y-22295131D01*
X63097939Y-22230186D01*
X63004219Y-22115986D01*
X62985347Y-22092991D01*
X62901682Y-21936466D01*
X62850162Y-21766627D01*
X62832766Y-21590000D01*
X62850162Y-21413373D01*
X62901682Y-21243534D01*
X62920708Y-21207940D01*
X62975068Y-21106240D01*
X62985347Y-21087009D01*
X63018460Y-21046661D01*
X63097939Y-20949814D01*
X63207723Y-20859718D01*
X63235134Y-20837222D01*
X63391659Y-20753557D01*
X63561498Y-20702037D01*
X63627683Y-20695518D01*
X63693865Y-20689000D01*
X63782385Y-20689000D01*
X63848568Y-20695519D01*
X63848568Y-20695519D01*
G37*
G36*
X61496174Y-20843465D02*
G01*
X61533867Y-20854899D01*
X61568603Y-20873466D01*
X61599048Y-20898452D01*
X61624034Y-20928897D01*
X61642601Y-20963633D01*
X61654035Y-21001326D01*
X61658500Y-21046661D01*
X61658500Y-22133339D01*
X61654035Y-22178674D01*
X61642601Y-22216367D01*
X61624034Y-22251103D01*
X61599048Y-22281548D01*
X61568603Y-22306534D01*
X61533867Y-22325101D01*
X61496174Y-22336535D01*
X61450839Y-22341000D01*
X60614161Y-22341000D01*
X60568826Y-22336535D01*
X60531133Y-22325101D01*
X60496397Y-22306534D01*
X60465952Y-22281548D01*
X60440966Y-22251103D01*
X60422399Y-22216367D01*
X60410965Y-22178674D01*
X60406500Y-22133339D01*
X60406500Y-21046661D01*
X60410965Y-21001326D01*
X60422399Y-20963633D01*
X60440966Y-20928897D01*
X60465952Y-20898452D01*
X60496397Y-20873466D01*
X60531133Y-20854899D01*
X60568826Y-20843465D01*
X60614161Y-20839000D01*
X61450839Y-20839000D01*
X61496174Y-20843465D01*
X61496174Y-20843465D01*
G37*
G36*
X59446174Y-20843465D02*
G01*
X59483867Y-20854899D01*
X59518603Y-20873466D01*
X59549048Y-20898452D01*
X59574034Y-20928897D01*
X59592601Y-20963633D01*
X59604035Y-21001326D01*
X59608500Y-21046661D01*
X59608500Y-22133339D01*
X59604035Y-22178674D01*
X59592601Y-22216367D01*
X59574034Y-22251103D01*
X59549048Y-22281548D01*
X59518603Y-22306534D01*
X59483867Y-22325101D01*
X59446174Y-22336535D01*
X59400839Y-22341000D01*
X58564161Y-22341000D01*
X58518826Y-22336535D01*
X58481133Y-22325101D01*
X58446397Y-22306534D01*
X58415952Y-22281548D01*
X58390966Y-22251103D01*
X58372399Y-22216367D01*
X58360965Y-22178674D01*
X58356500Y-22133339D01*
X58356500Y-21046661D01*
X58360965Y-21001326D01*
X58372399Y-20963633D01*
X58390966Y-20928897D01*
X58415952Y-20898452D01*
X58446397Y-20873466D01*
X58481133Y-20854899D01*
X58518826Y-20843465D01*
X58564161Y-20839000D01*
X59400839Y-20839000D01*
X59446174Y-20843465D01*
X59446174Y-20843465D01*
G37*
G36*
X36489591Y-20487468D02*
G01*
X36527284Y-20498902D01*
X36562020Y-20517469D01*
X36597233Y-20546367D01*
X37365633Y-21314767D01*
X37394531Y-21349980D01*
X37413098Y-21384716D01*
X37424532Y-21422409D01*
X37428392Y-21461604D01*
X37424532Y-21500799D01*
X37413098Y-21538492D01*
X37394531Y-21573228D01*
X37365633Y-21608441D01*
X36774009Y-22200065D01*
X36738796Y-22228963D01*
X36704060Y-22247530D01*
X36666367Y-22258964D01*
X36627172Y-22262824D01*
X36587977Y-22258964D01*
X36550284Y-22247530D01*
X36515548Y-22228963D01*
X36480335Y-22200065D01*
X35711935Y-21431665D01*
X35683037Y-21396452D01*
X35664470Y-21361716D01*
X35653036Y-21324023D01*
X35649176Y-21284828D01*
X35653036Y-21245633D01*
X35664470Y-21207940D01*
X35683037Y-21173204D01*
X35711935Y-21137991D01*
X36303559Y-20546367D01*
X36338772Y-20517469D01*
X36373508Y-20498902D01*
X36411201Y-20487468D01*
X36450396Y-20483608D01*
X36489591Y-20487468D01*
X36489591Y-20487468D01*
G37*
G36*
X39714367Y-20413036D02*
G01*
X39752060Y-20424470D01*
X39786796Y-20443037D01*
X39822009Y-20471935D01*
X40413633Y-21063559D01*
X40442531Y-21098772D01*
X40461098Y-21133508D01*
X40472532Y-21171201D01*
X40476392Y-21210396D01*
X40472532Y-21249591D01*
X40461098Y-21287284D01*
X40442531Y-21322020D01*
X40413633Y-21357233D01*
X39645233Y-22125633D01*
X39610020Y-22154531D01*
X39575284Y-22173098D01*
X39537591Y-22184532D01*
X39498396Y-22188392D01*
X39459201Y-22184532D01*
X39421508Y-22173098D01*
X39386772Y-22154531D01*
X39351559Y-22125633D01*
X38759935Y-21534009D01*
X38731037Y-21498796D01*
X38712470Y-21464060D01*
X38701036Y-21426367D01*
X38697176Y-21387172D01*
X38701036Y-21347977D01*
X38712470Y-21310284D01*
X38731037Y-21275548D01*
X38759935Y-21240335D01*
X39528335Y-20471935D01*
X39563548Y-20443037D01*
X39598284Y-20424470D01*
X39635977Y-20413036D01*
X39675172Y-20409176D01*
X39714367Y-20413036D01*
X39714367Y-20413036D01*
G37*
G36*
X16553874Y-20870465D02*
G01*
X16591567Y-20881899D01*
X16626303Y-20900466D01*
X16656748Y-20925452D01*
X16681734Y-20955897D01*
X16700301Y-20990633D01*
X16711735Y-21028326D01*
X16716200Y-21073661D01*
X16716200Y-21910339D01*
X16711735Y-21955674D01*
X16700301Y-21993367D01*
X16681734Y-22028103D01*
X16656748Y-22058548D01*
X16626303Y-22083534D01*
X16591567Y-22102101D01*
X16553874Y-22113535D01*
X16508539Y-22118000D01*
X15421861Y-22118000D01*
X15376526Y-22113535D01*
X15338833Y-22102101D01*
X15304097Y-22083534D01*
X15273652Y-22058548D01*
X15248666Y-22028103D01*
X15230099Y-21993367D01*
X15218665Y-21955674D01*
X15214200Y-21910339D01*
X15214200Y-21073661D01*
X15218665Y-21028326D01*
X15230099Y-20990633D01*
X15248666Y-20955897D01*
X15273652Y-20925452D01*
X15304097Y-20900466D01*
X15338833Y-20881899D01*
X15376526Y-20870465D01*
X15421861Y-20866000D01*
X16508539Y-20866000D01*
X16553874Y-20870465D01*
X16553874Y-20870465D01*
G37*
G36*
X14553874Y-20870465D02*
G01*
X14591567Y-20881899D01*
X14626303Y-20900466D01*
X14656748Y-20925452D01*
X14681734Y-20955897D01*
X14700301Y-20990633D01*
X14711735Y-21028326D01*
X14716200Y-21073661D01*
X14716200Y-21910339D01*
X14711735Y-21955674D01*
X14700301Y-21993367D01*
X14681734Y-22028103D01*
X14656748Y-22058548D01*
X14626303Y-22083534D01*
X14591567Y-22102101D01*
X14553874Y-22113535D01*
X14508539Y-22118000D01*
X13421861Y-22118000D01*
X13376526Y-22113535D01*
X13338833Y-22102101D01*
X13304097Y-22083534D01*
X13273652Y-22058548D01*
X13248666Y-22028103D01*
X13230099Y-21993367D01*
X13218665Y-21955674D01*
X13214200Y-21910339D01*
X13214200Y-21073661D01*
X13218665Y-21028326D01*
X13230099Y-20990633D01*
X13248666Y-20955897D01*
X13273652Y-20925452D01*
X13304097Y-20900466D01*
X13338833Y-20881899D01*
X13376526Y-20870465D01*
X13421861Y-20866000D01*
X14508539Y-20866000D01*
X14553874Y-20870465D01*
X14553874Y-20870465D01*
G37*
G36*
X48338674Y-20553465D02*
G01*
X48376367Y-20564899D01*
X48411103Y-20583466D01*
X48441548Y-20608452D01*
X48466534Y-20638897D01*
X48485101Y-20673633D01*
X48496535Y-20711326D01*
X48501000Y-20756661D01*
X48501000Y-21843339D01*
X48496535Y-21888674D01*
X48485101Y-21926367D01*
X48466534Y-21961103D01*
X48441548Y-21991548D01*
X48411103Y-22016534D01*
X48376367Y-22035101D01*
X48338674Y-22046535D01*
X48293339Y-22051000D01*
X47456661Y-22051000D01*
X47411326Y-22046535D01*
X47373633Y-22035101D01*
X47338897Y-22016534D01*
X47308452Y-21991548D01*
X47283466Y-21961103D01*
X47264899Y-21926367D01*
X47253465Y-21888674D01*
X47249000Y-21843339D01*
X47249000Y-20756661D01*
X47253465Y-20711326D01*
X47264899Y-20673633D01*
X47283466Y-20638897D01*
X47308452Y-20608452D01*
X47338897Y-20583466D01*
X47373633Y-20564899D01*
X47411326Y-20553465D01*
X47456661Y-20549000D01*
X48293339Y-20549000D01*
X48338674Y-20553465D01*
X48338674Y-20553465D01*
G37*
G36*
X50388674Y-20553465D02*
G01*
X50426367Y-20564899D01*
X50461103Y-20583466D01*
X50491548Y-20608452D01*
X50516534Y-20638897D01*
X50535101Y-20673633D01*
X50546535Y-20711326D01*
X50551000Y-20756661D01*
X50551000Y-21843339D01*
X50546535Y-21888674D01*
X50535101Y-21926367D01*
X50516534Y-21961103D01*
X50491548Y-21991548D01*
X50461103Y-22016534D01*
X50426367Y-22035101D01*
X50388674Y-22046535D01*
X50343339Y-22051000D01*
X49506661Y-22051000D01*
X49461326Y-22046535D01*
X49423633Y-22035101D01*
X49388897Y-22016534D01*
X49358452Y-21991548D01*
X49333466Y-21961103D01*
X49314899Y-21926367D01*
X49303465Y-21888674D01*
X49299000Y-21843339D01*
X49299000Y-20756661D01*
X49303465Y-20711326D01*
X49314899Y-20673633D01*
X49333466Y-20638897D01*
X49358452Y-20608452D01*
X49388897Y-20583466D01*
X49423633Y-20564899D01*
X49461326Y-20553465D01*
X49506661Y-20549000D01*
X50343339Y-20549000D01*
X50388674Y-20553465D01*
X50388674Y-20553465D01*
G37*
G36*
X44286367Y-19143036D02*
G01*
X44324060Y-19154470D01*
X44358796Y-19173037D01*
X44394009Y-19201935D01*
X44985633Y-19793559D01*
X45014531Y-19828772D01*
X45033098Y-19863508D01*
X45044532Y-19901201D01*
X45048392Y-19940396D01*
X45044532Y-19979591D01*
X45033098Y-20017284D01*
X45014531Y-20052020D01*
X44985633Y-20087233D01*
X44217233Y-20855633D01*
X44182020Y-20884531D01*
X44147284Y-20903098D01*
X44109591Y-20914532D01*
X44070396Y-20918392D01*
X44031201Y-20914532D01*
X43993508Y-20903098D01*
X43958772Y-20884531D01*
X43923559Y-20855633D01*
X43331935Y-20264009D01*
X43303037Y-20228796D01*
X43284470Y-20194060D01*
X43273036Y-20156367D01*
X43269176Y-20117172D01*
X43273036Y-20077977D01*
X43284470Y-20040284D01*
X43303037Y-20005548D01*
X43331935Y-19970335D01*
X44100335Y-19201935D01*
X44135548Y-19173037D01*
X44170284Y-19154470D01*
X44207977Y-19143036D01*
X44247172Y-19139176D01*
X44286367Y-19143036D01*
X44286367Y-19143036D01*
G37*
G36*
X38264799Y-18963468D02*
G01*
X38302492Y-18974902D01*
X38337228Y-18993469D01*
X38372441Y-19022367D01*
X38964065Y-19613991D01*
X38992963Y-19649204D01*
X39011530Y-19683940D01*
X39022964Y-19721633D01*
X39026824Y-19760828D01*
X39022964Y-19800023D01*
X39011530Y-19837716D01*
X38992963Y-19872452D01*
X38964065Y-19907665D01*
X38195665Y-20676065D01*
X38160452Y-20704963D01*
X38125716Y-20723530D01*
X38088023Y-20734964D01*
X38048828Y-20738824D01*
X38009633Y-20734964D01*
X37971940Y-20723530D01*
X37937204Y-20704963D01*
X37901991Y-20676065D01*
X37310367Y-20084441D01*
X37281469Y-20049228D01*
X37262902Y-20014492D01*
X37251468Y-19976799D01*
X37247608Y-19937604D01*
X37251468Y-19898409D01*
X37262902Y-19860716D01*
X37281469Y-19825980D01*
X37310367Y-19790767D01*
X38078767Y-19022367D01*
X38113980Y-18993469D01*
X38148716Y-18974902D01*
X38186409Y-18963468D01*
X38225604Y-18959608D01*
X38264799Y-18963468D01*
X38264799Y-18963468D01*
G37*
G36*
X21670674Y-19444465D02*
G01*
X21708367Y-19455899D01*
X21743103Y-19474466D01*
X21773548Y-19499452D01*
X21798534Y-19529897D01*
X21817101Y-19564633D01*
X21828535Y-19602326D01*
X21833000Y-19647661D01*
X21833000Y-20484339D01*
X21828535Y-20529674D01*
X21817101Y-20567367D01*
X21798534Y-20602103D01*
X21773548Y-20632548D01*
X21743103Y-20657534D01*
X21708367Y-20676101D01*
X21670674Y-20687535D01*
X21625339Y-20692000D01*
X20538661Y-20692000D01*
X20493326Y-20687535D01*
X20455633Y-20676101D01*
X20420897Y-20657534D01*
X20390452Y-20632548D01*
X20365466Y-20602103D01*
X20346899Y-20567367D01*
X20335465Y-20529674D01*
X20331000Y-20484339D01*
X20331000Y-19647661D01*
X20335465Y-19602326D01*
X20346899Y-19564633D01*
X20365466Y-19529897D01*
X20390452Y-19499452D01*
X20420897Y-19474466D01*
X20455633Y-19455899D01*
X20493326Y-19444465D01*
X20538661Y-19440000D01*
X21625339Y-19440000D01*
X21670674Y-19444465D01*
X21670674Y-19444465D01*
G37*
G36*
X29066443Y-18790519D02*
G01*
X29132627Y-18797037D01*
X29302466Y-18848557D01*
X29302468Y-18848558D01*
X29323985Y-18860059D01*
X29458991Y-18932222D01*
X29472537Y-18943339D01*
X29596186Y-19044814D01*
X29679037Y-19145770D01*
X29708778Y-19182009D01*
X29792443Y-19338534D01*
X29843963Y-19508373D01*
X29861359Y-19685000D01*
X29843963Y-19861627D01*
X29792443Y-20031466D01*
X29708778Y-20187991D01*
X29703797Y-20194060D01*
X29596186Y-20325186D01*
X29494729Y-20408448D01*
X29458991Y-20437778D01*
X29302466Y-20521443D01*
X29132627Y-20572963D01*
X29066443Y-20579481D01*
X29000260Y-20586000D01*
X28911740Y-20586000D01*
X28845557Y-20579481D01*
X28779373Y-20572963D01*
X28609534Y-20521443D01*
X28453009Y-20437778D01*
X28417271Y-20408448D01*
X28315814Y-20325186D01*
X28208203Y-20194060D01*
X28203222Y-20187991D01*
X28119557Y-20031466D01*
X28068037Y-19861627D01*
X28050641Y-19685000D01*
X28068037Y-19508373D01*
X28119557Y-19338534D01*
X28203222Y-19182009D01*
X28232963Y-19145770D01*
X28315814Y-19044814D01*
X28439463Y-18943339D01*
X28453009Y-18932222D01*
X28588015Y-18860059D01*
X28609532Y-18848558D01*
X28609534Y-18848557D01*
X28779373Y-18797037D01*
X28845557Y-18790519D01*
X28911740Y-18784000D01*
X29000260Y-18784000D01*
X29066443Y-18790519D01*
X29066443Y-18790519D01*
G37*
G36*
X26526443Y-18790519D02*
G01*
X26592627Y-18797037D01*
X26762466Y-18848557D01*
X26762468Y-18848558D01*
X26783985Y-18860059D01*
X26918991Y-18932222D01*
X26932537Y-18943339D01*
X27056186Y-19044814D01*
X27139037Y-19145770D01*
X27168778Y-19182009D01*
X27252443Y-19338534D01*
X27303963Y-19508373D01*
X27321359Y-19685000D01*
X27303963Y-19861627D01*
X27252443Y-20031466D01*
X27168778Y-20187991D01*
X27163797Y-20194060D01*
X27056186Y-20325186D01*
X26954729Y-20408448D01*
X26918991Y-20437778D01*
X26762466Y-20521443D01*
X26592627Y-20572963D01*
X26526443Y-20579481D01*
X26460260Y-20586000D01*
X26371740Y-20586000D01*
X26305557Y-20579481D01*
X26239373Y-20572963D01*
X26069534Y-20521443D01*
X25913009Y-20437778D01*
X25877271Y-20408448D01*
X25775814Y-20325186D01*
X25668203Y-20194060D01*
X25663222Y-20187991D01*
X25579557Y-20031466D01*
X25528037Y-19861627D01*
X25510641Y-19685000D01*
X25528037Y-19508373D01*
X25579557Y-19338534D01*
X25663222Y-19182009D01*
X25692963Y-19145770D01*
X25775814Y-19044814D01*
X25899463Y-18943339D01*
X25913009Y-18932222D01*
X26048015Y-18860059D01*
X26069532Y-18848558D01*
X26069534Y-18848557D01*
X26239373Y-18797037D01*
X26305557Y-18790519D01*
X26371740Y-18784000D01*
X26460260Y-18784000D01*
X26526443Y-18790519D01*
X26526443Y-18790519D01*
G37*
G36*
X23986443Y-18790519D02*
G01*
X24052627Y-18797037D01*
X24222466Y-18848557D01*
X24222468Y-18848558D01*
X24243985Y-18860059D01*
X24378991Y-18932222D01*
X24392537Y-18943339D01*
X24516186Y-19044814D01*
X24599037Y-19145770D01*
X24628778Y-19182009D01*
X24712443Y-19338534D01*
X24763963Y-19508373D01*
X24781359Y-19685000D01*
X24763963Y-19861627D01*
X24712443Y-20031466D01*
X24628778Y-20187991D01*
X24623797Y-20194060D01*
X24516186Y-20325186D01*
X24414729Y-20408448D01*
X24378991Y-20437778D01*
X24222466Y-20521443D01*
X24052627Y-20572963D01*
X23986443Y-20579481D01*
X23920260Y-20586000D01*
X23831740Y-20586000D01*
X23765557Y-20579481D01*
X23699373Y-20572963D01*
X23529534Y-20521443D01*
X23373009Y-20437778D01*
X23337271Y-20408448D01*
X23235814Y-20325186D01*
X23128203Y-20194060D01*
X23123222Y-20187991D01*
X23039557Y-20031466D01*
X22988037Y-19861627D01*
X22970641Y-19685000D01*
X22988037Y-19508373D01*
X23039557Y-19338534D01*
X23123222Y-19182009D01*
X23152963Y-19145770D01*
X23235814Y-19044814D01*
X23359463Y-18943339D01*
X23373009Y-18932222D01*
X23508015Y-18860059D01*
X23529532Y-18848558D01*
X23529534Y-18848557D01*
X23699373Y-18797037D01*
X23765557Y-18790519D01*
X23831740Y-18784000D01*
X23920260Y-18784000D01*
X23986443Y-18790519D01*
X23986443Y-18790519D01*
G37*
G36*
X17641043Y-19464292D02*
G01*
X17676133Y-19478827D01*
X17727670Y-19500174D01*
X17805632Y-19552267D01*
X17871933Y-19618568D01*
X17924026Y-19696530D01*
X17928665Y-19707730D01*
X17959908Y-19783157D01*
X17978200Y-19875117D01*
X17978200Y-19968883D01*
X17959908Y-20060843D01*
X17947165Y-20091607D01*
X17924026Y-20147470D01*
X17871933Y-20225432D01*
X17805632Y-20291733D01*
X17727670Y-20343826D01*
X17691788Y-20358689D01*
X17641043Y-20379708D01*
X17549083Y-20398000D01*
X17455317Y-20398000D01*
X17363357Y-20379708D01*
X17312612Y-20358689D01*
X17276730Y-20343826D01*
X17198768Y-20291733D01*
X17132467Y-20225432D01*
X17080374Y-20147470D01*
X17057235Y-20091607D01*
X17044492Y-20060843D01*
X17026200Y-19968883D01*
X17026200Y-19875117D01*
X17044492Y-19783157D01*
X17075735Y-19707730D01*
X17080374Y-19696530D01*
X17132467Y-19618568D01*
X17198768Y-19552267D01*
X17276730Y-19500174D01*
X17328267Y-19478827D01*
X17363357Y-19464292D01*
X17455317Y-19446000D01*
X17549083Y-19446000D01*
X17641043Y-19464292D01*
X17641043Y-19464292D01*
G37*
G36*
X16553874Y-18820465D02*
G01*
X16591567Y-18831899D01*
X16626303Y-18850466D01*
X16656748Y-18875452D01*
X16681734Y-18905897D01*
X16700301Y-18940633D01*
X16711735Y-18978326D01*
X16716200Y-19023661D01*
X16716200Y-19860339D01*
X16711735Y-19905674D01*
X16700301Y-19943367D01*
X16681734Y-19978103D01*
X16656748Y-20008548D01*
X16626303Y-20033534D01*
X16591567Y-20052101D01*
X16553874Y-20063535D01*
X16508539Y-20068000D01*
X15421861Y-20068000D01*
X15376526Y-20063535D01*
X15338833Y-20052101D01*
X15304097Y-20033534D01*
X15273652Y-20008548D01*
X15248666Y-19978103D01*
X15230099Y-19943367D01*
X15218665Y-19905674D01*
X15214200Y-19860339D01*
X15214200Y-19023661D01*
X15218665Y-18978326D01*
X15230099Y-18940633D01*
X15248666Y-18905897D01*
X15273652Y-18875452D01*
X15304097Y-18850466D01*
X15338833Y-18831899D01*
X15376526Y-18820465D01*
X15421861Y-18816000D01*
X16508539Y-18816000D01*
X16553874Y-18820465D01*
X16553874Y-18820465D01*
G37*
G36*
X14172485Y-17812617D02*
G01*
X14206079Y-17815926D01*
X14281994Y-17838954D01*
X14335395Y-17855153D01*
X14454564Y-17918851D01*
X14559023Y-18004577D01*
X14644749Y-18109036D01*
X14708447Y-18228205D01*
X14724646Y-18281606D01*
X14747674Y-18357521D01*
X14760919Y-18492000D01*
X14747674Y-18626479D01*
X14744552Y-18636770D01*
X14708448Y-18755792D01*
X14686470Y-18796909D01*
X14677093Y-18819548D01*
X14672312Y-18843581D01*
X14672312Y-18868086D01*
X14677092Y-18892119D01*
X14686471Y-18914760D01*
X14700300Y-18940632D01*
X14711735Y-18978326D01*
X14716200Y-19023661D01*
X14716200Y-19860339D01*
X14711735Y-19905674D01*
X14700301Y-19943367D01*
X14681734Y-19978103D01*
X14656748Y-20008548D01*
X14626303Y-20033534D01*
X14591567Y-20052101D01*
X14553874Y-20063535D01*
X14508539Y-20068000D01*
X13421861Y-20068000D01*
X13376526Y-20063535D01*
X13338833Y-20052101D01*
X13304097Y-20033534D01*
X13273652Y-20008548D01*
X13248666Y-19978103D01*
X13230099Y-19943367D01*
X13218665Y-19905674D01*
X13214200Y-19860339D01*
X13214200Y-19185164D01*
X13211798Y-19160778D01*
X13204685Y-19137329D01*
X13193134Y-19115718D01*
X13177589Y-19096776D01*
X13148125Y-19074925D01*
X13129836Y-19065149D01*
X13025377Y-18979423D01*
X12939651Y-18874964D01*
X12875953Y-18755795D01*
X12839848Y-18636770D01*
X12836726Y-18626479D01*
X12823481Y-18492000D01*
X12836726Y-18357521D01*
X12859754Y-18281606D01*
X12875953Y-18228205D01*
X12939651Y-18109036D01*
X13025377Y-18004577D01*
X13129836Y-17918851D01*
X13249005Y-17855153D01*
X13302406Y-17838954D01*
X13378321Y-17815926D01*
X13411915Y-17812617D01*
X13479100Y-17806000D01*
X14105300Y-17806000D01*
X14172485Y-17812617D01*
X14172485Y-17812617D01*
G37*
G36*
X63848567Y-18155518D02*
G01*
X63914752Y-18162037D01*
X64084591Y-18213557D01*
X64241116Y-18297222D01*
X64276854Y-18326552D01*
X64378311Y-18409814D01*
X64444796Y-18490828D01*
X64490903Y-18547009D01*
X64574568Y-18703534D01*
X64626088Y-18873373D01*
X64643484Y-19050000D01*
X64626088Y-19226627D01*
X64574568Y-19396466D01*
X64490903Y-19552991D01*
X64478279Y-19568373D01*
X64378311Y-19690186D01*
X64292232Y-19760828D01*
X64241116Y-19802778D01*
X64241114Y-19802779D01*
X64105779Y-19875118D01*
X64084591Y-19886443D01*
X63914752Y-19937963D01*
X63859883Y-19943367D01*
X63782385Y-19951000D01*
X63693865Y-19951000D01*
X63616367Y-19943367D01*
X63561498Y-19937963D01*
X63391659Y-19886443D01*
X63370472Y-19875118D01*
X63235136Y-19802779D01*
X63235134Y-19802778D01*
X63184018Y-19760828D01*
X63097939Y-19690186D01*
X62997971Y-19568373D01*
X62985347Y-19552991D01*
X62901682Y-19396466D01*
X62850162Y-19226627D01*
X62832766Y-19050000D01*
X62850162Y-18873373D01*
X62901682Y-18703534D01*
X62985347Y-18547009D01*
X63031454Y-18490828D01*
X63097939Y-18409814D01*
X63199396Y-18326552D01*
X63235134Y-18297222D01*
X63391659Y-18213557D01*
X63561498Y-18162037D01*
X63627683Y-18155518D01*
X63693865Y-18149000D01*
X63782385Y-18149000D01*
X63848567Y-18155518D01*
X63848567Y-18155518D01*
G37*
G36*
X61463674Y-18253465D02*
G01*
X61501367Y-18264899D01*
X61536103Y-18283466D01*
X61566548Y-18308452D01*
X61591534Y-18338897D01*
X61610101Y-18373633D01*
X61621535Y-18411326D01*
X61626000Y-18456661D01*
X61626000Y-19543339D01*
X61621535Y-19588674D01*
X61610101Y-19626367D01*
X61591534Y-19661103D01*
X61566548Y-19691548D01*
X61536103Y-19716534D01*
X61501367Y-19735101D01*
X61463674Y-19746535D01*
X61418339Y-19751000D01*
X60581661Y-19751000D01*
X60536326Y-19746535D01*
X60498633Y-19735101D01*
X60463897Y-19716534D01*
X60433452Y-19691548D01*
X60408466Y-19661103D01*
X60389899Y-19626367D01*
X60378465Y-19588674D01*
X60374000Y-19543339D01*
X60374000Y-18456661D01*
X60378465Y-18411326D01*
X60389899Y-18373633D01*
X60408466Y-18338897D01*
X60433452Y-18308452D01*
X60463897Y-18283466D01*
X60498633Y-18264899D01*
X60536326Y-18253465D01*
X60581661Y-18249000D01*
X61418339Y-18249000D01*
X61463674Y-18253465D01*
X61463674Y-18253465D01*
G37*
G36*
X59413674Y-18253465D02*
G01*
X59451367Y-18264899D01*
X59486103Y-18283466D01*
X59516548Y-18308452D01*
X59541534Y-18338897D01*
X59560101Y-18373633D01*
X59571535Y-18411326D01*
X59576000Y-18456661D01*
X59576000Y-19543339D01*
X59571535Y-19588674D01*
X59560101Y-19626367D01*
X59541534Y-19661103D01*
X59516548Y-19691548D01*
X59486103Y-19716534D01*
X59451367Y-19735101D01*
X59413674Y-19746535D01*
X59368339Y-19751000D01*
X58531661Y-19751000D01*
X58486326Y-19746535D01*
X58448633Y-19735101D01*
X58413897Y-19716534D01*
X58383452Y-19691548D01*
X58358466Y-19661103D01*
X58339899Y-19626367D01*
X58328465Y-19588674D01*
X58324000Y-19543339D01*
X58324000Y-18456661D01*
X58328465Y-18411326D01*
X58339899Y-18373633D01*
X58358466Y-18338897D01*
X58383452Y-18308452D01*
X58413897Y-18283466D01*
X58448633Y-18264899D01*
X58486326Y-18253465D01*
X58531661Y-18249000D01*
X59368339Y-18249000D01*
X59413674Y-18253465D01*
X59413674Y-18253465D01*
G37*
G36*
X42836799Y-17693468D02*
G01*
X42874492Y-17704902D01*
X42909228Y-17723469D01*
X42944441Y-17752367D01*
X43536065Y-18343991D01*
X43564963Y-18379204D01*
X43583530Y-18413940D01*
X43594964Y-18451633D01*
X43598824Y-18490828D01*
X43594964Y-18530023D01*
X43583530Y-18567716D01*
X43564963Y-18602452D01*
X43536065Y-18637665D01*
X42767665Y-19406065D01*
X42732452Y-19434963D01*
X42697716Y-19453530D01*
X42660023Y-19464964D01*
X42620828Y-19468824D01*
X42581633Y-19464964D01*
X42543940Y-19453530D01*
X42509204Y-19434963D01*
X42473991Y-19406065D01*
X41882367Y-18814441D01*
X41853469Y-18779228D01*
X41834902Y-18744492D01*
X41823468Y-18706799D01*
X41819608Y-18667604D01*
X41823468Y-18628409D01*
X41834902Y-18590716D01*
X41853469Y-18555980D01*
X41882367Y-18520767D01*
X42650767Y-17752367D01*
X42685980Y-17723469D01*
X42720716Y-17704902D01*
X42758409Y-17693468D01*
X42797604Y-17689608D01*
X42836799Y-17693468D01*
X42836799Y-17693468D01*
G37*
G36*
X18592085Y-17812617D02*
G01*
X18625679Y-17815926D01*
X18701594Y-17838954D01*
X18754995Y-17855153D01*
X18874164Y-17918851D01*
X18978623Y-18004577D01*
X19064349Y-18109036D01*
X19128047Y-18228205D01*
X19144246Y-18281606D01*
X19167274Y-18357521D01*
X19180519Y-18492000D01*
X19167274Y-18626479D01*
X19164152Y-18636770D01*
X19128047Y-18755795D01*
X19064349Y-18874964D01*
X18978623Y-18979423D01*
X18874164Y-19065149D01*
X18754995Y-19128847D01*
X18727033Y-19137329D01*
X18625679Y-19168074D01*
X18592085Y-19171383D01*
X18524900Y-19178000D01*
X17695500Y-19178000D01*
X17628315Y-19171383D01*
X17594721Y-19168074D01*
X17493367Y-19137329D01*
X17465405Y-19128847D01*
X17346236Y-19065149D01*
X17241777Y-18979423D01*
X17156051Y-18874964D01*
X17092353Y-18755795D01*
X17056248Y-18636770D01*
X17053126Y-18626479D01*
X17039881Y-18492000D01*
X17053126Y-18357521D01*
X17076154Y-18281606D01*
X17092353Y-18228205D01*
X17156051Y-18109036D01*
X17241777Y-18004577D01*
X17346236Y-17918851D01*
X17465405Y-17855153D01*
X17518806Y-17838954D01*
X17594721Y-17815926D01*
X17628315Y-17812617D01*
X17695500Y-17806000D01*
X18524900Y-17806000D01*
X18592085Y-17812617D01*
X18592085Y-17812617D01*
G37*
G36*
X50388674Y-17653465D02*
G01*
X50426367Y-17664899D01*
X50461103Y-17683466D01*
X50491548Y-17708452D01*
X50516534Y-17738897D01*
X50535101Y-17773633D01*
X50546535Y-17811326D01*
X50551000Y-17856661D01*
X50551000Y-18943339D01*
X50546535Y-18988674D01*
X50535101Y-19026367D01*
X50516534Y-19061103D01*
X50491548Y-19091548D01*
X50461103Y-19116534D01*
X50426367Y-19135101D01*
X50388674Y-19146535D01*
X50343339Y-19151000D01*
X49506661Y-19151000D01*
X49461326Y-19146535D01*
X49423633Y-19135101D01*
X49388897Y-19116534D01*
X49358452Y-19091548D01*
X49333466Y-19061103D01*
X49314899Y-19026367D01*
X49303465Y-18988674D01*
X49299000Y-18943339D01*
X49299000Y-17856661D01*
X49303465Y-17811326D01*
X49314899Y-17773633D01*
X49333466Y-17738897D01*
X49358452Y-17708452D01*
X49388897Y-17683466D01*
X49423633Y-17664899D01*
X49461326Y-17653465D01*
X49506661Y-17649000D01*
X50343339Y-17649000D01*
X50388674Y-17653465D01*
X50388674Y-17653465D01*
G37*
G36*
X48338674Y-17653465D02*
G01*
X48376367Y-17664899D01*
X48411103Y-17683466D01*
X48441548Y-17708452D01*
X48466534Y-17738897D01*
X48485101Y-17773633D01*
X48496535Y-17811326D01*
X48501000Y-17856661D01*
X48501000Y-18943339D01*
X48496535Y-18988674D01*
X48485101Y-19026367D01*
X48466534Y-19061103D01*
X48441548Y-19091548D01*
X48411103Y-19116534D01*
X48376367Y-19135101D01*
X48338674Y-19146535D01*
X48293339Y-19151000D01*
X47456661Y-19151000D01*
X47411326Y-19146535D01*
X47373633Y-19135101D01*
X47338897Y-19116534D01*
X47308452Y-19091548D01*
X47283466Y-19061103D01*
X47264899Y-19026367D01*
X47253465Y-18988674D01*
X47249000Y-18943339D01*
X47249000Y-17856661D01*
X47253465Y-17811326D01*
X47264899Y-17773633D01*
X47283466Y-17738897D01*
X47308452Y-17708452D01*
X47338897Y-17683466D01*
X47373633Y-17664899D01*
X47411326Y-17653465D01*
X47456661Y-17649000D01*
X48293339Y-17649000D01*
X48338674Y-17653465D01*
X48338674Y-17653465D01*
G37*
G36*
X21670674Y-17394465D02*
G01*
X21708367Y-17405899D01*
X21743103Y-17424466D01*
X21773548Y-17449452D01*
X21798534Y-17479897D01*
X21817101Y-17514633D01*
X21828535Y-17552326D01*
X21833000Y-17597661D01*
X21833000Y-18434339D01*
X21828535Y-18479674D01*
X21817101Y-18517367D01*
X21798534Y-18552103D01*
X21773548Y-18582548D01*
X21743103Y-18607534D01*
X21708367Y-18626101D01*
X21670674Y-18637535D01*
X21625339Y-18642000D01*
X20538661Y-18642000D01*
X20493326Y-18637535D01*
X20455633Y-18626101D01*
X20420897Y-18607534D01*
X20390452Y-18582548D01*
X20365466Y-18552103D01*
X20346899Y-18517367D01*
X20335465Y-18479674D01*
X20331000Y-18434339D01*
X20331000Y-17597661D01*
X20335465Y-17552326D01*
X20346899Y-17514633D01*
X20365466Y-17479897D01*
X20390452Y-17449452D01*
X20420897Y-17424466D01*
X20455633Y-17405899D01*
X20493326Y-17394465D01*
X20538661Y-17390000D01*
X21625339Y-17390000D01*
X21670674Y-17394465D01*
X21670674Y-17394465D01*
G37*
G36*
X26870674Y-16618465D02*
G01*
X26908367Y-16629899D01*
X26943103Y-16648466D01*
X26973548Y-16673452D01*
X26998534Y-16703897D01*
X27017101Y-16738633D01*
X27028535Y-16776326D01*
X27033000Y-16821661D01*
X27033000Y-17908339D01*
X27028535Y-17953674D01*
X27017101Y-17991367D01*
X26998534Y-18026103D01*
X26973548Y-18056548D01*
X26943103Y-18081534D01*
X26908367Y-18100101D01*
X26870674Y-18111535D01*
X26825339Y-18116000D01*
X25988661Y-18116000D01*
X25943326Y-18111535D01*
X25905633Y-18100101D01*
X25870897Y-18081534D01*
X25840452Y-18056548D01*
X25815466Y-18026103D01*
X25796899Y-17991367D01*
X25785465Y-17953674D01*
X25781000Y-17908339D01*
X25781000Y-16821661D01*
X25785465Y-16776326D01*
X25796899Y-16738633D01*
X25815466Y-16703897D01*
X25840452Y-16673452D01*
X25870897Y-16648466D01*
X25905633Y-16629899D01*
X25943326Y-16618465D01*
X25988661Y-16614000D01*
X26825339Y-16614000D01*
X26870674Y-16618465D01*
X26870674Y-16618465D01*
G37*
G36*
X28920674Y-16618465D02*
G01*
X28958367Y-16629899D01*
X28993103Y-16648466D01*
X29023548Y-16673452D01*
X29048534Y-16703897D01*
X29067101Y-16738633D01*
X29078535Y-16776326D01*
X29083000Y-16821661D01*
X29083000Y-17908339D01*
X29078535Y-17953674D01*
X29067101Y-17991367D01*
X29048534Y-18026103D01*
X29023548Y-18056548D01*
X28993103Y-18081534D01*
X28958367Y-18100101D01*
X28920674Y-18111535D01*
X28875339Y-18116000D01*
X28038661Y-18116000D01*
X27993326Y-18111535D01*
X27955633Y-18100101D01*
X27920897Y-18081534D01*
X27890452Y-18056548D01*
X27865466Y-18026103D01*
X27846899Y-17991367D01*
X27835465Y-17953674D01*
X27831000Y-17908339D01*
X27831000Y-16821661D01*
X27835465Y-16776326D01*
X27846899Y-16738633D01*
X27865466Y-16703897D01*
X27890452Y-16673452D01*
X27920897Y-16648466D01*
X27955633Y-16629899D01*
X27993326Y-16618465D01*
X28038661Y-16614000D01*
X28875339Y-16614000D01*
X28920674Y-16618465D01*
X28920674Y-16618465D01*
G37*
G36*
X63613512Y-14343927D02*
G01*
X63762812Y-14373624D01*
X63926784Y-14441544D01*
X64074354Y-14540147D01*
X64199853Y-14665646D01*
X64298456Y-14813216D01*
X64366376Y-14977188D01*
X64401000Y-15151259D01*
X64401000Y-15328741D01*
X64366376Y-15502812D01*
X64298456Y-15666784D01*
X64199853Y-15814354D01*
X64074354Y-15939853D01*
X63926784Y-16038456D01*
X63762812Y-16106376D01*
X63613512Y-16136073D01*
X63588742Y-16141000D01*
X63411258Y-16141000D01*
X63386488Y-16136073D01*
X63237188Y-16106376D01*
X63073216Y-16038456D01*
X62925646Y-15939853D01*
X62800147Y-15814354D01*
X62701544Y-15666784D01*
X62633624Y-15502812D01*
X62599000Y-15328741D01*
X62599000Y-15151259D01*
X62633624Y-14977188D01*
X62701544Y-14813216D01*
X62800147Y-14665646D01*
X62925646Y-14540147D01*
X63073216Y-14441544D01*
X63237188Y-14373624D01*
X63386488Y-14343927D01*
X63411258Y-14339000D01*
X63588742Y-14339000D01*
X63613512Y-14343927D01*
X63613512Y-14343927D01*
G37*
G36*
X55990443Y-14345519D02*
G01*
X56056627Y-14352037D01*
X56226466Y-14403557D01*
X56382991Y-14487222D01*
X56418729Y-14516552D01*
X56520186Y-14599814D01*
X56603448Y-14701271D01*
X56632778Y-14737009D01*
X56716443Y-14893534D01*
X56767963Y-15063373D01*
X56785359Y-15240000D01*
X56767963Y-15416627D01*
X56716443Y-15586466D01*
X56632778Y-15742991D01*
X56603448Y-15778729D01*
X56520186Y-15880186D01*
X56447480Y-15939853D01*
X56382991Y-15992778D01*
X56226466Y-16076443D01*
X56056627Y-16127963D01*
X55990443Y-16134481D01*
X55924260Y-16141000D01*
X55835740Y-16141000D01*
X55769557Y-16134481D01*
X55703373Y-16127963D01*
X55533534Y-16076443D01*
X55377009Y-15992778D01*
X55312520Y-15939853D01*
X55239814Y-15880186D01*
X55156552Y-15778729D01*
X55127222Y-15742991D01*
X55043557Y-15586466D01*
X54992037Y-15416627D01*
X54974641Y-15240000D01*
X54992037Y-15063373D01*
X55043557Y-14893534D01*
X55127222Y-14737009D01*
X55156552Y-14701271D01*
X55239814Y-14599814D01*
X55341271Y-14516552D01*
X55377009Y-14487222D01*
X55533534Y-14403557D01*
X55703373Y-14352037D01*
X55769557Y-14345519D01*
X55835740Y-14339000D01*
X55924260Y-14339000D01*
X55990443Y-14345519D01*
X55990443Y-14345519D01*
G37*
G36*
X53450443Y-14345519D02*
G01*
X53516627Y-14352037D01*
X53686466Y-14403557D01*
X53842991Y-14487222D01*
X53878729Y-14516552D01*
X53980186Y-14599814D01*
X54063448Y-14701271D01*
X54092778Y-14737009D01*
X54176443Y-14893534D01*
X54227963Y-15063373D01*
X54245359Y-15240000D01*
X54227963Y-15416627D01*
X54176443Y-15586466D01*
X54092778Y-15742991D01*
X54063448Y-15778729D01*
X53980186Y-15880186D01*
X53907480Y-15939853D01*
X53842991Y-15992778D01*
X53686466Y-16076443D01*
X53516627Y-16127963D01*
X53450443Y-16134481D01*
X53384260Y-16141000D01*
X53295740Y-16141000D01*
X53229557Y-16134481D01*
X53163373Y-16127963D01*
X52993534Y-16076443D01*
X52837009Y-15992778D01*
X52772520Y-15939853D01*
X52699814Y-15880186D01*
X52616552Y-15778729D01*
X52587222Y-15742991D01*
X52503557Y-15586466D01*
X52452037Y-15416627D01*
X52434641Y-15240000D01*
X52452037Y-15063373D01*
X52503557Y-14893534D01*
X52587222Y-14737009D01*
X52616552Y-14701271D01*
X52699814Y-14599814D01*
X52801271Y-14516552D01*
X52837009Y-14487222D01*
X52993534Y-14403557D01*
X53163373Y-14352037D01*
X53229557Y-14345519D01*
X53295740Y-14339000D01*
X53384260Y-14339000D01*
X53450443Y-14345519D01*
X53450443Y-14345519D01*
G37*
G36*
X50910443Y-14345519D02*
G01*
X50976627Y-14352037D01*
X51146466Y-14403557D01*
X51302991Y-14487222D01*
X51338729Y-14516552D01*
X51440186Y-14599814D01*
X51523448Y-14701271D01*
X51552778Y-14737009D01*
X51636443Y-14893534D01*
X51687963Y-15063373D01*
X51705359Y-15240000D01*
X51687963Y-15416627D01*
X51636443Y-15586466D01*
X51552778Y-15742991D01*
X51523448Y-15778729D01*
X51440186Y-15880186D01*
X51367480Y-15939853D01*
X51302991Y-15992778D01*
X51146466Y-16076443D01*
X50976627Y-16127963D01*
X50910443Y-16134481D01*
X50844260Y-16141000D01*
X50755740Y-16141000D01*
X50689557Y-16134481D01*
X50623373Y-16127963D01*
X50453534Y-16076443D01*
X50297009Y-15992778D01*
X50232520Y-15939853D01*
X50159814Y-15880186D01*
X50076552Y-15778729D01*
X50047222Y-15742991D01*
X49963557Y-15586466D01*
X49912037Y-15416627D01*
X49894641Y-15240000D01*
X49912037Y-15063373D01*
X49963557Y-14893534D01*
X50047222Y-14737009D01*
X50076552Y-14701271D01*
X50159814Y-14599814D01*
X50261271Y-14516552D01*
X50297009Y-14487222D01*
X50453534Y-14403557D01*
X50623373Y-14352037D01*
X50689557Y-14345519D01*
X50755740Y-14339000D01*
X50844260Y-14339000D01*
X50910443Y-14345519D01*
X50910443Y-14345519D01*
G37*
G36*
X48370443Y-14345519D02*
G01*
X48436627Y-14352037D01*
X48606466Y-14403557D01*
X48762991Y-14487222D01*
X48798729Y-14516552D01*
X48900186Y-14599814D01*
X48983448Y-14701271D01*
X49012778Y-14737009D01*
X49096443Y-14893534D01*
X49147963Y-15063373D01*
X49165359Y-15240000D01*
X49147963Y-15416627D01*
X49096443Y-15586466D01*
X49012778Y-15742991D01*
X48983448Y-15778729D01*
X48900186Y-15880186D01*
X48827480Y-15939853D01*
X48762991Y-15992778D01*
X48606466Y-16076443D01*
X48436627Y-16127963D01*
X48370443Y-16134481D01*
X48304260Y-16141000D01*
X48215740Y-16141000D01*
X48149557Y-16134481D01*
X48083373Y-16127963D01*
X47913534Y-16076443D01*
X47757009Y-15992778D01*
X47692520Y-15939853D01*
X47619814Y-15880186D01*
X47536552Y-15778729D01*
X47507222Y-15742991D01*
X47423557Y-15586466D01*
X47372037Y-15416627D01*
X47354641Y-15240000D01*
X47372037Y-15063373D01*
X47423557Y-14893534D01*
X47507222Y-14737009D01*
X47536552Y-14701271D01*
X47619814Y-14599814D01*
X47721271Y-14516552D01*
X47757009Y-14487222D01*
X47913534Y-14403557D01*
X48083373Y-14352037D01*
X48149557Y-14345519D01*
X48215740Y-14339000D01*
X48304260Y-14339000D01*
X48370443Y-14345519D01*
X48370443Y-14345519D01*
G37*
G36*
X45830443Y-14345519D02*
G01*
X45896627Y-14352037D01*
X46066466Y-14403557D01*
X46222991Y-14487222D01*
X46258729Y-14516552D01*
X46360186Y-14599814D01*
X46443448Y-14701271D01*
X46472778Y-14737009D01*
X46556443Y-14893534D01*
X46607963Y-15063373D01*
X46625359Y-15240000D01*
X46607963Y-15416627D01*
X46556443Y-15586466D01*
X46472778Y-15742991D01*
X46443448Y-15778729D01*
X46360186Y-15880186D01*
X46287480Y-15939853D01*
X46222991Y-15992778D01*
X46066466Y-16076443D01*
X45896627Y-16127963D01*
X45830443Y-16134481D01*
X45764260Y-16141000D01*
X45675740Y-16141000D01*
X45609557Y-16134481D01*
X45543373Y-16127963D01*
X45373534Y-16076443D01*
X45217009Y-15992778D01*
X45152520Y-15939853D01*
X45079814Y-15880186D01*
X44996552Y-15778729D01*
X44967222Y-15742991D01*
X44883557Y-15586466D01*
X44832037Y-15416627D01*
X44814641Y-15240000D01*
X44832037Y-15063373D01*
X44883557Y-14893534D01*
X44967222Y-14737009D01*
X44996552Y-14701271D01*
X45079814Y-14599814D01*
X45181271Y-14516552D01*
X45217009Y-14487222D01*
X45373534Y-14403557D01*
X45543373Y-14352037D01*
X45609557Y-14345519D01*
X45675740Y-14339000D01*
X45764260Y-14339000D01*
X45830443Y-14345519D01*
X45830443Y-14345519D01*
G37*
G36*
X43290443Y-14345519D02*
G01*
X43356627Y-14352037D01*
X43526466Y-14403557D01*
X43682991Y-14487222D01*
X43718729Y-14516552D01*
X43820186Y-14599814D01*
X43903448Y-14701271D01*
X43932778Y-14737009D01*
X44016443Y-14893534D01*
X44067963Y-15063373D01*
X44085359Y-15240000D01*
X44067963Y-15416627D01*
X44016443Y-15586466D01*
X43932778Y-15742991D01*
X43903448Y-15778729D01*
X43820186Y-15880186D01*
X43747480Y-15939853D01*
X43682991Y-15992778D01*
X43526466Y-16076443D01*
X43356627Y-16127963D01*
X43290443Y-16134481D01*
X43224260Y-16141000D01*
X43135740Y-16141000D01*
X43069557Y-16134481D01*
X43003373Y-16127963D01*
X42833534Y-16076443D01*
X42677009Y-15992778D01*
X42612520Y-15939853D01*
X42539814Y-15880186D01*
X42456552Y-15778729D01*
X42427222Y-15742991D01*
X42343557Y-15586466D01*
X42292037Y-15416627D01*
X42274641Y-15240000D01*
X42292037Y-15063373D01*
X42343557Y-14893534D01*
X42427222Y-14737009D01*
X42456552Y-14701271D01*
X42539814Y-14599814D01*
X42641271Y-14516552D01*
X42677009Y-14487222D01*
X42833534Y-14403557D01*
X43003373Y-14352037D01*
X43069557Y-14345519D01*
X43135740Y-14339000D01*
X43224260Y-14339000D01*
X43290443Y-14345519D01*
X43290443Y-14345519D01*
G37*
G36*
X40750443Y-14345519D02*
G01*
X40816627Y-14352037D01*
X40986466Y-14403557D01*
X41142991Y-14487222D01*
X41178729Y-14516552D01*
X41280186Y-14599814D01*
X41363448Y-14701271D01*
X41392778Y-14737009D01*
X41476443Y-14893534D01*
X41527963Y-15063373D01*
X41545359Y-15240000D01*
X41527963Y-15416627D01*
X41476443Y-15586466D01*
X41392778Y-15742991D01*
X41363448Y-15778729D01*
X41280186Y-15880186D01*
X41207480Y-15939853D01*
X41142991Y-15992778D01*
X40986466Y-16076443D01*
X40816627Y-16127963D01*
X40750443Y-16134481D01*
X40684260Y-16141000D01*
X40595740Y-16141000D01*
X40529557Y-16134481D01*
X40463373Y-16127963D01*
X40293534Y-16076443D01*
X40137009Y-15992778D01*
X40072520Y-15939853D01*
X39999814Y-15880186D01*
X39916552Y-15778729D01*
X39887222Y-15742991D01*
X39803557Y-15586466D01*
X39752037Y-15416627D01*
X39734641Y-15240000D01*
X39752037Y-15063373D01*
X39803557Y-14893534D01*
X39887222Y-14737009D01*
X39916552Y-14701271D01*
X39999814Y-14599814D01*
X40101271Y-14516552D01*
X40137009Y-14487222D01*
X40293534Y-14403557D01*
X40463373Y-14352037D01*
X40529557Y-14345519D01*
X40595740Y-14339000D01*
X40684260Y-14339000D01*
X40750443Y-14345519D01*
X40750443Y-14345519D01*
G37*
G36*
X61070443Y-14345519D02*
G01*
X61136627Y-14352037D01*
X61306466Y-14403557D01*
X61462991Y-14487222D01*
X61498729Y-14516552D01*
X61600186Y-14599814D01*
X61683448Y-14701271D01*
X61712778Y-14737009D01*
X61796443Y-14893534D01*
X61847963Y-15063373D01*
X61865359Y-15240000D01*
X61847963Y-15416627D01*
X61796443Y-15586466D01*
X61712778Y-15742991D01*
X61683448Y-15778729D01*
X61600186Y-15880186D01*
X61527480Y-15939853D01*
X61462991Y-15992778D01*
X61306466Y-16076443D01*
X61136627Y-16127963D01*
X61070443Y-16134481D01*
X61004260Y-16141000D01*
X60915740Y-16141000D01*
X60849557Y-16134481D01*
X60783373Y-16127963D01*
X60613534Y-16076443D01*
X60457009Y-15992778D01*
X60392520Y-15939853D01*
X60319814Y-15880186D01*
X60236552Y-15778729D01*
X60207222Y-15742991D01*
X60123557Y-15586466D01*
X60072037Y-15416627D01*
X60054641Y-15240000D01*
X60072037Y-15063373D01*
X60123557Y-14893534D01*
X60207222Y-14737009D01*
X60236552Y-14701271D01*
X60319814Y-14599814D01*
X60421271Y-14516552D01*
X60457009Y-14487222D01*
X60613534Y-14403557D01*
X60783373Y-14352037D01*
X60849557Y-14345519D01*
X60915740Y-14339000D01*
X61004260Y-14339000D01*
X61070443Y-14345519D01*
X61070443Y-14345519D01*
G37*
G36*
X58530443Y-14345519D02*
G01*
X58596627Y-14352037D01*
X58766466Y-14403557D01*
X58922991Y-14487222D01*
X58958729Y-14516552D01*
X59060186Y-14599814D01*
X59143448Y-14701271D01*
X59172778Y-14737009D01*
X59256443Y-14893534D01*
X59307963Y-15063373D01*
X59325359Y-15240000D01*
X59307963Y-15416627D01*
X59256443Y-15586466D01*
X59172778Y-15742991D01*
X59143448Y-15778729D01*
X59060186Y-15880186D01*
X58987480Y-15939853D01*
X58922991Y-15992778D01*
X58766466Y-16076443D01*
X58596627Y-16127963D01*
X58530443Y-16134481D01*
X58464260Y-16141000D01*
X58375740Y-16141000D01*
X58309557Y-16134481D01*
X58243373Y-16127963D01*
X58073534Y-16076443D01*
X57917009Y-15992778D01*
X57852520Y-15939853D01*
X57779814Y-15880186D01*
X57696552Y-15778729D01*
X57667222Y-15742991D01*
X57583557Y-15586466D01*
X57532037Y-15416627D01*
X57514641Y-15240000D01*
X57532037Y-15063373D01*
X57583557Y-14893534D01*
X57667222Y-14737009D01*
X57696552Y-14701271D01*
X57779814Y-14599814D01*
X57881271Y-14516552D01*
X57917009Y-14487222D01*
X58073534Y-14403557D01*
X58243373Y-14352037D01*
X58309557Y-14345519D01*
X58375740Y-14339000D01*
X58464260Y-14339000D01*
X58530443Y-14345519D01*
X58530443Y-14345519D01*
G37*
G36*
X38210443Y-14345519D02*
G01*
X38276627Y-14352037D01*
X38446466Y-14403557D01*
X38602991Y-14487222D01*
X38638729Y-14516552D01*
X38740186Y-14599814D01*
X38823448Y-14701271D01*
X38852778Y-14737009D01*
X38936443Y-14893534D01*
X38987963Y-15063373D01*
X39005359Y-15240000D01*
X38987963Y-15416627D01*
X38936443Y-15586466D01*
X38852778Y-15742991D01*
X38823448Y-15778729D01*
X38740186Y-15880186D01*
X38667480Y-15939853D01*
X38602991Y-15992778D01*
X38446466Y-16076443D01*
X38276627Y-16127963D01*
X38210443Y-16134481D01*
X38144260Y-16141000D01*
X38055740Y-16141000D01*
X37989557Y-16134481D01*
X37923373Y-16127963D01*
X37753534Y-16076443D01*
X37597009Y-15992778D01*
X37532520Y-15939853D01*
X37459814Y-15880186D01*
X37376552Y-15778729D01*
X37347222Y-15742991D01*
X37263557Y-15586466D01*
X37212037Y-15416627D01*
X37194641Y-15240000D01*
X37212037Y-15063373D01*
X37263557Y-14893534D01*
X37347222Y-14737009D01*
X37376552Y-14701271D01*
X37459814Y-14599814D01*
X37561271Y-14516552D01*
X37597009Y-14487222D01*
X37753534Y-14403557D01*
X37923373Y-14352037D01*
X37989557Y-14345519D01*
X38055740Y-14339000D01*
X38144260Y-14339000D01*
X38210443Y-14345519D01*
X38210443Y-14345519D01*
G37*
G36*
X35670443Y-14345519D02*
G01*
X35736627Y-14352037D01*
X35906466Y-14403557D01*
X36062991Y-14487222D01*
X36098729Y-14516552D01*
X36200186Y-14599814D01*
X36283448Y-14701271D01*
X36312778Y-14737009D01*
X36396443Y-14893534D01*
X36447963Y-15063373D01*
X36465359Y-15240000D01*
X36447963Y-15416627D01*
X36396443Y-15586466D01*
X36312778Y-15742991D01*
X36283448Y-15778729D01*
X36200186Y-15880186D01*
X36127480Y-15939853D01*
X36062991Y-15992778D01*
X35906466Y-16076443D01*
X35736627Y-16127963D01*
X35670443Y-16134481D01*
X35604260Y-16141000D01*
X35515740Y-16141000D01*
X35449557Y-16134481D01*
X35383373Y-16127963D01*
X35213534Y-16076443D01*
X35057009Y-15992778D01*
X34992520Y-15939853D01*
X34919814Y-15880186D01*
X34836552Y-15778729D01*
X34807222Y-15742991D01*
X34723557Y-15586466D01*
X34672037Y-15416627D01*
X34654641Y-15240000D01*
X34672037Y-15063373D01*
X34723557Y-14893534D01*
X34807222Y-14737009D01*
X34836552Y-14701271D01*
X34919814Y-14599814D01*
X35021271Y-14516552D01*
X35057009Y-14487222D01*
X35213534Y-14403557D01*
X35383373Y-14352037D01*
X35449557Y-14345519D01*
X35515740Y-14339000D01*
X35604260Y-14339000D01*
X35670443Y-14345519D01*
X35670443Y-14345519D01*
G37*
G36*
X33130443Y-14345519D02*
G01*
X33196627Y-14352037D01*
X33366466Y-14403557D01*
X33522991Y-14487222D01*
X33558729Y-14516552D01*
X33660186Y-14599814D01*
X33743448Y-14701271D01*
X33772778Y-14737009D01*
X33856443Y-14893534D01*
X33907963Y-15063373D01*
X33925359Y-15240000D01*
X33907963Y-15416627D01*
X33856443Y-15586466D01*
X33772778Y-15742991D01*
X33743448Y-15778729D01*
X33660186Y-15880186D01*
X33587480Y-15939853D01*
X33522991Y-15992778D01*
X33366466Y-16076443D01*
X33196627Y-16127963D01*
X33130443Y-16134481D01*
X33064260Y-16141000D01*
X32975740Y-16141000D01*
X32909557Y-16134481D01*
X32843373Y-16127963D01*
X32673534Y-16076443D01*
X32517009Y-15992778D01*
X32452520Y-15939853D01*
X32379814Y-15880186D01*
X32296552Y-15778729D01*
X32267222Y-15742991D01*
X32183557Y-15586466D01*
X32132037Y-15416627D01*
X32114641Y-15240000D01*
X32132037Y-15063373D01*
X32183557Y-14893534D01*
X32267222Y-14737009D01*
X32296552Y-14701271D01*
X32379814Y-14599814D01*
X32481271Y-14516552D01*
X32517009Y-14487222D01*
X32673534Y-14403557D01*
X32843373Y-14352037D01*
X32909557Y-14345519D01*
X32975740Y-14339000D01*
X33064260Y-14339000D01*
X33130443Y-14345519D01*
X33130443Y-14345519D01*
G37*
G36*
X30590443Y-14345519D02*
G01*
X30656627Y-14352037D01*
X30826466Y-14403557D01*
X30982991Y-14487222D01*
X31018729Y-14516552D01*
X31120186Y-14599814D01*
X31203448Y-14701271D01*
X31232778Y-14737009D01*
X31316443Y-14893534D01*
X31367963Y-15063373D01*
X31385359Y-15240000D01*
X31367963Y-15416627D01*
X31316443Y-15586466D01*
X31232778Y-15742991D01*
X31203448Y-15778729D01*
X31120186Y-15880186D01*
X31047480Y-15939853D01*
X30982991Y-15992778D01*
X30826466Y-16076443D01*
X30656627Y-16127963D01*
X30590443Y-16134481D01*
X30524260Y-16141000D01*
X30435740Y-16141000D01*
X30369557Y-16134481D01*
X30303373Y-16127963D01*
X30133534Y-16076443D01*
X29977009Y-15992778D01*
X29912520Y-15939853D01*
X29839814Y-15880186D01*
X29756552Y-15778729D01*
X29727222Y-15742991D01*
X29643557Y-15586466D01*
X29592037Y-15416627D01*
X29574641Y-15240000D01*
X29592037Y-15063373D01*
X29643557Y-14893534D01*
X29727222Y-14737009D01*
X29756552Y-14701271D01*
X29839814Y-14599814D01*
X29941271Y-14516552D01*
X29977009Y-14487222D01*
X30133534Y-14403557D01*
X30303373Y-14352037D01*
X30369557Y-14345519D01*
X30435740Y-14339000D01*
X30524260Y-14339000D01*
X30590443Y-14345519D01*
X30590443Y-14345519D01*
G37*
G36*
X28050443Y-14345519D02*
G01*
X28116627Y-14352037D01*
X28286466Y-14403557D01*
X28442991Y-14487222D01*
X28478729Y-14516552D01*
X28580186Y-14599814D01*
X28663448Y-14701271D01*
X28692778Y-14737009D01*
X28776443Y-14893534D01*
X28827963Y-15063373D01*
X28845359Y-15240000D01*
X28827963Y-15416627D01*
X28776443Y-15586466D01*
X28692778Y-15742991D01*
X28663448Y-15778729D01*
X28580186Y-15880186D01*
X28507480Y-15939853D01*
X28442991Y-15992778D01*
X28286466Y-16076443D01*
X28116627Y-16127963D01*
X28050443Y-16134481D01*
X27984260Y-16141000D01*
X27895740Y-16141000D01*
X27829557Y-16134481D01*
X27763373Y-16127963D01*
X27593534Y-16076443D01*
X27437009Y-15992778D01*
X27372520Y-15939853D01*
X27299814Y-15880186D01*
X27216552Y-15778729D01*
X27187222Y-15742991D01*
X27103557Y-15586466D01*
X27052037Y-15416627D01*
X27034641Y-15240000D01*
X27052037Y-15063373D01*
X27103557Y-14893534D01*
X27187222Y-14737009D01*
X27216552Y-14701271D01*
X27299814Y-14599814D01*
X27401271Y-14516552D01*
X27437009Y-14487222D01*
X27593534Y-14403557D01*
X27763373Y-14352037D01*
X27829557Y-14345519D01*
X27895740Y-14339000D01*
X27984260Y-14339000D01*
X28050443Y-14345519D01*
X28050443Y-14345519D01*
G37*
G36*
X25510443Y-14345519D02*
G01*
X25576627Y-14352037D01*
X25746466Y-14403557D01*
X25902991Y-14487222D01*
X25938729Y-14516552D01*
X26040186Y-14599814D01*
X26123448Y-14701271D01*
X26152778Y-14737009D01*
X26236443Y-14893534D01*
X26287963Y-15063373D01*
X26305359Y-15240000D01*
X26287963Y-15416627D01*
X26236443Y-15586466D01*
X26152778Y-15742991D01*
X26123448Y-15778729D01*
X26040186Y-15880186D01*
X25967480Y-15939853D01*
X25902991Y-15992778D01*
X25746466Y-16076443D01*
X25576627Y-16127963D01*
X25510443Y-16134481D01*
X25444260Y-16141000D01*
X25355740Y-16141000D01*
X25289557Y-16134481D01*
X25223373Y-16127963D01*
X25053534Y-16076443D01*
X24897009Y-15992778D01*
X24832520Y-15939853D01*
X24759814Y-15880186D01*
X24676552Y-15778729D01*
X24647222Y-15742991D01*
X24563557Y-15586466D01*
X24512037Y-15416627D01*
X24494641Y-15240000D01*
X24512037Y-15063373D01*
X24563557Y-14893534D01*
X24647222Y-14737009D01*
X24676552Y-14701271D01*
X24759814Y-14599814D01*
X24861271Y-14516552D01*
X24897009Y-14487222D01*
X25053534Y-14403557D01*
X25223373Y-14352037D01*
X25289557Y-14345519D01*
X25355740Y-14339000D01*
X25444260Y-14339000D01*
X25510443Y-14345519D01*
X25510443Y-14345519D01*
G37*
G36*
X22970443Y-14345519D02*
G01*
X23036627Y-14352037D01*
X23206466Y-14403557D01*
X23362991Y-14487222D01*
X23398729Y-14516552D01*
X23500186Y-14599814D01*
X23583448Y-14701271D01*
X23612778Y-14737009D01*
X23696443Y-14893534D01*
X23747963Y-15063373D01*
X23765359Y-15240000D01*
X23747963Y-15416627D01*
X23696443Y-15586466D01*
X23612778Y-15742991D01*
X23583448Y-15778729D01*
X23500186Y-15880186D01*
X23427480Y-15939853D01*
X23362991Y-15992778D01*
X23206466Y-16076443D01*
X23036627Y-16127963D01*
X22970443Y-16134481D01*
X22904260Y-16141000D01*
X22815740Y-16141000D01*
X22749557Y-16134481D01*
X22683373Y-16127963D01*
X22513534Y-16076443D01*
X22357009Y-15992778D01*
X22292520Y-15939853D01*
X22219814Y-15880186D01*
X22136552Y-15778729D01*
X22107222Y-15742991D01*
X22023557Y-15586466D01*
X21972037Y-15416627D01*
X21954641Y-15240000D01*
X21972037Y-15063373D01*
X22023557Y-14893534D01*
X22107222Y-14737009D01*
X22136552Y-14701271D01*
X22219814Y-14599814D01*
X22321271Y-14516552D01*
X22357009Y-14487222D01*
X22513534Y-14403557D01*
X22683373Y-14352037D01*
X22749557Y-14345519D01*
X22815740Y-14339000D01*
X22904260Y-14339000D01*
X22970443Y-14345519D01*
X22970443Y-14345519D01*
G37*
G36*
X20430443Y-14345519D02*
G01*
X20496627Y-14352037D01*
X20666466Y-14403557D01*
X20822991Y-14487222D01*
X20858729Y-14516552D01*
X20960186Y-14599814D01*
X21043448Y-14701271D01*
X21072778Y-14737009D01*
X21156443Y-14893534D01*
X21207963Y-15063373D01*
X21225359Y-15240000D01*
X21207963Y-15416627D01*
X21156443Y-15586466D01*
X21072778Y-15742991D01*
X21043448Y-15778729D01*
X20960186Y-15880186D01*
X20887480Y-15939853D01*
X20822991Y-15992778D01*
X20666466Y-16076443D01*
X20496627Y-16127963D01*
X20430443Y-16134481D01*
X20364260Y-16141000D01*
X20275740Y-16141000D01*
X20209557Y-16134481D01*
X20143373Y-16127963D01*
X19973534Y-16076443D01*
X19817009Y-15992778D01*
X19752520Y-15939853D01*
X19679814Y-15880186D01*
X19596552Y-15778729D01*
X19567222Y-15742991D01*
X19483557Y-15586466D01*
X19432037Y-15416627D01*
X19414641Y-15240000D01*
X19432037Y-15063373D01*
X19483557Y-14893534D01*
X19567222Y-14737009D01*
X19596552Y-14701271D01*
X19679814Y-14599814D01*
X19781271Y-14516552D01*
X19817009Y-14487222D01*
X19973534Y-14403557D01*
X20143373Y-14352037D01*
X20209557Y-14345519D01*
X20275740Y-14339000D01*
X20364260Y-14339000D01*
X20430443Y-14345519D01*
X20430443Y-14345519D01*
G37*
G36*
X17890443Y-14345519D02*
G01*
X17956627Y-14352037D01*
X18126466Y-14403557D01*
X18282991Y-14487222D01*
X18318729Y-14516552D01*
X18420186Y-14599814D01*
X18503448Y-14701271D01*
X18532778Y-14737009D01*
X18616443Y-14893534D01*
X18667963Y-15063373D01*
X18685359Y-15240000D01*
X18667963Y-15416627D01*
X18616443Y-15586466D01*
X18532778Y-15742991D01*
X18503448Y-15778729D01*
X18420186Y-15880186D01*
X18347480Y-15939853D01*
X18282991Y-15992778D01*
X18126466Y-16076443D01*
X17956627Y-16127963D01*
X17890443Y-16134481D01*
X17824260Y-16141000D01*
X17735740Y-16141000D01*
X17669557Y-16134481D01*
X17603373Y-16127963D01*
X17433534Y-16076443D01*
X17277009Y-15992778D01*
X17212520Y-15939853D01*
X17139814Y-15880186D01*
X17056552Y-15778729D01*
X17027222Y-15742991D01*
X16943557Y-15586466D01*
X16892037Y-15416627D01*
X16874641Y-15240000D01*
X16892037Y-15063373D01*
X16943557Y-14893534D01*
X17027222Y-14737009D01*
X17056552Y-14701271D01*
X17139814Y-14599814D01*
X17241271Y-14516552D01*
X17277009Y-14487222D01*
X17433534Y-14403557D01*
X17603373Y-14352037D01*
X17669557Y-14345519D01*
X17735740Y-14339000D01*
X17824260Y-14339000D01*
X17890443Y-14345519D01*
X17890443Y-14345519D01*
G37*
G36*
X15350443Y-14345519D02*
G01*
X15416627Y-14352037D01*
X15586466Y-14403557D01*
X15742991Y-14487222D01*
X15778729Y-14516552D01*
X15880186Y-14599814D01*
X15963448Y-14701271D01*
X15992778Y-14737009D01*
X16076443Y-14893534D01*
X16127963Y-15063373D01*
X16145359Y-15240000D01*
X16127963Y-15416627D01*
X16076443Y-15586466D01*
X15992778Y-15742991D01*
X15963448Y-15778729D01*
X15880186Y-15880186D01*
X15807480Y-15939853D01*
X15742991Y-15992778D01*
X15586466Y-16076443D01*
X15416627Y-16127963D01*
X15350443Y-16134481D01*
X15284260Y-16141000D01*
X15195740Y-16141000D01*
X15129557Y-16134481D01*
X15063373Y-16127963D01*
X14893534Y-16076443D01*
X14737009Y-15992778D01*
X14672520Y-15939853D01*
X14599814Y-15880186D01*
X14516552Y-15778729D01*
X14487222Y-15742991D01*
X14403557Y-15586466D01*
X14352037Y-15416627D01*
X14334641Y-15240000D01*
X14352037Y-15063373D01*
X14403557Y-14893534D01*
X14487222Y-14737009D01*
X14516552Y-14701271D01*
X14599814Y-14599814D01*
X14701271Y-14516552D01*
X14737009Y-14487222D01*
X14893534Y-14403557D01*
X15063373Y-14352037D01*
X15129557Y-14345519D01*
X15195740Y-14339000D01*
X15284260Y-14339000D01*
X15350443Y-14345519D01*
X15350443Y-14345519D01*
G37*
M02*
